%TF.GenerationSoftware,KiCad,Pcbnew,9.0.1*%
%TF.CreationDate,2025-04-17T12:30:49-04:00*%
%TF.ProjectId,IngestibleCapsule-Board_v2,496e6765-7374-4696-926c-654361707375,rev?*%
%TF.SameCoordinates,Original*%
%TF.FileFunction,Copper,L2,Bot*%
%TF.FilePolarity,Positive*%
%FSLAX46Y46*%
G04 Gerber Fmt 4.6, Leading zero omitted, Abs format (unit mm)*
G04 Created by KiCad (PCBNEW 9.0.1) date 2025-04-17 12:30:49*
%MOMM*%
%LPD*%
G01*
G04 APERTURE LIST*
G04 Aperture macros list*
%AMRoundRect*
0 Rectangle with rounded corners*
0 $1 Rounding radius*
0 $2 $3 $4 $5 $6 $7 $8 $9 X,Y pos of 4 corners*
0 Add a 4 corners polygon primitive as box body*
4,1,4,$2,$3,$4,$5,$6,$7,$8,$9,$2,$3,0*
0 Add four circle primitives for the rounded corners*
1,1,$1+$1,$2,$3*
1,1,$1+$1,$4,$5*
1,1,$1+$1,$6,$7*
1,1,$1+$1,$8,$9*
0 Add four rect primitives between the rounded corners*
20,1,$1+$1,$2,$3,$4,$5,0*
20,1,$1+$1,$4,$5,$6,$7,0*
20,1,$1+$1,$6,$7,$8,$9,0*
20,1,$1+$1,$8,$9,$2,$3,0*%
G04 Aperture macros list end*
%TA.AperFunction,ComponentPad*%
%ADD10R,1.700000X1.700000*%
%TD*%
%TA.AperFunction,ComponentPad*%
%ADD11C,1.700000*%
%TD*%
%TA.AperFunction,ComponentPad*%
%ADD12C,1.350000*%
%TD*%
%TA.AperFunction,ComponentPad*%
%ADD13C,1.100000*%
%TD*%
%TA.AperFunction,SMDPad,CuDef*%
%ADD14R,0.600000X1.550000*%
%TD*%
%TA.AperFunction,SMDPad,CuDef*%
%ADD15R,1.200000X1.800000*%
%TD*%
%TA.AperFunction,SMDPad,CuDef*%
%ADD16R,2.400000X1.900000*%
%TD*%
%TA.AperFunction,SMDPad,CuDef*%
%ADD17RoundRect,0.135000X0.135000X0.185000X-0.135000X0.185000X-0.135000X-0.185000X0.135000X-0.185000X0*%
%TD*%
%TA.AperFunction,SMDPad,CuDef*%
%ADD18R,0.700000X0.200000*%
%TD*%
%TA.AperFunction,SMDPad,CuDef*%
%ADD19RoundRect,0.135000X-0.185000X0.135000X-0.185000X-0.135000X0.185000X-0.135000X0.185000X0.135000X0*%
%TD*%
%TA.AperFunction,SMDPad,CuDef*%
%ADD20RoundRect,0.140000X0.170000X-0.140000X0.170000X0.140000X-0.170000X0.140000X-0.170000X-0.140000X0*%
%TD*%
%TA.AperFunction,SMDPad,CuDef*%
%ADD21RoundRect,0.140000X0.140000X0.170000X-0.140000X0.170000X-0.140000X-0.170000X0.140000X-0.170000X0*%
%TD*%
%TA.AperFunction,SMDPad,CuDef*%
%ADD22RoundRect,0.140000X-0.140000X-0.170000X0.140000X-0.170000X0.140000X0.170000X-0.140000X0.170000X0*%
%TD*%
%TA.AperFunction,SMDPad,CuDef*%
%ADD23R,1.800000X1.000000*%
%TD*%
%TA.AperFunction,SMDPad,CuDef*%
%ADD24RoundRect,0.162500X-0.650000X-0.162500X0.650000X-0.162500X0.650000X0.162500X-0.650000X0.162500X0*%
%TD*%
%TA.AperFunction,SMDPad,CuDef*%
%ADD25R,0.200000X0.700000*%
%TD*%
%TA.AperFunction,ViaPad*%
%ADD26C,0.450000*%
%TD*%
%TA.AperFunction,Conductor*%
%ADD27C,0.100000*%
%TD*%
%TA.AperFunction,Conductor*%
%ADD28C,0.250000*%
%TD*%
%TA.AperFunction,Conductor*%
%ADD29C,0.200000*%
%TD*%
%TA.AperFunction,Profile*%
%ADD30C,0.250000*%
%TD*%
G04 APERTURE END LIST*
D10*
%TO.P,J8,1,Pin_1*%
%TO.N,+3.3V*%
X114595000Y-121110000D03*
D11*
%TO.P,J8,2,Pin_2*%
%TO.N,GND*%
X114595000Y-118570000D03*
%TD*%
D10*
%TO.P,J7,1,Pin_1*%
%TO.N,+3.3V*%
X110000000Y-122500000D03*
D11*
%TO.P,J7,2,Pin_2*%
%TO.N,GND*%
X110000000Y-120000000D03*
%TO.P,J7,3,Pin_3*%
%TO.N,unconnected-(J7-Pin_3-Pad3)*%
X110000000Y-117500000D03*
%TD*%
D12*
%TO.P,U2,1,SDA*%
%TO.N,/MCU_I2C_SDA*%
X111000000Y-101000000D03*
%TO.P,U2,2,VDD*%
%TO.N,+3.3V*%
X113065000Y-96015000D03*
D13*
%TO.P,U2,3,GND*%
%TO.N,GND*%
X111000000Y-95160000D03*
D12*
%TO.P,U2,4,SCL*%
%TO.N,/MCU_I2C_SCL*%
X108935000Y-100145000D03*
%TD*%
D14*
%TO.P,J6,1,Pin_1*%
%TO.N,/RF Transceiver/RFN*%
X90500000Y-114663000D03*
%TO.P,J6,2,Pin_2*%
%TO.N,/RF Transceiver/RFP*%
X89500000Y-114663000D03*
D15*
%TO.P,J6,MP1*%
%TO.N,N/C*%
X91800000Y-117188000D03*
%TO.P,J6,MP2*%
X88200000Y-117188000D03*
%TD*%
D16*
%TO.P,Y1,1,1*%
%TO.N,Net-(C10-Pad2)*%
X87250000Y-100550000D03*
%TO.P,Y1,2,2*%
%TO.N,Net-(U1-PF0)*%
X87250000Y-96450000D03*
%TD*%
D17*
%TO.P,R3,1*%
%TO.N,Net-(C10-Pad2)*%
X87050000Y-102250000D03*
%TO.P,R3,2*%
%TO.N,Net-(U1-PF1)*%
X86030000Y-102250000D03*
%TD*%
D18*
%TO.P,J2,*%
%TO.N,*%
X112960000Y-102000000D03*
X116040000Y-102000000D03*
X112960000Y-98000000D03*
X116040000Y-98000000D03*
%TO.P,J2,1,1*%
%TO.N,GND*%
X112960000Y-100800000D03*
%TO.P,J2,2,2*%
X116040000Y-100800000D03*
%TO.P,J2,3,3*%
%TO.N,/MCU_I2C_SDA*%
X112960000Y-100400000D03*
%TO.P,J2,4,4*%
X116040000Y-100400000D03*
%TO.P,J2,5,5*%
%TO.N,/MCU_I2C_SCL*%
X112960000Y-100000000D03*
%TO.P,J2,6,6*%
X116040000Y-100000000D03*
%TO.P,J2,7,7*%
%TO.N,+3.3V*%
X112960000Y-99600000D03*
%TO.P,J2,8,8*%
X116040000Y-99600000D03*
%TO.P,J2,9,9*%
%TO.N,unconnected-(J2-Pad9)*%
X112960000Y-99200000D03*
%TO.P,J2,10,10*%
%TO.N,unconnected-(J2-Pad10)*%
X116040000Y-99200000D03*
%TD*%
D17*
%TO.P,R1,1*%
%TO.N,/Processor/NRST*%
X92620000Y-94800000D03*
%TO.P,R1,2*%
%TO.N,GND*%
X91600000Y-94800000D03*
%TD*%
D19*
%TO.P,R8,1*%
%TO.N,+3.3V*%
X84600000Y-122290000D03*
%TO.P,R8,2*%
%TO.N,/MCU_MEM_CS*%
X84600000Y-123310000D03*
%TD*%
D20*
%TO.P,C15,1*%
%TO.N,+3.3V*%
X95300000Y-123480000D03*
%TO.P,C15,2*%
%TO.N,GND*%
X95300000Y-122520000D03*
%TD*%
D21*
%TO.P,C2,1*%
%TO.N,/Processor/NRST*%
X92610000Y-95950000D03*
%TO.P,C2,2*%
%TO.N,GND*%
X91650000Y-95950000D03*
%TD*%
%TO.P,C9,1*%
%TO.N,GND*%
X88480000Y-94800000D03*
%TO.P,C9,2*%
%TO.N,Net-(U1-PF0)*%
X87520000Y-94800000D03*
%TD*%
D22*
%TO.P,C12,1*%
%TO.N,GND*%
X89570000Y-100200000D03*
%TO.P,C12,2*%
%TO.N,Net-(U1-PC15)*%
X90530000Y-100200000D03*
%TD*%
D23*
%TO.P,Y2,1,1*%
%TO.N,Net-(U1-PC15)*%
X90080000Y-98970000D03*
%TO.P,Y2,2,2*%
%TO.N,Net-(U1-PC14)*%
X90080000Y-96470000D03*
%TD*%
D24*
%TO.P,U4,1,~{CS}*%
%TO.N,/MCU_MEM_CS*%
X86412500Y-123600000D03*
%TO.P,U4,2,DO/IO_{1}*%
%TO.N,/MCU_SPI_MISO*%
X86412500Y-122330000D03*
%TO.P,U4,3,~{WP}/IO_{2}*%
%TO.N,+3.3V*%
X86412500Y-121060000D03*
%TO.P,U4,4,GND*%
%TO.N,GND*%
X86412500Y-119790000D03*
%TO.P,U4,5,DI/IO_{0}*%
%TO.N,/MCU_SPI_MOSI*%
X93587500Y-119790000D03*
%TO.P,U4,6,CLK*%
%TO.N,/MCU_SPI_SCK*%
X93587500Y-121060000D03*
%TO.P,U4,7,~{HOLD}/~{RESET}/IO_{3}*%
%TO.N,+3.3V*%
X93587500Y-122330000D03*
%TO.P,U4,8,VCC*%
X93587500Y-123600000D03*
%TD*%
D22*
%TO.P,C10,1*%
%TO.N,GND*%
X86070000Y-103400000D03*
%TO.P,C10,2*%
%TO.N,Net-(C10-Pad2)*%
X87030000Y-103400000D03*
%TD*%
%TO.P,C11,1*%
%TO.N,GND*%
X89570000Y-94800000D03*
%TO.P,C11,2*%
%TO.N,Net-(U1-PC14)*%
X90530000Y-94800000D03*
%TD*%
D25*
%TO.P,J3,*%
%TO.N,*%
X92000000Y-106040000D03*
X92000000Y-102960000D03*
X88000000Y-106040000D03*
X88000000Y-102960000D03*
%TO.P,J3,1,1*%
%TO.N,GND*%
X90800000Y-106040000D03*
%TO.P,J3,2,2*%
X90800000Y-102960000D03*
%TO.P,J3,3,3*%
%TO.N,/MCU_SPI_SCK*%
X90400000Y-106040000D03*
%TO.P,J3,4,4*%
%TO.N,/MCU_SPI_MISO*%
X90400000Y-102960000D03*
%TO.P,J3,5,5*%
%TO.N,/MCU_RF_CS*%
X90000000Y-106040000D03*
%TO.P,J3,6,6*%
%TO.N,/MCU_SPI_MOSI*%
X90000000Y-102960000D03*
%TO.P,J3,7,7*%
%TO.N,/MCU_RF_IRQ*%
X89600000Y-106040000D03*
%TO.P,J3,8,8*%
%TO.N,/MCU_MEM_CS*%
X89600000Y-102960000D03*
%TO.P,J3,9,9*%
%TO.N,+3.3V*%
X89200000Y-106040000D03*
%TO.P,J3,10,10*%
X89200000Y-102960000D03*
%TD*%
D26*
%TO.N,/MCU_SPI_MOSI*%
X90025000Y-122289000D03*
%TO.N,/MCU_SPI_MISO*%
X87910000Y-123020000D03*
%TO.N,/MCU_RF_CS*%
X90210000Y-125080000D03*
%TO.N,/MCU_SPI_SCK*%
X90800000Y-125150000D03*
%TO.N,Net-(U1-PF0)*%
X84074519Y-96815935D03*
%TO.N,GND*%
X86550000Y-94350000D03*
X93850000Y-101850000D03*
X92944834Y-114705166D03*
X114820000Y-101160000D03*
X89570000Y-100980000D03*
X85150000Y-119750000D03*
X85632434Y-101384433D03*
X95300000Y-121850000D03*
X93650000Y-96200000D03*
X88400000Y-78750000D03*
X89890000Y-97520000D03*
X87425000Y-120275000D03*
X90450000Y-101850000D03*
X91200000Y-105400000D03*
%TO.N,Net-(U1-PC14)*%
X84002473Y-98153897D03*
%TO.N,Net-(U1-PC15)*%
X83699000Y-99165000D03*
%TO.N,+3.3V*%
X116650000Y-101200000D03*
X93500000Y-124325000D03*
X87225000Y-121550000D03*
X111270000Y-105940000D03*
X93950000Y-104000000D03*
X107300000Y-104350000D03*
X84610000Y-96690000D03*
X92150000Y-94000000D03*
X88710000Y-105980000D03*
X94150000Y-97950000D03*
X89010000Y-104060000D03*
X103900000Y-102350000D03*
X85250000Y-122800000D03*
X92240000Y-97290000D03*
X93700000Y-117175000D03*
X94050000Y-99150000D03*
X90900000Y-78700000D03*
%TO.N,/Processor/NRST*%
X89700000Y-78700000D03*
X83725000Y-100650000D03*
%TO.N,/MCU_I2C_SCL*%
X96520000Y-100010000D03*
%TO.N,/MCU_I2C_SDA*%
X105685583Y-100654371D03*
X104055000Y-101094834D03*
%TO.N,/MCU_MEM_CS*%
X87388702Y-105888373D03*
X83920000Y-122340000D03*
X88400039Y-104193212D03*
X89600000Y-123790000D03*
X85910000Y-124250000D03*
%TO.N,/MCU_RF_IRQ*%
X83790000Y-102250000D03*
X89080000Y-106735000D03*
X87761881Y-114465000D03*
X88128266Y-120625002D03*
X89620000Y-125170000D03*
%TO.N,/MCU_SPI_MISO*%
X86515000Y-114983788D03*
X85933319Y-104181737D03*
%TO.N,/MCU_RF_CS*%
X88450166Y-121519834D03*
X86273584Y-105275000D03*
%TO.N,/RF Transceiver/RFN*%
X90500000Y-115750000D03*
%TO.N,/RF Transceiver/RFP*%
X89550000Y-115700000D03*
%TO.N,Net-(U1-PF1)*%
X83730851Y-101199972D03*
%TO.N,Net-(U3-SDO{slash}ADDR)*%
X107100000Y-101550000D03*
X106000000Y-99600000D03*
%TO.N,/MCU_SPI_MOSI*%
X91314684Y-113525000D03*
X91175000Y-124245519D03*
X86511701Y-104167031D03*
%TO.N,/MCU_SPI_SCK*%
X89462514Y-121773940D03*
X85250000Y-104250000D03*
%TD*%
D27*
%TO.N,/MCU_SPI_MOSI*%
X91049000Y-122289000D02*
X91180000Y-122420000D01*
X91180000Y-122420000D02*
X91180000Y-124240519D01*
X90025000Y-122289000D02*
X91049000Y-122289000D01*
X91180000Y-124240519D02*
X91175000Y-124245519D01*
X91180000Y-122190000D02*
X91180000Y-122420000D01*
X94551000Y-121356858D02*
X94307858Y-121600000D01*
X94307858Y-121600000D02*
X91770000Y-121600000D01*
X91770000Y-121600000D02*
X91180000Y-122190000D01*
X93587500Y-119790000D02*
X94551000Y-120753500D01*
X94551000Y-120753500D02*
X94551000Y-121356858D01*
%TO.N,/MCU_SPI_MISO*%
X87102500Y-123020000D02*
X87910000Y-123020000D01*
X86412500Y-122330000D02*
X87102500Y-123020000D01*
X87224999Y-122330000D02*
X86412500Y-122330000D01*
X87601000Y-121953999D02*
X87224999Y-122330000D01*
X87601000Y-120988142D02*
X87601000Y-121953999D01*
X84774000Y-120214000D02*
X85144000Y-120584000D01*
X85144000Y-120584000D02*
X87196858Y-120584000D01*
X87196858Y-120584000D02*
X87601000Y-120988142D01*
X84774000Y-116724788D02*
X84774000Y-120214000D01*
X86515000Y-114983788D02*
X84774000Y-116724788D01*
%TO.N,/MCU_RF_CS*%
X90210000Y-123450000D02*
X90210000Y-125080000D01*
X88450166Y-121690166D02*
X90210000Y-123450000D01*
X88450166Y-121519834D02*
X88450166Y-121690166D01*
%TO.N,/MCU_RF_IRQ*%
X87910000Y-120843268D02*
X88128266Y-120625002D01*
X87910000Y-121510000D02*
X87910000Y-120843268D01*
X89990000Y-123590000D02*
X87910000Y-121510000D01*
X89620000Y-124880000D02*
X89990000Y-124510000D01*
X89620000Y-125170000D02*
X89620000Y-124880000D01*
X89990000Y-124510000D02*
X89990000Y-123590000D01*
%TO.N,/MCU_SPI_SCK*%
X89462514Y-121773940D02*
X89646060Y-121773940D01*
X90060000Y-121360000D02*
X90960000Y-121360000D01*
X90800000Y-123740000D02*
X90800000Y-125150000D01*
X89646060Y-121773940D02*
X90060000Y-121360000D01*
X89462514Y-121773940D02*
X89462514Y-122402514D01*
X89462514Y-122402514D02*
X90800000Y-123740000D01*
%TO.N,/MCU_MEM_CS*%
X89410000Y-123600000D02*
X86412500Y-123600000D01*
X89600000Y-123790000D02*
X89410000Y-123600000D01*
%TO.N,Net-(U1-PF0)*%
X87250000Y-96450000D02*
X87250000Y-95070000D01*
X84074519Y-96815935D02*
X84074519Y-96465481D01*
X86720000Y-95920000D02*
X87250000Y-96450000D01*
X87250000Y-95070000D02*
X87520000Y-94800000D01*
X84074519Y-96465481D02*
X84620000Y-95920000D01*
X84620000Y-95920000D02*
X86720000Y-95920000D01*
%TO.N,GND*%
X116040000Y-100800000D02*
X115250000Y-100800000D01*
X115180000Y-100800000D02*
X115250000Y-100800000D01*
X91680000Y-106920000D02*
X90800000Y-106040000D01*
X90800000Y-102200000D02*
X90450000Y-101850000D01*
X88900000Y-92650000D02*
X90250000Y-94000000D01*
X91650000Y-95900000D02*
X91600000Y-95850000D01*
X88480000Y-94800000D02*
X88019000Y-94339000D01*
X89570000Y-100200000D02*
X89570000Y-100980000D01*
X85190000Y-119790000D02*
X85150000Y-119750000D01*
X91650000Y-95950000D02*
X91650000Y-96602000D01*
X90937500Y-94112500D02*
X91600000Y-94775000D01*
X90800000Y-102960000D02*
X90800000Y-102200000D01*
X86561000Y-94339000D02*
X86550000Y-94350000D01*
X91650000Y-96602000D02*
X90732000Y-97520000D01*
X91200000Y-105640000D02*
X90800000Y-106040000D01*
X91200000Y-105400000D02*
X91200000Y-105640000D01*
X90800000Y-106040000D02*
X90800000Y-102960000D01*
X86310000Y-101670000D02*
X86510000Y-101870000D01*
X91650000Y-95950000D02*
X91650000Y-95900000D01*
X86412500Y-119790000D02*
X85190000Y-119790000D01*
X93650000Y-96200000D02*
X93439000Y-96411000D01*
X85918000Y-101670000D02*
X86310000Y-101670000D01*
X88900000Y-79250000D02*
X88900000Y-92650000D01*
X87425000Y-120275000D02*
X86897500Y-120275000D01*
X115250000Y-100800000D02*
X112960000Y-100800000D01*
X92111000Y-96411000D02*
X91650000Y-95950000D01*
X86510000Y-101870000D02*
X86510000Y-102960000D01*
X89570000Y-94800000D02*
X89570000Y-94680000D01*
X91600000Y-95850000D02*
X91600000Y-94800000D01*
X93439000Y-96411000D02*
X92111000Y-96411000D01*
X86897500Y-120275000D02*
X86412500Y-119790000D01*
X90775000Y-94112500D02*
X90937500Y-94112500D01*
X90362500Y-94112500D02*
X90775000Y-94112500D01*
X90250000Y-94000000D02*
X90362500Y-94112500D01*
X86510000Y-102960000D02*
X86070000Y-103400000D01*
X93850000Y-101850000D02*
X90450000Y-101850000D01*
X92944834Y-114705166D02*
X91680000Y-113440332D01*
X85632434Y-101384433D02*
X85918000Y-101670000D01*
X89570000Y-94800000D02*
X88480000Y-94800000D01*
X88400000Y-78750000D02*
X88900000Y-79250000D01*
X89570000Y-94680000D02*
X90250000Y-94000000D01*
X88019000Y-94339000D02*
X86561000Y-94339000D01*
X91680000Y-113440332D02*
X91680000Y-106920000D01*
X90732000Y-97520000D02*
X89890000Y-97520000D01*
X114820000Y-101160000D02*
X115180000Y-100800000D01*
X91600000Y-94775000D02*
X91600000Y-94800000D01*
X95300000Y-122520000D02*
X95300000Y-121850000D01*
%TO.N,Net-(U1-PC14)*%
X88660000Y-97890000D02*
X90080000Y-96470000D01*
X84002473Y-98153897D02*
X84002473Y-97994908D01*
X90530000Y-94800000D02*
X90530000Y-96020000D01*
X84107381Y-97890000D02*
X88660000Y-97890000D01*
X84002473Y-97994908D02*
X84107381Y-97890000D01*
X90530000Y-96020000D02*
X90080000Y-96470000D01*
%TO.N,Net-(U1-PC15)*%
X83789000Y-99075000D02*
X89975000Y-99075000D01*
X90080000Y-98970000D02*
X90080000Y-99750000D01*
X89975000Y-99075000D02*
X90080000Y-98970000D01*
X90080000Y-99750000D02*
X90530000Y-100200000D01*
X83699000Y-99165000D02*
X83789000Y-99075000D01*
%TO.N,+3.3V*%
X88710000Y-105980000D02*
X88770000Y-106040000D01*
X92305416Y-99150000D02*
X94050000Y-99150000D01*
X91634000Y-97896000D02*
X92240000Y-97290000D01*
D28*
X94970000Y-79980000D02*
X108990000Y-79980000D01*
D27*
X84610000Y-97014625D02*
X83626473Y-97998152D01*
X111538141Y-101630000D02*
X108818141Y-104350000D01*
X95300000Y-120600000D02*
X95300000Y-121318255D01*
D28*
X96050000Y-122610000D02*
X96050000Y-121080000D01*
D27*
X93700000Y-117175000D02*
X94950000Y-118425000D01*
X93587500Y-124237500D02*
X93500000Y-124325000D01*
X116650000Y-101200000D02*
X116650000Y-99760000D01*
X88770000Y-106040000D02*
X89200000Y-106040000D01*
X111400000Y-94350000D02*
X109020000Y-94350000D01*
X116220000Y-101630000D02*
X111538141Y-101630000D01*
X91150000Y-93000000D02*
X91150000Y-78950000D01*
X116650000Y-99760000D02*
X116490000Y-99600000D01*
X103900000Y-102350000D02*
X105300000Y-102350000D01*
X94226000Y-99660000D02*
X94226000Y-103724000D01*
X86735000Y-121060000D02*
X86412500Y-121060000D01*
X85250000Y-122800000D02*
X85110000Y-122800000D01*
D28*
X110030000Y-81020000D02*
X110030000Y-92980000D01*
D27*
X89090000Y-104060000D02*
X89200000Y-103950000D01*
X112960000Y-99600000D02*
X114900000Y-99600000D01*
X113065000Y-96015000D02*
X114900000Y-97850000D01*
X83626473Y-98309642D02*
X83846728Y-98529897D01*
X94150000Y-97950000D02*
X94150000Y-99050000D01*
X85182500Y-122290000D02*
X86412500Y-121060000D01*
X116650000Y-101200000D02*
X116220000Y-101630000D01*
X114900000Y-99600000D02*
X116040000Y-99600000D01*
X95180000Y-123600000D02*
X95300000Y-123480000D01*
D28*
X95300000Y-123480000D02*
X95300000Y-123360000D01*
D27*
X89010000Y-102445416D02*
X92305416Y-99150000D01*
D28*
X90900000Y-78700000D02*
X93690000Y-78700000D01*
D27*
X89219744Y-97896000D02*
X91634000Y-97896000D01*
D28*
X95300000Y-123360000D02*
X96050000Y-122610000D01*
D27*
X94288255Y-122330000D02*
X93587500Y-122330000D01*
X94226000Y-99326000D02*
X94226000Y-99660000D01*
X92150000Y-94000000D02*
X91150000Y-93000000D01*
D28*
X110000000Y-115690000D02*
X110000000Y-107210000D01*
D27*
X103925000Y-99445000D02*
X103920000Y-99440000D01*
X95300000Y-121318255D02*
X94288255Y-122330000D01*
X84610000Y-96690000D02*
X84610000Y-97014625D01*
D28*
X110000000Y-107210000D02*
X111270000Y-105940000D01*
D27*
X89010000Y-104060000D02*
X89090000Y-104060000D01*
X108818141Y-104350000D02*
X107300000Y-104350000D01*
X105300000Y-102350000D02*
X107300000Y-104350000D01*
X83846728Y-98529897D02*
X88585847Y-98529897D01*
D28*
X108870000Y-116820000D02*
X110000000Y-115690000D01*
D27*
X94050000Y-99150000D02*
X94226000Y-99326000D01*
X93587500Y-123600000D02*
X95180000Y-123600000D01*
D28*
X107500000Y-120000000D02*
X110000000Y-122500000D01*
D27*
X94950000Y-120250000D02*
X95300000Y-120600000D01*
D28*
X97130000Y-120000000D02*
X107500000Y-120000000D01*
D27*
X116490000Y-99600000D02*
X116040000Y-99600000D01*
X94950000Y-118425000D02*
X94950000Y-120250000D01*
X93587500Y-123600000D02*
X93587500Y-124237500D01*
X114900000Y-97850000D02*
X114900000Y-99600000D01*
X88585847Y-98529897D02*
X89219744Y-97896000D01*
X113065000Y-96015000D02*
X111400000Y-94350000D01*
X89010000Y-104060000D02*
X89010000Y-102445416D01*
D28*
X110000000Y-122500000D02*
X108870000Y-121370000D01*
D27*
X93587500Y-122330000D02*
X93587500Y-123600000D01*
X87225000Y-121550000D02*
X86735000Y-121060000D01*
D28*
X96050000Y-121080000D02*
X97130000Y-120000000D01*
D27*
X109020000Y-94350000D02*
X103925000Y-99445000D01*
D28*
X93690000Y-78700000D02*
X94970000Y-79980000D01*
D27*
X91150000Y-78950000D02*
X90900000Y-78700000D01*
D28*
X108990000Y-79980000D02*
X110030000Y-81020000D01*
D27*
X94226000Y-103724000D02*
X93950000Y-104000000D01*
X94226000Y-99440000D02*
X103920000Y-99440000D01*
D28*
X110030000Y-92980000D02*
X113065000Y-96015000D01*
D27*
X89200000Y-103950000D02*
X89200000Y-102960000D01*
X83626473Y-97998152D02*
X83626473Y-98309642D01*
X94150000Y-99050000D02*
X94050000Y-99150000D01*
X85110000Y-122800000D02*
X84600000Y-122290000D01*
D28*
X108870000Y-121370000D02*
X108870000Y-116820000D01*
D27*
X84600000Y-122290000D02*
X85182500Y-122290000D01*
%TO.N,/Processor/NRST*%
X94234000Y-95824000D02*
X92736000Y-95824000D01*
X91712706Y-94250000D02*
X90000000Y-92537294D01*
X83463255Y-98780000D02*
X88620000Y-98780000D01*
X94715000Y-96305000D02*
X94234000Y-95824000D01*
X90000000Y-79000000D02*
X89700000Y-78700000D01*
X83324000Y-98919255D02*
X83463255Y-98780000D01*
X83324000Y-100249000D02*
X83324000Y-98919255D01*
X92610000Y-94810000D02*
X92620000Y-94800000D01*
X90000000Y-92537294D02*
X90000000Y-79000000D01*
X92736000Y-95824000D02*
X92610000Y-95950000D01*
X91864104Y-94250000D02*
X91712706Y-94250000D01*
X92620000Y-94800000D02*
X92414104Y-94800000D01*
X89170000Y-98230000D02*
X92790000Y-98230000D01*
X92414104Y-94800000D02*
X91864104Y-94250000D01*
X83725000Y-100650000D02*
X83324000Y-100249000D01*
X92790000Y-98230000D02*
X94715000Y-96305000D01*
X88620000Y-98780000D02*
X89170000Y-98230000D01*
X92610000Y-95950000D02*
X92610000Y-94810000D01*
%TO.N,/MCU_I2C_SCL*%
X109080000Y-100000000D02*
X108935000Y-100145000D01*
X108014000Y-99224000D02*
X108935000Y-100145000D01*
X97040000Y-100530000D02*
X104538255Y-100530000D01*
X116040000Y-100000000D02*
X112960000Y-100000000D01*
X112960000Y-100000000D02*
X109080000Y-100000000D01*
X105844255Y-99224000D02*
X108014000Y-99224000D01*
X96520000Y-100010000D02*
X97040000Y-100530000D01*
X104538255Y-100530000D02*
X105844255Y-99224000D01*
%TO.N,/MCU_I2C_SDA*%
X105203286Y-100671714D02*
X104780166Y-101094834D01*
X112960000Y-100400000D02*
X111600000Y-100400000D01*
X105668240Y-100671714D02*
X105203286Y-100671714D01*
X111600000Y-100400000D02*
X111000000Y-101000000D01*
X112960000Y-100400000D02*
X116040000Y-100400000D01*
X104780166Y-101094834D02*
X104055000Y-101094834D01*
X105685583Y-100654371D02*
X105668240Y-100671714D01*
%TO.N,/MCU_MEM_CS*%
X89600000Y-104000000D02*
X89600000Y-102960000D01*
X86139000Y-114831000D02*
X84450000Y-116520000D01*
X86122500Y-123310000D02*
X86412500Y-123600000D01*
X86412500Y-123747500D02*
X85910000Y-124250000D01*
X87388702Y-106180702D02*
X88350000Y-107142000D01*
X88646827Y-104440000D02*
X89160000Y-104440000D01*
X86359255Y-114607788D02*
X86139000Y-114828043D01*
X88350000Y-113330000D02*
X87072212Y-114607788D01*
X89160000Y-104440000D02*
X89600000Y-104000000D01*
X86412500Y-123600000D02*
X86412500Y-123747500D01*
X87388702Y-105888373D02*
X87388702Y-106180702D01*
X84129000Y-122131000D02*
X83920000Y-122340000D01*
X84391000Y-121869000D02*
X84292792Y-121869000D01*
X87072212Y-114607788D02*
X86359255Y-114607788D01*
X84129000Y-122032792D02*
X84129000Y-122131000D01*
X86139000Y-114828043D02*
X86139000Y-114831000D01*
X88400039Y-104193212D02*
X88646827Y-104440000D01*
X84450000Y-121810000D02*
X84391000Y-121869000D01*
X84292792Y-121869000D02*
X84129000Y-122032792D01*
X88350000Y-107142000D02*
X88350000Y-113330000D01*
X84600000Y-123310000D02*
X86122500Y-123310000D01*
X84450000Y-116520000D02*
X84450000Y-121810000D01*
%TO.N,/MCU_RF_IRQ*%
X86566956Y-105513373D02*
X86429329Y-105651000D01*
X89600000Y-106040000D02*
X89600000Y-105590000D01*
X84170000Y-102630000D02*
X83790000Y-102250000D01*
X84170000Y-103701745D02*
X84170000Y-102630000D01*
X85897584Y-105429329D02*
X84170000Y-103701745D01*
X85897584Y-105430745D02*
X85897584Y-105429329D01*
X86117839Y-105651000D02*
X85897584Y-105430745D01*
X87449000Y-119767255D02*
X88128266Y-120446521D01*
X87449000Y-114777881D02*
X87449000Y-119767255D01*
X89080000Y-106735000D02*
X89205000Y-106735000D01*
X89600000Y-106340000D02*
X89600000Y-106040000D01*
X89523373Y-105513373D02*
X86566956Y-105513373D01*
X87761881Y-114465000D02*
X87449000Y-114777881D01*
X89600000Y-105590000D02*
X89523373Y-105513373D01*
X86429329Y-105651000D02*
X86117839Y-105651000D01*
X88128266Y-120446521D02*
X88128266Y-120625002D01*
X89205000Y-106735000D02*
X89600000Y-106340000D01*
%TO.N,/MCU_SPI_MISO*%
X86902414Y-104842000D02*
X89377000Y-104842000D01*
X86294613Y-104543031D02*
X86603445Y-104543031D01*
X85933319Y-104181737D02*
X86294613Y-104543031D01*
X90400000Y-103819000D02*
X90400000Y-102960000D01*
X86603445Y-104543031D02*
X86902414Y-104842000D01*
X89377000Y-104842000D02*
X90400000Y-103819000D01*
%TO.N,/MCU_RF_CS*%
X89050000Y-120920000D02*
X88450166Y-121519834D01*
X89440000Y-113410000D02*
X89050000Y-113800000D01*
X89720000Y-105310000D02*
X90000000Y-105590000D01*
X86308584Y-105310000D02*
X89720000Y-105310000D01*
X89440000Y-106900000D02*
X89440000Y-113410000D01*
X90000000Y-105590000D02*
X90000000Y-106040000D01*
X90000000Y-106340000D02*
X89440000Y-106900000D01*
X90000000Y-106040000D02*
X90000000Y-106340000D01*
X89050000Y-113800000D02*
X89050000Y-120920000D01*
X86273584Y-105275000D02*
X86308584Y-105310000D01*
D29*
%TO.N,/RF Transceiver/RFN*%
X90500000Y-114663000D02*
X90500000Y-115750000D01*
%TO.N,/RF Transceiver/RFP*%
X89500000Y-115650000D02*
X89550000Y-115700000D01*
X89500000Y-114663000D02*
X89500000Y-115650000D01*
D27*
%TO.N,Net-(U1-PF1)*%
X83730851Y-101199972D02*
X83730879Y-101200000D01*
X85950000Y-102250000D02*
X86030000Y-102250000D01*
X83730879Y-101200000D02*
X84900000Y-101200000D01*
X84900000Y-101200000D02*
X85950000Y-102250000D01*
%TO.N,Net-(U3-SDO{slash}ADDR)*%
X106000000Y-100450000D02*
X107100000Y-101550000D01*
X106000000Y-99600000D02*
X106000000Y-100450000D01*
%TO.N,Net-(C10-Pad2)*%
X87250000Y-102050000D02*
X87050000Y-102250000D01*
X87050000Y-103380000D02*
X87030000Y-103400000D01*
X87050000Y-102250000D02*
X87050000Y-103380000D01*
X87250000Y-100550000D02*
X87250000Y-102050000D01*
%TO.N,/MCU_SPI_MOSI*%
X86985670Y-104641000D02*
X89243257Y-104641000D01*
X93587500Y-119790000D02*
X92551000Y-118753500D01*
X92551000Y-114761316D02*
X91314684Y-113525000D01*
X89243257Y-104641000D02*
X90000000Y-103884257D01*
X86511701Y-104167031D02*
X86985670Y-104641000D01*
X92551000Y-118753500D02*
X92551000Y-114761316D01*
X90000000Y-103884257D02*
X90000000Y-102960000D01*
%TO.N,/MCU_SPI_SCK*%
X89920000Y-105110000D02*
X90400000Y-105590000D01*
X90960000Y-113746000D02*
X90960000Y-121360000D01*
X86429329Y-104899000D02*
X86640329Y-105110000D01*
X90400000Y-106040000D02*
X90500000Y-106140000D01*
X93287500Y-121360000D02*
X93587500Y-121060000D01*
X85250000Y-104250000D02*
X85899000Y-104899000D01*
X85899000Y-104899000D02*
X86429329Y-104899000D01*
X86640329Y-105110000D02*
X89920000Y-105110000D01*
X90400000Y-105590000D02*
X90400000Y-106040000D01*
X90500000Y-106140000D02*
X90500000Y-113286000D01*
X90960000Y-121360000D02*
X93287500Y-121360000D01*
X90500000Y-113286000D02*
X90960000Y-113746000D01*
%TD*%
D30*
X87363636Y-87021366D02*
G75*
G02*
X97079062Y-77522727I2636364J7021366D01*
G01*
X111975000Y-107787000D02*
X111975000Y-112213032D01*
X108025000Y-112213000D02*
G75*
G02*
X107522717Y-112920910I-750000J0D01*
G01*
X97079062Y-122477273D02*
G75*
G02*
X86863636Y-113187275I-7079062J2477273D01*
G01*
X92636364Y-92978634D02*
G75*
G02*
X92150003Y-92276500I263636J702134D01*
G01*
X112477273Y-92920938D02*
G75*
G02*
X111975064Y-92213032I247727J707838D01*
G01*
X107522727Y-107079062D02*
G75*
G02*
X108024936Y-107786968I-247727J-707838D01*
G01*
X97582900Y-97500000D02*
G75*
G02*
X96893544Y-97045446I0J750000D01*
G01*
X112477273Y-112920938D02*
G75*
G02*
X111975064Y-112213032I247727J707838D01*
G01*
X97582875Y-102500000D02*
X102417100Y-102500000D01*
X102920938Y-117522727D02*
G75*
G02*
X107522727Y-112920938I7079062J-2477273D01*
G01*
X112477273Y-112920938D02*
G75*
G02*
X102920938Y-122477273I-2477273J-7079062D01*
G01*
X103106477Y-97045455D02*
G75*
G02*
X107522727Y-92920938I6893523J-2954545D01*
G01*
X97787000Y-118025000D02*
X102213032Y-118025000D01*
X108025000Y-92213000D02*
G75*
G02*
X107522717Y-92920910I-750000J0D01*
G01*
X96893523Y-102954545D02*
G75*
G02*
X93136364Y-106812725I-6893523J2954545D01*
G01*
X92700000Y-107494000D02*
G75*
G02*
X93136365Y-106812727I750000J0D01*
G01*
X93136364Y-113187275D02*
G75*
G02*
X92699998Y-112506000I313636J681275D01*
G01*
X92700000Y-107494000D02*
X92700000Y-112506000D01*
X103106477Y-97045455D02*
G75*
G02*
X102417125Y-97499931I-689277J295455D01*
G01*
X97786968Y-121975000D02*
X102213000Y-121975000D01*
X97787000Y-118025000D02*
G75*
G02*
X97079090Y-117522717I0J750000D01*
G01*
X97079062Y-82477273D02*
G75*
G02*
X92636364Y-87021366I-7079062J2477273D01*
G01*
X111975000Y-92213032D02*
X111975000Y-78775000D01*
X97786968Y-81975000D02*
X107275000Y-81975000D01*
X93136364Y-113187275D02*
G75*
G02*
X97079062Y-117522727I-3136364J-6812725D01*
G01*
X92150000Y-87723500D02*
G75*
G02*
X92636363Y-87021364I750000J0D01*
G01*
X86863636Y-106812725D02*
G75*
G02*
X87363636Y-92978634I3136364J6812725D01*
G01*
X87850000Y-87723500D02*
X87850000Y-92276500D01*
X97787000Y-78025000D02*
X111225000Y-78025000D01*
X97582900Y-97500000D02*
X102417125Y-97500000D01*
X97787000Y-78025000D02*
G75*
G02*
X97079090Y-77522717I0J750000D01*
G01*
X102213000Y-121975000D02*
G75*
G02*
X102920910Y-122477283I0J-750000D01*
G01*
X112477273Y-92920938D02*
G75*
G02*
X112477273Y-107079062I-2477273J-7079062D01*
G01*
X87300000Y-107494000D02*
X87300000Y-112506000D01*
X107522727Y-107079062D02*
G75*
G02*
X103106477Y-102954545I2477273J7079062D01*
G01*
X111225000Y-78025000D02*
G75*
G02*
X111975000Y-78775000I0J-750000D01*
G01*
X107275000Y-81975000D02*
G75*
G02*
X108025000Y-82725000I0J-750000D01*
G01*
X92636364Y-92978634D02*
G75*
G02*
X96893523Y-97045455I-2636364J-7021366D01*
G01*
X97079062Y-82477273D02*
G75*
G02*
X97786968Y-81975064I707838J-247727D01*
G01*
X111975000Y-107787000D02*
G75*
G02*
X112477283Y-107079090I750000J0D01*
G01*
X108025000Y-92213000D02*
X108025000Y-82725000D01*
X87300000Y-112506000D02*
G75*
G02*
X86863635Y-113187273I-750000J0D01*
G01*
X102417100Y-102500000D02*
G75*
G02*
X103106456Y-102954554I0J-750000D01*
G01*
X87363636Y-87021366D02*
G75*
G02*
X87849997Y-87723500I-263636J-702134D01*
G01*
X96893523Y-102954545D02*
G75*
G02*
X97582875Y-102500069I689277J-295455D01*
G01*
X97079062Y-122477273D02*
G75*
G02*
X97786968Y-121975064I707838J-247727D01*
G01*
X108025000Y-107786968D02*
X108025000Y-112213000D01*
X86863636Y-106812725D02*
G75*
G02*
X87300002Y-107494000I-313636J-681275D01*
G01*
X102920938Y-117522727D02*
G75*
G02*
X102213032Y-118024936I-707838J247727D01*
G01*
X87850000Y-92276500D02*
G75*
G02*
X87363637Y-92978636I-750000J0D01*
G01*
X92150000Y-87723500D02*
X92150000Y-92276500D01*
M02*
