%TF.GenerationSoftware,KiCad,Pcbnew,9.0.1*%
%TF.CreationDate,2025-04-17T12:30:50-04:00*%
%TF.ProjectId,IngestibleCapsule-Board_v2,496e6765-7374-4696-926c-654361707375,rev?*%
%TF.SameCoordinates,Original*%
%TF.FileFunction,Soldermask,Bot*%
%TF.FilePolarity,Negative*%
%FSLAX46Y46*%
G04 Gerber Fmt 4.6, Leading zero omitted, Abs format (unit mm)*
G04 Created by KiCad (PCBNEW 9.0.1) date 2025-04-17 12:30:50*
%MOMM*%
%LPD*%
G01*
G04 APERTURE LIST*
G04 Aperture macros list*
%AMRoundRect*
0 Rectangle with rounded corners*
0 $1 Rounding radius*
0 $2 $3 $4 $5 $6 $7 $8 $9 X,Y pos of 4 corners*
0 Add a 4 corners polygon primitive as box body*
4,1,4,$2,$3,$4,$5,$6,$7,$8,$9,$2,$3,0*
0 Add four circle primitives for the rounded corners*
1,1,$1+$1,$2,$3*
1,1,$1+$1,$4,$5*
1,1,$1+$1,$6,$7*
1,1,$1+$1,$8,$9*
0 Add four rect primitives between the rounded corners*
20,1,$1+$1,$2,$3,$4,$5,0*
20,1,$1+$1,$4,$5,$6,$7,0*
20,1,$1+$1,$6,$7,$8,$9,0*
20,1,$1+$1,$8,$9,$2,$3,0*%
G04 Aperture macros list end*
%ADD10C,0.500000*%
%ADD11R,1.700000X1.700000*%
%ADD12C,1.700000*%
%ADD13C,0.990600*%
%ADD14C,1.350000*%
%ADD15C,1.100000*%
%ADD16R,0.600000X1.550000*%
%ADD17R,1.200000X1.800000*%
%ADD18R,2.400000X1.900000*%
%ADD19RoundRect,0.135000X0.135000X0.185000X-0.135000X0.185000X-0.135000X-0.185000X0.135000X-0.185000X0*%
%ADD20R,0.700000X0.200000*%
%ADD21RoundRect,0.135000X-0.185000X0.135000X-0.185000X-0.135000X0.185000X-0.135000X0.185000X0.135000X0*%
%ADD22RoundRect,0.140000X0.170000X-0.140000X0.170000X0.140000X-0.170000X0.140000X-0.170000X-0.140000X0*%
%ADD23RoundRect,0.140000X0.140000X0.170000X-0.140000X0.170000X-0.140000X-0.170000X0.140000X-0.170000X0*%
%ADD24RoundRect,0.140000X-0.140000X-0.170000X0.140000X-0.170000X0.140000X0.170000X-0.140000X0.170000X0*%
%ADD25R,1.800000X1.000000*%
%ADD26RoundRect,0.162500X-0.650000X-0.162500X0.650000X-0.162500X0.650000X0.162500X-0.650000X0.162500X0*%
%ADD27R,0.200000X0.700000*%
%TA.AperFunction,Profile*%
%ADD28C,0.250000*%
%TD*%
G04 APERTURE END LIST*
D10*
%TO.C,spi_4_2*%
X87800000Y-107431184D03*
X88900000Y-107671538D03*
X90000000Y-107750000D03*
X91100000Y-107671538D03*
X92200000Y-107431184D03*
%TD*%
D11*
%TO.C,J8*%
X114595000Y-121110000D03*
D12*
X114595000Y-118570000D03*
%TD*%
D10*
%TO.C,i2c_2_2*%
X102512510Y-98000000D03*
X102328462Y-98900000D03*
X102250000Y-100000000D03*
X102328462Y-101100000D03*
X102512510Y-102000000D03*
%TD*%
%TO.C,prog_3_2*%
X91650000Y-92427682D03*
X90550000Y-92269541D03*
X89450000Y-92269541D03*
X88350000Y-92427682D03*
%TD*%
%TO.C,pwr_4_2*%
X111475000Y-92391658D03*
X110575000Y-92271360D03*
X109425000Y-92271360D03*
X108525000Y-92391658D03*
%TD*%
D11*
%TO.C,J7*%
X110000000Y-122500000D03*
D12*
X110000000Y-120000000D03*
X110000000Y-117500000D03*
%TD*%
D10*
%TO.C,pwr_4_2*%
X108525000Y-107608342D03*
X109425000Y-107728640D03*
X110575000Y-107728640D03*
X111475000Y-107608342D03*
%TD*%
%TO.C,spi_4_2*%
X92200000Y-112568816D03*
X91100000Y-112328462D03*
X90000000Y-112250000D03*
X88900000Y-112328462D03*
X87800000Y-112568816D03*
%TD*%
%TO.C,pwr_4_2*%
X97608342Y-81475000D03*
X97728640Y-80575000D03*
X97728640Y-79425000D03*
X97608342Y-78525000D03*
%TD*%
%TO.C,i2c_2_2*%
X97487490Y-102000000D03*
X97671538Y-101100000D03*
X97750000Y-100000000D03*
X97671538Y-98900000D03*
X97487490Y-98000000D03*
%TD*%
%TO.C,pwr_4_2*%
X97608342Y-121475000D03*
X97728640Y-120575000D03*
X97728640Y-119425000D03*
X97608342Y-118525000D03*
%TD*%
%TO.C,pwr_4_2*%
X111475000Y-112391658D03*
X110575000Y-112271360D03*
X109425000Y-112271360D03*
X108525000Y-112391658D03*
%TD*%
%TO.C,pwr_4_2*%
X102391658Y-118525000D03*
X102271360Y-119425000D03*
X102271360Y-120575000D03*
X102391658Y-121475000D03*
%TD*%
%TO.C,prog_3_2*%
X88350000Y-87572318D03*
X89450000Y-87730459D03*
X90550000Y-87730459D03*
X91650000Y-87572318D03*
%TD*%
D13*
%TO.C,J5*%
X92540000Y-80000000D03*
X87460000Y-81016000D03*
X87460000Y-78984000D03*
%TD*%
D14*
%TO.C,U2*%
X111000000Y-101000000D03*
X113065000Y-96015000D03*
D15*
X111000000Y-95160000D03*
D14*
X108935000Y-100145000D03*
%TD*%
D16*
%TO.C,J6*%
X90500000Y-114663000D03*
X89500000Y-114663000D03*
D17*
X91800000Y-117188000D03*
X88200000Y-117188000D03*
%TD*%
D18*
%TO.C,Y1*%
X87250000Y-100550000D03*
X87250000Y-96450000D03*
%TD*%
D19*
%TO.C,R3*%
X87050000Y-102250000D03*
X86030000Y-102250000D03*
%TD*%
D20*
%TO.C,J2*%
X112960000Y-102000000D03*
X116040000Y-102000000D03*
X112960000Y-98000000D03*
X116040000Y-98000000D03*
X112960000Y-100800000D03*
X116040000Y-100800000D03*
X112960000Y-100400000D03*
X116040000Y-100400000D03*
X112960000Y-100000000D03*
X116040000Y-100000000D03*
X112960000Y-99600000D03*
X116040000Y-99600000D03*
X112960000Y-99200000D03*
X116040000Y-99200000D03*
%TD*%
D19*
%TO.C,R1*%
X92620000Y-94800000D03*
X91600000Y-94800000D03*
%TD*%
D21*
%TO.C,R8*%
X84600000Y-122290000D03*
X84600000Y-123310000D03*
%TD*%
D22*
%TO.C,C15*%
X95300000Y-123480000D03*
X95300000Y-122520000D03*
%TD*%
D23*
%TO.C,C2*%
X92610000Y-95950000D03*
X91650000Y-95950000D03*
%TD*%
%TO.C,C9*%
X88480000Y-94800000D03*
X87520000Y-94800000D03*
%TD*%
D24*
%TO.C,C12*%
X89570000Y-100200000D03*
X90530000Y-100200000D03*
%TD*%
D25*
%TO.C,Y2*%
X90080000Y-98970000D03*
X90080000Y-96470000D03*
%TD*%
D26*
%TO.C,U4*%
X86412500Y-123600000D03*
X86412500Y-122330000D03*
X86412500Y-121060000D03*
X86412500Y-119790000D03*
X93587500Y-119790000D03*
X93587500Y-121060000D03*
X93587500Y-122330000D03*
X93587500Y-123600000D03*
%TD*%
D24*
%TO.C,C10*%
X86070000Y-103400000D03*
X87030000Y-103400000D03*
%TD*%
%TO.C,C11*%
X89570000Y-94800000D03*
X90530000Y-94800000D03*
%TD*%
D27*
%TO.C,J3*%
X92000000Y-106040000D03*
X92000000Y-102960000D03*
X88000000Y-106040000D03*
X88000000Y-102960000D03*
X90800000Y-106040000D03*
X90800000Y-102960000D03*
X90400000Y-106040000D03*
X90400000Y-102960000D03*
X90000000Y-106040000D03*
X90000000Y-102960000D03*
X89600000Y-106040000D03*
X89600000Y-102960000D03*
X89200000Y-106040000D03*
X89200000Y-102960000D03*
%TD*%
D28*
X87363636Y-87021366D02*
G75*
G02*
X97079062Y-77522727I2636364J7021366D01*
G01*
X111975000Y-107787000D02*
X111975000Y-112213032D01*
X108025000Y-112213000D02*
G75*
G02*
X107522717Y-112920910I-750000J0D01*
G01*
X97079062Y-122477273D02*
G75*
G02*
X86863636Y-113187275I-7079062J2477273D01*
G01*
X92636364Y-92978634D02*
G75*
G02*
X92150003Y-92276500I263636J702134D01*
G01*
X112477273Y-92920938D02*
G75*
G02*
X111975064Y-92213032I247727J707838D01*
G01*
X107522727Y-107079062D02*
G75*
G02*
X108024936Y-107786968I-247727J-707838D01*
G01*
X97582900Y-97500000D02*
G75*
G02*
X96893544Y-97045446I0J750000D01*
G01*
X112477273Y-112920938D02*
G75*
G02*
X111975064Y-112213032I247727J707838D01*
G01*
X97582875Y-102500000D02*
X102417100Y-102500000D01*
X102920938Y-117522727D02*
G75*
G02*
X107522727Y-112920938I7079062J-2477273D01*
G01*
X112477273Y-112920938D02*
G75*
G02*
X102920938Y-122477273I-2477273J-7079062D01*
G01*
X103106477Y-97045455D02*
G75*
G02*
X107522727Y-92920938I6893523J-2954545D01*
G01*
X97787000Y-118025000D02*
X102213032Y-118025000D01*
X108025000Y-92213000D02*
G75*
G02*
X107522717Y-92920910I-750000J0D01*
G01*
X96893523Y-102954545D02*
G75*
G02*
X93136364Y-106812725I-6893523J2954545D01*
G01*
X92700000Y-107494000D02*
G75*
G02*
X93136365Y-106812727I750000J0D01*
G01*
X93136364Y-113187275D02*
G75*
G02*
X92699998Y-112506000I313636J681275D01*
G01*
X92700000Y-107494000D02*
X92700000Y-112506000D01*
X103106477Y-97045455D02*
G75*
G02*
X102417125Y-97499931I-689277J295455D01*
G01*
X97786968Y-121975000D02*
X102213000Y-121975000D01*
X97787000Y-118025000D02*
G75*
G02*
X97079090Y-117522717I0J750000D01*
G01*
X97079062Y-82477273D02*
G75*
G02*
X92636364Y-87021366I-7079062J2477273D01*
G01*
X111975000Y-92213032D02*
X111975000Y-78775000D01*
X97786968Y-81975000D02*
X107275000Y-81975000D01*
X93136364Y-113187275D02*
G75*
G02*
X97079062Y-117522727I-3136364J-6812725D01*
G01*
X92150000Y-87723500D02*
G75*
G02*
X92636363Y-87021364I750000J0D01*
G01*
X86863636Y-106812725D02*
G75*
G02*
X87363636Y-92978634I3136364J6812725D01*
G01*
X87850000Y-87723500D02*
X87850000Y-92276500D01*
X97787000Y-78025000D02*
X111225000Y-78025000D01*
X97582900Y-97500000D02*
X102417125Y-97500000D01*
X97787000Y-78025000D02*
G75*
G02*
X97079090Y-77522717I0J750000D01*
G01*
X102213000Y-121975000D02*
G75*
G02*
X102920910Y-122477283I0J-750000D01*
G01*
X112477273Y-92920938D02*
G75*
G02*
X112477273Y-107079062I-2477273J-7079062D01*
G01*
X87300000Y-107494000D02*
X87300000Y-112506000D01*
X107522727Y-107079062D02*
G75*
G02*
X103106477Y-102954545I2477273J7079062D01*
G01*
X111225000Y-78025000D02*
G75*
G02*
X111975000Y-78775000I0J-750000D01*
G01*
X107275000Y-81975000D02*
G75*
G02*
X108025000Y-82725000I0J-750000D01*
G01*
X92636364Y-92978634D02*
G75*
G02*
X96893523Y-97045455I-2636364J-7021366D01*
G01*
X97079062Y-82477273D02*
G75*
G02*
X97786968Y-81975064I707838J-247727D01*
G01*
X111975000Y-107787000D02*
G75*
G02*
X112477283Y-107079090I750000J0D01*
G01*
X108025000Y-92213000D02*
X108025000Y-82725000D01*
X87300000Y-112506000D02*
G75*
G02*
X86863635Y-113187273I-750000J0D01*
G01*
X102417100Y-102500000D02*
G75*
G02*
X103106456Y-102954554I0J-750000D01*
G01*
X87363636Y-87021366D02*
G75*
G02*
X87849997Y-87723500I-263636J-702134D01*
G01*
X96893523Y-102954545D02*
G75*
G02*
X97582875Y-102500069I689277J-295455D01*
G01*
X97079062Y-122477273D02*
G75*
G02*
X97786968Y-121975064I707838J-247727D01*
G01*
X108025000Y-107786968D02*
X108025000Y-112213000D01*
X86863636Y-106812725D02*
G75*
G02*
X87300002Y-107494000I-313636J-681275D01*
G01*
X102920938Y-117522727D02*
G75*
G02*
X102213032Y-118024936I-707838J247727D01*
G01*
X87850000Y-92276500D02*
G75*
G02*
X87363637Y-92978636I-750000J0D01*
G01*
X92150000Y-87723500D02*
X92150000Y-92276500D01*
M02*
