M48
; DRILL file {KiCad 9.0.1} date 2025-04-17T12:30:48-0400
; FORMAT={-:-/ absolute / metric / decimal}
; #@! TF.CreationDate,2025-04-17T12:30:48-04:00
; #@! TF.GenerationSoftware,Kicad,Pcbnew,9.0.1
; #@! TF.FileFunction,Plated,1,2,PTH
FMAT,2
METRIC
; #@! TA.AperFunction,Plated,PTH,ViaDrill
T1C0.300
; #@! TA.AperFunction,Plated,PTH,ComponentDrill
T2C0.700
; #@! TA.AperFunction,Plated,PTH,ComponentDrill
T3C0.900
; #@! TA.AperFunction,Plated,PTH,ComponentDrill
T4C1.000
; #@! TA.AperFunction,Plated,PTH,ComponentDrill
T5C1.100
%
G90
G05
T1
X83.699Y-99.165
X83.725Y-100.65
X83.731Y-101.2
X83.79Y-102.25
X83.92Y-122.34
X84.002Y-98.154
X84.075Y-96.816
X84.61Y-96.69
X85.15Y-119.75
X85.25Y-104.25
X85.25Y-122.8
X85.632Y-101.384
X85.91Y-124.25
X85.933Y-104.182
X86.274Y-105.275
X86.512Y-104.167
X86.515Y-114.984
X86.55Y-94.35
X87.225Y-121.55
X87.389Y-105.888
X87.425Y-120.275
X87.762Y-114.465
X87.91Y-123.02
X88.128Y-120.625
X88.4Y-78.75
X88.4Y-104.193
X88.45Y-121.52
X88.71Y-105.98
X89.01Y-104.06
X89.08Y-106.735
X89.463Y-121.774
X89.55Y-115.7
X89.57Y-100.98
X89.6Y-123.79
X89.62Y-125.17
X89.7Y-78.7
X89.89Y-97.52
X90.025Y-122.289
X90.21Y-125.08
X90.45Y-101.85
X90.5Y-115.75
X90.8Y-125.15
X90.9Y-78.7
X91.175Y-124.246
X91.2Y-105.4
X91.315Y-113.525
X92.15Y-94.0
X92.24Y-97.29
X92.945Y-114.705
X93.5Y-124.325
X93.65Y-96.2
X93.7Y-117.175
X93.85Y-101.85
X93.95Y-104.0
X94.05Y-99.15
X94.15Y-97.95
X95.3Y-121.85
X96.52Y-100.01
X103.9Y-102.35
X104.055Y-101.095
X105.686Y-100.654
X106.0Y-99.6
X107.1Y-101.55
X107.3Y-104.35
X111.27Y-105.94
X114.82Y-101.16
X116.65Y-101.2
T2
X111.0Y-95.16
T3
X108.935Y-100.145
X111.0Y-101.0
X113.065Y-96.015
T4
X114.595Y-118.57
X114.595Y-121.11
T5
X110.0Y-117.5
X110.0Y-120.0
X110.0Y-122.5
M30
