%TF.GenerationSoftware,KiCad,Pcbnew,9.0.0*%
%TF.CreationDate,2025-03-16T05:21:04+01:00*%
%TF.ProjectId,IngestibleCapsule-Antennae,496e6765-7374-4696-926c-654361707375,rev?*%
%TF.SameCoordinates,Original*%
%TF.FileFunction,Legend,Top*%
%TF.FilePolarity,Positive*%
%FSLAX46Y46*%
G04 Gerber Fmt 4.6, Leading zero omitted, Abs format (unit mm)*
G04 Created by KiCad (PCBNEW 9.0.0) date 2025-03-16 05:21:04*
%MOMM*%
%LPD*%
G01*
G04 APERTURE LIST*
%ADD10C,0.150000*%
%ADD11C,0.254000*%
%ADD12C,0.152400*%
%ADD13C,0.100000*%
%ADD14C,0.120000*%
G04 APERTURE END LIST*
D10*
X78838095Y-55254819D02*
X78838095Y-56064342D01*
X78838095Y-56064342D02*
X78885714Y-56159580D01*
X78885714Y-56159580D02*
X78933333Y-56207200D01*
X78933333Y-56207200D02*
X79028571Y-56254819D01*
X79028571Y-56254819D02*
X79219047Y-56254819D01*
X79219047Y-56254819D02*
X79314285Y-56207200D01*
X79314285Y-56207200D02*
X79361904Y-56159580D01*
X79361904Y-56159580D02*
X79409523Y-56064342D01*
X79409523Y-56064342D02*
X79409523Y-55254819D01*
X80409523Y-56254819D02*
X79838095Y-56254819D01*
X80123809Y-56254819D02*
X80123809Y-55254819D01*
X80123809Y-55254819D02*
X80028571Y-55397676D01*
X80028571Y-55397676D02*
X79933333Y-55492914D01*
X79933333Y-55492914D02*
X79838095Y-55540533D01*
D11*
X74054318Y-55743332D02*
X74961461Y-55743332D01*
X74961461Y-55743332D02*
X75142889Y-55803809D01*
X75142889Y-55803809D02*
X75263842Y-55924761D01*
X75263842Y-55924761D02*
X75324318Y-56106190D01*
X75324318Y-56106190D02*
X75324318Y-56227142D01*
X74175270Y-55199047D02*
X74114794Y-55138571D01*
X74114794Y-55138571D02*
X74054318Y-55017618D01*
X74054318Y-55017618D02*
X74054318Y-54715237D01*
X74054318Y-54715237D02*
X74114794Y-54594285D01*
X74114794Y-54594285D02*
X74175270Y-54533809D01*
X74175270Y-54533809D02*
X74296222Y-54473332D01*
X74296222Y-54473332D02*
X74417175Y-54473332D01*
X74417175Y-54473332D02*
X74598603Y-54533809D01*
X74598603Y-54533809D02*
X75324318Y-55259523D01*
X75324318Y-55259523D02*
X75324318Y-54473332D01*
D10*
X83408095Y-55314819D02*
X83979523Y-55314819D01*
X83693809Y-56314819D02*
X83693809Y-55314819D01*
X84312857Y-56314819D02*
X84312857Y-55314819D01*
X84312857Y-55314819D02*
X84693809Y-55314819D01*
X84693809Y-55314819D02*
X84789047Y-55362438D01*
X84789047Y-55362438D02*
X84836666Y-55410057D01*
X84836666Y-55410057D02*
X84884285Y-55505295D01*
X84884285Y-55505295D02*
X84884285Y-55648152D01*
X84884285Y-55648152D02*
X84836666Y-55743390D01*
X84836666Y-55743390D02*
X84789047Y-55791009D01*
X84789047Y-55791009D02*
X84693809Y-55838628D01*
X84693809Y-55838628D02*
X84312857Y-55838628D01*
X85836666Y-56314819D02*
X85265238Y-56314819D01*
X85550952Y-56314819D02*
X85550952Y-55314819D01*
X85550952Y-55314819D02*
X85455714Y-55457676D01*
X85455714Y-55457676D02*
X85360476Y-55552914D01*
X85360476Y-55552914D02*
X85265238Y-55600533D01*
X77649104Y-53986666D02*
X77649104Y-53510476D01*
X77934819Y-54081904D02*
X76934819Y-53748571D01*
X76934819Y-53748571D02*
X77934819Y-53415238D01*
X77411009Y-53081904D02*
X77411009Y-52748571D01*
X77934819Y-52605714D02*
X77934819Y-53081904D01*
X77934819Y-53081904D02*
X76934819Y-53081904D01*
X76934819Y-53081904D02*
X76934819Y-52605714D01*
X77934819Y-51653333D02*
X77934819Y-52224761D01*
X77934819Y-51939047D02*
X76934819Y-51939047D01*
X76934819Y-51939047D02*
X77077676Y-52034285D01*
X77077676Y-52034285D02*
X77172914Y-52129523D01*
X77172914Y-52129523D02*
X77220533Y-52224761D01*
X79354819Y-51939999D02*
X79592914Y-51939999D01*
X79497676Y-52178094D02*
X79592914Y-51939999D01*
X79592914Y-51939999D02*
X79497676Y-51701904D01*
X79783390Y-52082856D02*
X79592914Y-51939999D01*
X79592914Y-51939999D02*
X79783390Y-51797142D01*
D12*
%TO.C,U1*%
X78803501Y-52804501D02*
X78803501Y-54455501D01*
X81216501Y-54455501D02*
X81216501Y-52804501D01*
D13*
%TO.C,J2*%
X73602000Y-54520000D02*
X73602000Y-56120000D01*
X76502000Y-53220000D02*
X75877000Y-53220000D01*
X76502000Y-53920000D02*
X76502000Y-53220000D01*
X76502000Y-56520000D02*
X76502000Y-57220000D01*
X76502000Y-57220000D02*
X75877000Y-57220000D01*
D14*
%TO.C,TP1*%
X83700000Y-52310000D02*
X86100000Y-52310000D01*
X83700000Y-54710000D02*
X83700000Y-52310000D01*
X86100000Y-52310000D02*
X86100000Y-54710000D01*
X86100000Y-54710000D02*
X83700000Y-54710000D01*
D12*
%TO.C,AE1*%
X73988600Y-41457796D02*
X73988600Y-49162204D01*
X76264886Y-51431400D02*
X78955114Y-51431400D01*
X78955114Y-39188600D02*
X76264886Y-39188600D01*
X81264886Y-51431400D02*
X83955114Y-51431400D01*
X83955114Y-39188600D02*
X81264886Y-39188600D01*
X86231400Y-49162204D02*
X86231400Y-41457796D01*
%TD*%
M02*
