M48
; DRILL file {KiCad 9.0.1} date 2025-04-11T17:48:51-0400
; FORMAT={-:-/ absolute / metric / decimal}
; #@! TF.CreationDate,2025-04-11T17:48:51-04:00
; #@! TF.GenerationSoftware,Kicad,Pcbnew,9.0.1
; #@! TF.FileFunction,NonPlated,1,2,NPTH
FMAT,2
METRIC
; #@! TA.AperFunction,NonPlated,NPTH,ComponentDrill
T1C0.500
; #@! TA.AperFunction,NonPlated,NPTH,ComponentDrill
T2C0.991
%
G90
G05
T1
X87.8Y-107.431
X87.8Y-112.569
X88.35Y-87.572
X88.35Y-92.428
X88.9Y-107.672
X88.9Y-112.328
X89.45Y-87.73
X89.45Y-92.27
X90.0Y-107.75
X90.0Y-112.25
X90.55Y-87.73
X90.55Y-92.27
X91.1Y-107.672
X91.1Y-112.328
X91.65Y-87.572
X91.65Y-92.428
X92.2Y-107.431
X92.2Y-112.569
X97.487Y-98.0
X97.487Y-102.0
X97.608Y-78.525
X97.608Y-81.475
X97.608Y-118.525
X97.608Y-121.475
X97.672Y-98.9
X97.672Y-101.1
X97.729Y-79.425
X97.729Y-80.575
X97.729Y-119.425
X97.729Y-120.575
X97.75Y-100.0
X102.25Y-100.0
X102.271Y-119.425
X102.271Y-120.575
X102.328Y-98.9
X102.328Y-101.1
X102.392Y-118.525
X102.392Y-121.475
X102.513Y-98.0
X102.513Y-102.0
X108.525Y-92.392
X108.525Y-107.608
X108.525Y-112.392
X109.425Y-92.271
X109.425Y-107.729
X109.425Y-112.271
X110.575Y-92.271
X110.575Y-107.729
X110.575Y-112.271
X111.475Y-92.392
X111.475Y-107.608
X111.475Y-112.392
T2
X87.46Y-78.984
X87.46Y-81.016
X92.54Y-80.0
M30
