%TF.GenerationSoftware,KiCad,Pcbnew,9.0.0*%
%TF.CreationDate,2025-03-13T16:48:12-04:00*%
%TF.ProjectId,IngestibleCapsule-Board_larger_vias,496e6765-7374-4696-926c-654361707375,rev?*%
%TF.SameCoordinates,Original*%
%TF.FileFunction,Legend,Top*%
%TF.FilePolarity,Positive*%
%FSLAX46Y46*%
G04 Gerber Fmt 4.6, Leading zero omitted, Abs format (unit mm)*
G04 Created by KiCad (PCBNEW 9.0.0) date 2025-03-13 16:48:12*
%MOMM*%
%LPD*%
G01*
G04 APERTURE LIST*
%ADD10C,0.150000*%
%ADD11C,0.254000*%
%ADD12C,0.120000*%
%ADD13C,0.100000*%
%ADD14C,0.200000*%
%TA.AperFunction,Profile*%
%ADD15C,0.050000*%
%TD*%
G04 APERTURE END LIST*
D10*
X103004819Y-100511904D02*
X103814342Y-100511904D01*
X103814342Y-100511904D02*
X103909580Y-100464285D01*
X103909580Y-100464285D02*
X103957200Y-100416666D01*
X103957200Y-100416666D02*
X104004819Y-100321428D01*
X104004819Y-100321428D02*
X104004819Y-100130952D01*
X104004819Y-100130952D02*
X103957200Y-100035714D01*
X103957200Y-100035714D02*
X103909580Y-99988095D01*
X103909580Y-99988095D02*
X103814342Y-99940476D01*
X103814342Y-99940476D02*
X103004819Y-99940476D01*
X103004819Y-99559523D02*
X103004819Y-98940476D01*
X103004819Y-98940476D02*
X103385771Y-99273809D01*
X103385771Y-99273809D02*
X103385771Y-99130952D01*
X103385771Y-99130952D02*
X103433390Y-99035714D01*
X103433390Y-99035714D02*
X103481009Y-98988095D01*
X103481009Y-98988095D02*
X103576247Y-98940476D01*
X103576247Y-98940476D02*
X103814342Y-98940476D01*
X103814342Y-98940476D02*
X103909580Y-98988095D01*
X103909580Y-98988095D02*
X103957200Y-99035714D01*
X103957200Y-99035714D02*
X104004819Y-99130952D01*
X104004819Y-99130952D02*
X104004819Y-99416666D01*
X104004819Y-99416666D02*
X103957200Y-99511904D01*
X103957200Y-99511904D02*
X103909580Y-99559523D01*
X93704819Y-94966666D02*
X93228628Y-95299999D01*
X93704819Y-95538094D02*
X92704819Y-95538094D01*
X92704819Y-95538094D02*
X92704819Y-95157142D01*
X92704819Y-95157142D02*
X92752438Y-95061904D01*
X92752438Y-95061904D02*
X92800057Y-95014285D01*
X92800057Y-95014285D02*
X92895295Y-94966666D01*
X92895295Y-94966666D02*
X93038152Y-94966666D01*
X93038152Y-94966666D02*
X93133390Y-95014285D01*
X93133390Y-95014285D02*
X93181009Y-95061904D01*
X93181009Y-95061904D02*
X93228628Y-95157142D01*
X93228628Y-95157142D02*
X93228628Y-95538094D01*
X92704819Y-94109523D02*
X92704819Y-94299999D01*
X92704819Y-94299999D02*
X92752438Y-94395237D01*
X92752438Y-94395237D02*
X92800057Y-94442856D01*
X92800057Y-94442856D02*
X92942914Y-94538094D01*
X92942914Y-94538094D02*
X93133390Y-94585713D01*
X93133390Y-94585713D02*
X93514342Y-94585713D01*
X93514342Y-94585713D02*
X93609580Y-94538094D01*
X93609580Y-94538094D02*
X93657200Y-94490475D01*
X93657200Y-94490475D02*
X93704819Y-94395237D01*
X93704819Y-94395237D02*
X93704819Y-94204761D01*
X93704819Y-94204761D02*
X93657200Y-94109523D01*
X93657200Y-94109523D02*
X93609580Y-94061904D01*
X93609580Y-94061904D02*
X93514342Y-94014285D01*
X93514342Y-94014285D02*
X93276247Y-94014285D01*
X93276247Y-94014285D02*
X93181009Y-94061904D01*
X93181009Y-94061904D02*
X93133390Y-94109523D01*
X93133390Y-94109523D02*
X93085771Y-94204761D01*
X93085771Y-94204761D02*
X93085771Y-94395237D01*
X93085771Y-94395237D02*
X93133390Y-94490475D01*
X93133390Y-94490475D02*
X93181009Y-94538094D01*
X93181009Y-94538094D02*
X93276247Y-94585713D01*
X95259580Y-96292857D02*
X95307200Y-96340476D01*
X95307200Y-96340476D02*
X95354819Y-96483333D01*
X95354819Y-96483333D02*
X95354819Y-96578571D01*
X95354819Y-96578571D02*
X95307200Y-96721428D01*
X95307200Y-96721428D02*
X95211961Y-96816666D01*
X95211961Y-96816666D02*
X95116723Y-96864285D01*
X95116723Y-96864285D02*
X94926247Y-96911904D01*
X94926247Y-96911904D02*
X94783390Y-96911904D01*
X94783390Y-96911904D02*
X94592914Y-96864285D01*
X94592914Y-96864285D02*
X94497676Y-96816666D01*
X94497676Y-96816666D02*
X94402438Y-96721428D01*
X94402438Y-96721428D02*
X94354819Y-96578571D01*
X94354819Y-96578571D02*
X94354819Y-96483333D01*
X94354819Y-96483333D02*
X94402438Y-96340476D01*
X94402438Y-96340476D02*
X94450057Y-96292857D01*
X95354819Y-95340476D02*
X95354819Y-95911904D01*
X95354819Y-95626190D02*
X94354819Y-95626190D01*
X94354819Y-95626190D02*
X94497676Y-95721428D01*
X94497676Y-95721428D02*
X94592914Y-95816666D01*
X94592914Y-95816666D02*
X94640533Y-95911904D01*
X94450057Y-94959523D02*
X94402438Y-94911904D01*
X94402438Y-94911904D02*
X94354819Y-94816666D01*
X94354819Y-94816666D02*
X94354819Y-94578571D01*
X94354819Y-94578571D02*
X94402438Y-94483333D01*
X94402438Y-94483333D02*
X94450057Y-94435714D01*
X94450057Y-94435714D02*
X94545295Y-94388095D01*
X94545295Y-94388095D02*
X94640533Y-94388095D01*
X94640533Y-94388095D02*
X94783390Y-94435714D01*
X94783390Y-94435714D02*
X95354819Y-95007142D01*
X95354819Y-95007142D02*
X95354819Y-94388095D01*
X94354819Y-92966666D02*
X93878628Y-93299999D01*
X94354819Y-93538094D02*
X93354819Y-93538094D01*
X93354819Y-93538094D02*
X93354819Y-93157142D01*
X93354819Y-93157142D02*
X93402438Y-93061904D01*
X93402438Y-93061904D02*
X93450057Y-93014285D01*
X93450057Y-93014285D02*
X93545295Y-92966666D01*
X93545295Y-92966666D02*
X93688152Y-92966666D01*
X93688152Y-92966666D02*
X93783390Y-93014285D01*
X93783390Y-93014285D02*
X93831009Y-93061904D01*
X93831009Y-93061904D02*
X93878628Y-93157142D01*
X93878628Y-93157142D02*
X93878628Y-93538094D01*
X93354819Y-92633332D02*
X93354819Y-91966666D01*
X93354819Y-91966666D02*
X94354819Y-92395237D01*
D11*
X99304318Y-93647619D02*
X100332413Y-93647619D01*
X100332413Y-93647619D02*
X100453365Y-93587142D01*
X100453365Y-93587142D02*
X100513842Y-93526666D01*
X100513842Y-93526666D02*
X100574318Y-93405714D01*
X100574318Y-93405714D02*
X100574318Y-93163809D01*
X100574318Y-93163809D02*
X100513842Y-93042857D01*
X100513842Y-93042857D02*
X100453365Y-92982380D01*
X100453365Y-92982380D02*
X100332413Y-92921904D01*
X100332413Y-92921904D02*
X99304318Y-92921904D01*
X99425270Y-92377619D02*
X99364794Y-92317143D01*
X99364794Y-92317143D02*
X99304318Y-92196190D01*
X99304318Y-92196190D02*
X99304318Y-91893809D01*
X99304318Y-91893809D02*
X99364794Y-91772857D01*
X99364794Y-91772857D02*
X99425270Y-91712381D01*
X99425270Y-91712381D02*
X99546222Y-91651904D01*
X99546222Y-91651904D02*
X99667175Y-91651904D01*
X99667175Y-91651904D02*
X99848603Y-91712381D01*
X99848603Y-91712381D02*
X100574318Y-92438095D01*
X100574318Y-92438095D02*
X100574318Y-91651904D01*
D10*
X106644579Y-95722858D02*
X106692199Y-95770477D01*
X106692199Y-95770477D02*
X106739818Y-95913334D01*
X106739818Y-95913334D02*
X106739818Y-96008572D01*
X106739818Y-96008572D02*
X106692199Y-96151429D01*
X106692199Y-96151429D02*
X106596960Y-96246667D01*
X106596960Y-96246667D02*
X106501722Y-96294286D01*
X106501722Y-96294286D02*
X106311246Y-96341905D01*
X106311246Y-96341905D02*
X106168389Y-96341905D01*
X106168389Y-96341905D02*
X105977913Y-96294286D01*
X105977913Y-96294286D02*
X105882675Y-96246667D01*
X105882675Y-96246667D02*
X105787437Y-96151429D01*
X105787437Y-96151429D02*
X105739818Y-96008572D01*
X105739818Y-96008572D02*
X105739818Y-95913334D01*
X105739818Y-95913334D02*
X105787437Y-95770477D01*
X105787437Y-95770477D02*
X105835056Y-95722858D01*
X106739818Y-94770477D02*
X106739818Y-95341905D01*
X106739818Y-95056191D02*
X105739818Y-95056191D01*
X105739818Y-95056191D02*
X105882675Y-95151429D01*
X105882675Y-95151429D02*
X105977913Y-95246667D01*
X105977913Y-95246667D02*
X106025532Y-95341905D01*
X105739818Y-94437143D02*
X105739818Y-93818096D01*
X105739818Y-93818096D02*
X106120770Y-94151429D01*
X106120770Y-94151429D02*
X106120770Y-94008572D01*
X106120770Y-94008572D02*
X106168389Y-93913334D01*
X106168389Y-93913334D02*
X106216008Y-93865715D01*
X106216008Y-93865715D02*
X106311246Y-93818096D01*
X106311246Y-93818096D02*
X106549341Y-93818096D01*
X106549341Y-93818096D02*
X106644579Y-93865715D01*
X106644579Y-93865715D02*
X106692199Y-93913334D01*
X106692199Y-93913334D02*
X106739818Y-94008572D01*
X106739818Y-94008572D02*
X106739818Y-94294286D01*
X106739818Y-94294286D02*
X106692199Y-94389524D01*
X106692199Y-94389524D02*
X106644579Y-94437143D01*
X106204819Y-98366666D02*
X105728628Y-98699999D01*
X106204819Y-98938094D02*
X105204819Y-98938094D01*
X105204819Y-98938094D02*
X105204819Y-98557142D01*
X105204819Y-98557142D02*
X105252438Y-98461904D01*
X105252438Y-98461904D02*
X105300057Y-98414285D01*
X105300057Y-98414285D02*
X105395295Y-98366666D01*
X105395295Y-98366666D02*
X105538152Y-98366666D01*
X105538152Y-98366666D02*
X105633390Y-98414285D01*
X105633390Y-98414285D02*
X105681009Y-98461904D01*
X105681009Y-98461904D02*
X105728628Y-98557142D01*
X105728628Y-98557142D02*
X105728628Y-98938094D01*
X105204819Y-97461904D02*
X105204819Y-97938094D01*
X105204819Y-97938094D02*
X105681009Y-97985713D01*
X105681009Y-97985713D02*
X105633390Y-97938094D01*
X105633390Y-97938094D02*
X105585771Y-97842856D01*
X105585771Y-97842856D02*
X105585771Y-97604761D01*
X105585771Y-97604761D02*
X105633390Y-97509523D01*
X105633390Y-97509523D02*
X105681009Y-97461904D01*
X105681009Y-97461904D02*
X105776247Y-97414285D01*
X105776247Y-97414285D02*
X106014342Y-97414285D01*
X106014342Y-97414285D02*
X106109580Y-97461904D01*
X106109580Y-97461904D02*
X106157200Y-97509523D01*
X106157200Y-97509523D02*
X106204819Y-97604761D01*
X106204819Y-97604761D02*
X106204819Y-97842856D01*
X106204819Y-97842856D02*
X106157200Y-97938094D01*
X106157200Y-97938094D02*
X106109580Y-97985713D01*
D12*
%TO.C,U3*%
X97490000Y-99190000D02*
X97490000Y-98140000D01*
X97490000Y-100310000D02*
X97490000Y-101360000D01*
X102710000Y-99190000D02*
X102710000Y-98440000D01*
X102710000Y-100310000D02*
X102710000Y-101360000D01*
X102900000Y-98280000D02*
X102710000Y-98140000D01*
X102900000Y-98000000D01*
X102900000Y-98280000D01*
G36*
X102900000Y-98280000D02*
G01*
X102710000Y-98140000D01*
X102900000Y-98000000D01*
X102900000Y-98280000D01*
G37*
%TO.C,R6*%
X93970000Y-98353641D02*
X93970000Y-98046359D01*
X94730000Y-98353641D02*
X94730000Y-98046359D01*
%TO.C,C12*%
X96390000Y-98307836D02*
X96390000Y-98092164D01*
X97110000Y-98307836D02*
X97110000Y-98092164D01*
%TO.C,R7*%
X95070000Y-98036359D02*
X95070000Y-98343641D01*
X95830000Y-98036359D02*
X95830000Y-98343641D01*
D13*
%TO.C,U2*%
X100000000Y-88080000D02*
X100000000Y-88080000D01*
X100000000Y-97280000D02*
X100000000Y-97280000D01*
X104650000Y-92680000D02*
G75*
G02*
X95350000Y-92680000I-4650000J0D01*
G01*
X95350000Y-92680000D02*
G75*
G02*
X104650000Y-92680000I4650000J0D01*
G01*
D14*
X100080000Y-97680000D02*
G75*
G02*
X99920000Y-97680000I-80000J0D01*
G01*
X99920000Y-97680000D02*
G75*
G02*
X100080000Y-97680000I80000J0D01*
G01*
D12*
%TO.C,C13*%
X105640000Y-92757836D02*
X105640000Y-92542164D01*
X106360000Y-92757836D02*
X106360000Y-92542164D01*
%TO.C,R5*%
X104170000Y-98686359D02*
X104170000Y-98993641D01*
X104930000Y-98686359D02*
X104930000Y-98993641D01*
%TD*%
D15*
X107500000Y-95000000D02*
G75*
G02*
X92500000Y-95000000I-7500000J0D01*
G01*
X92500000Y-95000000D02*
G75*
G02*
X107500000Y-95000000I7500000J0D01*
G01*
M02*
