%TF.GenerationSoftware,KiCad,Pcbnew,9.0.0*%
%TF.CreationDate,2025-04-02T00:09:28-04:00*%
%TF.ProjectId,IngestibleCapsule-Board_whole,496e6765-7374-4696-926c-654361707375,rev?*%
%TF.SameCoordinates,Original*%
%TF.FileFunction,Copper,L2,Bot*%
%TF.FilePolarity,Positive*%
%FSLAX46Y46*%
G04 Gerber Fmt 4.6, Leading zero omitted, Abs format (unit mm)*
G04 Created by KiCad (PCBNEW 9.0.0) date 2025-04-02 00:09:28*
%MOMM*%
%LPD*%
G01*
G04 APERTURE LIST*
%TA.AperFunction,ComponentPad*%
%ADD10R,1.700000X1.700000*%
%TD*%
%TA.AperFunction,ComponentPad*%
%ADD11O,1.700000X1.700000*%
%TD*%
%TA.AperFunction,ComponentPad*%
%ADD12C,1.350000*%
%TD*%
%TA.AperFunction,ComponentPad*%
%ADD13C,1.100000*%
%TD*%
%TA.AperFunction,ViaPad*%
%ADD14C,0.450000*%
%TD*%
%TA.AperFunction,Conductor*%
%ADD15C,0.100000*%
%TD*%
G04 APERTURE END LIST*
D10*
%TO.P,J2,1,Pin_1*%
%TO.N,GND*%
X72825000Y-99550000D03*
D11*
%TO.P,J2,2,Pin_2*%
%TO.N,+3.3V*%
X70285000Y-99550000D03*
%TD*%
D12*
%TO.P,U2,1,SDA*%
%TO.N,/Processor/I2C_SDA*%
X58392500Y-94450000D03*
%TO.P,U2,2,VDD*%
%TO.N,+3.3V*%
X53407500Y-92385000D03*
D13*
%TO.P,U2,3,GND*%
%TO.N,GND*%
X52552500Y-94450000D03*
D12*
%TO.P,U2,4,SCL*%
%TO.N,/Processor/I2C_SCL*%
X57537500Y-96515000D03*
%TD*%
D14*
%TO.N,+3.3V*%
X67000000Y-90100000D03*
X67200000Y-91000000D03*
X67000000Y-89400000D03*
X65300000Y-92400000D03*
%TO.N,GND*%
X58500000Y-69000000D03*
X64050000Y-90400000D03*
X69300000Y-86350000D03*
X65650000Y-98800000D03*
X73950000Y-91050000D03*
X51300000Y-69000000D03*
X68600000Y-70600000D03*
X71000000Y-91100000D03*
X65893960Y-91760513D03*
X77600000Y-69000000D03*
X72600000Y-91100000D03*
X66589401Y-72729328D03*
X67484915Y-73640735D03*
X65400000Y-70700000D03*
X57600000Y-69000000D03*
X63050000Y-79750000D03*
X78500000Y-69000000D03*
X52200000Y-69000000D03*
X69800000Y-80650000D03*
X72550000Y-86350000D03*
X73950000Y-89500000D03*
X66544428Y-74580707D03*
X71050000Y-88050000D03*
X80000000Y-81500000D03*
X70450000Y-74500000D03*
X68600000Y-69000000D03*
X81100000Y-69000000D03*
X66500000Y-98800000D03*
X50400000Y-69000000D03*
X75800000Y-69000000D03*
X80050000Y-80250000D03*
X69800000Y-83600000D03*
X74900000Y-69000000D03*
X60300000Y-69000000D03*
X59400000Y-69000000D03*
X81650000Y-87950000D03*
X71300000Y-69000000D03*
X63800000Y-69000000D03*
X71850000Y-72000000D03*
X63950000Y-98800000D03*
X74325000Y-96587500D03*
X56700000Y-69000000D03*
X71000000Y-89550000D03*
X61700000Y-77250000D03*
X74037500Y-94950000D03*
X76700000Y-69000000D03*
X66800000Y-93700000D03*
X54000000Y-69000000D03*
X62900000Y-69000000D03*
X72600000Y-89550000D03*
X74000000Y-69000000D03*
X68335843Y-74565716D03*
X64700000Y-69000000D03*
X83800000Y-69000000D03*
X61250000Y-72550000D03*
X84700000Y-69500000D03*
X61600000Y-73800000D03*
X79300000Y-69000000D03*
X65600000Y-69000000D03*
X49800000Y-69400000D03*
X56350000Y-88400000D03*
X82000000Y-69000000D03*
X53100000Y-69000000D03*
X79950000Y-82650000D03*
X69500000Y-69000000D03*
X55800000Y-69000000D03*
X78900000Y-85950000D03*
X56450000Y-86300000D03*
X68425789Y-72729328D03*
X54900000Y-69000000D03*
X80650000Y-91250000D03*
X69350000Y-89550000D03*
X72900000Y-75600000D03*
X73250000Y-74500000D03*
X66300000Y-70700000D03*
X80200000Y-69000000D03*
X72650000Y-88050000D03*
X70950000Y-86350000D03*
X72200000Y-69000000D03*
X62000000Y-69000000D03*
X81750000Y-86800000D03*
X69400000Y-88050000D03*
X73000000Y-77900000D03*
X73100000Y-69000000D03*
X61100000Y-69000000D03*
X69350000Y-91100000D03*
X82900000Y-69000000D03*
X70400000Y-69000000D03*
%TO.N,/Processor/NRST*%
X71100000Y-83850000D03*
X80700000Y-92500000D03*
%TO.N,/Processor/I2C_SCL*%
X64150000Y-96750000D03*
X71880000Y-95100000D03*
%TO.N,/Processor/I2C_SDA*%
X71200000Y-95750000D03*
X63250000Y-94800000D03*
%TO.N,/Processor/RF_CS_OUT*%
X68600000Y-84450000D03*
X66225000Y-78725000D03*
%TO.N,/Memory/MEM_SCK*%
X68437500Y-85400000D03*
X63750000Y-85020000D03*
X67000000Y-76800000D03*
%TO.N,/Memory/MEM_MISO*%
X67025000Y-85400000D03*
X56450000Y-83750000D03*
%TO.N,/Processor/RF_IRQ_IN*%
X65550000Y-76750000D03*
X68225000Y-83800000D03*
%TD*%
D15*
%TO.N,/Processor/NRST*%
X71100000Y-83850000D02*
X79750000Y-92500000D01*
X79750000Y-92500000D02*
X80700000Y-92500000D01*
%TO.N,/Processor/I2C_SCL*%
X71107745Y-96374000D02*
X64526000Y-96374000D01*
X71880000Y-95100000D02*
X71880000Y-95601745D01*
X64526000Y-96374000D02*
X64150000Y-96750000D01*
X71880000Y-95601745D02*
X71107745Y-96374000D01*
%TO.N,/Processor/I2C_SDA*%
X71200000Y-95750000D02*
X70250000Y-94800000D01*
X70250000Y-94800000D02*
X63250000Y-94800000D01*
%TO.N,/Processor/RF_CS_OUT*%
X68600000Y-84450000D02*
X68600000Y-79950000D01*
X68600000Y-79950000D02*
X67375000Y-78725000D01*
X67375000Y-78725000D02*
X66225000Y-78725000D01*
%TO.N,/Memory/MEM_SCK*%
X68437500Y-85400000D02*
X69050000Y-84787500D01*
X68057500Y-85020000D02*
X63750000Y-85020000D01*
X69050000Y-84787500D02*
X69050000Y-78850000D01*
X69050000Y-78850000D02*
X67000000Y-76800000D01*
X68437500Y-85400000D02*
X68057500Y-85020000D01*
%TO.N,/Memory/MEM_MISO*%
X56450000Y-83750000D02*
X58400000Y-85700000D01*
X66725000Y-85700000D02*
X67025000Y-85400000D01*
X58400000Y-85700000D02*
X66725000Y-85700000D01*
%TO.N,/Processor/RF_IRQ_IN*%
X65550000Y-81125000D02*
X68225000Y-83800000D01*
X65550000Y-76750000D02*
X65550000Y-81125000D01*
%TD*%
%TA.AperFunction,Conductor*%
%TO.N,GND*%
G36*
X85349295Y-68094994D02*
G01*
X85416279Y-68114863D01*
X85461888Y-68167793D01*
X85472951Y-68218229D01*
X85682561Y-102175060D01*
X85663290Y-102242219D01*
X85610770Y-102288299D01*
X85558901Y-102299825D01*
X49108049Y-102399146D01*
X49040956Y-102379644D01*
X48995057Y-102326965D01*
X48983712Y-102274768D01*
X48992396Y-99443713D01*
X68934500Y-99443713D01*
X68934500Y-99656286D01*
X68967753Y-99866239D01*
X69033444Y-100068414D01*
X69129951Y-100257820D01*
X69254890Y-100429786D01*
X69405213Y-100580109D01*
X69577179Y-100705048D01*
X69577181Y-100705049D01*
X69577184Y-100705051D01*
X69766588Y-100801557D01*
X69968757Y-100867246D01*
X70178713Y-100900500D01*
X70178714Y-100900500D01*
X70391286Y-100900500D01*
X70391287Y-100900500D01*
X70601243Y-100867246D01*
X70803412Y-100801557D01*
X70992816Y-100705051D01*
X71079478Y-100642088D01*
X71164784Y-100580110D01*
X71164784Y-100580109D01*
X71164792Y-100580104D01*
X71278717Y-100466178D01*
X71340036Y-100432696D01*
X71409728Y-100437680D01*
X71465662Y-100479551D01*
X71482577Y-100510528D01*
X71531646Y-100642088D01*
X71531649Y-100642093D01*
X71617809Y-100757187D01*
X71617812Y-100757190D01*
X71732906Y-100843350D01*
X71732913Y-100843354D01*
X71867620Y-100893596D01*
X71867627Y-100893598D01*
X71927155Y-100899999D01*
X71927172Y-100900000D01*
X72575000Y-100900000D01*
X72575000Y-99983012D01*
X72632007Y-100015925D01*
X72759174Y-100050000D01*
X72890826Y-100050000D01*
X73017993Y-100015925D01*
X73075000Y-99983012D01*
X73075000Y-100900000D01*
X73722828Y-100900000D01*
X73722844Y-100899999D01*
X73782372Y-100893598D01*
X73782379Y-100893596D01*
X73917086Y-100843354D01*
X73917093Y-100843350D01*
X74032187Y-100757190D01*
X74032190Y-100757187D01*
X74118350Y-100642093D01*
X74118354Y-100642086D01*
X74168596Y-100507379D01*
X74168598Y-100507372D01*
X74174999Y-100447844D01*
X74175000Y-100447827D01*
X74175000Y-99800000D01*
X73258012Y-99800000D01*
X73290925Y-99742993D01*
X73325000Y-99615826D01*
X73325000Y-99484174D01*
X73290925Y-99357007D01*
X73258012Y-99300000D01*
X74175000Y-99300000D01*
X74175000Y-98652172D01*
X74174999Y-98652155D01*
X74168598Y-98592627D01*
X74168596Y-98592620D01*
X74118354Y-98457913D01*
X74118350Y-98457906D01*
X74032190Y-98342812D01*
X74032187Y-98342809D01*
X73917093Y-98256649D01*
X73917086Y-98256645D01*
X73782379Y-98206403D01*
X73782372Y-98206401D01*
X73722844Y-98200000D01*
X73075000Y-98200000D01*
X73075000Y-99116988D01*
X73017993Y-99084075D01*
X72890826Y-99050000D01*
X72759174Y-99050000D01*
X72632007Y-99084075D01*
X72575000Y-99116988D01*
X72575000Y-98200000D01*
X71927155Y-98200000D01*
X71867627Y-98206401D01*
X71867620Y-98206403D01*
X71732913Y-98256645D01*
X71732906Y-98256649D01*
X71617812Y-98342809D01*
X71617809Y-98342812D01*
X71531649Y-98457906D01*
X71531646Y-98457912D01*
X71482577Y-98589471D01*
X71440705Y-98645404D01*
X71375241Y-98669821D01*
X71306968Y-98654969D01*
X71278714Y-98633818D01*
X71164786Y-98519890D01*
X70992820Y-98394951D01*
X70803414Y-98298444D01*
X70803413Y-98298443D01*
X70803412Y-98298443D01*
X70601243Y-98232754D01*
X70601241Y-98232753D01*
X70601240Y-98232753D01*
X70439957Y-98207208D01*
X70391287Y-98199500D01*
X70178713Y-98199500D01*
X70130042Y-98207208D01*
X69968760Y-98232753D01*
X69766585Y-98298444D01*
X69577179Y-98394951D01*
X69405213Y-98519890D01*
X69254890Y-98670213D01*
X69129951Y-98842179D01*
X69033444Y-99031585D01*
X68967753Y-99233760D01*
X68934500Y-99443713D01*
X48992396Y-99443713D01*
X49001664Y-96422486D01*
X56362000Y-96422486D01*
X56362000Y-96607513D01*
X56390945Y-96790265D01*
X56448119Y-96966232D01*
X56448120Y-96966235D01*
X56513042Y-97093649D01*
X56532122Y-97131096D01*
X56640879Y-97280787D01*
X56771713Y-97411621D01*
X56921404Y-97520378D01*
X57002263Y-97561577D01*
X57086264Y-97604379D01*
X57086267Y-97604380D01*
X57174250Y-97632967D01*
X57262236Y-97661555D01*
X57444986Y-97690500D01*
X57444987Y-97690500D01*
X57630013Y-97690500D01*
X57630014Y-97690500D01*
X57812764Y-97661555D01*
X57988735Y-97604379D01*
X58153596Y-97520378D01*
X58303287Y-97411621D01*
X58434121Y-97280787D01*
X58542878Y-97131096D01*
X58626879Y-96966235D01*
X58684055Y-96790264D01*
X58713000Y-96607514D01*
X58713000Y-96422486D01*
X58684055Y-96239736D01*
X58626879Y-96063765D01*
X58626879Y-96063764D01*
X58542875Y-95898899D01*
X58477704Y-95809200D01*
X58454223Y-95743394D01*
X58470048Y-95675340D01*
X58520153Y-95626645D01*
X58558622Y-95613841D01*
X58667764Y-95596555D01*
X58843735Y-95539379D01*
X59008596Y-95455378D01*
X59158287Y-95346621D01*
X59289121Y-95215787D01*
X59397878Y-95066096D01*
X59481879Y-94901235D01*
X59491554Y-94871457D01*
X62524499Y-94871457D01*
X62552379Y-95011614D01*
X62552381Y-95011620D01*
X62607069Y-95143650D01*
X62607074Y-95143659D01*
X62686467Y-95262478D01*
X62686470Y-95262482D01*
X62787517Y-95363529D01*
X62787521Y-95363532D01*
X62906340Y-95442925D01*
X62906349Y-95442930D01*
X62908109Y-95443659D01*
X63038380Y-95497619D01*
X63038384Y-95497619D01*
X63038385Y-95497620D01*
X63178542Y-95525500D01*
X63178545Y-95525500D01*
X63321457Y-95525500D01*
X63415751Y-95506742D01*
X63461620Y-95497619D01*
X63593653Y-95442929D01*
X63700707Y-95371398D01*
X63767384Y-95350520D01*
X63769598Y-95350500D01*
X69970613Y-95350500D01*
X70037652Y-95370185D01*
X70058294Y-95386819D01*
X70283294Y-95611819D01*
X70316779Y-95673142D01*
X70311795Y-95742834D01*
X70269923Y-95798767D01*
X70204459Y-95823184D01*
X70195613Y-95823500D01*
X64453525Y-95823500D01*
X64348517Y-95851637D01*
X64313514Y-95861016D01*
X64187986Y-95933488D01*
X64128149Y-95993326D01*
X64066825Y-96026810D01*
X64064660Y-96027261D01*
X63938385Y-96052379D01*
X63938379Y-96052381D01*
X63806349Y-96107069D01*
X63806340Y-96107074D01*
X63687521Y-96186467D01*
X63687517Y-96186470D01*
X63586470Y-96287517D01*
X63586467Y-96287521D01*
X63507074Y-96406340D01*
X63507069Y-96406349D01*
X63452381Y-96538379D01*
X63452379Y-96538385D01*
X63424500Y-96678542D01*
X63424500Y-96678545D01*
X63424500Y-96821455D01*
X63424500Y-96821457D01*
X63424499Y-96821457D01*
X63452379Y-96961614D01*
X63452381Y-96961620D01*
X63507069Y-97093650D01*
X63507074Y-97093659D01*
X63586467Y-97212478D01*
X63586470Y-97212482D01*
X63687517Y-97313529D01*
X63687521Y-97313532D01*
X63806340Y-97392925D01*
X63806346Y-97392928D01*
X63806347Y-97392929D01*
X63938380Y-97447619D01*
X63938384Y-97447619D01*
X63938385Y-97447620D01*
X64078542Y-97475500D01*
X64078545Y-97475500D01*
X64221457Y-97475500D01*
X64315751Y-97456742D01*
X64361620Y-97447619D01*
X64493653Y-97392929D01*
X64612479Y-97313532D01*
X64713532Y-97212479D01*
X64792929Y-97093653D01*
X64831288Y-97001047D01*
X64875129Y-96946644D01*
X64941423Y-96924579D01*
X64945849Y-96924500D01*
X71180217Y-96924500D01*
X71180219Y-96924500D01*
X71180220Y-96924500D01*
X71320230Y-96886984D01*
X71445760Y-96814510D01*
X72320509Y-95939760D01*
X72392984Y-95814230D01*
X72394332Y-95809200D01*
X72403042Y-95776697D01*
X72413091Y-95739187D01*
X72430500Y-95674220D01*
X72430500Y-95619598D01*
X72450185Y-95552559D01*
X72451398Y-95550707D01*
X72522925Y-95443659D01*
X72522925Y-95443658D01*
X72522929Y-95443653D01*
X72577619Y-95311620D01*
X72587394Y-95262478D01*
X72605500Y-95171457D01*
X72605500Y-95028542D01*
X72597361Y-94987626D01*
X72594165Y-94971561D01*
X78691700Y-94971561D01*
X78691700Y-95128439D01*
X78732303Y-95279970D01*
X78810741Y-95415830D01*
X78921670Y-95526759D01*
X79057530Y-95605197D01*
X79209061Y-95645800D01*
X79209064Y-95645800D01*
X79365936Y-95645800D01*
X79365939Y-95645800D01*
X79517470Y-95605197D01*
X79653330Y-95526759D01*
X79764259Y-95415830D01*
X79842697Y-95279970D01*
X79883300Y-95128439D01*
X79883300Y-94971561D01*
X79842697Y-94820030D01*
X79764259Y-94684170D01*
X79653330Y-94573241D01*
X79517470Y-94494803D01*
X79517471Y-94494803D01*
X79479587Y-94484652D01*
X79365939Y-94454200D01*
X79209061Y-94454200D01*
X79095412Y-94484652D01*
X79057529Y-94494803D01*
X78921671Y-94573240D01*
X78921668Y-94573242D01*
X78810742Y-94684168D01*
X78810740Y-94684171D01*
X78732303Y-94820029D01*
X78732303Y-94820030D01*
X78691700Y-94971561D01*
X72594165Y-94971561D01*
X72577620Y-94888385D01*
X72577619Y-94888384D01*
X72577619Y-94888380D01*
X72522929Y-94756347D01*
X72522928Y-94756346D01*
X72522925Y-94756340D01*
X72443532Y-94637521D01*
X72443529Y-94637517D01*
X72342482Y-94536470D01*
X72342478Y-94536467D01*
X72223659Y-94457074D01*
X72223650Y-94457069D01*
X72091620Y-94402381D01*
X72091614Y-94402379D01*
X71951457Y-94374500D01*
X71951455Y-94374500D01*
X71808545Y-94374500D01*
X71808543Y-94374500D01*
X71668385Y-94402379D01*
X71668379Y-94402381D01*
X71536349Y-94457069D01*
X71536340Y-94457074D01*
X71417521Y-94536467D01*
X71417517Y-94536470D01*
X71316470Y-94637517D01*
X71316467Y-94637521D01*
X71237074Y-94756340D01*
X71237069Y-94756349D01*
X71234220Y-94763229D01*
X71190377Y-94817631D01*
X71124082Y-94839694D01*
X71056383Y-94822413D01*
X71031979Y-94803454D01*
X70588016Y-94359491D01*
X70588015Y-94359490D01*
X70462485Y-94287016D01*
X70462486Y-94287016D01*
X70427482Y-94277637D01*
X70322475Y-94249500D01*
X70322472Y-94249500D01*
X63769598Y-94249500D01*
X63702559Y-94229815D01*
X63700707Y-94228602D01*
X63593659Y-94157074D01*
X63593650Y-94157069D01*
X63461620Y-94102381D01*
X63461614Y-94102379D01*
X63321457Y-94074500D01*
X63321455Y-94074500D01*
X63178545Y-94074500D01*
X63178543Y-94074500D01*
X63038385Y-94102379D01*
X63038379Y-94102381D01*
X62906349Y-94157069D01*
X62906340Y-94157074D01*
X62787521Y-94236467D01*
X62787517Y-94236470D01*
X62686470Y-94337517D01*
X62686467Y-94337521D01*
X62607074Y-94456340D01*
X62607069Y-94456349D01*
X62552381Y-94588379D01*
X62552379Y-94588385D01*
X62524500Y-94728542D01*
X62524500Y-94728545D01*
X62524500Y-94871455D01*
X62524500Y-94871457D01*
X62524499Y-94871457D01*
X59491554Y-94871457D01*
X59539055Y-94725264D01*
X59568000Y-94542514D01*
X59568000Y-94357486D01*
X59539055Y-94174736D01*
X59481879Y-93998765D01*
X59481879Y-93998764D01*
X59397877Y-93833903D01*
X59289121Y-93684213D01*
X59158287Y-93553379D01*
X59008596Y-93444622D01*
X59000208Y-93440348D01*
X58843735Y-93360620D01*
X58843732Y-93360619D01*
X58667765Y-93303445D01*
X58576389Y-93288972D01*
X58485014Y-93274500D01*
X58299986Y-93274500D01*
X58255045Y-93281618D01*
X58117234Y-93303445D01*
X57941267Y-93360619D01*
X57941264Y-93360620D01*
X57776403Y-93444622D01*
X57690999Y-93506672D01*
X57626713Y-93553379D01*
X57626711Y-93553381D01*
X57626710Y-93553381D01*
X57495881Y-93684210D01*
X57495881Y-93684211D01*
X57495879Y-93684213D01*
X57449172Y-93748499D01*
X57387122Y-93833903D01*
X57303120Y-93998764D01*
X57303119Y-93998767D01*
X57245945Y-94174734D01*
X57217000Y-94357486D01*
X57217000Y-94542513D01*
X57245945Y-94725265D01*
X57303119Y-94901232D01*
X57303120Y-94901235D01*
X57359362Y-95011614D01*
X57387122Y-95066096D01*
X57452296Y-95155801D01*
X57475776Y-95221605D01*
X57459951Y-95289659D01*
X57409845Y-95338354D01*
X57371377Y-95351158D01*
X57262234Y-95368445D01*
X57086267Y-95425619D01*
X57086264Y-95425620D01*
X56921403Y-95509622D01*
X56864855Y-95550707D01*
X56771713Y-95618379D01*
X56771711Y-95618381D01*
X56771710Y-95618381D01*
X56640881Y-95749210D01*
X56640881Y-95749211D01*
X56640879Y-95749213D01*
X56620911Y-95776697D01*
X56532122Y-95898903D01*
X56448120Y-96063764D01*
X56448119Y-96063767D01*
X56390945Y-96239734D01*
X56362000Y-96422486D01*
X49001664Y-96422486D01*
X49004958Y-95348620D01*
X52007431Y-95348620D01*
X52007432Y-95348621D01*
X52055133Y-95380495D01*
X52055139Y-95380498D01*
X52246225Y-95459649D01*
X52246233Y-95459651D01*
X52449079Y-95499999D01*
X52449083Y-95500000D01*
X52655917Y-95500000D01*
X52655920Y-95499999D01*
X52858766Y-95459651D01*
X52858774Y-95459649D01*
X53049866Y-95380495D01*
X53097566Y-95348621D01*
X53097567Y-95348620D01*
X52552501Y-94803554D01*
X52552500Y-94803554D01*
X52007431Y-95348620D01*
X49004958Y-95348620D01*
X49008032Y-94346579D01*
X51502500Y-94346579D01*
X51502500Y-94553420D01*
X51542848Y-94756266D01*
X51542850Y-94756274D01*
X51622000Y-94947359D01*
X51653877Y-94995067D01*
X51653878Y-94995067D01*
X52198946Y-94450000D01*
X52152868Y-94403922D01*
X52202500Y-94403922D01*
X52202500Y-94496078D01*
X52226352Y-94585095D01*
X52272430Y-94664905D01*
X52337595Y-94730070D01*
X52417405Y-94776148D01*
X52506422Y-94800000D01*
X52598578Y-94800000D01*
X52687595Y-94776148D01*
X52767405Y-94730070D01*
X52832570Y-94664905D01*
X52878648Y-94585095D01*
X52902500Y-94496078D01*
X52902500Y-94449999D01*
X52906054Y-94449999D01*
X52906054Y-94450001D01*
X53451120Y-94995067D01*
X53451121Y-94995066D01*
X53482995Y-94947366D01*
X53562149Y-94756274D01*
X53562151Y-94756266D01*
X53602499Y-94553420D01*
X53602500Y-94553417D01*
X53602500Y-94346583D01*
X53602499Y-94346579D01*
X53562151Y-94143733D01*
X53562149Y-94143725D01*
X53482998Y-93952639D01*
X53482995Y-93952633D01*
X53451121Y-93904932D01*
X53451120Y-93904931D01*
X52906054Y-94449999D01*
X52902500Y-94449999D01*
X52902500Y-94403922D01*
X52878648Y-94314905D01*
X52832570Y-94235095D01*
X52767405Y-94169930D01*
X52687595Y-94123852D01*
X52598578Y-94100000D01*
X52506422Y-94100000D01*
X52417405Y-94123852D01*
X52337595Y-94169930D01*
X52272430Y-94235095D01*
X52226352Y-94314905D01*
X52202500Y-94403922D01*
X52152868Y-94403922D01*
X51653878Y-93904932D01*
X51653877Y-93904932D01*
X51622005Y-93952631D01*
X51622000Y-93952641D01*
X51542850Y-94143725D01*
X51542848Y-94143733D01*
X51502500Y-94346579D01*
X49008032Y-94346579D01*
X49010471Y-93551377D01*
X52007432Y-93551377D01*
X52007432Y-93551378D01*
X52552500Y-94096446D01*
X52552501Y-94096446D01*
X53074744Y-93574200D01*
X53136067Y-93540715D01*
X53181818Y-93539408D01*
X53314986Y-93560500D01*
X53314988Y-93560500D01*
X53500013Y-93560500D01*
X53500014Y-93560500D01*
X53682764Y-93531555D01*
X53858735Y-93474379D01*
X54023596Y-93390378D01*
X54173287Y-93281621D01*
X54304121Y-93150787D01*
X54412878Y-93001096D01*
X54496879Y-92836235D01*
X54554055Y-92660264D01*
X54583000Y-92477514D01*
X54583000Y-92471457D01*
X64574499Y-92471457D01*
X64602379Y-92611614D01*
X64602381Y-92611620D01*
X64657069Y-92743650D01*
X64657074Y-92743659D01*
X64736467Y-92862478D01*
X64736470Y-92862482D01*
X64837517Y-92963529D01*
X64837521Y-92963532D01*
X64956340Y-93042925D01*
X64956346Y-93042928D01*
X64956347Y-93042929D01*
X65088380Y-93097619D01*
X65088384Y-93097619D01*
X65088385Y-93097620D01*
X65228542Y-93125500D01*
X65228545Y-93125500D01*
X65371457Y-93125500D01*
X65465751Y-93106742D01*
X65511620Y-93097619D01*
X65643653Y-93042929D01*
X65762479Y-92963532D01*
X65863532Y-92862479D01*
X65942929Y-92743653D01*
X65997619Y-92611620D01*
X66025500Y-92471455D01*
X66025500Y-92328545D01*
X66025500Y-92328542D01*
X65997620Y-92188385D01*
X65997619Y-92188384D01*
X65997619Y-92188380D01*
X65942929Y-92056347D01*
X65942928Y-92056346D01*
X65942925Y-92056340D01*
X65863532Y-91937521D01*
X65863529Y-91937517D01*
X65762482Y-91836470D01*
X65762478Y-91836467D01*
X65643659Y-91757074D01*
X65643650Y-91757069D01*
X65511620Y-91702381D01*
X65511614Y-91702379D01*
X65371457Y-91674500D01*
X65371455Y-91674500D01*
X65228545Y-91674500D01*
X65228543Y-91674500D01*
X65088385Y-91702379D01*
X65088379Y-91702381D01*
X64956349Y-91757069D01*
X64956340Y-91757074D01*
X64837521Y-91836467D01*
X64837517Y-91836470D01*
X64736470Y-91937517D01*
X64736467Y-91937521D01*
X64657074Y-92056340D01*
X64657069Y-92056349D01*
X64602381Y-92188379D01*
X64602379Y-92188385D01*
X64574500Y-92328542D01*
X64574500Y-92328545D01*
X64574500Y-92471455D01*
X64574500Y-92471457D01*
X64574499Y-92471457D01*
X54583000Y-92471457D01*
X54583000Y-92292486D01*
X54554055Y-92109736D01*
X54500360Y-91944477D01*
X54496880Y-91933767D01*
X54496879Y-91933764D01*
X54412877Y-91768903D01*
X54404283Y-91757074D01*
X54304121Y-91619213D01*
X54173287Y-91488379D01*
X54023596Y-91379622D01*
X53858735Y-91295620D01*
X53858732Y-91295619D01*
X53682765Y-91238445D01*
X53591389Y-91223972D01*
X53500014Y-91209500D01*
X53314986Y-91209500D01*
X53254069Y-91219148D01*
X53132234Y-91238445D01*
X52956267Y-91295619D01*
X52956264Y-91295620D01*
X52791403Y-91379622D01*
X52705999Y-91441672D01*
X52641713Y-91488379D01*
X52641711Y-91488381D01*
X52641710Y-91488381D01*
X52510881Y-91619210D01*
X52510881Y-91619211D01*
X52510879Y-91619213D01*
X52493648Y-91642930D01*
X52402122Y-91768903D01*
X52318120Y-91933764D01*
X52318119Y-91933767D01*
X52260945Y-92109734D01*
X52232000Y-92292486D01*
X52232000Y-92477513D01*
X52260945Y-92660265D01*
X52318119Y-92836232D01*
X52318120Y-92836235D01*
X52382982Y-92963532D01*
X52402122Y-93001096D01*
X52510879Y-93150787D01*
X52510881Y-93150789D01*
X52548411Y-93188319D01*
X52581896Y-93249642D01*
X52576912Y-93319334D01*
X52535040Y-93375267D01*
X52469576Y-93399684D01*
X52460730Y-93400000D01*
X52449079Y-93400000D01*
X52246233Y-93440348D01*
X52246225Y-93440350D01*
X52055141Y-93519500D01*
X52055131Y-93519505D01*
X52007432Y-93551377D01*
X49010471Y-93551377D01*
X49022986Y-89471457D01*
X66274499Y-89471457D01*
X66302379Y-89611614D01*
X66302382Y-89611624D01*
X66340044Y-89702548D01*
X66347513Y-89772017D01*
X66340044Y-89797452D01*
X66302382Y-89888375D01*
X66302379Y-89888385D01*
X66274500Y-90028542D01*
X66274500Y-90028545D01*
X66274500Y-90171455D01*
X66274500Y-90171457D01*
X66274499Y-90171457D01*
X66302379Y-90311614D01*
X66302381Y-90311620D01*
X66357069Y-90443650D01*
X66357074Y-90443659D01*
X66436467Y-90562478D01*
X66436470Y-90562482D01*
X66490652Y-90616663D01*
X66524138Y-90677986D01*
X66519154Y-90747678D01*
X66517534Y-90751796D01*
X66502381Y-90788379D01*
X66502379Y-90788385D01*
X66474500Y-90928542D01*
X66474500Y-90928545D01*
X66474500Y-91071455D01*
X66474500Y-91071457D01*
X66474499Y-91071457D01*
X66502379Y-91211614D01*
X66502381Y-91211620D01*
X66557069Y-91343650D01*
X66557074Y-91343659D01*
X66636467Y-91462478D01*
X66636470Y-91462482D01*
X66737517Y-91563529D01*
X66737521Y-91563532D01*
X66856340Y-91642925D01*
X66856346Y-91642928D01*
X66856347Y-91642929D01*
X66988380Y-91697619D01*
X66988384Y-91697619D01*
X66988385Y-91697620D01*
X67128542Y-91725500D01*
X67128545Y-91725500D01*
X67271457Y-91725500D01*
X67387690Y-91702379D01*
X67411620Y-91697619D01*
X67543653Y-91642929D01*
X67662479Y-91563532D01*
X67763532Y-91462479D01*
X67842929Y-91343653D01*
X67897619Y-91211620D01*
X67925500Y-91071455D01*
X67925500Y-90928545D01*
X67925500Y-90928542D01*
X67897620Y-90788385D01*
X67897619Y-90788384D01*
X67897619Y-90788380D01*
X67842929Y-90656347D01*
X67842928Y-90656346D01*
X67842925Y-90656340D01*
X67763532Y-90537521D01*
X67763529Y-90537517D01*
X67709347Y-90483336D01*
X67675861Y-90422013D01*
X67680845Y-90352321D01*
X67682467Y-90348199D01*
X67687590Y-90335831D01*
X67697619Y-90311620D01*
X67725500Y-90171455D01*
X67725500Y-90028545D01*
X67725500Y-90028542D01*
X67697620Y-89888385D01*
X67697619Y-89888384D01*
X67697619Y-89888380D01*
X67659954Y-89797450D01*
X67652486Y-89727984D01*
X67659955Y-89702548D01*
X67697619Y-89611620D01*
X67706742Y-89565751D01*
X67725500Y-89471457D01*
X67725500Y-89328542D01*
X67697620Y-89188385D01*
X67697619Y-89188384D01*
X67697619Y-89188380D01*
X67642929Y-89056347D01*
X67642928Y-89056346D01*
X67642925Y-89056340D01*
X67563532Y-88937521D01*
X67563529Y-88937517D01*
X67462482Y-88836470D01*
X67462478Y-88836467D01*
X67343659Y-88757074D01*
X67343650Y-88757069D01*
X67211620Y-88702381D01*
X67211614Y-88702379D01*
X67071457Y-88674500D01*
X67071455Y-88674500D01*
X66928545Y-88674500D01*
X66928543Y-88674500D01*
X66788385Y-88702379D01*
X66788379Y-88702381D01*
X66656349Y-88757069D01*
X66656340Y-88757074D01*
X66537521Y-88836467D01*
X66537517Y-88836470D01*
X66436470Y-88937517D01*
X66436467Y-88937521D01*
X66357074Y-89056340D01*
X66357069Y-89056349D01*
X66302381Y-89188379D01*
X66302379Y-89188385D01*
X66274500Y-89328542D01*
X66274500Y-89328545D01*
X66274500Y-89471455D01*
X66274500Y-89471457D01*
X66274499Y-89471457D01*
X49022986Y-89471457D01*
X49040317Y-83821457D01*
X55724499Y-83821457D01*
X55752379Y-83961614D01*
X55752381Y-83961620D01*
X55807069Y-84093650D01*
X55807074Y-84093659D01*
X55886467Y-84212478D01*
X55886470Y-84212482D01*
X55987517Y-84313529D01*
X55987521Y-84313532D01*
X56106340Y-84392925D01*
X56106346Y-84392928D01*
X56106347Y-84392929D01*
X56238380Y-84447619D01*
X56331190Y-84466080D01*
X56364659Y-84472738D01*
X56426570Y-84505123D01*
X56428149Y-84506674D01*
X58061985Y-86140510D01*
X58187515Y-86212984D01*
X58327525Y-86250500D01*
X58327528Y-86250500D01*
X66797472Y-86250500D01*
X66797474Y-86250500D01*
X66797475Y-86250500D01*
X66937485Y-86212984D01*
X67063015Y-86140510D01*
X67063017Y-86140507D01*
X67067371Y-86137994D01*
X67105177Y-86123764D01*
X67236620Y-86097619D01*
X67368653Y-86042929D01*
X67487479Y-85963532D01*
X67588532Y-85862479D01*
X67628148Y-85803190D01*
X67681760Y-85758385D01*
X67751085Y-85749678D01*
X67814113Y-85779832D01*
X67834352Y-85803190D01*
X67873967Y-85862478D01*
X67873970Y-85862482D01*
X67975017Y-85963529D01*
X67975021Y-85963532D01*
X68093840Y-86042925D01*
X68093846Y-86042928D01*
X68093847Y-86042929D01*
X68225880Y-86097619D01*
X68225884Y-86097619D01*
X68225885Y-86097620D01*
X68366042Y-86125500D01*
X68366045Y-86125500D01*
X68508957Y-86125500D01*
X68603251Y-86106742D01*
X68649120Y-86097619D01*
X68781153Y-86042929D01*
X68899979Y-85963532D01*
X69001032Y-85862479D01*
X69080429Y-85743653D01*
X69135119Y-85611620D01*
X69160238Y-85485339D01*
X69192623Y-85423429D01*
X69194118Y-85421906D01*
X69490510Y-85125515D01*
X69562984Y-84999985D01*
X69566911Y-84985331D01*
X69600500Y-84859975D01*
X69600500Y-83921457D01*
X70374499Y-83921457D01*
X70402379Y-84061614D01*
X70402381Y-84061620D01*
X70457069Y-84193650D01*
X70457074Y-84193659D01*
X70536467Y-84312478D01*
X70536470Y-84312482D01*
X70637517Y-84413529D01*
X70637521Y-84413532D01*
X70756340Y-84492925D01*
X70756346Y-84492928D01*
X70756347Y-84492929D01*
X70888380Y-84547619D01*
X70981190Y-84566080D01*
X71014659Y-84572738D01*
X71076570Y-84605123D01*
X71078149Y-84606674D01*
X79411985Y-92940510D01*
X79474262Y-92976465D01*
X79537515Y-93012984D01*
X79677525Y-93050500D01*
X80180402Y-93050500D01*
X80247441Y-93070185D01*
X80249293Y-93071398D01*
X80356340Y-93142925D01*
X80356346Y-93142928D01*
X80356347Y-93142929D01*
X80488380Y-93197619D01*
X80488384Y-93197619D01*
X80488385Y-93197620D01*
X80628542Y-93225500D01*
X80628545Y-93225500D01*
X80771457Y-93225500D01*
X80865751Y-93206742D01*
X80911620Y-93197619D01*
X81043653Y-93142929D01*
X81162479Y-93063532D01*
X81263532Y-92962479D01*
X81342929Y-92843653D01*
X81397619Y-92711620D01*
X81425500Y-92571455D01*
X81425500Y-92428545D01*
X81425500Y-92428542D01*
X81397620Y-92288385D01*
X81397619Y-92288384D01*
X81397619Y-92288380D01*
X81342929Y-92156347D01*
X81342928Y-92156346D01*
X81342925Y-92156340D01*
X81263532Y-92037521D01*
X81263529Y-92037517D01*
X81162482Y-91936470D01*
X81162478Y-91936467D01*
X81043659Y-91857074D01*
X81043650Y-91857069D01*
X80911620Y-91802381D01*
X80911614Y-91802379D01*
X80771457Y-91774500D01*
X80771455Y-91774500D01*
X80628545Y-91774500D01*
X80628543Y-91774500D01*
X80488385Y-91802379D01*
X80488379Y-91802381D01*
X80356349Y-91857069D01*
X80356340Y-91857074D01*
X80249293Y-91928602D01*
X80231246Y-91934252D01*
X80215337Y-91944477D01*
X80184377Y-91948928D01*
X80182616Y-91949480D01*
X80180402Y-91949500D01*
X80029387Y-91949500D01*
X79962348Y-91929815D01*
X79941706Y-91913181D01*
X78643988Y-90615463D01*
X78610503Y-90554140D01*
X78615487Y-90484448D01*
X78643988Y-90440101D01*
X78662076Y-90422013D01*
X78748259Y-90335830D01*
X78826697Y-90199970D01*
X78867300Y-90048439D01*
X78867300Y-89891561D01*
X79707700Y-89891561D01*
X79707700Y-90048439D01*
X79748303Y-90199970D01*
X79826741Y-90335830D01*
X79937670Y-90446759D01*
X80073530Y-90525197D01*
X80225061Y-90565800D01*
X80225064Y-90565800D01*
X80381936Y-90565800D01*
X80381939Y-90565800D01*
X80533470Y-90525197D01*
X80669330Y-90446759D01*
X80780259Y-90335830D01*
X80858697Y-90199970D01*
X80899300Y-90048439D01*
X80899300Y-89891561D01*
X80858697Y-89740030D01*
X80780259Y-89604170D01*
X80669330Y-89493241D01*
X80533470Y-89414803D01*
X80533471Y-89414803D01*
X80495587Y-89404652D01*
X80381939Y-89374200D01*
X80225061Y-89374200D01*
X80111412Y-89404652D01*
X80073529Y-89414803D01*
X79937671Y-89493240D01*
X79937668Y-89493242D01*
X79826742Y-89604168D01*
X79826740Y-89604171D01*
X79748303Y-89740029D01*
X79743931Y-89756347D01*
X79707700Y-89891561D01*
X78867300Y-89891561D01*
X78826697Y-89740030D01*
X78748259Y-89604170D01*
X78637330Y-89493241D01*
X78501470Y-89414803D01*
X78501471Y-89414803D01*
X78463587Y-89404652D01*
X78349939Y-89374200D01*
X78193061Y-89374200D01*
X78079412Y-89404652D01*
X78041529Y-89414803D01*
X77905671Y-89493240D01*
X77905668Y-89493242D01*
X77801399Y-89597512D01*
X77740076Y-89630997D01*
X77670384Y-89626013D01*
X77626037Y-89597512D01*
X71856674Y-83828149D01*
X71823189Y-83766826D01*
X71822738Y-83764659D01*
X71797620Y-83638387D01*
X71797620Y-83638385D01*
X71797619Y-83638380D01*
X71742929Y-83506347D01*
X71742928Y-83506346D01*
X71742925Y-83506340D01*
X71663532Y-83387521D01*
X71663529Y-83387517D01*
X71562482Y-83286470D01*
X71562478Y-83286467D01*
X71443659Y-83207074D01*
X71443650Y-83207069D01*
X71311620Y-83152381D01*
X71311614Y-83152379D01*
X71171457Y-83124500D01*
X71171455Y-83124500D01*
X71028545Y-83124500D01*
X71028543Y-83124500D01*
X70888385Y-83152379D01*
X70888379Y-83152381D01*
X70756349Y-83207069D01*
X70756340Y-83207074D01*
X70637521Y-83286467D01*
X70637517Y-83286470D01*
X70536470Y-83387517D01*
X70536467Y-83387521D01*
X70457074Y-83506340D01*
X70457069Y-83506349D01*
X70402381Y-83638379D01*
X70402379Y-83638385D01*
X70374500Y-83778542D01*
X70374500Y-83778545D01*
X70374500Y-83921455D01*
X70374500Y-83921457D01*
X70374499Y-83921457D01*
X69600500Y-83921457D01*
X69600500Y-78777525D01*
X69562984Y-78637515D01*
X69503945Y-78535256D01*
X69490510Y-78511985D01*
X69490508Y-78511983D01*
X69490507Y-78511981D01*
X69490506Y-78511980D01*
X67756674Y-76778149D01*
X67723189Y-76716826D01*
X67722738Y-76714659D01*
X67697620Y-76588387D01*
X67697619Y-76588380D01*
X67642929Y-76456347D01*
X67642928Y-76456346D01*
X67642925Y-76456340D01*
X67563532Y-76337521D01*
X67563529Y-76337517D01*
X67462482Y-76236470D01*
X67462478Y-76236467D01*
X67343659Y-76157074D01*
X67343650Y-76157069D01*
X67211620Y-76102381D01*
X67211614Y-76102379D01*
X67071457Y-76074500D01*
X67071455Y-76074500D01*
X66928545Y-76074500D01*
X66928543Y-76074500D01*
X66788385Y-76102379D01*
X66788379Y-76102381D01*
X66656349Y-76157069D01*
X66656340Y-76157074D01*
X66537521Y-76236467D01*
X66537517Y-76236470D01*
X66436470Y-76337517D01*
X66436467Y-76337521D01*
X66394806Y-76399871D01*
X66341193Y-76444676D01*
X66271868Y-76453383D01*
X66208841Y-76423228D01*
X66188602Y-76399871D01*
X66113532Y-76287520D01*
X66012482Y-76186470D01*
X66012478Y-76186467D01*
X65893659Y-76107074D01*
X65893650Y-76107069D01*
X65761620Y-76052381D01*
X65761614Y-76052379D01*
X65621457Y-76024500D01*
X65621455Y-76024500D01*
X65478545Y-76024500D01*
X65478543Y-76024500D01*
X65338385Y-76052379D01*
X65338379Y-76052381D01*
X65206349Y-76107069D01*
X65206340Y-76107074D01*
X65087521Y-76186467D01*
X65087517Y-76186470D01*
X64986470Y-76287517D01*
X64986467Y-76287521D01*
X64907074Y-76406340D01*
X64907069Y-76406349D01*
X64852381Y-76538379D01*
X64852379Y-76538385D01*
X64824500Y-76678542D01*
X64824500Y-76678545D01*
X64824500Y-76821455D01*
X64824500Y-76821457D01*
X64824499Y-76821457D01*
X64852379Y-76961614D01*
X64852381Y-76961620D01*
X64907069Y-77093650D01*
X64907074Y-77093659D01*
X64978602Y-77200707D01*
X64999480Y-77267384D01*
X64999500Y-77269598D01*
X64999500Y-81052526D01*
X64999500Y-81197474D01*
X65037016Y-81337485D01*
X65109489Y-81463013D01*
X65109491Y-81463016D01*
X67468325Y-83821850D01*
X67501810Y-83883173D01*
X67502261Y-83885339D01*
X67527379Y-84011614D01*
X67527381Y-84011620D01*
X67582069Y-84143650D01*
X67582074Y-84143659D01*
X67661466Y-84262477D01*
X67665045Y-84266838D01*
X67692356Y-84331149D01*
X67680562Y-84400016D01*
X67633409Y-84451575D01*
X67569189Y-84469500D01*
X64269598Y-84469500D01*
X64202559Y-84449815D01*
X64200707Y-84448602D01*
X64093659Y-84377074D01*
X64093650Y-84377069D01*
X63961620Y-84322381D01*
X63961614Y-84322379D01*
X63821457Y-84294500D01*
X63821455Y-84294500D01*
X63678545Y-84294500D01*
X63678543Y-84294500D01*
X63538385Y-84322379D01*
X63538379Y-84322381D01*
X63406349Y-84377069D01*
X63406340Y-84377074D01*
X63287521Y-84456467D01*
X63287517Y-84456470D01*
X63186470Y-84557517D01*
X63186467Y-84557521D01*
X63107074Y-84676340D01*
X63107069Y-84676349D01*
X63052381Y-84808379D01*
X63052379Y-84808385D01*
X63024500Y-84948542D01*
X63024500Y-85025500D01*
X63004815Y-85092539D01*
X62952011Y-85138294D01*
X62900500Y-85149500D01*
X58679387Y-85149500D01*
X58612348Y-85129815D01*
X58591706Y-85113181D01*
X57206674Y-83728149D01*
X57173189Y-83666826D01*
X57172738Y-83664659D01*
X57147620Y-83538387D01*
X57147620Y-83538385D01*
X57147619Y-83538380D01*
X57092929Y-83406347D01*
X57092928Y-83406346D01*
X57092925Y-83406340D01*
X57013532Y-83287521D01*
X57013529Y-83287517D01*
X56912482Y-83186470D01*
X56912478Y-83186467D01*
X56793659Y-83107074D01*
X56793650Y-83107069D01*
X56661620Y-83052381D01*
X56661614Y-83052379D01*
X56521457Y-83024500D01*
X56521455Y-83024500D01*
X56378545Y-83024500D01*
X56378543Y-83024500D01*
X56238385Y-83052379D01*
X56238379Y-83052381D01*
X56106349Y-83107069D01*
X56106340Y-83107074D01*
X55987521Y-83186467D01*
X55987517Y-83186470D01*
X55886470Y-83287517D01*
X55886467Y-83287521D01*
X55807074Y-83406340D01*
X55807069Y-83406349D01*
X55752381Y-83538379D01*
X55752379Y-83538385D01*
X55724500Y-83678542D01*
X55724500Y-83678545D01*
X55724500Y-83821455D01*
X55724500Y-83821457D01*
X55724499Y-83821457D01*
X49040317Y-83821457D01*
X49088483Y-68119335D01*
X49108373Y-68052359D01*
X49161317Y-68006766D01*
X49212820Y-67995718D01*
X85349295Y-68094994D01*
G37*
%TD.AperFunction*%
%TD*%
M02*
