%TF.GenerationSoftware,KiCad,Pcbnew,9.0.0*%
%TF.CreationDate,2025-04-02T00:09:28-04:00*%
%TF.ProjectId,IngestibleCapsule-Board_whole,496e6765-7374-4696-926c-654361707375,rev?*%
%TF.SameCoordinates,Original*%
%TF.FileFunction,Legend,Top*%
%TF.FilePolarity,Positive*%
%FSLAX46Y46*%
G04 Gerber Fmt 4.6, Leading zero omitted, Abs format (unit mm)*
G04 Created by KiCad (PCBNEW 9.0.0) date 2025-04-02 00:09:28*
%MOMM*%
%LPD*%
G01*
G04 APERTURE LIST*
%ADD10C,0.150000*%
%ADD11C,0.100000*%
%ADD12C,0.254000*%
%ADD13C,0.120000*%
%ADD14C,0.200000*%
G04 APERTURE END LIST*
D10*
X63354819Y-91926666D02*
X62878628Y-92259999D01*
X63354819Y-92498094D02*
X62354819Y-92498094D01*
X62354819Y-92498094D02*
X62354819Y-92117142D01*
X62354819Y-92117142D02*
X62402438Y-92021904D01*
X62402438Y-92021904D02*
X62450057Y-91974285D01*
X62450057Y-91974285D02*
X62545295Y-91926666D01*
X62545295Y-91926666D02*
X62688152Y-91926666D01*
X62688152Y-91926666D02*
X62783390Y-91974285D01*
X62783390Y-91974285D02*
X62831009Y-92021904D01*
X62831009Y-92021904D02*
X62878628Y-92117142D01*
X62878628Y-92117142D02*
X62878628Y-92498094D01*
X62354819Y-91593332D02*
X62354819Y-90926666D01*
X62354819Y-90926666D02*
X63354819Y-91355237D01*
X68866666Y-96554819D02*
X68866666Y-97269104D01*
X68866666Y-97269104D02*
X68819047Y-97411961D01*
X68819047Y-97411961D02*
X68723809Y-97507200D01*
X68723809Y-97507200D02*
X68580952Y-97554819D01*
X68580952Y-97554819D02*
X68485714Y-97554819D01*
X69295238Y-96650057D02*
X69342857Y-96602438D01*
X69342857Y-96602438D02*
X69438095Y-96554819D01*
X69438095Y-96554819D02*
X69676190Y-96554819D01*
X69676190Y-96554819D02*
X69771428Y-96602438D01*
X69771428Y-96602438D02*
X69819047Y-96650057D01*
X69819047Y-96650057D02*
X69866666Y-96745295D01*
X69866666Y-96745295D02*
X69866666Y-96840533D01*
X69866666Y-96840533D02*
X69819047Y-96983390D01*
X69819047Y-96983390D02*
X69247619Y-97554819D01*
X69247619Y-97554819D02*
X69866666Y-97554819D01*
X75859580Y-71142857D02*
X75907200Y-71190476D01*
X75907200Y-71190476D02*
X75954819Y-71333333D01*
X75954819Y-71333333D02*
X75954819Y-71428571D01*
X75954819Y-71428571D02*
X75907200Y-71571428D01*
X75907200Y-71571428D02*
X75811961Y-71666666D01*
X75811961Y-71666666D02*
X75716723Y-71714285D01*
X75716723Y-71714285D02*
X75526247Y-71761904D01*
X75526247Y-71761904D02*
X75383390Y-71761904D01*
X75383390Y-71761904D02*
X75192914Y-71714285D01*
X75192914Y-71714285D02*
X75097676Y-71666666D01*
X75097676Y-71666666D02*
X75002438Y-71571428D01*
X75002438Y-71571428D02*
X74954819Y-71428571D01*
X74954819Y-71428571D02*
X74954819Y-71333333D01*
X74954819Y-71333333D02*
X75002438Y-71190476D01*
X75002438Y-71190476D02*
X75050057Y-71142857D01*
X75954819Y-70190476D02*
X75954819Y-70761904D01*
X75954819Y-70476190D02*
X74954819Y-70476190D01*
X74954819Y-70476190D02*
X75097676Y-70571428D01*
X75097676Y-70571428D02*
X75192914Y-70666666D01*
X75192914Y-70666666D02*
X75240533Y-70761904D01*
X74954819Y-69333333D02*
X74954819Y-69523809D01*
X74954819Y-69523809D02*
X75002438Y-69619047D01*
X75002438Y-69619047D02*
X75050057Y-69666666D01*
X75050057Y-69666666D02*
X75192914Y-69761904D01*
X75192914Y-69761904D02*
X75383390Y-69809523D01*
X75383390Y-69809523D02*
X75764342Y-69809523D01*
X75764342Y-69809523D02*
X75859580Y-69761904D01*
X75859580Y-69761904D02*
X75907200Y-69714285D01*
X75907200Y-69714285D02*
X75954819Y-69619047D01*
X75954819Y-69619047D02*
X75954819Y-69428571D01*
X75954819Y-69428571D02*
X75907200Y-69333333D01*
X75907200Y-69333333D02*
X75859580Y-69285714D01*
X75859580Y-69285714D02*
X75764342Y-69238095D01*
X75764342Y-69238095D02*
X75526247Y-69238095D01*
X75526247Y-69238095D02*
X75431009Y-69285714D01*
X75431009Y-69285714D02*
X75383390Y-69333333D01*
X75383390Y-69333333D02*
X75335771Y-69428571D01*
X75335771Y-69428571D02*
X75335771Y-69619047D01*
X75335771Y-69619047D02*
X75383390Y-69714285D01*
X75383390Y-69714285D02*
X75431009Y-69761904D01*
X75431009Y-69761904D02*
X75526247Y-69809523D01*
X73957142Y-77154819D02*
X73623809Y-76678628D01*
X73385714Y-77154819D02*
X73385714Y-76154819D01*
X73385714Y-76154819D02*
X73766666Y-76154819D01*
X73766666Y-76154819D02*
X73861904Y-76202438D01*
X73861904Y-76202438D02*
X73909523Y-76250057D01*
X73909523Y-76250057D02*
X73957142Y-76345295D01*
X73957142Y-76345295D02*
X73957142Y-76488152D01*
X73957142Y-76488152D02*
X73909523Y-76583390D01*
X73909523Y-76583390D02*
X73861904Y-76631009D01*
X73861904Y-76631009D02*
X73766666Y-76678628D01*
X73766666Y-76678628D02*
X73385714Y-76678628D01*
X74909523Y-77154819D02*
X74338095Y-77154819D01*
X74623809Y-77154819D02*
X74623809Y-76154819D01*
X74623809Y-76154819D02*
X74528571Y-76297676D01*
X74528571Y-76297676D02*
X74433333Y-76392914D01*
X74433333Y-76392914D02*
X74338095Y-76440533D01*
X75528571Y-76154819D02*
X75623809Y-76154819D01*
X75623809Y-76154819D02*
X75719047Y-76202438D01*
X75719047Y-76202438D02*
X75766666Y-76250057D01*
X75766666Y-76250057D02*
X75814285Y-76345295D01*
X75814285Y-76345295D02*
X75861904Y-76535771D01*
X75861904Y-76535771D02*
X75861904Y-76773866D01*
X75861904Y-76773866D02*
X75814285Y-76964342D01*
X75814285Y-76964342D02*
X75766666Y-77059580D01*
X75766666Y-77059580D02*
X75719047Y-77107200D01*
X75719047Y-77107200D02*
X75623809Y-77154819D01*
X75623809Y-77154819D02*
X75528571Y-77154819D01*
X75528571Y-77154819D02*
X75433333Y-77107200D01*
X75433333Y-77107200D02*
X75385714Y-77059580D01*
X75385714Y-77059580D02*
X75338095Y-76964342D01*
X75338095Y-76964342D02*
X75290476Y-76773866D01*
X75290476Y-76773866D02*
X75290476Y-76535771D01*
X75290476Y-76535771D02*
X75338095Y-76345295D01*
X75338095Y-76345295D02*
X75385714Y-76250057D01*
X75385714Y-76250057D02*
X75433333Y-76202438D01*
X75433333Y-76202438D02*
X75528571Y-76154819D01*
X80557142Y-83959580D02*
X80509523Y-84007200D01*
X80509523Y-84007200D02*
X80366666Y-84054819D01*
X80366666Y-84054819D02*
X80271428Y-84054819D01*
X80271428Y-84054819D02*
X80128571Y-84007200D01*
X80128571Y-84007200D02*
X80033333Y-83911961D01*
X80033333Y-83911961D02*
X79985714Y-83816723D01*
X79985714Y-83816723D02*
X79938095Y-83626247D01*
X79938095Y-83626247D02*
X79938095Y-83483390D01*
X79938095Y-83483390D02*
X79985714Y-83292914D01*
X79985714Y-83292914D02*
X80033333Y-83197676D01*
X80033333Y-83197676D02*
X80128571Y-83102438D01*
X80128571Y-83102438D02*
X80271428Y-83054819D01*
X80271428Y-83054819D02*
X80366666Y-83054819D01*
X80366666Y-83054819D02*
X80509523Y-83102438D01*
X80509523Y-83102438D02*
X80557142Y-83150057D01*
X81509523Y-84054819D02*
X80938095Y-84054819D01*
X81223809Y-84054819D02*
X81223809Y-83054819D01*
X81223809Y-83054819D02*
X81128571Y-83197676D01*
X81128571Y-83197676D02*
X81033333Y-83292914D01*
X81033333Y-83292914D02*
X80938095Y-83340533D01*
X82128571Y-83054819D02*
X82223809Y-83054819D01*
X82223809Y-83054819D02*
X82319047Y-83102438D01*
X82319047Y-83102438D02*
X82366666Y-83150057D01*
X82366666Y-83150057D02*
X82414285Y-83245295D01*
X82414285Y-83245295D02*
X82461904Y-83435771D01*
X82461904Y-83435771D02*
X82461904Y-83673866D01*
X82461904Y-83673866D02*
X82414285Y-83864342D01*
X82414285Y-83864342D02*
X82366666Y-83959580D01*
X82366666Y-83959580D02*
X82319047Y-84007200D01*
X82319047Y-84007200D02*
X82223809Y-84054819D01*
X82223809Y-84054819D02*
X82128571Y-84054819D01*
X82128571Y-84054819D02*
X82033333Y-84007200D01*
X82033333Y-84007200D02*
X81985714Y-83959580D01*
X81985714Y-83959580D02*
X81938095Y-83864342D01*
X81938095Y-83864342D02*
X81890476Y-83673866D01*
X81890476Y-83673866D02*
X81890476Y-83435771D01*
X81890476Y-83435771D02*
X81938095Y-83245295D01*
X81938095Y-83245295D02*
X81985714Y-83150057D01*
X81985714Y-83150057D02*
X82033333Y-83102438D01*
X82033333Y-83102438D02*
X82128571Y-83054819D01*
X57165516Y-74157526D02*
X57117897Y-74205146D01*
X57117897Y-74205146D02*
X56975040Y-74252765D01*
X56975040Y-74252765D02*
X56879802Y-74252765D01*
X56879802Y-74252765D02*
X56736945Y-74205146D01*
X56736945Y-74205146D02*
X56641707Y-74109907D01*
X56641707Y-74109907D02*
X56594088Y-74014669D01*
X56594088Y-74014669D02*
X56546469Y-73824193D01*
X56546469Y-73824193D02*
X56546469Y-73681336D01*
X56546469Y-73681336D02*
X56594088Y-73490860D01*
X56594088Y-73490860D02*
X56641707Y-73395622D01*
X56641707Y-73395622D02*
X56736945Y-73300384D01*
X56736945Y-73300384D02*
X56879802Y-73252765D01*
X56879802Y-73252765D02*
X56975040Y-73252765D01*
X56975040Y-73252765D02*
X57117897Y-73300384D01*
X57117897Y-73300384D02*
X57165516Y-73348003D01*
X57546469Y-73348003D02*
X57594088Y-73300384D01*
X57594088Y-73300384D02*
X57689326Y-73252765D01*
X57689326Y-73252765D02*
X57927421Y-73252765D01*
X57927421Y-73252765D02*
X58022659Y-73300384D01*
X58022659Y-73300384D02*
X58070278Y-73348003D01*
X58070278Y-73348003D02*
X58117897Y-73443241D01*
X58117897Y-73443241D02*
X58117897Y-73538479D01*
X58117897Y-73538479D02*
X58070278Y-73681336D01*
X58070278Y-73681336D02*
X57498850Y-74252765D01*
X57498850Y-74252765D02*
X58117897Y-74252765D01*
X58451231Y-73252765D02*
X59070278Y-73252765D01*
X59070278Y-73252765D02*
X58736945Y-73633717D01*
X58736945Y-73633717D02*
X58879802Y-73633717D01*
X58879802Y-73633717D02*
X58975040Y-73681336D01*
X58975040Y-73681336D02*
X59022659Y-73728955D01*
X59022659Y-73728955D02*
X59070278Y-73824193D01*
X59070278Y-73824193D02*
X59070278Y-74062288D01*
X59070278Y-74062288D02*
X59022659Y-74157526D01*
X59022659Y-74157526D02*
X58975040Y-74205146D01*
X58975040Y-74205146D02*
X58879802Y-74252765D01*
X58879802Y-74252765D02*
X58594088Y-74252765D01*
X58594088Y-74252765D02*
X58498850Y-74205146D01*
X58498850Y-74205146D02*
X58451231Y-74157526D01*
X64838095Y-69649709D02*
X64838095Y-70459232D01*
X64838095Y-70459232D02*
X64885714Y-70554470D01*
X64885714Y-70554470D02*
X64933333Y-70602090D01*
X64933333Y-70602090D02*
X65028571Y-70649709D01*
X65028571Y-70649709D02*
X65219047Y-70649709D01*
X65219047Y-70649709D02*
X65314285Y-70602090D01*
X65314285Y-70602090D02*
X65361904Y-70554470D01*
X65361904Y-70554470D02*
X65409523Y-70459232D01*
X65409523Y-70459232D02*
X65409523Y-69649709D01*
X66361904Y-69649709D02*
X65885714Y-69649709D01*
X65885714Y-69649709D02*
X65838095Y-70125899D01*
X65838095Y-70125899D02*
X65885714Y-70078280D01*
X65885714Y-70078280D02*
X65980952Y-70030661D01*
X65980952Y-70030661D02*
X66219047Y-70030661D01*
X66219047Y-70030661D02*
X66314285Y-70078280D01*
X66314285Y-70078280D02*
X66361904Y-70125899D01*
X66361904Y-70125899D02*
X66409523Y-70221137D01*
X66409523Y-70221137D02*
X66409523Y-70459232D01*
X66409523Y-70459232D02*
X66361904Y-70554470D01*
X66361904Y-70554470D02*
X66314285Y-70602090D01*
X66314285Y-70602090D02*
X66219047Y-70649709D01*
X66219047Y-70649709D02*
X65980952Y-70649709D01*
X65980952Y-70649709D02*
X65885714Y-70602090D01*
X65885714Y-70602090D02*
X65838095Y-70554470D01*
X81033333Y-80659580D02*
X80985714Y-80707200D01*
X80985714Y-80707200D02*
X80842857Y-80754819D01*
X80842857Y-80754819D02*
X80747619Y-80754819D01*
X80747619Y-80754819D02*
X80604762Y-80707200D01*
X80604762Y-80707200D02*
X80509524Y-80611961D01*
X80509524Y-80611961D02*
X80461905Y-80516723D01*
X80461905Y-80516723D02*
X80414286Y-80326247D01*
X80414286Y-80326247D02*
X80414286Y-80183390D01*
X80414286Y-80183390D02*
X80461905Y-79992914D01*
X80461905Y-79992914D02*
X80509524Y-79897676D01*
X80509524Y-79897676D02*
X80604762Y-79802438D01*
X80604762Y-79802438D02*
X80747619Y-79754819D01*
X80747619Y-79754819D02*
X80842857Y-79754819D01*
X80842857Y-79754819D02*
X80985714Y-79802438D01*
X80985714Y-79802438D02*
X81033333Y-79850057D01*
X81604762Y-80183390D02*
X81509524Y-80135771D01*
X81509524Y-80135771D02*
X81461905Y-80088152D01*
X81461905Y-80088152D02*
X81414286Y-79992914D01*
X81414286Y-79992914D02*
X81414286Y-79945295D01*
X81414286Y-79945295D02*
X81461905Y-79850057D01*
X81461905Y-79850057D02*
X81509524Y-79802438D01*
X81509524Y-79802438D02*
X81604762Y-79754819D01*
X81604762Y-79754819D02*
X81795238Y-79754819D01*
X81795238Y-79754819D02*
X81890476Y-79802438D01*
X81890476Y-79802438D02*
X81938095Y-79850057D01*
X81938095Y-79850057D02*
X81985714Y-79945295D01*
X81985714Y-79945295D02*
X81985714Y-79992914D01*
X81985714Y-79992914D02*
X81938095Y-80088152D01*
X81938095Y-80088152D02*
X81890476Y-80135771D01*
X81890476Y-80135771D02*
X81795238Y-80183390D01*
X81795238Y-80183390D02*
X81604762Y-80183390D01*
X81604762Y-80183390D02*
X81509524Y-80231009D01*
X81509524Y-80231009D02*
X81461905Y-80278628D01*
X81461905Y-80278628D02*
X81414286Y-80373866D01*
X81414286Y-80373866D02*
X81414286Y-80564342D01*
X81414286Y-80564342D02*
X81461905Y-80659580D01*
X81461905Y-80659580D02*
X81509524Y-80707200D01*
X81509524Y-80707200D02*
X81604762Y-80754819D01*
X81604762Y-80754819D02*
X81795238Y-80754819D01*
X81795238Y-80754819D02*
X81890476Y-80707200D01*
X81890476Y-80707200D02*
X81938095Y-80659580D01*
X81938095Y-80659580D02*
X81985714Y-80564342D01*
X81985714Y-80564342D02*
X81985714Y-80373866D01*
X81985714Y-80373866D02*
X81938095Y-80278628D01*
X81938095Y-80278628D02*
X81890476Y-80231009D01*
X81890476Y-80231009D02*
X81795238Y-80183390D01*
X61254819Y-97511904D02*
X62064342Y-97511904D01*
X62064342Y-97511904D02*
X62159580Y-97464285D01*
X62159580Y-97464285D02*
X62207200Y-97416666D01*
X62207200Y-97416666D02*
X62254819Y-97321428D01*
X62254819Y-97321428D02*
X62254819Y-97130952D01*
X62254819Y-97130952D02*
X62207200Y-97035714D01*
X62207200Y-97035714D02*
X62159580Y-96988095D01*
X62159580Y-96988095D02*
X62064342Y-96940476D01*
X62064342Y-96940476D02*
X61254819Y-96940476D01*
X61254819Y-96559523D02*
X61254819Y-95940476D01*
X61254819Y-95940476D02*
X61635771Y-96273809D01*
X61635771Y-96273809D02*
X61635771Y-96130952D01*
X61635771Y-96130952D02*
X61683390Y-96035714D01*
X61683390Y-96035714D02*
X61731009Y-95988095D01*
X61731009Y-95988095D02*
X61826247Y-95940476D01*
X61826247Y-95940476D02*
X62064342Y-95940476D01*
X62064342Y-95940476D02*
X62159580Y-95988095D01*
X62159580Y-95988095D02*
X62207200Y-96035714D01*
X62207200Y-96035714D02*
X62254819Y-96130952D01*
X62254819Y-96130952D02*
X62254819Y-96416666D01*
X62254819Y-96416666D02*
X62207200Y-96511904D01*
X62207200Y-96511904D02*
X62159580Y-96559523D01*
X70133333Y-96354819D02*
X69800000Y-95878628D01*
X69561905Y-96354819D02*
X69561905Y-95354819D01*
X69561905Y-95354819D02*
X69942857Y-95354819D01*
X69942857Y-95354819D02*
X70038095Y-95402438D01*
X70038095Y-95402438D02*
X70085714Y-95450057D01*
X70085714Y-95450057D02*
X70133333Y-95545295D01*
X70133333Y-95545295D02*
X70133333Y-95688152D01*
X70133333Y-95688152D02*
X70085714Y-95783390D01*
X70085714Y-95783390D02*
X70038095Y-95831009D01*
X70038095Y-95831009D02*
X69942857Y-95878628D01*
X69942857Y-95878628D02*
X69561905Y-95878628D01*
X70990476Y-95354819D02*
X70800000Y-95354819D01*
X70800000Y-95354819D02*
X70704762Y-95402438D01*
X70704762Y-95402438D02*
X70657143Y-95450057D01*
X70657143Y-95450057D02*
X70561905Y-95592914D01*
X70561905Y-95592914D02*
X70514286Y-95783390D01*
X70514286Y-95783390D02*
X70514286Y-96164342D01*
X70514286Y-96164342D02*
X70561905Y-96259580D01*
X70561905Y-96259580D02*
X70609524Y-96307200D01*
X70609524Y-96307200D02*
X70704762Y-96354819D01*
X70704762Y-96354819D02*
X70895238Y-96354819D01*
X70895238Y-96354819D02*
X70990476Y-96307200D01*
X70990476Y-96307200D02*
X71038095Y-96259580D01*
X71038095Y-96259580D02*
X71085714Y-96164342D01*
X71085714Y-96164342D02*
X71085714Y-95926247D01*
X71085714Y-95926247D02*
X71038095Y-95831009D01*
X71038095Y-95831009D02*
X70990476Y-95783390D01*
X70990476Y-95783390D02*
X70895238Y-95735771D01*
X70895238Y-95735771D02*
X70704762Y-95735771D01*
X70704762Y-95735771D02*
X70609524Y-95783390D01*
X70609524Y-95783390D02*
X70561905Y-95831009D01*
X70561905Y-95831009D02*
X70514286Y-95926247D01*
X65526003Y-90766755D02*
X65573623Y-90814374D01*
X65573623Y-90814374D02*
X65621242Y-90957231D01*
X65621242Y-90957231D02*
X65621242Y-91052469D01*
X65621242Y-91052469D02*
X65573623Y-91195326D01*
X65573623Y-91195326D02*
X65478384Y-91290564D01*
X65478384Y-91290564D02*
X65383146Y-91338183D01*
X65383146Y-91338183D02*
X65192670Y-91385802D01*
X65192670Y-91385802D02*
X65049813Y-91385802D01*
X65049813Y-91385802D02*
X64859337Y-91338183D01*
X64859337Y-91338183D02*
X64764099Y-91290564D01*
X64764099Y-91290564D02*
X64668861Y-91195326D01*
X64668861Y-91195326D02*
X64621242Y-91052469D01*
X64621242Y-91052469D02*
X64621242Y-90957231D01*
X64621242Y-90957231D02*
X64668861Y-90814374D01*
X64668861Y-90814374D02*
X64716480Y-90766755D01*
X65621242Y-89814374D02*
X65621242Y-90385802D01*
X65621242Y-90100088D02*
X64621242Y-90100088D01*
X64621242Y-90100088D02*
X64764099Y-90195326D01*
X64764099Y-90195326D02*
X64859337Y-90290564D01*
X64859337Y-90290564D02*
X64906956Y-90385802D01*
X76170833Y-94609580D02*
X76123214Y-94657200D01*
X76123214Y-94657200D02*
X75980357Y-94704819D01*
X75980357Y-94704819D02*
X75885119Y-94704819D01*
X75885119Y-94704819D02*
X75742262Y-94657200D01*
X75742262Y-94657200D02*
X75647024Y-94561961D01*
X75647024Y-94561961D02*
X75599405Y-94466723D01*
X75599405Y-94466723D02*
X75551786Y-94276247D01*
X75551786Y-94276247D02*
X75551786Y-94133390D01*
X75551786Y-94133390D02*
X75599405Y-93942914D01*
X75599405Y-93942914D02*
X75647024Y-93847676D01*
X75647024Y-93847676D02*
X75742262Y-93752438D01*
X75742262Y-93752438D02*
X75885119Y-93704819D01*
X75885119Y-93704819D02*
X75980357Y-93704819D01*
X75980357Y-93704819D02*
X76123214Y-93752438D01*
X76123214Y-93752438D02*
X76170833Y-93800057D01*
X77027976Y-94038152D02*
X77027976Y-94704819D01*
X76789881Y-93657200D02*
X76551786Y-94371485D01*
X76551786Y-94371485D02*
X77170833Y-94371485D01*
X80159580Y-85646666D02*
X80207200Y-85694285D01*
X80207200Y-85694285D02*
X80254819Y-85837142D01*
X80254819Y-85837142D02*
X80254819Y-85932380D01*
X80254819Y-85932380D02*
X80207200Y-86075237D01*
X80207200Y-86075237D02*
X80111961Y-86170475D01*
X80111961Y-86170475D02*
X80016723Y-86218094D01*
X80016723Y-86218094D02*
X79826247Y-86265713D01*
X79826247Y-86265713D02*
X79683390Y-86265713D01*
X79683390Y-86265713D02*
X79492914Y-86218094D01*
X79492914Y-86218094D02*
X79397676Y-86170475D01*
X79397676Y-86170475D02*
X79302438Y-86075237D01*
X79302438Y-86075237D02*
X79254819Y-85932380D01*
X79254819Y-85932380D02*
X79254819Y-85837142D01*
X79254819Y-85837142D02*
X79302438Y-85694285D01*
X79302438Y-85694285D02*
X79350057Y-85646666D01*
X79254819Y-84741904D02*
X79254819Y-85218094D01*
X79254819Y-85218094D02*
X79731009Y-85265713D01*
X79731009Y-85265713D02*
X79683390Y-85218094D01*
X79683390Y-85218094D02*
X79635771Y-85122856D01*
X79635771Y-85122856D02*
X79635771Y-84884761D01*
X79635771Y-84884761D02*
X79683390Y-84789523D01*
X79683390Y-84789523D02*
X79731009Y-84741904D01*
X79731009Y-84741904D02*
X79826247Y-84694285D01*
X79826247Y-84694285D02*
X80064342Y-84694285D01*
X80064342Y-84694285D02*
X80159580Y-84741904D01*
X80159580Y-84741904D02*
X80207200Y-84789523D01*
X80207200Y-84789523D02*
X80254819Y-84884761D01*
X80254819Y-84884761D02*
X80254819Y-85122856D01*
X80254819Y-85122856D02*
X80207200Y-85218094D01*
X80207200Y-85218094D02*
X80159580Y-85265713D01*
X81057142Y-81959580D02*
X81009523Y-82007200D01*
X81009523Y-82007200D02*
X80866666Y-82054819D01*
X80866666Y-82054819D02*
X80771428Y-82054819D01*
X80771428Y-82054819D02*
X80628571Y-82007200D01*
X80628571Y-82007200D02*
X80533333Y-81911961D01*
X80533333Y-81911961D02*
X80485714Y-81816723D01*
X80485714Y-81816723D02*
X80438095Y-81626247D01*
X80438095Y-81626247D02*
X80438095Y-81483390D01*
X80438095Y-81483390D02*
X80485714Y-81292914D01*
X80485714Y-81292914D02*
X80533333Y-81197676D01*
X80533333Y-81197676D02*
X80628571Y-81102438D01*
X80628571Y-81102438D02*
X80771428Y-81054819D01*
X80771428Y-81054819D02*
X80866666Y-81054819D01*
X80866666Y-81054819D02*
X81009523Y-81102438D01*
X81009523Y-81102438D02*
X81057142Y-81150057D01*
X82009523Y-82054819D02*
X81438095Y-82054819D01*
X81723809Y-82054819D02*
X81723809Y-81054819D01*
X81723809Y-81054819D02*
X81628571Y-81197676D01*
X81628571Y-81197676D02*
X81533333Y-81292914D01*
X81533333Y-81292914D02*
X81438095Y-81340533D01*
X82961904Y-82054819D02*
X82390476Y-82054819D01*
X82676190Y-82054819D02*
X82676190Y-81054819D01*
X82676190Y-81054819D02*
X82580952Y-81197676D01*
X82580952Y-81197676D02*
X82485714Y-81292914D01*
X82485714Y-81292914D02*
X82390476Y-81340533D01*
X73857142Y-75759580D02*
X73809523Y-75807200D01*
X73809523Y-75807200D02*
X73666666Y-75854819D01*
X73666666Y-75854819D02*
X73571428Y-75854819D01*
X73571428Y-75854819D02*
X73428571Y-75807200D01*
X73428571Y-75807200D02*
X73333333Y-75711961D01*
X73333333Y-75711961D02*
X73285714Y-75616723D01*
X73285714Y-75616723D02*
X73238095Y-75426247D01*
X73238095Y-75426247D02*
X73238095Y-75283390D01*
X73238095Y-75283390D02*
X73285714Y-75092914D01*
X73285714Y-75092914D02*
X73333333Y-74997676D01*
X73333333Y-74997676D02*
X73428571Y-74902438D01*
X73428571Y-74902438D02*
X73571428Y-74854819D01*
X73571428Y-74854819D02*
X73666666Y-74854819D01*
X73666666Y-74854819D02*
X73809523Y-74902438D01*
X73809523Y-74902438D02*
X73857142Y-74950057D01*
X74809523Y-75854819D02*
X74238095Y-75854819D01*
X74523809Y-75854819D02*
X74523809Y-74854819D01*
X74523809Y-74854819D02*
X74428571Y-74997676D01*
X74428571Y-74997676D02*
X74333333Y-75092914D01*
X74333333Y-75092914D02*
X74238095Y-75140533D01*
X75285714Y-75854819D02*
X75476190Y-75854819D01*
X75476190Y-75854819D02*
X75571428Y-75807200D01*
X75571428Y-75807200D02*
X75619047Y-75759580D01*
X75619047Y-75759580D02*
X75714285Y-75616723D01*
X75714285Y-75616723D02*
X75761904Y-75426247D01*
X75761904Y-75426247D02*
X75761904Y-75045295D01*
X75761904Y-75045295D02*
X75714285Y-74950057D01*
X75714285Y-74950057D02*
X75666666Y-74902438D01*
X75666666Y-74902438D02*
X75571428Y-74854819D01*
X75571428Y-74854819D02*
X75380952Y-74854819D01*
X75380952Y-74854819D02*
X75285714Y-74902438D01*
X75285714Y-74902438D02*
X75238095Y-74950057D01*
X75238095Y-74950057D02*
X75190476Y-75045295D01*
X75190476Y-75045295D02*
X75190476Y-75283390D01*
X75190476Y-75283390D02*
X75238095Y-75378628D01*
X75238095Y-75378628D02*
X75285714Y-75426247D01*
X75285714Y-75426247D02*
X75380952Y-75473866D01*
X75380952Y-75473866D02*
X75571428Y-75473866D01*
X75571428Y-75473866D02*
X75666666Y-75426247D01*
X75666666Y-75426247D02*
X75714285Y-75378628D01*
X75714285Y-75378628D02*
X75761904Y-75283390D01*
D11*
X73647452Y-83766419D02*
X73647452Y-84242610D01*
X73314119Y-83242610D02*
X73647452Y-83766419D01*
X73647452Y-83766419D02*
X73980785Y-83242610D01*
X74266500Y-83337848D02*
X74314119Y-83290229D01*
X74314119Y-83290229D02*
X74409357Y-83242610D01*
X74409357Y-83242610D02*
X74647452Y-83242610D01*
X74647452Y-83242610D02*
X74742690Y-83290229D01*
X74742690Y-83290229D02*
X74790309Y-83337848D01*
X74790309Y-83337848D02*
X74837928Y-83433086D01*
X74837928Y-83433086D02*
X74837928Y-83528324D01*
X74837928Y-83528324D02*
X74790309Y-83671181D01*
X74790309Y-83671181D02*
X74218881Y-84242610D01*
X74218881Y-84242610D02*
X74837928Y-84242610D01*
D10*
X60354819Y-73642857D02*
X59878628Y-73976190D01*
X60354819Y-74214285D02*
X59354819Y-74214285D01*
X59354819Y-74214285D02*
X59354819Y-73833333D01*
X59354819Y-73833333D02*
X59402438Y-73738095D01*
X59402438Y-73738095D02*
X59450057Y-73690476D01*
X59450057Y-73690476D02*
X59545295Y-73642857D01*
X59545295Y-73642857D02*
X59688152Y-73642857D01*
X59688152Y-73642857D02*
X59783390Y-73690476D01*
X59783390Y-73690476D02*
X59831009Y-73738095D01*
X59831009Y-73738095D02*
X59878628Y-73833333D01*
X59878628Y-73833333D02*
X59878628Y-74214285D01*
X60354819Y-72690476D02*
X60354819Y-73261904D01*
X60354819Y-72976190D02*
X59354819Y-72976190D01*
X59354819Y-72976190D02*
X59497676Y-73071428D01*
X59497676Y-73071428D02*
X59592914Y-73166666D01*
X59592914Y-73166666D02*
X59640533Y-73261904D01*
X59450057Y-72309523D02*
X59402438Y-72261904D01*
X59402438Y-72261904D02*
X59354819Y-72166666D01*
X59354819Y-72166666D02*
X59354819Y-71928571D01*
X59354819Y-71928571D02*
X59402438Y-71833333D01*
X59402438Y-71833333D02*
X59450057Y-71785714D01*
X59450057Y-71785714D02*
X59545295Y-71738095D01*
X59545295Y-71738095D02*
X59640533Y-71738095D01*
X59640533Y-71738095D02*
X59783390Y-71785714D01*
X59783390Y-71785714D02*
X60354819Y-72357142D01*
X60354819Y-72357142D02*
X60354819Y-71738095D01*
X54893333Y-79792542D02*
X54560000Y-79316351D01*
X54321905Y-79792542D02*
X54321905Y-78792542D01*
X54321905Y-78792542D02*
X54702857Y-78792542D01*
X54702857Y-78792542D02*
X54798095Y-78840161D01*
X54798095Y-78840161D02*
X54845714Y-78887780D01*
X54845714Y-78887780D02*
X54893333Y-78983018D01*
X54893333Y-78983018D02*
X54893333Y-79125875D01*
X54893333Y-79125875D02*
X54845714Y-79221113D01*
X54845714Y-79221113D02*
X54798095Y-79268732D01*
X54798095Y-79268732D02*
X54702857Y-79316351D01*
X54702857Y-79316351D02*
X54321905Y-79316351D01*
X55464762Y-79221113D02*
X55369524Y-79173494D01*
X55369524Y-79173494D02*
X55321905Y-79125875D01*
X55321905Y-79125875D02*
X55274286Y-79030637D01*
X55274286Y-79030637D02*
X55274286Y-78983018D01*
X55274286Y-78983018D02*
X55321905Y-78887780D01*
X55321905Y-78887780D02*
X55369524Y-78840161D01*
X55369524Y-78840161D02*
X55464762Y-78792542D01*
X55464762Y-78792542D02*
X55655238Y-78792542D01*
X55655238Y-78792542D02*
X55750476Y-78840161D01*
X55750476Y-78840161D02*
X55798095Y-78887780D01*
X55798095Y-78887780D02*
X55845714Y-78983018D01*
X55845714Y-78983018D02*
X55845714Y-79030637D01*
X55845714Y-79030637D02*
X55798095Y-79125875D01*
X55798095Y-79125875D02*
X55750476Y-79173494D01*
X55750476Y-79173494D02*
X55655238Y-79221113D01*
X55655238Y-79221113D02*
X55464762Y-79221113D01*
X55464762Y-79221113D02*
X55369524Y-79268732D01*
X55369524Y-79268732D02*
X55321905Y-79316351D01*
X55321905Y-79316351D02*
X55274286Y-79411589D01*
X55274286Y-79411589D02*
X55274286Y-79602065D01*
X55274286Y-79602065D02*
X55321905Y-79697303D01*
X55321905Y-79697303D02*
X55369524Y-79744923D01*
X55369524Y-79744923D02*
X55464762Y-79792542D01*
X55464762Y-79792542D02*
X55655238Y-79792542D01*
X55655238Y-79792542D02*
X55750476Y-79744923D01*
X55750476Y-79744923D02*
X55798095Y-79697303D01*
X55798095Y-79697303D02*
X55845714Y-79602065D01*
X55845714Y-79602065D02*
X55845714Y-79411589D01*
X55845714Y-79411589D02*
X55798095Y-79316351D01*
X55798095Y-79316351D02*
X55750476Y-79268732D01*
X55750476Y-79268732D02*
X55655238Y-79221113D01*
X74270833Y-97659580D02*
X74223214Y-97707200D01*
X74223214Y-97707200D02*
X74080357Y-97754819D01*
X74080357Y-97754819D02*
X73985119Y-97754819D01*
X73985119Y-97754819D02*
X73842262Y-97707200D01*
X73842262Y-97707200D02*
X73747024Y-97611961D01*
X73747024Y-97611961D02*
X73699405Y-97516723D01*
X73699405Y-97516723D02*
X73651786Y-97326247D01*
X73651786Y-97326247D02*
X73651786Y-97183390D01*
X73651786Y-97183390D02*
X73699405Y-96992914D01*
X73699405Y-96992914D02*
X73747024Y-96897676D01*
X73747024Y-96897676D02*
X73842262Y-96802438D01*
X73842262Y-96802438D02*
X73985119Y-96754819D01*
X73985119Y-96754819D02*
X74080357Y-96754819D01*
X74080357Y-96754819D02*
X74223214Y-96802438D01*
X74223214Y-96802438D02*
X74270833Y-96850057D01*
X74604167Y-96754819D02*
X75270833Y-96754819D01*
X75270833Y-96754819D02*
X74842262Y-97754819D01*
D11*
X64285582Y-79314486D02*
X64285582Y-79790677D01*
X63952249Y-78790677D02*
X64285582Y-79314486D01*
X64285582Y-79314486D02*
X64618915Y-78790677D01*
X64857011Y-78790677D02*
X65476058Y-78790677D01*
X65476058Y-78790677D02*
X65142725Y-79171629D01*
X65142725Y-79171629D02*
X65285582Y-79171629D01*
X65285582Y-79171629D02*
X65380820Y-79219248D01*
X65380820Y-79219248D02*
X65428439Y-79266867D01*
X65428439Y-79266867D02*
X65476058Y-79362105D01*
X65476058Y-79362105D02*
X65476058Y-79600200D01*
X65476058Y-79600200D02*
X65428439Y-79695438D01*
X65428439Y-79695438D02*
X65380820Y-79743058D01*
X65380820Y-79743058D02*
X65285582Y-79790677D01*
X65285582Y-79790677D02*
X64999868Y-79790677D01*
X64999868Y-79790677D02*
X64904630Y-79743058D01*
X64904630Y-79743058D02*
X64857011Y-79695438D01*
D10*
X59119580Y-76362857D02*
X59167200Y-76410476D01*
X59167200Y-76410476D02*
X59214819Y-76553333D01*
X59214819Y-76553333D02*
X59214819Y-76648571D01*
X59214819Y-76648571D02*
X59167200Y-76791428D01*
X59167200Y-76791428D02*
X59071961Y-76886666D01*
X59071961Y-76886666D02*
X58976723Y-76934285D01*
X58976723Y-76934285D02*
X58786247Y-76981904D01*
X58786247Y-76981904D02*
X58643390Y-76981904D01*
X58643390Y-76981904D02*
X58452914Y-76934285D01*
X58452914Y-76934285D02*
X58357676Y-76886666D01*
X58357676Y-76886666D02*
X58262438Y-76791428D01*
X58262438Y-76791428D02*
X58214819Y-76648571D01*
X58214819Y-76648571D02*
X58214819Y-76553333D01*
X58214819Y-76553333D02*
X58262438Y-76410476D01*
X58262438Y-76410476D02*
X58310057Y-76362857D01*
X58310057Y-75981904D02*
X58262438Y-75934285D01*
X58262438Y-75934285D02*
X58214819Y-75839047D01*
X58214819Y-75839047D02*
X58214819Y-75600952D01*
X58214819Y-75600952D02*
X58262438Y-75505714D01*
X58262438Y-75505714D02*
X58310057Y-75458095D01*
X58310057Y-75458095D02*
X58405295Y-75410476D01*
X58405295Y-75410476D02*
X58500533Y-75410476D01*
X58500533Y-75410476D02*
X58643390Y-75458095D01*
X58643390Y-75458095D02*
X59214819Y-76029523D01*
X59214819Y-76029523D02*
X59214819Y-75410476D01*
X59214819Y-74458095D02*
X59214819Y-75029523D01*
X59214819Y-74743809D02*
X58214819Y-74743809D01*
X58214819Y-74743809D02*
X58357676Y-74839047D01*
X58357676Y-74839047D02*
X58452914Y-74934285D01*
X58452914Y-74934285D02*
X58500533Y-75029523D01*
X75922319Y-89461904D02*
X76731842Y-89461904D01*
X76731842Y-89461904D02*
X76827080Y-89414285D01*
X76827080Y-89414285D02*
X76874700Y-89366666D01*
X76874700Y-89366666D02*
X76922319Y-89271428D01*
X76922319Y-89271428D02*
X76922319Y-89080952D01*
X76922319Y-89080952D02*
X76874700Y-88985714D01*
X76874700Y-88985714D02*
X76827080Y-88938095D01*
X76827080Y-88938095D02*
X76731842Y-88890476D01*
X76731842Y-88890476D02*
X75922319Y-88890476D01*
X76922319Y-87890476D02*
X76922319Y-88461904D01*
X76922319Y-88176190D02*
X75922319Y-88176190D01*
X75922319Y-88176190D02*
X76065176Y-88271428D01*
X76065176Y-88271428D02*
X76160414Y-88366666D01*
X76160414Y-88366666D02*
X76208033Y-88461904D01*
X75859580Y-73942857D02*
X75907200Y-73990476D01*
X75907200Y-73990476D02*
X75954819Y-74133333D01*
X75954819Y-74133333D02*
X75954819Y-74228571D01*
X75954819Y-74228571D02*
X75907200Y-74371428D01*
X75907200Y-74371428D02*
X75811961Y-74466666D01*
X75811961Y-74466666D02*
X75716723Y-74514285D01*
X75716723Y-74514285D02*
X75526247Y-74561904D01*
X75526247Y-74561904D02*
X75383390Y-74561904D01*
X75383390Y-74561904D02*
X75192914Y-74514285D01*
X75192914Y-74514285D02*
X75097676Y-74466666D01*
X75097676Y-74466666D02*
X75002438Y-74371428D01*
X75002438Y-74371428D02*
X74954819Y-74228571D01*
X74954819Y-74228571D02*
X74954819Y-74133333D01*
X74954819Y-74133333D02*
X75002438Y-73990476D01*
X75002438Y-73990476D02*
X75050057Y-73942857D01*
X75954819Y-72990476D02*
X75954819Y-73561904D01*
X75954819Y-73276190D02*
X74954819Y-73276190D01*
X74954819Y-73276190D02*
X75097676Y-73371428D01*
X75097676Y-73371428D02*
X75192914Y-73466666D01*
X75192914Y-73466666D02*
X75240533Y-73561904D01*
X74954819Y-72085714D02*
X74954819Y-72561904D01*
X74954819Y-72561904D02*
X75431009Y-72609523D01*
X75431009Y-72609523D02*
X75383390Y-72561904D01*
X75383390Y-72561904D02*
X75335771Y-72466666D01*
X75335771Y-72466666D02*
X75335771Y-72228571D01*
X75335771Y-72228571D02*
X75383390Y-72133333D01*
X75383390Y-72133333D02*
X75431009Y-72085714D01*
X75431009Y-72085714D02*
X75526247Y-72038095D01*
X75526247Y-72038095D02*
X75764342Y-72038095D01*
X75764342Y-72038095D02*
X75859580Y-72085714D01*
X75859580Y-72085714D02*
X75907200Y-72133333D01*
X75907200Y-72133333D02*
X75954819Y-72228571D01*
X75954819Y-72228571D02*
X75954819Y-72466666D01*
X75954819Y-72466666D02*
X75907200Y-72561904D01*
X75907200Y-72561904D02*
X75859580Y-72609523D01*
X69937080Y-80196666D02*
X69984700Y-80244285D01*
X69984700Y-80244285D02*
X70032319Y-80387142D01*
X70032319Y-80387142D02*
X70032319Y-80482380D01*
X70032319Y-80482380D02*
X69984700Y-80625237D01*
X69984700Y-80625237D02*
X69889461Y-80720475D01*
X69889461Y-80720475D02*
X69794223Y-80768094D01*
X69794223Y-80768094D02*
X69603747Y-80815713D01*
X69603747Y-80815713D02*
X69460890Y-80815713D01*
X69460890Y-80815713D02*
X69270414Y-80768094D01*
X69270414Y-80768094D02*
X69175176Y-80720475D01*
X69175176Y-80720475D02*
X69079938Y-80625237D01*
X69079938Y-80625237D02*
X69032319Y-80482380D01*
X69032319Y-80482380D02*
X69032319Y-80387142D01*
X69032319Y-80387142D02*
X69079938Y-80244285D01*
X69079938Y-80244285D02*
X69127557Y-80196666D01*
X70032319Y-79720475D02*
X70032319Y-79529999D01*
X70032319Y-79529999D02*
X69984700Y-79434761D01*
X69984700Y-79434761D02*
X69937080Y-79387142D01*
X69937080Y-79387142D02*
X69794223Y-79291904D01*
X69794223Y-79291904D02*
X69603747Y-79244285D01*
X69603747Y-79244285D02*
X69222795Y-79244285D01*
X69222795Y-79244285D02*
X69127557Y-79291904D01*
X69127557Y-79291904D02*
X69079938Y-79339523D01*
X69079938Y-79339523D02*
X69032319Y-79434761D01*
X69032319Y-79434761D02*
X69032319Y-79625237D01*
X69032319Y-79625237D02*
X69079938Y-79720475D01*
X69079938Y-79720475D02*
X69127557Y-79768094D01*
X69127557Y-79768094D02*
X69222795Y-79815713D01*
X69222795Y-79815713D02*
X69460890Y-79815713D01*
X69460890Y-79815713D02*
X69556128Y-79768094D01*
X69556128Y-79768094D02*
X69603747Y-79720475D01*
X69603747Y-79720475D02*
X69651366Y-79625237D01*
X69651366Y-79625237D02*
X69651366Y-79434761D01*
X69651366Y-79434761D02*
X69603747Y-79339523D01*
X69603747Y-79339523D02*
X69556128Y-79291904D01*
X69556128Y-79291904D02*
X69460890Y-79244285D01*
D11*
X68722361Y-66433326D02*
X69198551Y-66433326D01*
X68627123Y-66719041D02*
X68960456Y-65719041D01*
X68960456Y-65719041D02*
X69293789Y-66719041D01*
X69627123Y-66195231D02*
X69960456Y-66195231D01*
X70103313Y-66719041D02*
X69627123Y-66719041D01*
X69627123Y-66719041D02*
X69627123Y-65719041D01*
X69627123Y-65719041D02*
X70103313Y-65719041D01*
X71055694Y-66719041D02*
X70484266Y-66719041D01*
X70769980Y-66719041D02*
X70769980Y-65719041D01*
X70769980Y-65719041D02*
X70674742Y-65861898D01*
X70674742Y-65861898D02*
X70579504Y-65957136D01*
X70579504Y-65957136D02*
X70484266Y-66004755D01*
D10*
X74654819Y-71166666D02*
X74654819Y-71642856D01*
X74654819Y-71642856D02*
X73654819Y-71642856D01*
X74654819Y-70309523D02*
X74654819Y-70880951D01*
X74654819Y-70595237D02*
X73654819Y-70595237D01*
X73654819Y-70595237D02*
X73797676Y-70690475D01*
X73797676Y-70690475D02*
X73892914Y-70785713D01*
X73892914Y-70785713D02*
X73940533Y-70880951D01*
X72213651Y-84494181D02*
X71880318Y-84017990D01*
X71642223Y-84494181D02*
X71642223Y-83494181D01*
X71642223Y-83494181D02*
X72023175Y-83494181D01*
X72023175Y-83494181D02*
X72118413Y-83541800D01*
X72118413Y-83541800D02*
X72166032Y-83589419D01*
X72166032Y-83589419D02*
X72213651Y-83684657D01*
X72213651Y-83684657D02*
X72213651Y-83827514D01*
X72213651Y-83827514D02*
X72166032Y-83922752D01*
X72166032Y-83922752D02*
X72118413Y-83970371D01*
X72118413Y-83970371D02*
X72023175Y-84017990D01*
X72023175Y-84017990D02*
X71642223Y-84017990D01*
X72546985Y-83494181D02*
X73166032Y-83494181D01*
X73166032Y-83494181D02*
X72832699Y-83875133D01*
X72832699Y-83875133D02*
X72975556Y-83875133D01*
X72975556Y-83875133D02*
X73070794Y-83922752D01*
X73070794Y-83922752D02*
X73118413Y-83970371D01*
X73118413Y-83970371D02*
X73166032Y-84065609D01*
X73166032Y-84065609D02*
X73166032Y-84303704D01*
X73166032Y-84303704D02*
X73118413Y-84398942D01*
X73118413Y-84398942D02*
X73070794Y-84446562D01*
X73070794Y-84446562D02*
X72975556Y-84494181D01*
X72975556Y-84494181D02*
X72689842Y-84494181D01*
X72689842Y-84494181D02*
X72594604Y-84446562D01*
X72594604Y-84446562D02*
X72546985Y-84398942D01*
X59159580Y-79142857D02*
X59207200Y-79190476D01*
X59207200Y-79190476D02*
X59254819Y-79333333D01*
X59254819Y-79333333D02*
X59254819Y-79428571D01*
X59254819Y-79428571D02*
X59207200Y-79571428D01*
X59207200Y-79571428D02*
X59111961Y-79666666D01*
X59111961Y-79666666D02*
X59016723Y-79714285D01*
X59016723Y-79714285D02*
X58826247Y-79761904D01*
X58826247Y-79761904D02*
X58683390Y-79761904D01*
X58683390Y-79761904D02*
X58492914Y-79714285D01*
X58492914Y-79714285D02*
X58397676Y-79666666D01*
X58397676Y-79666666D02*
X58302438Y-79571428D01*
X58302438Y-79571428D02*
X58254819Y-79428571D01*
X58254819Y-79428571D02*
X58254819Y-79333333D01*
X58254819Y-79333333D02*
X58302438Y-79190476D01*
X58302438Y-79190476D02*
X58350057Y-79142857D01*
X58350057Y-78761904D02*
X58302438Y-78714285D01*
X58302438Y-78714285D02*
X58254819Y-78619047D01*
X58254819Y-78619047D02*
X58254819Y-78380952D01*
X58254819Y-78380952D02*
X58302438Y-78285714D01*
X58302438Y-78285714D02*
X58350057Y-78238095D01*
X58350057Y-78238095D02*
X58445295Y-78190476D01*
X58445295Y-78190476D02*
X58540533Y-78190476D01*
X58540533Y-78190476D02*
X58683390Y-78238095D01*
X58683390Y-78238095D02*
X59254819Y-78809523D01*
X59254819Y-78809523D02*
X59254819Y-78190476D01*
X58254819Y-77571428D02*
X58254819Y-77476190D01*
X58254819Y-77476190D02*
X58302438Y-77380952D01*
X58302438Y-77380952D02*
X58350057Y-77333333D01*
X58350057Y-77333333D02*
X58445295Y-77285714D01*
X58445295Y-77285714D02*
X58635771Y-77238095D01*
X58635771Y-77238095D02*
X58873866Y-77238095D01*
X58873866Y-77238095D02*
X59064342Y-77285714D01*
X59064342Y-77285714D02*
X59159580Y-77333333D01*
X59159580Y-77333333D02*
X59207200Y-77380952D01*
X59207200Y-77380952D02*
X59254819Y-77476190D01*
X59254819Y-77476190D02*
X59254819Y-77571428D01*
X59254819Y-77571428D02*
X59207200Y-77666666D01*
X59207200Y-77666666D02*
X59159580Y-77714285D01*
X59159580Y-77714285D02*
X59064342Y-77761904D01*
X59064342Y-77761904D02*
X58873866Y-77809523D01*
X58873866Y-77809523D02*
X58635771Y-77809523D01*
X58635771Y-77809523D02*
X58445295Y-77761904D01*
X58445295Y-77761904D02*
X58350057Y-77714285D01*
X58350057Y-77714285D02*
X58302438Y-77666666D01*
X58302438Y-77666666D02*
X58254819Y-77571428D01*
X82733333Y-88454819D02*
X82400000Y-87978628D01*
X82161905Y-88454819D02*
X82161905Y-87454819D01*
X82161905Y-87454819D02*
X82542857Y-87454819D01*
X82542857Y-87454819D02*
X82638095Y-87502438D01*
X82638095Y-87502438D02*
X82685714Y-87550057D01*
X82685714Y-87550057D02*
X82733333Y-87645295D01*
X82733333Y-87645295D02*
X82733333Y-87788152D01*
X82733333Y-87788152D02*
X82685714Y-87883390D01*
X82685714Y-87883390D02*
X82638095Y-87931009D01*
X82638095Y-87931009D02*
X82542857Y-87978628D01*
X82542857Y-87978628D02*
X82161905Y-87978628D01*
X83590476Y-87788152D02*
X83590476Y-88454819D01*
X83352381Y-87407200D02*
X83114286Y-88121485D01*
X83114286Y-88121485D02*
X83733333Y-88121485D01*
X61757142Y-70769209D02*
X61423809Y-70293018D01*
X61185714Y-70769209D02*
X61185714Y-69769209D01*
X61185714Y-69769209D02*
X61566666Y-69769209D01*
X61566666Y-69769209D02*
X61661904Y-69816828D01*
X61661904Y-69816828D02*
X61709523Y-69864447D01*
X61709523Y-69864447D02*
X61757142Y-69959685D01*
X61757142Y-69959685D02*
X61757142Y-70102542D01*
X61757142Y-70102542D02*
X61709523Y-70197780D01*
X61709523Y-70197780D02*
X61661904Y-70245399D01*
X61661904Y-70245399D02*
X61566666Y-70293018D01*
X61566666Y-70293018D02*
X61185714Y-70293018D01*
X62709523Y-70769209D02*
X62138095Y-70769209D01*
X62423809Y-70769209D02*
X62423809Y-69769209D01*
X62423809Y-69769209D02*
X62328571Y-69912066D01*
X62328571Y-69912066D02*
X62233333Y-70007304D01*
X62233333Y-70007304D02*
X62138095Y-70054923D01*
X63661904Y-70769209D02*
X63090476Y-70769209D01*
X63376190Y-70769209D02*
X63376190Y-69769209D01*
X63376190Y-69769209D02*
X63280952Y-69912066D01*
X63280952Y-69912066D02*
X63185714Y-70007304D01*
X63185714Y-70007304D02*
X63090476Y-70054923D01*
D12*
X59432380Y-89904318D02*
X59432380Y-90932413D01*
X59432380Y-90932413D02*
X59492857Y-91053365D01*
X59492857Y-91053365D02*
X59553333Y-91113842D01*
X59553333Y-91113842D02*
X59674285Y-91174318D01*
X59674285Y-91174318D02*
X59916190Y-91174318D01*
X59916190Y-91174318D02*
X60037142Y-91113842D01*
X60037142Y-91113842D02*
X60097619Y-91053365D01*
X60097619Y-91053365D02*
X60158095Y-90932413D01*
X60158095Y-90932413D02*
X60158095Y-89904318D01*
X60702380Y-90025270D02*
X60762856Y-89964794D01*
X60762856Y-89964794D02*
X60883809Y-89904318D01*
X60883809Y-89904318D02*
X61186190Y-89904318D01*
X61186190Y-89904318D02*
X61307142Y-89964794D01*
X61307142Y-89964794D02*
X61367618Y-90025270D01*
X61367618Y-90025270D02*
X61428095Y-90146222D01*
X61428095Y-90146222D02*
X61428095Y-90267175D01*
X61428095Y-90267175D02*
X61367618Y-90448603D01*
X61367618Y-90448603D02*
X60641904Y-91174318D01*
X60641904Y-91174318D02*
X61428095Y-91174318D01*
D10*
X60257142Y-100159580D02*
X60209523Y-100207200D01*
X60209523Y-100207200D02*
X60066666Y-100254819D01*
X60066666Y-100254819D02*
X59971428Y-100254819D01*
X59971428Y-100254819D02*
X59828571Y-100207200D01*
X59828571Y-100207200D02*
X59733333Y-100111961D01*
X59733333Y-100111961D02*
X59685714Y-100016723D01*
X59685714Y-100016723D02*
X59638095Y-99826247D01*
X59638095Y-99826247D02*
X59638095Y-99683390D01*
X59638095Y-99683390D02*
X59685714Y-99492914D01*
X59685714Y-99492914D02*
X59733333Y-99397676D01*
X59733333Y-99397676D02*
X59828571Y-99302438D01*
X59828571Y-99302438D02*
X59971428Y-99254819D01*
X59971428Y-99254819D02*
X60066666Y-99254819D01*
X60066666Y-99254819D02*
X60209523Y-99302438D01*
X60209523Y-99302438D02*
X60257142Y-99350057D01*
X61209523Y-100254819D02*
X60638095Y-100254819D01*
X60923809Y-100254819D02*
X60923809Y-99254819D01*
X60923809Y-99254819D02*
X60828571Y-99397676D01*
X60828571Y-99397676D02*
X60733333Y-99492914D01*
X60733333Y-99492914D02*
X60638095Y-99540533D01*
X61542857Y-99254819D02*
X62161904Y-99254819D01*
X62161904Y-99254819D02*
X61828571Y-99635771D01*
X61828571Y-99635771D02*
X61971428Y-99635771D01*
X61971428Y-99635771D02*
X62066666Y-99683390D01*
X62066666Y-99683390D02*
X62114285Y-99731009D01*
X62114285Y-99731009D02*
X62161904Y-99826247D01*
X62161904Y-99826247D02*
X62161904Y-100064342D01*
X62161904Y-100064342D02*
X62114285Y-100159580D01*
X62114285Y-100159580D02*
X62066666Y-100207200D01*
X62066666Y-100207200D02*
X61971428Y-100254819D01*
X61971428Y-100254819D02*
X61685714Y-100254819D01*
X61685714Y-100254819D02*
X61590476Y-100207200D01*
X61590476Y-100207200D02*
X61542857Y-100159580D01*
X82733333Y-87154819D02*
X82400000Y-86678628D01*
X82161905Y-87154819D02*
X82161905Y-86154819D01*
X82161905Y-86154819D02*
X82542857Y-86154819D01*
X82542857Y-86154819D02*
X82638095Y-86202438D01*
X82638095Y-86202438D02*
X82685714Y-86250057D01*
X82685714Y-86250057D02*
X82733333Y-86345295D01*
X82733333Y-86345295D02*
X82733333Y-86488152D01*
X82733333Y-86488152D02*
X82685714Y-86583390D01*
X82685714Y-86583390D02*
X82638095Y-86631009D01*
X82638095Y-86631009D02*
X82542857Y-86678628D01*
X82542857Y-86678628D02*
X82161905Y-86678628D01*
X83114286Y-86250057D02*
X83161905Y-86202438D01*
X83161905Y-86202438D02*
X83257143Y-86154819D01*
X83257143Y-86154819D02*
X83495238Y-86154819D01*
X83495238Y-86154819D02*
X83590476Y-86202438D01*
X83590476Y-86202438D02*
X83638095Y-86250057D01*
X83638095Y-86250057D02*
X83685714Y-86345295D01*
X83685714Y-86345295D02*
X83685714Y-86440533D01*
X83685714Y-86440533D02*
X83638095Y-86583390D01*
X83638095Y-86583390D02*
X83066667Y-87154819D01*
X83066667Y-87154819D02*
X83685714Y-87154819D01*
X68329913Y-82237414D02*
X67996580Y-81761223D01*
X67758485Y-82237414D02*
X67758485Y-81237414D01*
X67758485Y-81237414D02*
X68139437Y-81237414D01*
X68139437Y-81237414D02*
X68234675Y-81285033D01*
X68234675Y-81285033D02*
X68282294Y-81332652D01*
X68282294Y-81332652D02*
X68329913Y-81427890D01*
X68329913Y-81427890D02*
X68329913Y-81570747D01*
X68329913Y-81570747D02*
X68282294Y-81665985D01*
X68282294Y-81665985D02*
X68234675Y-81713604D01*
X68234675Y-81713604D02*
X68139437Y-81761223D01*
X68139437Y-81761223D02*
X67758485Y-81761223D01*
X69282294Y-82237414D02*
X68710866Y-82237414D01*
X68996580Y-82237414D02*
X68996580Y-81237414D01*
X68996580Y-81237414D02*
X68901342Y-81380271D01*
X68901342Y-81380271D02*
X68806104Y-81475509D01*
X68806104Y-81475509D02*
X68710866Y-81523128D01*
X56957142Y-88759580D02*
X56909523Y-88807200D01*
X56909523Y-88807200D02*
X56766666Y-88854819D01*
X56766666Y-88854819D02*
X56671428Y-88854819D01*
X56671428Y-88854819D02*
X56528571Y-88807200D01*
X56528571Y-88807200D02*
X56433333Y-88711961D01*
X56433333Y-88711961D02*
X56385714Y-88616723D01*
X56385714Y-88616723D02*
X56338095Y-88426247D01*
X56338095Y-88426247D02*
X56338095Y-88283390D01*
X56338095Y-88283390D02*
X56385714Y-88092914D01*
X56385714Y-88092914D02*
X56433333Y-87997676D01*
X56433333Y-87997676D02*
X56528571Y-87902438D01*
X56528571Y-87902438D02*
X56671428Y-87854819D01*
X56671428Y-87854819D02*
X56766666Y-87854819D01*
X56766666Y-87854819D02*
X56909523Y-87902438D01*
X56909523Y-87902438D02*
X56957142Y-87950057D01*
X57909523Y-88854819D02*
X57338095Y-88854819D01*
X57623809Y-88854819D02*
X57623809Y-87854819D01*
X57623809Y-87854819D02*
X57528571Y-87997676D01*
X57528571Y-87997676D02*
X57433333Y-88092914D01*
X57433333Y-88092914D02*
X57338095Y-88140533D01*
X58290476Y-87950057D02*
X58338095Y-87902438D01*
X58338095Y-87902438D02*
X58433333Y-87854819D01*
X58433333Y-87854819D02*
X58671428Y-87854819D01*
X58671428Y-87854819D02*
X58766666Y-87902438D01*
X58766666Y-87902438D02*
X58814285Y-87950057D01*
X58814285Y-87950057D02*
X58861904Y-88045295D01*
X58861904Y-88045295D02*
X58861904Y-88140533D01*
X58861904Y-88140533D02*
X58814285Y-88283390D01*
X58814285Y-88283390D02*
X58242857Y-88854819D01*
X58242857Y-88854819D02*
X58861904Y-88854819D01*
X74559580Y-73942857D02*
X74607200Y-73990476D01*
X74607200Y-73990476D02*
X74654819Y-74133333D01*
X74654819Y-74133333D02*
X74654819Y-74228571D01*
X74654819Y-74228571D02*
X74607200Y-74371428D01*
X74607200Y-74371428D02*
X74511961Y-74466666D01*
X74511961Y-74466666D02*
X74416723Y-74514285D01*
X74416723Y-74514285D02*
X74226247Y-74561904D01*
X74226247Y-74561904D02*
X74083390Y-74561904D01*
X74083390Y-74561904D02*
X73892914Y-74514285D01*
X73892914Y-74514285D02*
X73797676Y-74466666D01*
X73797676Y-74466666D02*
X73702438Y-74371428D01*
X73702438Y-74371428D02*
X73654819Y-74228571D01*
X73654819Y-74228571D02*
X73654819Y-74133333D01*
X73654819Y-74133333D02*
X73702438Y-73990476D01*
X73702438Y-73990476D02*
X73750057Y-73942857D01*
X74654819Y-72990476D02*
X74654819Y-73561904D01*
X74654819Y-73276190D02*
X73654819Y-73276190D01*
X73654819Y-73276190D02*
X73797676Y-73371428D01*
X73797676Y-73371428D02*
X73892914Y-73466666D01*
X73892914Y-73466666D02*
X73940533Y-73561904D01*
X73654819Y-72657142D02*
X73654819Y-71990476D01*
X73654819Y-71990476D02*
X74654819Y-72419047D01*
X68277430Y-83342722D02*
X68229811Y-83390342D01*
X68229811Y-83390342D02*
X68086954Y-83437961D01*
X68086954Y-83437961D02*
X67991716Y-83437961D01*
X67991716Y-83437961D02*
X67848859Y-83390342D01*
X67848859Y-83390342D02*
X67753621Y-83295103D01*
X67753621Y-83295103D02*
X67706002Y-83199865D01*
X67706002Y-83199865D02*
X67658383Y-83009389D01*
X67658383Y-83009389D02*
X67658383Y-82866532D01*
X67658383Y-82866532D02*
X67706002Y-82676056D01*
X67706002Y-82676056D02*
X67753621Y-82580818D01*
X67753621Y-82580818D02*
X67848859Y-82485580D01*
X67848859Y-82485580D02*
X67991716Y-82437961D01*
X67991716Y-82437961D02*
X68086954Y-82437961D01*
X68086954Y-82437961D02*
X68229811Y-82485580D01*
X68229811Y-82485580D02*
X68277430Y-82533199D01*
X68658383Y-82533199D02*
X68706002Y-82485580D01*
X68706002Y-82485580D02*
X68801240Y-82437961D01*
X68801240Y-82437961D02*
X69039335Y-82437961D01*
X69039335Y-82437961D02*
X69134573Y-82485580D01*
X69134573Y-82485580D02*
X69182192Y-82533199D01*
X69182192Y-82533199D02*
X69229811Y-82628437D01*
X69229811Y-82628437D02*
X69229811Y-82723675D01*
X69229811Y-82723675D02*
X69182192Y-82866532D01*
X69182192Y-82866532D02*
X68610764Y-83437961D01*
X68610764Y-83437961D02*
X69229811Y-83437961D01*
X77361905Y-87354819D02*
X77361905Y-86354819D01*
X77361905Y-86354819D02*
X77600000Y-86354819D01*
X77600000Y-86354819D02*
X77742857Y-86402438D01*
X77742857Y-86402438D02*
X77838095Y-86497676D01*
X77838095Y-86497676D02*
X77885714Y-86592914D01*
X77885714Y-86592914D02*
X77933333Y-86783390D01*
X77933333Y-86783390D02*
X77933333Y-86926247D01*
X77933333Y-86926247D02*
X77885714Y-87116723D01*
X77885714Y-87116723D02*
X77838095Y-87211961D01*
X77838095Y-87211961D02*
X77742857Y-87307200D01*
X77742857Y-87307200D02*
X77600000Y-87354819D01*
X77600000Y-87354819D02*
X77361905Y-87354819D01*
X78885714Y-87354819D02*
X78314286Y-87354819D01*
X78600000Y-87354819D02*
X78600000Y-86354819D01*
X78600000Y-86354819D02*
X78504762Y-86497676D01*
X78504762Y-86497676D02*
X78409524Y-86592914D01*
X78409524Y-86592914D02*
X78314286Y-86640533D01*
X57157142Y-72859580D02*
X57109523Y-72907200D01*
X57109523Y-72907200D02*
X56966666Y-72954819D01*
X56966666Y-72954819D02*
X56871428Y-72954819D01*
X56871428Y-72954819D02*
X56728571Y-72907200D01*
X56728571Y-72907200D02*
X56633333Y-72811961D01*
X56633333Y-72811961D02*
X56585714Y-72716723D01*
X56585714Y-72716723D02*
X56538095Y-72526247D01*
X56538095Y-72526247D02*
X56538095Y-72383390D01*
X56538095Y-72383390D02*
X56585714Y-72192914D01*
X56585714Y-72192914D02*
X56633333Y-72097676D01*
X56633333Y-72097676D02*
X56728571Y-72002438D01*
X56728571Y-72002438D02*
X56871428Y-71954819D01*
X56871428Y-71954819D02*
X56966666Y-71954819D01*
X56966666Y-71954819D02*
X57109523Y-72002438D01*
X57109523Y-72002438D02*
X57157142Y-72050057D01*
X57538095Y-72050057D02*
X57585714Y-72002438D01*
X57585714Y-72002438D02*
X57680952Y-71954819D01*
X57680952Y-71954819D02*
X57919047Y-71954819D01*
X57919047Y-71954819D02*
X58014285Y-72002438D01*
X58014285Y-72002438D02*
X58061904Y-72050057D01*
X58061904Y-72050057D02*
X58109523Y-72145295D01*
X58109523Y-72145295D02*
X58109523Y-72240533D01*
X58109523Y-72240533D02*
X58061904Y-72383390D01*
X58061904Y-72383390D02*
X57490476Y-72954819D01*
X57490476Y-72954819D02*
X58109523Y-72954819D01*
X58490476Y-72050057D02*
X58538095Y-72002438D01*
X58538095Y-72002438D02*
X58633333Y-71954819D01*
X58633333Y-71954819D02*
X58871428Y-71954819D01*
X58871428Y-71954819D02*
X58966666Y-72002438D01*
X58966666Y-72002438D02*
X59014285Y-72050057D01*
X59014285Y-72050057D02*
X59061904Y-72145295D01*
X59061904Y-72145295D02*
X59061904Y-72240533D01*
X59061904Y-72240533D02*
X59014285Y-72383390D01*
X59014285Y-72383390D02*
X58442857Y-72954819D01*
X58442857Y-72954819D02*
X59061904Y-72954819D01*
X65533333Y-77384819D02*
X65200000Y-76908628D01*
X64961905Y-77384819D02*
X64961905Y-76384819D01*
X64961905Y-76384819D02*
X65342857Y-76384819D01*
X65342857Y-76384819D02*
X65438095Y-76432438D01*
X65438095Y-76432438D02*
X65485714Y-76480057D01*
X65485714Y-76480057D02*
X65533333Y-76575295D01*
X65533333Y-76575295D02*
X65533333Y-76718152D01*
X65533333Y-76718152D02*
X65485714Y-76813390D01*
X65485714Y-76813390D02*
X65438095Y-76861009D01*
X65438095Y-76861009D02*
X65342857Y-76908628D01*
X65342857Y-76908628D02*
X64961905Y-76908628D01*
X66009524Y-77384819D02*
X66200000Y-77384819D01*
X66200000Y-77384819D02*
X66295238Y-77337200D01*
X66295238Y-77337200D02*
X66342857Y-77289580D01*
X66342857Y-77289580D02*
X66438095Y-77146723D01*
X66438095Y-77146723D02*
X66485714Y-76956247D01*
X66485714Y-76956247D02*
X66485714Y-76575295D01*
X66485714Y-76575295D02*
X66438095Y-76480057D01*
X66438095Y-76480057D02*
X66390476Y-76432438D01*
X66390476Y-76432438D02*
X66295238Y-76384819D01*
X66295238Y-76384819D02*
X66104762Y-76384819D01*
X66104762Y-76384819D02*
X66009524Y-76432438D01*
X66009524Y-76432438D02*
X65961905Y-76480057D01*
X65961905Y-76480057D02*
X65914286Y-76575295D01*
X65914286Y-76575295D02*
X65914286Y-76813390D01*
X65914286Y-76813390D02*
X65961905Y-76908628D01*
X65961905Y-76908628D02*
X66009524Y-76956247D01*
X66009524Y-76956247D02*
X66104762Y-77003866D01*
X66104762Y-77003866D02*
X66295238Y-77003866D01*
X66295238Y-77003866D02*
X66390476Y-76956247D01*
X66390476Y-76956247D02*
X66438095Y-76908628D01*
X66438095Y-76908628D02*
X66485714Y-76813390D01*
X64257142Y-80859580D02*
X64209523Y-80907200D01*
X64209523Y-80907200D02*
X64066666Y-80954819D01*
X64066666Y-80954819D02*
X63971428Y-80954819D01*
X63971428Y-80954819D02*
X63828571Y-80907200D01*
X63828571Y-80907200D02*
X63733333Y-80811961D01*
X63733333Y-80811961D02*
X63685714Y-80716723D01*
X63685714Y-80716723D02*
X63638095Y-80526247D01*
X63638095Y-80526247D02*
X63638095Y-80383390D01*
X63638095Y-80383390D02*
X63685714Y-80192914D01*
X63685714Y-80192914D02*
X63733333Y-80097676D01*
X63733333Y-80097676D02*
X63828571Y-80002438D01*
X63828571Y-80002438D02*
X63971428Y-79954819D01*
X63971428Y-79954819D02*
X64066666Y-79954819D01*
X64066666Y-79954819D02*
X64209523Y-80002438D01*
X64209523Y-80002438D02*
X64257142Y-80050057D01*
X65209523Y-80954819D02*
X64638095Y-80954819D01*
X64923809Y-80954819D02*
X64923809Y-79954819D01*
X64923809Y-79954819D02*
X64828571Y-80097676D01*
X64828571Y-80097676D02*
X64733333Y-80192914D01*
X64733333Y-80192914D02*
X64638095Y-80240533D01*
X66066666Y-80288152D02*
X66066666Y-80954819D01*
X65828571Y-79907200D02*
X65590476Y-80621485D01*
X65590476Y-80621485D02*
X66209523Y-80621485D01*
X77354819Y-97133333D02*
X78069104Y-97133333D01*
X78069104Y-97133333D02*
X78211961Y-97180952D01*
X78211961Y-97180952D02*
X78307200Y-97276190D01*
X78307200Y-97276190D02*
X78354819Y-97419047D01*
X78354819Y-97419047D02*
X78354819Y-97514285D01*
X78354819Y-96133333D02*
X78354819Y-96704761D01*
X78354819Y-96419047D02*
X77354819Y-96419047D01*
X77354819Y-96419047D02*
X77497676Y-96514285D01*
X77497676Y-96514285D02*
X77592914Y-96609523D01*
X77592914Y-96609523D02*
X77640533Y-96704761D01*
X58050595Y-80239819D02*
X58050595Y-81049342D01*
X58050595Y-81049342D02*
X58098214Y-81144580D01*
X58098214Y-81144580D02*
X58145833Y-81192200D01*
X58145833Y-81192200D02*
X58241071Y-81239819D01*
X58241071Y-81239819D02*
X58431547Y-81239819D01*
X58431547Y-81239819D02*
X58526785Y-81192200D01*
X58526785Y-81192200D02*
X58574404Y-81144580D01*
X58574404Y-81144580D02*
X58622023Y-81049342D01*
X58622023Y-81049342D02*
X58622023Y-80239819D01*
X59526785Y-80573152D02*
X59526785Y-81239819D01*
X59288690Y-80192200D02*
X59050595Y-80906485D01*
X59050595Y-80906485D02*
X59669642Y-80906485D01*
D11*
X76423809Y-77981228D02*
X76423809Y-78457419D01*
X76090476Y-77457419D02*
X76423809Y-77981228D01*
X76423809Y-77981228D02*
X76757142Y-77457419D01*
X77614285Y-78457419D02*
X77042857Y-78457419D01*
X77328571Y-78457419D02*
X77328571Y-77457419D01*
X77328571Y-77457419D02*
X77233333Y-77600276D01*
X77233333Y-77600276D02*
X77138095Y-77695514D01*
X77138095Y-77695514D02*
X77042857Y-77743133D01*
D10*
X65559580Y-93066666D02*
X65607200Y-93114285D01*
X65607200Y-93114285D02*
X65654819Y-93257142D01*
X65654819Y-93257142D02*
X65654819Y-93352380D01*
X65654819Y-93352380D02*
X65607200Y-93495237D01*
X65607200Y-93495237D02*
X65511961Y-93590475D01*
X65511961Y-93590475D02*
X65416723Y-93638094D01*
X65416723Y-93638094D02*
X65226247Y-93685713D01*
X65226247Y-93685713D02*
X65083390Y-93685713D01*
X65083390Y-93685713D02*
X64892914Y-93638094D01*
X64892914Y-93638094D02*
X64797676Y-93590475D01*
X64797676Y-93590475D02*
X64702438Y-93495237D01*
X64702438Y-93495237D02*
X64654819Y-93352380D01*
X64654819Y-93352380D02*
X64654819Y-93257142D01*
X64654819Y-93257142D02*
X64702438Y-93114285D01*
X64702438Y-93114285D02*
X64750057Y-93066666D01*
X64654819Y-92733332D02*
X64654819Y-92114285D01*
X64654819Y-92114285D02*
X65035771Y-92447618D01*
X65035771Y-92447618D02*
X65035771Y-92304761D01*
X65035771Y-92304761D02*
X65083390Y-92209523D01*
X65083390Y-92209523D02*
X65131009Y-92161904D01*
X65131009Y-92161904D02*
X65226247Y-92114285D01*
X65226247Y-92114285D02*
X65464342Y-92114285D01*
X65464342Y-92114285D02*
X65559580Y-92161904D01*
X65559580Y-92161904D02*
X65607200Y-92209523D01*
X65607200Y-92209523D02*
X65654819Y-92304761D01*
X65654819Y-92304761D02*
X65654819Y-92590475D01*
X65654819Y-92590475D02*
X65607200Y-92685713D01*
X65607200Y-92685713D02*
X65559580Y-92733332D01*
X70233333Y-94954819D02*
X69900000Y-94478628D01*
X69661905Y-94954819D02*
X69661905Y-93954819D01*
X69661905Y-93954819D02*
X70042857Y-93954819D01*
X70042857Y-93954819D02*
X70138095Y-94002438D01*
X70138095Y-94002438D02*
X70185714Y-94050057D01*
X70185714Y-94050057D02*
X70233333Y-94145295D01*
X70233333Y-94145295D02*
X70233333Y-94288152D01*
X70233333Y-94288152D02*
X70185714Y-94383390D01*
X70185714Y-94383390D02*
X70138095Y-94431009D01*
X70138095Y-94431009D02*
X70042857Y-94478628D01*
X70042857Y-94478628D02*
X69661905Y-94478628D01*
X71138095Y-93954819D02*
X70661905Y-93954819D01*
X70661905Y-93954819D02*
X70614286Y-94431009D01*
X70614286Y-94431009D02*
X70661905Y-94383390D01*
X70661905Y-94383390D02*
X70757143Y-94335771D01*
X70757143Y-94335771D02*
X70995238Y-94335771D01*
X70995238Y-94335771D02*
X71090476Y-94383390D01*
X71090476Y-94383390D02*
X71138095Y-94431009D01*
X71138095Y-94431009D02*
X71185714Y-94526247D01*
X71185714Y-94526247D02*
X71185714Y-94764342D01*
X71185714Y-94764342D02*
X71138095Y-94859580D01*
X71138095Y-94859580D02*
X71090476Y-94907200D01*
X71090476Y-94907200D02*
X70995238Y-94954819D01*
X70995238Y-94954819D02*
X70757143Y-94954819D01*
X70757143Y-94954819D02*
X70661905Y-94907200D01*
X70661905Y-94907200D02*
X70614286Y-94859580D01*
X73957142Y-78259580D02*
X73909523Y-78307200D01*
X73909523Y-78307200D02*
X73766666Y-78354819D01*
X73766666Y-78354819D02*
X73671428Y-78354819D01*
X73671428Y-78354819D02*
X73528571Y-78307200D01*
X73528571Y-78307200D02*
X73433333Y-78211961D01*
X73433333Y-78211961D02*
X73385714Y-78116723D01*
X73385714Y-78116723D02*
X73338095Y-77926247D01*
X73338095Y-77926247D02*
X73338095Y-77783390D01*
X73338095Y-77783390D02*
X73385714Y-77592914D01*
X73385714Y-77592914D02*
X73433333Y-77497676D01*
X73433333Y-77497676D02*
X73528571Y-77402438D01*
X73528571Y-77402438D02*
X73671428Y-77354819D01*
X73671428Y-77354819D02*
X73766666Y-77354819D01*
X73766666Y-77354819D02*
X73909523Y-77402438D01*
X73909523Y-77402438D02*
X73957142Y-77450057D01*
X74909523Y-78354819D02*
X74338095Y-78354819D01*
X74623809Y-78354819D02*
X74623809Y-77354819D01*
X74623809Y-77354819D02*
X74528571Y-77497676D01*
X74528571Y-77497676D02*
X74433333Y-77592914D01*
X74433333Y-77592914D02*
X74338095Y-77640533D01*
X75480952Y-77783390D02*
X75385714Y-77735771D01*
X75385714Y-77735771D02*
X75338095Y-77688152D01*
X75338095Y-77688152D02*
X75290476Y-77592914D01*
X75290476Y-77592914D02*
X75290476Y-77545295D01*
X75290476Y-77545295D02*
X75338095Y-77450057D01*
X75338095Y-77450057D02*
X75385714Y-77402438D01*
X75385714Y-77402438D02*
X75480952Y-77354819D01*
X75480952Y-77354819D02*
X75671428Y-77354819D01*
X75671428Y-77354819D02*
X75766666Y-77402438D01*
X75766666Y-77402438D02*
X75814285Y-77450057D01*
X75814285Y-77450057D02*
X75861904Y-77545295D01*
X75861904Y-77545295D02*
X75861904Y-77592914D01*
X75861904Y-77592914D02*
X75814285Y-77688152D01*
X75814285Y-77688152D02*
X75766666Y-77735771D01*
X75766666Y-77735771D02*
X75671428Y-77783390D01*
X75671428Y-77783390D02*
X75480952Y-77783390D01*
X75480952Y-77783390D02*
X75385714Y-77831009D01*
X75385714Y-77831009D02*
X75338095Y-77878628D01*
X75338095Y-77878628D02*
X75290476Y-77973866D01*
X75290476Y-77973866D02*
X75290476Y-78164342D01*
X75290476Y-78164342D02*
X75338095Y-78259580D01*
X75338095Y-78259580D02*
X75385714Y-78307200D01*
X75385714Y-78307200D02*
X75480952Y-78354819D01*
X75480952Y-78354819D02*
X75671428Y-78354819D01*
X75671428Y-78354819D02*
X75766666Y-78307200D01*
X75766666Y-78307200D02*
X75814285Y-78259580D01*
X75814285Y-78259580D02*
X75861904Y-78164342D01*
X75861904Y-78164342D02*
X75861904Y-77973866D01*
X75861904Y-77973866D02*
X75814285Y-77878628D01*
X75814285Y-77878628D02*
X75766666Y-77831009D01*
X75766666Y-77831009D02*
X75671428Y-77783390D01*
X81359580Y-85646666D02*
X81407200Y-85694285D01*
X81407200Y-85694285D02*
X81454819Y-85837142D01*
X81454819Y-85837142D02*
X81454819Y-85932380D01*
X81454819Y-85932380D02*
X81407200Y-86075237D01*
X81407200Y-86075237D02*
X81311961Y-86170475D01*
X81311961Y-86170475D02*
X81216723Y-86218094D01*
X81216723Y-86218094D02*
X81026247Y-86265713D01*
X81026247Y-86265713D02*
X80883390Y-86265713D01*
X80883390Y-86265713D02*
X80692914Y-86218094D01*
X80692914Y-86218094D02*
X80597676Y-86170475D01*
X80597676Y-86170475D02*
X80502438Y-86075237D01*
X80502438Y-86075237D02*
X80454819Y-85932380D01*
X80454819Y-85932380D02*
X80454819Y-85837142D01*
X80454819Y-85837142D02*
X80502438Y-85694285D01*
X80502438Y-85694285D02*
X80550057Y-85646666D01*
X80454819Y-84789523D02*
X80454819Y-84979999D01*
X80454819Y-84979999D02*
X80502438Y-85075237D01*
X80502438Y-85075237D02*
X80550057Y-85122856D01*
X80550057Y-85122856D02*
X80692914Y-85218094D01*
X80692914Y-85218094D02*
X80883390Y-85265713D01*
X80883390Y-85265713D02*
X81264342Y-85265713D01*
X81264342Y-85265713D02*
X81359580Y-85218094D01*
X81359580Y-85218094D02*
X81407200Y-85170475D01*
X81407200Y-85170475D02*
X81454819Y-85075237D01*
X81454819Y-85075237D02*
X81454819Y-84884761D01*
X81454819Y-84884761D02*
X81407200Y-84789523D01*
X81407200Y-84789523D02*
X81359580Y-84741904D01*
X81359580Y-84741904D02*
X81264342Y-84694285D01*
X81264342Y-84694285D02*
X81026247Y-84694285D01*
X81026247Y-84694285D02*
X80931009Y-84741904D01*
X80931009Y-84741904D02*
X80883390Y-84789523D01*
X80883390Y-84789523D02*
X80835771Y-84884761D01*
X80835771Y-84884761D02*
X80835771Y-85075237D01*
X80835771Y-85075237D02*
X80883390Y-85170475D01*
X80883390Y-85170475D02*
X80931009Y-85218094D01*
X80931009Y-85218094D02*
X81026247Y-85265713D01*
D13*
%TO.C,R7*%
X63670000Y-91606359D02*
X63670000Y-91913641D01*
X64430000Y-91606359D02*
X64430000Y-91913641D01*
%TO.C,J2*%
X68955000Y-98220000D02*
X68955000Y-100880000D01*
X71555000Y-98220000D02*
X68955000Y-98220000D01*
X71555000Y-98220000D02*
X71555000Y-100880000D01*
X71555000Y-100880000D02*
X68955000Y-100880000D01*
X72825000Y-98220000D02*
X74155000Y-98220000D01*
X74155000Y-98220000D02*
X74155000Y-99550000D01*
%TO.C,C16*%
X72040000Y-71792164D02*
X72040000Y-72007836D01*
X72760000Y-71792164D02*
X72760000Y-72007836D01*
%TO.C,R10*%
X71863641Y-76320000D02*
X71556359Y-76320000D01*
X71863641Y-77080000D02*
X71556359Y-77080000D01*
%TO.C,C10*%
X78867500Y-83042164D02*
X78867500Y-83257836D01*
X79587500Y-83042164D02*
X79587500Y-83257836D01*
%TO.C,C23*%
X61687836Y-74030000D02*
X61472164Y-74030000D01*
X61687836Y-74750000D02*
X61472164Y-74750000D01*
%TO.C,U5*%
X65374915Y-72080735D02*
X65374915Y-71770735D01*
X65374915Y-75750735D02*
X65374915Y-75200735D01*
X65924915Y-71530735D02*
X65674915Y-71530735D01*
X65924915Y-75750735D02*
X65374915Y-75750735D01*
X69044915Y-71530735D02*
X69594915Y-71530735D01*
X69044915Y-75750735D02*
X69594915Y-75750735D01*
X69594915Y-71530735D02*
X69594915Y-72080735D01*
X69594915Y-75750735D02*
X69594915Y-75200735D01*
X65374915Y-71530735D02*
X65134915Y-71200735D01*
X65614915Y-71200735D01*
X65374915Y-71530735D01*
G36*
X65374915Y-71530735D02*
G01*
X65134915Y-71200735D01*
X65614915Y-71200735D01*
X65374915Y-71530735D01*
G37*
%TO.C,C8*%
X78895336Y-79890000D02*
X78679664Y-79890000D01*
X78895336Y-80610000D02*
X78679664Y-80610000D01*
%TO.C,U3*%
X62640000Y-96190000D02*
X62640000Y-95140000D01*
X62640000Y-97310000D02*
X62640000Y-98060000D01*
X67860000Y-96190000D02*
X67860000Y-95140000D01*
X67860000Y-97310000D02*
X67860000Y-98360000D01*
X62640000Y-98360000D02*
X62450000Y-98500000D01*
X62450000Y-98220000D01*
X62640000Y-98360000D01*
G36*
X62640000Y-98360000D02*
G01*
X62450000Y-98500000D01*
X62450000Y-98220000D01*
X62640000Y-98360000D01*
G37*
%TO.C,R6*%
X72563641Y-95370000D02*
X72256359Y-95370000D01*
X72563641Y-96130000D02*
X72256359Y-96130000D01*
%TO.C,C1*%
X65827500Y-90592164D02*
X65827500Y-90807836D01*
X66547500Y-90592164D02*
X66547500Y-90807836D01*
%TO.C,C4*%
X74612836Y-93890000D02*
X74397164Y-93890000D01*
X74612836Y-94610000D02*
X74397164Y-94610000D01*
%TO.C,C5*%
X76427500Y-85372164D02*
X76427500Y-85587836D01*
X77147500Y-85372164D02*
X77147500Y-85587836D01*
%TO.C,C11*%
X78885336Y-81140000D02*
X78669664Y-81140000D01*
X78885336Y-81860000D02*
X78669664Y-81860000D01*
%TO.C,C19*%
X71582164Y-75240000D02*
X71797836Y-75240000D01*
X71582164Y-75960000D02*
X71797836Y-75960000D01*
D14*
%TO.C,Y2*%
X75257629Y-84516772D02*
G75*
G02*
X75097629Y-84516772I-80000J0D01*
G01*
X75097629Y-84516772D02*
G75*
G02*
X75257629Y-84516772I80000J0D01*
G01*
D13*
%TO.C,R12*%
X63020000Y-73833641D02*
X63020000Y-73526359D01*
X63780000Y-73833641D02*
X63780000Y-73526359D01*
%TO.C,R8*%
X55213641Y-80070000D02*
X54906359Y-80070000D01*
X55213641Y-80830000D02*
X54906359Y-80830000D01*
%TO.C,C7*%
X75240580Y-95290000D02*
X74959420Y-95290000D01*
X75240580Y-96310000D02*
X74959420Y-96310000D01*
D14*
%TO.C,Y3*%
X64318544Y-78729871D02*
G75*
G02*
X64158544Y-78729871I-80000J0D01*
G01*
X64158544Y-78729871D02*
G75*
G02*
X64318544Y-78729871I80000J0D01*
G01*
D13*
%TO.C,C21*%
X60740000Y-76052164D02*
X60740000Y-76267836D01*
X61460000Y-76052164D02*
X61460000Y-76267836D01*
%TO.C,U1*%
X68027500Y-85090000D02*
X68502500Y-85090000D01*
X68027500Y-85565000D02*
X68027500Y-85090000D01*
X68027500Y-91835000D02*
X68027500Y-92310000D01*
X68027500Y-92310000D02*
X68502500Y-92310000D01*
X74772500Y-85090000D02*
X75007500Y-85090000D01*
X75247500Y-85565000D02*
X75247500Y-85390000D01*
X75247500Y-91835000D02*
X75247500Y-92310000D01*
X75247500Y-92310000D02*
X74772500Y-92310000D01*
X75577500Y-85330000D02*
X75247500Y-85090000D01*
X75577500Y-84850000D01*
X75577500Y-85330000D01*
G36*
X75577500Y-85330000D02*
G01*
X75247500Y-85090000D01*
X75577500Y-84850000D01*
X75577500Y-85330000D01*
G37*
%TO.C,C15*%
X71980000Y-73852164D02*
X71980000Y-74067836D01*
X72700000Y-73852164D02*
X72700000Y-74067836D01*
%TO.C,C9*%
X70377500Y-80137836D02*
X70377500Y-79922164D01*
X71097500Y-80137836D02*
X71097500Y-79922164D01*
%TO.C,R3*%
X72273859Y-82570000D02*
X72581141Y-82570000D01*
X72273859Y-83330000D02*
X72581141Y-83330000D01*
%TO.C,C20*%
X60740000Y-78387836D02*
X60740000Y-78172164D01*
X61460000Y-78387836D02*
X61460000Y-78172164D01*
%TO.C,R4*%
X80233859Y-87570000D02*
X80541141Y-87570000D01*
X80233859Y-88330000D02*
X80541141Y-88330000D01*
%TO.C,R11*%
X62637258Y-71157500D02*
X62162742Y-71157500D01*
X62637258Y-72202500D02*
X62162742Y-72202500D01*
D11*
%TO.C,U2*%
X50872500Y-94450000D02*
X50872500Y-94450000D01*
X60072500Y-94450000D02*
X60072500Y-94450000D01*
X60122500Y-94450000D02*
G75*
G02*
X50822500Y-94450000I-4650000J0D01*
G01*
X50822500Y-94450000D02*
G75*
G02*
X60122500Y-94450000I4650000J0D01*
G01*
D14*
X60552500Y-94450000D02*
G75*
G02*
X60392500Y-94450000I-80000J0D01*
G01*
X60392500Y-94450000D02*
G75*
G02*
X60552500Y-94450000I80000J0D01*
G01*
D13*
%TO.C,C13*%
X63262164Y-99340000D02*
X63477836Y-99340000D01*
X63262164Y-100060000D02*
X63477836Y-100060000D01*
%TO.C,R2*%
X80273859Y-86420000D02*
X80581141Y-86420000D01*
X80273859Y-87180000D02*
X80581141Y-87180000D01*
%TO.C,R1*%
X70401141Y-81320000D02*
X70093859Y-81320000D01*
X70401141Y-82080000D02*
X70093859Y-82080000D01*
%TO.C,C12*%
X54992164Y-88040000D02*
X55207836Y-88040000D01*
X54992164Y-88760000D02*
X55207836Y-88760000D01*
%TO.C,C17*%
X70840000Y-73872164D02*
X70840000Y-74087836D01*
X71560000Y-73872164D02*
X71560000Y-74087836D01*
%TO.C,C2*%
X70385336Y-82590000D02*
X70169664Y-82590000D01*
X70385336Y-83310000D02*
X70169664Y-83310000D01*
D11*
%TO.C,D1*%
X79362500Y-87950000D02*
G75*
G02*
X79262500Y-87950000I-50000J0D01*
G01*
X79262500Y-87950000D02*
G75*
G02*
X79362500Y-87950000I50000J0D01*
G01*
D13*
%TO.C,C22*%
X61687836Y-72820000D02*
X61472164Y-72820000D01*
X61687836Y-73540000D02*
X61472164Y-73540000D01*
%TO.C,R9*%
X65546359Y-77720000D02*
X65853641Y-77720000D01*
X65546359Y-78480000D02*
X65853641Y-78480000D01*
%TO.C,C14*%
X62462164Y-80090000D02*
X62677836Y-80090000D01*
X62462164Y-80810000D02*
X62677836Y-80810000D01*
%TO.C,J1*%
X80557500Y-93780000D02*
X80557500Y-94415000D01*
X80557500Y-94415000D02*
X79922500Y-94415000D01*
%TO.C,U4*%
X56052500Y-81625000D02*
X56052500Y-81895000D01*
X56052500Y-87145000D02*
X56052500Y-86875000D01*
X58812500Y-81625000D02*
X56052500Y-81625000D01*
X58812500Y-81625000D02*
X61572500Y-81625000D01*
X58812500Y-87145000D02*
X56052500Y-87145000D01*
X58812500Y-87145000D02*
X61572500Y-87145000D01*
X61572500Y-81625000D02*
X61572500Y-81895000D01*
X61572500Y-87145000D02*
X61572500Y-86875000D01*
X55287500Y-81895000D02*
X55047500Y-81565000D01*
X55527500Y-81565000D01*
X55287500Y-81895000D01*
G36*
X55287500Y-81895000D02*
G01*
X55047500Y-81565000D01*
X55527500Y-81565000D01*
X55287500Y-81895000D01*
G37*
D14*
%TO.C,Y1*%
X71824903Y-82342247D02*
G75*
G02*
X71664903Y-82342247I-80000J0D01*
G01*
X71664903Y-82342247D02*
G75*
G02*
X71824903Y-82342247I80000J0D01*
G01*
D13*
%TO.C,C3*%
X65827500Y-92722164D02*
X65827500Y-92937836D01*
X66547500Y-92722164D02*
X66547500Y-92937836D01*
%TO.C,R5*%
X72543641Y-94070000D02*
X72236359Y-94070000D01*
X72543641Y-94830000D02*
X72236359Y-94830000D01*
%TO.C,C18*%
X71602164Y-77540000D02*
X71817836Y-77540000D01*
X71602164Y-78260000D02*
X71817836Y-78260000D01*
%TO.C,C6*%
X77677500Y-85372164D02*
X77677500Y-85587836D01*
X78397500Y-85372164D02*
X78397500Y-85587836D01*
%TD*%
M02*
