%TF.GenerationSoftware,KiCad,Pcbnew,9.0.0*%
%TF.CreationDate,2025-04-02T00:09:28-04:00*%
%TF.ProjectId,IngestibleCapsule-Board_whole,496e6765-7374-4696-926c-654361707375,rev?*%
%TF.SameCoordinates,Original*%
%TF.FileFunction,Soldermask,Top*%
%TF.FilePolarity,Negative*%
%FSLAX46Y46*%
G04 Gerber Fmt 4.6, Leading zero omitted, Abs format (unit mm)*
G04 Created by KiCad (PCBNEW 9.0.0) date 2025-04-02 00:09:28*
%MOMM*%
%LPD*%
G01*
G04 APERTURE LIST*
G04 Aperture macros list*
%AMRoundRect*
0 Rectangle with rounded corners*
0 $1 Rounding radius*
0 $2 $3 $4 $5 $6 $7 $8 $9 X,Y pos of 4 corners*
0 Add a 4 corners polygon primitive as box body*
4,1,4,$2,$3,$4,$5,$6,$7,$8,$9,$2,$3,0*
0 Add four circle primitives for the rounded corners*
1,1,$1+$1,$2,$3*
1,1,$1+$1,$4,$5*
1,1,$1+$1,$6,$7*
1,1,$1+$1,$8,$9*
0 Add four rect primitives between the rounded corners*
20,1,$1+$1,$2,$3,$4,$5,0*
20,1,$1+$1,$4,$5,$6,$7,0*
20,1,$1+$1,$6,$7,$8,$9,0*
20,1,$1+$1,$8,$9,$2,$3,0*%
G04 Aperture macros list end*
%ADD10RoundRect,0.135000X-0.185000X0.135000X-0.185000X-0.135000X0.185000X-0.135000X0.185000X0.135000X0*%
%ADD11R,1.700000X1.700000*%
%ADD12O,1.700000X1.700000*%
%ADD13RoundRect,0.140000X-0.170000X0.140000X-0.170000X-0.140000X0.170000X-0.140000X0.170000X0.140000X0*%
%ADD14RoundRect,0.135000X0.135000X0.185000X-0.135000X0.185000X-0.135000X-0.185000X0.135000X-0.185000X0*%
%ADD15RoundRect,0.140000X0.140000X0.170000X-0.140000X0.170000X-0.140000X-0.170000X0.140000X-0.170000X0*%
%ADD16RoundRect,0.050000X-0.362500X-0.050000X0.362500X-0.050000X0.362500X0.050000X-0.362500X0.050000X0*%
%ADD17RoundRect,0.050000X-0.050000X-0.362500X0.050000X-0.362500X0.050000X0.362500X-0.050000X0.362500X0*%
%ADD18R,2.700000X2.700000*%
%ADD19RoundRect,0.150000X0.150000X-0.325000X0.150000X0.325000X-0.150000X0.325000X-0.150000X-0.325000X0*%
%ADD20RoundRect,0.150000X0.325000X-0.150000X0.325000X0.150000X-0.325000X0.150000X-0.325000X-0.150000X0*%
%ADD21RoundRect,0.140000X-0.140000X-0.170000X0.140000X-0.170000X0.140000X0.170000X-0.140000X0.170000X0*%
%ADD22R,1.000000X1.800000*%
%ADD23RoundRect,0.135000X0.185000X-0.135000X0.185000X0.135000X-0.185000X0.135000X-0.185000X-0.135000X0*%
%ADD24RoundRect,0.225000X0.225000X0.250000X-0.225000X0.250000X-0.225000X-0.250000X0.225000X-0.250000X0*%
%ADD25R,1.800000X1.000000*%
%ADD26RoundRect,0.062500X-0.062500X0.375000X-0.062500X-0.375000X0.062500X-0.375000X0.062500X0.375000X0*%
%ADD27RoundRect,0.062500X-0.375000X0.062500X-0.375000X-0.062500X0.375000X-0.062500X0.375000X0.062500X0*%
%ADD28R,5.600000X5.600000*%
%ADD29RoundRect,0.140000X0.170000X-0.140000X0.170000X0.140000X-0.170000X0.140000X-0.170000X-0.140000X0*%
%ADD30RoundRect,0.147500X-0.172500X0.147500X-0.172500X-0.147500X0.172500X-0.147500X0.172500X0.147500X0*%
%ADD31RoundRect,0.135000X-0.135000X-0.185000X0.135000X-0.185000X0.135000X0.185000X-0.135000X0.185000X0*%
%ADD32RoundRect,0.200000X0.200000X0.275000X-0.200000X0.275000X-0.200000X-0.275000X0.200000X-0.275000X0*%
%ADD33C,1.350000*%
%ADD34C,1.100000*%
%ADD35RoundRect,0.147500X0.147500X0.172500X-0.147500X0.172500X-0.147500X-0.172500X0.147500X-0.172500X0*%
%ADD36C,0.990600*%
%ADD37C,0.787400*%
%ADD38RoundRect,0.162500X-0.650000X-0.162500X0.650000X-0.162500X0.650000X0.162500X-0.650000X0.162500X0*%
%ADD39R,1.900000X2.400000*%
G04 APERTURE END LIST*
D10*
%TO.C,R7*%
X64050000Y-91250000D03*
X64050000Y-92270000D03*
%TD*%
D11*
%TO.C,J2*%
X72825000Y-99550000D03*
D12*
X70285000Y-99550000D03*
%TD*%
D13*
%TO.C,C16*%
X72400000Y-71420000D03*
X72400000Y-72380000D03*
%TD*%
D14*
%TO.C,R10*%
X72220000Y-76700000D03*
X71200000Y-76700000D03*
%TD*%
D13*
%TO.C,C10*%
X79227500Y-82670000D03*
X79227500Y-83630000D03*
%TD*%
D15*
%TO.C,C23*%
X62060000Y-74390000D03*
X61100000Y-74390000D03*
%TD*%
D16*
%TO.C,U5*%
X65522415Y-72440735D03*
X65522415Y-72840735D03*
X65522415Y-73240735D03*
X65522415Y-73640735D03*
X65522415Y-74040735D03*
X65522415Y-74440735D03*
X65522415Y-74840735D03*
D17*
X66284915Y-75603235D03*
X66684915Y-75603235D03*
X67084915Y-75603235D03*
X67484915Y-75603235D03*
X67884915Y-75603235D03*
X68284915Y-75603235D03*
X68684915Y-75603235D03*
D16*
X69447415Y-74840735D03*
X69447415Y-74440735D03*
X69447415Y-74040735D03*
X69447415Y-73640735D03*
X69447415Y-73240735D03*
X69447415Y-72840735D03*
X69447415Y-72440735D03*
D17*
X68684915Y-71678235D03*
X68284915Y-71678235D03*
X67884915Y-71678235D03*
X67484915Y-71678235D03*
X67084915Y-71678235D03*
X66684915Y-71678235D03*
X66284915Y-71678235D03*
D18*
X67484915Y-73640735D03*
%TD*%
D15*
%TO.C,C8*%
X79267500Y-80250000D03*
X78307500Y-80250000D03*
%TD*%
D19*
%TO.C,U3*%
X63250000Y-97750000D03*
X64050000Y-97750000D03*
X64850000Y-97750000D03*
X65650000Y-97750000D03*
X66450000Y-97750000D03*
X67250000Y-97750000D03*
D20*
X67250000Y-96750000D03*
D19*
X67250000Y-95750000D03*
X66450000Y-95750000D03*
X65650000Y-95750000D03*
X64850000Y-95750000D03*
X64050000Y-95750000D03*
X63250000Y-95750000D03*
D20*
X63250000Y-96750000D03*
%TD*%
D14*
%TO.C,R6*%
X72920000Y-95750000D03*
X71900000Y-95750000D03*
%TD*%
D13*
%TO.C,C1*%
X66187500Y-90220000D03*
X66187500Y-91180000D03*
%TD*%
D15*
%TO.C,C4*%
X74985000Y-94250000D03*
X74025000Y-94250000D03*
%TD*%
D13*
%TO.C,C5*%
X76787500Y-85000000D03*
X76787500Y-85960000D03*
%TD*%
D15*
%TO.C,C11*%
X79257500Y-81500000D03*
X78297500Y-81500000D03*
%TD*%
D21*
%TO.C,C19*%
X71210000Y-75600000D03*
X72170000Y-75600000D03*
%TD*%
D22*
%TO.C,Y2*%
X75477500Y-83178228D03*
X77977500Y-83178228D03*
%TD*%
D23*
%TO.C,R12*%
X63400000Y-74190000D03*
X63400000Y-73170000D03*
%TD*%
D14*
%TO.C,R8*%
X55570000Y-80450000D03*
X54550000Y-80450000D03*
%TD*%
D24*
%TO.C,C7*%
X75875000Y-95800000D03*
X74325000Y-95800000D03*
%TD*%
D25*
%TO.C,Y3*%
X62900000Y-78430000D03*
X62900000Y-75930000D03*
%TD*%
D13*
%TO.C,C21*%
X61100000Y-75680000D03*
X61100000Y-76640000D03*
%TD*%
D26*
%TO.C,U1*%
X74387500Y-85262500D03*
X73887500Y-85262500D03*
X73387500Y-85262500D03*
X72887500Y-85262500D03*
X72387500Y-85262500D03*
X71887500Y-85262500D03*
X71387500Y-85262500D03*
X70887500Y-85262500D03*
X70387500Y-85262500D03*
X69887500Y-85262500D03*
X69387500Y-85262500D03*
X68887500Y-85262500D03*
D27*
X68200000Y-85950000D03*
X68200000Y-86450000D03*
X68200000Y-86950000D03*
X68200000Y-87450000D03*
X68200000Y-87950000D03*
X68200000Y-88450000D03*
X68200000Y-88950000D03*
X68200000Y-89450000D03*
X68200000Y-89950000D03*
X68200000Y-90450000D03*
X68200000Y-90950000D03*
X68200000Y-91450000D03*
D26*
X68887500Y-92137500D03*
X69387500Y-92137500D03*
X69887500Y-92137500D03*
X70387500Y-92137500D03*
X70887500Y-92137500D03*
X71387500Y-92137500D03*
X71887500Y-92137500D03*
X72387500Y-92137500D03*
X72887500Y-92137500D03*
X73387500Y-92137500D03*
X73887500Y-92137500D03*
X74387500Y-92137500D03*
D27*
X75075000Y-91450000D03*
X75075000Y-90950000D03*
X75075000Y-90450000D03*
X75075000Y-89950000D03*
X75075000Y-89450000D03*
X75075000Y-88950000D03*
X75075000Y-88450000D03*
X75075000Y-87950000D03*
X75075000Y-87450000D03*
X75075000Y-86950000D03*
X75075000Y-86450000D03*
X75075000Y-85950000D03*
D28*
X71637500Y-88700000D03*
%TD*%
D13*
%TO.C,C15*%
X72340000Y-73480000D03*
X72340000Y-74440000D03*
%TD*%
D29*
%TO.C,C9*%
X70737500Y-80510000D03*
X70737500Y-79550000D03*
%TD*%
D30*
%TO.C,L1*%
X71200000Y-71415000D03*
X71200000Y-72385000D03*
%TD*%
D31*
%TO.C,R3*%
X71917500Y-82950000D03*
X72937500Y-82950000D03*
%TD*%
D29*
%TO.C,C20*%
X61100000Y-78760000D03*
X61100000Y-77800000D03*
%TD*%
D31*
%TO.C,R4*%
X79877500Y-87950000D03*
X80897500Y-87950000D03*
%TD*%
D32*
%TO.C,R11*%
X63225000Y-71680000D03*
X61575000Y-71680000D03*
%TD*%
D33*
%TO.C,U2*%
X58392500Y-94450000D03*
X53407500Y-92385000D03*
D34*
X52552500Y-94450000D03*
D33*
X57537500Y-96515000D03*
%TD*%
D21*
%TO.C,C13*%
X62890000Y-99700000D03*
X63850000Y-99700000D03*
%TD*%
D31*
%TO.C,R2*%
X79917500Y-86800000D03*
X80937500Y-86800000D03*
%TD*%
D14*
%TO.C,R1*%
X70757500Y-81700000D03*
X69737500Y-81700000D03*
%TD*%
D21*
%TO.C,C12*%
X54620000Y-88400000D03*
X55580000Y-88400000D03*
%TD*%
D13*
%TO.C,C17*%
X71200000Y-73500000D03*
X71200000Y-74460000D03*
%TD*%
D15*
%TO.C,C2*%
X70757500Y-82950000D03*
X69797500Y-82950000D03*
%TD*%
D35*
%TO.C,D1*%
X78707500Y-87950000D03*
X77737500Y-87950000D03*
%TD*%
D15*
%TO.C,C22*%
X62060000Y-73180000D03*
X61100000Y-73180000D03*
%TD*%
D31*
%TO.C,R9*%
X65190000Y-78100000D03*
X66210000Y-78100000D03*
%TD*%
D21*
%TO.C,C14*%
X62090000Y-80450000D03*
X63050000Y-80450000D03*
%TD*%
D36*
%TO.C,J1*%
X79287500Y-95050000D03*
X78271500Y-89970000D03*
X80303500Y-89970000D03*
D37*
X79922500Y-93780000D03*
X78652500Y-93780000D03*
X79922500Y-92510000D03*
X78652500Y-92510000D03*
X79922500Y-91240000D03*
X78652500Y-91240000D03*
%TD*%
D38*
%TO.C,U4*%
X55225000Y-82480000D03*
X55225000Y-83750000D03*
X55225000Y-85020000D03*
X55225000Y-86290000D03*
X62400000Y-86290000D03*
X62400000Y-85020000D03*
X62400000Y-83750000D03*
X62400000Y-82480000D03*
%TD*%
D39*
%TO.C,Y1*%
X72477500Y-80300000D03*
X76577500Y-80300000D03*
%TD*%
D13*
%TO.C,C3*%
X66187500Y-92350000D03*
X66187500Y-93310000D03*
%TD*%
D14*
%TO.C,R5*%
X72900000Y-94450000D03*
X71880000Y-94450000D03*
%TD*%
D21*
%TO.C,C18*%
X71230000Y-77900000D03*
X72190000Y-77900000D03*
%TD*%
D13*
%TO.C,C6*%
X78037500Y-85000000D03*
X78037500Y-85960000D03*
%TD*%
M02*
