M48
; DRILL file {KiCad 9.0.0} date 2025-04-02T00:09:27-0400
; FORMAT={-:-/ absolute / inch / decimal}
; #@! TF.CreationDate,2025-04-02T00:09:27-04:00
; #@! TF.GenerationSoftware,Kicad,Pcbnew,9.0.0
; #@! TF.FileFunction,Plated,1,2,PTH
FMAT,2
INCH
; #@! TA.AperFunction,Plated,PTH,ViaDrill
T1C0.0118
; #@! TA.AperFunction,Plated,PTH,ComponentDrill
T2C0.0276
; #@! TA.AperFunction,Plated,PTH,ComponentDrill
T3C0.0354
; #@! TA.AperFunction,Plated,PTH,ComponentDrill
T4C0.0394
%
G90
G05
T1
X1.9606Y-2.7323
X1.9843Y-2.7165
X2.0197Y-2.7165
X2.0551Y-2.7165
X2.0906Y-2.7165
X2.126Y-2.7165
X2.1614Y-2.7165
X2.1969Y-2.7165
X2.2185Y-3.4803
X2.2224Y-3.2972
X2.2224Y-3.3976
X2.2323Y-2.7165
X2.2677Y-2.7165
X2.3031Y-2.7165
X2.3386Y-2.7165
X2.374Y-2.7165
X2.4055Y-2.7165
X2.4114Y-2.8563
X2.4252Y-2.9055
X2.4291Y-3.0413
X2.4409Y-2.7165
X2.4764Y-2.7165
X2.4823Y-3.1398
X2.4902Y-3.7323
X2.5098Y-3.3472
X2.5118Y-2.7165
X2.5177Y-3.8898
X2.5217Y-3.5591
X2.5256Y-3.8091
X2.5472Y-2.7165
X2.5709Y-3.6378
X2.5748Y-2.7835
X2.5807Y-3.0217
X2.5827Y-2.7165
X2.5846Y-3.8898
X2.5943Y-3.6126
X2.6073Y-3.0994
X2.6102Y-2.7835
X2.6181Y-3.8898
X2.6199Y-2.9362
X2.6216Y-2.8634
X2.6299Y-3.689
X2.6378Y-3.0236
X2.6378Y-3.5197
X2.6378Y-3.5472
X2.6388Y-3.3622
X2.6457Y-3.5827
X2.6569Y-2.8992
X2.686Y-3.2992
X2.6904Y-2.9357
X2.6939Y-2.8634
X2.6944Y-3.3622
X2.7008Y-2.7165
X2.7008Y-2.7795
X2.7008Y-3.3248
X2.7283Y-3.3996
X2.7303Y-3.5256
X2.7303Y-3.5866
X2.7323Y-3.4665
X2.7362Y-2.7165
X2.748Y-3.1752
X2.748Y-3.2913
X2.7717Y-2.7165
X2.7736Y-2.9331
X2.7933Y-3.3996
X2.7953Y-3.5256
X2.7953Y-3.5866
X2.7972Y-3.4665
X2.7992Y-3.3012
X2.8031Y-3.7697
X2.8071Y-2.7165
X2.8287Y-2.8346
X2.8299Y-3.7441
X2.8425Y-2.7165
X2.8563Y-3.3996
X2.8583Y-3.5256
X2.8583Y-3.5866
X2.8602Y-3.4665
X2.8701Y-2.9764
X2.874Y-3.0669
X2.878Y-2.7165
X2.8839Y-2.9331
X2.9114Y-3.5236
X2.9114Y-3.5846
X2.9134Y-2.7165
X2.9149Y-3.7382
X2.9262Y-3.8027
X2.9488Y-2.7165
X2.9843Y-2.7165
X3.0197Y-2.7165
X3.0551Y-2.7165
X3.0906Y-2.7165
X3.1063Y-3.3839
X3.122Y-2.7165
X3.1476Y-3.2539
X3.1496Y-3.2087
X3.1516Y-3.1594
X3.1575Y-2.7165
X3.1752Y-3.5925
X3.1772Y-3.6417
X3.1929Y-2.7165
X3.2146Y-3.4626
X3.2185Y-3.4173
X3.2283Y-2.7165
X3.2638Y-2.7165
X3.2992Y-2.7165
X3.3346Y-2.7362
T2
X2.069Y-3.7185
T3
X2.1027Y-3.6372
X2.2653Y-3.7998
X2.2989Y-3.7185
T4
X2.7671Y-3.9193
X2.8671Y-3.9193
M30
