%TF.GenerationSoftware,KiCad,Pcbnew,9.0.0*%
%TF.CreationDate,2025-03-13T16:01:27-04:00*%
%TF.ProjectId,IngestibleCapsule-Board,496e6765-7374-4696-926c-654361707375,rev?*%
%TF.SameCoordinates,Original*%
%TF.FileFunction,Paste,Top*%
%TF.FilePolarity,Positive*%
%FSLAX46Y46*%
G04 Gerber Fmt 4.6, Leading zero omitted, Abs format (unit mm)*
G04 Created by KiCad (PCBNEW 9.0.0) date 2025-03-13 16:01:27*
%MOMM*%
%LPD*%
G01*
G04 APERTURE LIST*
G04 Aperture macros list*
%AMRoundRect*
0 Rectangle with rounded corners*
0 $1 Rounding radius*
0 $2 $3 $4 $5 $6 $7 $8 $9 X,Y pos of 4 corners*
0 Add a 4 corners polygon primitive as box body*
4,1,4,$2,$3,$4,$5,$6,$7,$8,$9,$2,$3,0*
0 Add four circle primitives for the rounded corners*
1,1,$1+$1,$2,$3*
1,1,$1+$1,$4,$5*
1,1,$1+$1,$6,$7*
1,1,$1+$1,$8,$9*
0 Add four rect primitives between the rounded corners*
20,1,$1+$1,$2,$3,$4,$5,0*
20,1,$1+$1,$4,$5,$6,$7,0*
20,1,$1+$1,$6,$7,$8,$9,0*
20,1,$1+$1,$8,$9,$2,$3,0*%
G04 Aperture macros list end*
%ADD10RoundRect,0.147500X-0.147500X-0.172500X0.147500X-0.172500X0.147500X0.172500X-0.147500X0.172500X0*%
%ADD11RoundRect,0.135000X0.185000X-0.135000X0.185000X0.135000X-0.185000X0.135000X-0.185000X-0.135000X0*%
%ADD12R,1.800000X1.000000*%
%ADD13RoundRect,0.140000X-0.170000X0.140000X-0.170000X-0.140000X0.170000X-0.140000X0.170000X0.140000X0*%
%ADD14RoundRect,0.140000X0.140000X0.170000X-0.140000X0.170000X-0.140000X-0.170000X0.140000X-0.170000X0*%
%ADD15RoundRect,0.250000X-0.295000X-0.295000X0.295000X-0.295000X0.295000X0.295000X-0.295000X0.295000X0*%
%ADD16RoundRect,0.050000X-0.362500X-0.050000X0.362500X-0.050000X0.362500X0.050000X-0.362500X0.050000X0*%
%ADD17RoundRect,0.050000X-0.050000X-0.362500X0.050000X-0.362500X0.050000X0.362500X-0.050000X0.362500X0*%
%ADD18RoundRect,0.140000X-0.140000X-0.170000X0.140000X-0.170000X0.140000X0.170000X-0.140000X0.170000X0*%
%ADD19RoundRect,0.200000X0.275000X-0.200000X0.275000X0.200000X-0.275000X0.200000X-0.275000X-0.200000X0*%
%ADD20RoundRect,0.140000X0.170000X-0.140000X0.170000X0.140000X-0.170000X0.140000X-0.170000X-0.140000X0*%
%ADD21RoundRect,0.135000X0.135000X0.185000X-0.135000X0.185000X-0.135000X-0.185000X0.135000X-0.185000X0*%
%ADD22R,0.220000X0.700000*%
%ADD23R,1.000000X0.500000*%
%TA.AperFunction,Profile*%
%ADD24C,0.050000*%
%TD*%
G04 APERTURE END LIST*
D10*
%TO.C,L1*%
X101530000Y-111250000D03*
X102500000Y-111250000D03*
%TD*%
D11*
%TO.C,R12*%
X96550000Y-112070000D03*
X96550000Y-111050000D03*
%TD*%
D12*
%TO.C,Y3*%
X96100000Y-115750000D03*
X96100000Y-113250000D03*
%TD*%
D13*
%TO.C,C16*%
X94500000Y-113020000D03*
X94500000Y-113980000D03*
%TD*%
D14*
%TO.C,C22*%
X96580000Y-110000000D03*
X95620000Y-110000000D03*
%TD*%
D15*
%TO.C,U5*%
X99550000Y-113950000D03*
X99550000Y-115300000D03*
X100900000Y-113950000D03*
X100900000Y-115300000D03*
D16*
X98262500Y-113425000D03*
X98262500Y-113825000D03*
X98262500Y-114225000D03*
X98262500Y-114625000D03*
X98262500Y-115025000D03*
X98262500Y-115425000D03*
X98262500Y-115825000D03*
D17*
X99025000Y-116587500D03*
X99425000Y-116587500D03*
X99825000Y-116587500D03*
X100225000Y-116587500D03*
X100625000Y-116587500D03*
X101025000Y-116587500D03*
X101425000Y-116587500D03*
D16*
X102187500Y-115825000D03*
X102187500Y-115425000D03*
X102187500Y-115025000D03*
X102187500Y-114625000D03*
X102187500Y-114225000D03*
X102187500Y-113825000D03*
X102187500Y-113425000D03*
D17*
X101425000Y-112662500D03*
X101025000Y-112662500D03*
X100625000Y-112662500D03*
X100225000Y-112662500D03*
X99825000Y-112662500D03*
X99425000Y-112662500D03*
X99025000Y-112662500D03*
%TD*%
D18*
%TO.C,C17*%
X104090000Y-118800000D03*
X105050000Y-118800000D03*
%TD*%
D19*
%TO.C,R11*%
X98200000Y-111025000D03*
X98200000Y-109375000D03*
%TD*%
D11*
%TO.C,R9*%
X95950000Y-119010000D03*
X95950000Y-117990000D03*
%TD*%
D20*
%TO.C,C15*%
X94500000Y-115980000D03*
X94500000Y-115020000D03*
%TD*%
D13*
%TO.C,C19*%
X104550000Y-114145000D03*
X104550000Y-115105000D03*
%TD*%
D21*
%TO.C,R10*%
X105090000Y-117700000D03*
X104070000Y-117700000D03*
%TD*%
D22*
%TO.C,J4*%
X100800001Y-118050001D03*
X100399999Y-118050001D03*
X100000000Y-118050001D03*
X99600001Y-118050001D03*
X99199999Y-118050001D03*
X100800001Y-121149999D03*
X100399999Y-121149999D03*
X100000000Y-121149999D03*
X99600001Y-121149999D03*
X99199999Y-121149999D03*
D23*
X101749996Y-118100000D03*
X98250004Y-118100000D03*
X101749996Y-121100000D03*
X98250004Y-121100000D03*
%TD*%
D18*
%TO.C,C21*%
X104070000Y-116550000D03*
X105030000Y-116550000D03*
%TD*%
D20*
%TO.C,C20*%
X101425000Y-110205000D03*
X101425000Y-109245000D03*
%TD*%
D13*
%TO.C,C18*%
X103500000Y-114140000D03*
X103500000Y-115100000D03*
%TD*%
D20*
%TO.C,C23*%
X95400000Y-112010000D03*
X95400000Y-111050000D03*
%TD*%
D24*
X107500000Y-115000000D02*
G75*
G02*
X92500000Y-115000000I-7500000J0D01*
G01*
X92500000Y-115000000D02*
G75*
G02*
X107500000Y-115000000I7500000J0D01*
G01*
M02*
