%TF.GenerationSoftware,KiCad,Pcbnew,9.0.0*%
%TF.CreationDate,2025-03-13T16:01:27-04:00*%
%TF.ProjectId,IngestibleCapsule-Board,496e6765-7374-4696-926c-654361707375,rev?*%
%TF.SameCoordinates,Original*%
%TF.FileFunction,Copper,L1,Top*%
%TF.FilePolarity,Positive*%
%FSLAX46Y46*%
G04 Gerber Fmt 4.6, Leading zero omitted, Abs format (unit mm)*
G04 Created by KiCad (PCBNEW 9.0.0) date 2025-03-13 16:01:27*
%MOMM*%
%LPD*%
G01*
G04 APERTURE LIST*
G04 Aperture macros list*
%AMRoundRect*
0 Rectangle with rounded corners*
0 $1 Rounding radius*
0 $2 $3 $4 $5 $6 $7 $8 $9 X,Y pos of 4 corners*
0 Add a 4 corners polygon primitive as box body*
4,1,4,$2,$3,$4,$5,$6,$7,$8,$9,$2,$3,0*
0 Add four circle primitives for the rounded corners*
1,1,$1+$1,$2,$3*
1,1,$1+$1,$4,$5*
1,1,$1+$1,$6,$7*
1,1,$1+$1,$8,$9*
0 Add four rect primitives between the rounded corners*
20,1,$1+$1,$2,$3,$4,$5,0*
20,1,$1+$1,$4,$5,$6,$7,0*
20,1,$1+$1,$6,$7,$8,$9,0*
20,1,$1+$1,$8,$9,$2,$3,0*%
G04 Aperture macros list end*
%TA.AperFunction,SMDPad,CuDef*%
%ADD10RoundRect,0.147500X-0.147500X-0.172500X0.147500X-0.172500X0.147500X0.172500X-0.147500X0.172500X0*%
%TD*%
%TA.AperFunction,SMDPad,CuDef*%
%ADD11RoundRect,0.135000X0.185000X-0.135000X0.185000X0.135000X-0.185000X0.135000X-0.185000X-0.135000X0*%
%TD*%
%TA.AperFunction,SMDPad,CuDef*%
%ADD12R,1.800000X1.000000*%
%TD*%
%TA.AperFunction,SMDPad,CuDef*%
%ADD13RoundRect,0.140000X-0.170000X0.140000X-0.170000X-0.140000X0.170000X-0.140000X0.170000X0.140000X0*%
%TD*%
%TA.AperFunction,SMDPad,CuDef*%
%ADD14RoundRect,0.140000X0.140000X0.170000X-0.140000X0.170000X-0.140000X-0.170000X0.140000X-0.170000X0*%
%TD*%
%TA.AperFunction,SMDPad,CuDef*%
%ADD15RoundRect,0.050000X-0.362500X-0.050000X0.362500X-0.050000X0.362500X0.050000X-0.362500X0.050000X0*%
%TD*%
%TA.AperFunction,SMDPad,CuDef*%
%ADD16RoundRect,0.050000X-0.050000X-0.362500X0.050000X-0.362500X0.050000X0.362500X-0.050000X0.362500X0*%
%TD*%
%TA.AperFunction,HeatsinkPad*%
%ADD17R,2.700000X2.700000*%
%TD*%
%TA.AperFunction,SMDPad,CuDef*%
%ADD18RoundRect,0.140000X-0.140000X-0.170000X0.140000X-0.170000X0.140000X0.170000X-0.140000X0.170000X0*%
%TD*%
%TA.AperFunction,SMDPad,CuDef*%
%ADD19RoundRect,0.200000X0.275000X-0.200000X0.275000X0.200000X-0.275000X0.200000X-0.275000X-0.200000X0*%
%TD*%
%TA.AperFunction,SMDPad,CuDef*%
%ADD20RoundRect,0.140000X0.170000X-0.140000X0.170000X0.140000X-0.170000X0.140000X-0.170000X-0.140000X0*%
%TD*%
%TA.AperFunction,SMDPad,CuDef*%
%ADD21RoundRect,0.135000X0.135000X0.185000X-0.135000X0.185000X-0.135000X-0.185000X0.135000X-0.185000X0*%
%TD*%
%TA.AperFunction,SMDPad,CuDef*%
%ADD22R,0.220000X0.700000*%
%TD*%
%TA.AperFunction,SMDPad,CuDef*%
%ADD23R,1.000000X0.500000*%
%TD*%
%TA.AperFunction,ViaPad*%
%ADD24C,0.250000*%
%TD*%
%TA.AperFunction,Conductor*%
%ADD25C,0.100000*%
%TD*%
%TA.AperFunction,Conductor*%
%ADD26C,0.200000*%
%TD*%
%TA.AperFunction,Profile*%
%ADD27C,0.050000*%
%TD*%
G04 APERTURE END LIST*
D10*
%TO.P,L1,1*%
%TO.N,Net-(U5-AVDD_1V)*%
X101530000Y-111250000D03*
%TO.P,L1,2*%
%TO.N,Net-(U5-REG_OUT)*%
X102500000Y-111250000D03*
%TD*%
D11*
%TO.P,R12,1*%
%TO.N,Net-(U5-PLL_TUNE)*%
X96550000Y-112070000D03*
%TO.P,R12,2*%
%TO.N,Net-(C22-Pad1)*%
X96550000Y-111050000D03*
%TD*%
D12*
%TO.P,Y3,1,1*%
%TO.N,Net-(U5-XTAL_C2)*%
X96100000Y-115750000D03*
%TO.P,Y3,2,2*%
%TO.N,Net-(U5-XTAL_C1)*%
X96100000Y-113250000D03*
%TD*%
D13*
%TO.P,C16,1*%
%TO.N,Net-(U5-XTAL_C1)*%
X94500000Y-113020000D03*
%TO.P,C16,2*%
%TO.N,SPI_GND*%
X94500000Y-113980000D03*
%TD*%
D14*
%TO.P,C22,1*%
%TO.N,Net-(C22-Pad1)*%
X96580000Y-110000000D03*
%TO.P,C22,2*%
%TO.N,SPI_GND*%
X95620000Y-110000000D03*
%TD*%
D15*
%TO.P,U5,1,BIAS*%
%TO.N,Net-(U5-BIAS)*%
X98262500Y-113425000D03*
%TO.P,U5,2,PLL_TUNE*%
%TO.N,Net-(U5-PLL_TUNE)*%
X98262500Y-113825000D03*
%TO.P,U5,3,XTAL_C1*%
%TO.N,Net-(U5-XTAL_C1)*%
X98262500Y-114225000D03*
%TO.P,U5,4,XTAL_C2*%
%TO.N,Net-(U5-XTAL_C2)*%
X98262500Y-114625000D03*
%TO.P,U5,5,AVDD_3V*%
%TO.N,SPI_VDD*%
X98262500Y-115025000D03*
%TO.P,U5,6,GND*%
%TO.N,SPI_GND*%
X98262500Y-115425000D03*
%TO.P,U5,7,SHUTDOWN*%
X98262500Y-115825000D03*
D16*
%TO.P,U5,8,IRQ*%
%TO.N,/RF_IRQ*%
X99025000Y-116587500D03*
%TO.P,U5,9,CSN*%
%TO.N,/RF_CS*%
X99425000Y-116587500D03*
%TO.P,U5,10,SCK*%
%TO.N,/SPI_SCK*%
X99825000Y-116587500D03*
%TO.P,U5,11,MOSI*%
%TO.N,/SPI_MOSI*%
X100225000Y-116587500D03*
%TO.P,U5,12,MISO*%
%TO.N,/SPI_MISO*%
X100625000Y-116587500D03*
%TO.P,U5,13,RSTN*%
%TO.N,Net-(U5-RSTN)*%
X101025000Y-116587500D03*
%TO.P,U5,14,DVDD_1V8*%
%TO.N,Net-(U5-DVDD_1V8)*%
X101425000Y-116587500D03*
D15*
%TO.P,U5,15,RES*%
%TO.N,SPI_GND*%
X102187500Y-115825000D03*
%TO.P,U5,16,XTAL_CLK*%
%TO.N,unconnected-(U5-XTAL_CLK-Pad16)*%
X102187500Y-115425000D03*
%TO.P,U5,17,PLL_CLK*%
%TO.N,unconnected-(U5-PLL_CLK-Pad17)*%
X102187500Y-115025000D03*
%TO.P,U5,18,RES*%
%TO.N,SPI_GND*%
X102187500Y-114625000D03*
%TO.P,U5,19,RES*%
X102187500Y-114225000D03*
%TO.P,U5,20,DVDD_3V*%
%TO.N,SPI_VDD*%
X102187500Y-113825000D03*
%TO.P,U5,21,REG_OUT*%
%TO.N,Net-(U5-REG_OUT)*%
X102187500Y-113425000D03*
D16*
%TO.P,U5,22,DVDD_1V*%
%TO.N,Net-(U5-AVDD_1V)*%
X101425000Y-112662500D03*
%TO.P,U5,23,AVDD_1V*%
X101025000Y-112662500D03*
%TO.P,U5,24,GND*%
%TO.N,SPI_GND*%
X100625000Y-112662500D03*
%TO.P,U5,25,RFN*%
%TO.N,/RF Transceiver/RFN*%
X100225000Y-112662500D03*
%TO.P,U5,26,RFP*%
%TO.N,/RF Transceiver/RFP*%
X99825000Y-112662500D03*
%TO.P,U5,27,GND*%
%TO.N,SPI_GND*%
X99425000Y-112662500D03*
%TO.P,U5,28,GND*%
X99025000Y-112662500D03*
D17*
%TO.P,U5,29,GND*%
X100225000Y-114625000D03*
%TD*%
D18*
%TO.P,C17,1*%
%TO.N,Net-(U5-RSTN)*%
X104090000Y-118800000D03*
%TO.P,C17,2*%
%TO.N,SPI_GND*%
X105050000Y-118800000D03*
%TD*%
D19*
%TO.P,R11,1*%
%TO.N,Net-(U5-BIAS)*%
X98200000Y-111025000D03*
%TO.P,R11,2*%
%TO.N,SPI_GND*%
X98200000Y-109375000D03*
%TD*%
D11*
%TO.P,R9,1*%
%TO.N,SPI_VDD*%
X95950000Y-119010000D03*
%TO.P,R9,2*%
%TO.N,/RF_CS*%
X95950000Y-117990000D03*
%TD*%
D20*
%TO.P,C15,1*%
%TO.N,Net-(U5-XTAL_C2)*%
X94500000Y-115980000D03*
%TO.P,C15,2*%
%TO.N,SPI_GND*%
X94500000Y-115020000D03*
%TD*%
D13*
%TO.P,C19,1*%
%TO.N,SPI_VDD*%
X104550000Y-114145000D03*
%TO.P,C19,2*%
%TO.N,SPI_GND*%
X104550000Y-115105000D03*
%TD*%
D21*
%TO.P,R10,1*%
%TO.N,SPI_VDD*%
X105090000Y-117700000D03*
%TO.P,R10,2*%
%TO.N,Net-(U5-RSTN)*%
X104070000Y-117700000D03*
%TD*%
D22*
%TO.P,J4,1,1*%
%TO.N,SPI_GND*%
X100800001Y-118050001D03*
%TO.P,J4,2,2*%
%TO.N,/SPI_MISO*%
X100399999Y-118050001D03*
%TO.P,J4,3,3*%
%TO.N,/SPI_MOSI*%
X100000000Y-118050001D03*
%TO.P,J4,4,4*%
%TO.N,/MEM_CS*%
X99600001Y-118050001D03*
%TO.P,J4,5,5*%
%TO.N,SPI_VDD*%
X99199999Y-118050001D03*
%TO.P,J4,6,6*%
%TO.N,SPI_GND*%
X100800001Y-121149999D03*
%TO.P,J4,7,7*%
%TO.N,/RF_IRQ*%
X100399999Y-121149999D03*
%TO.P,J4,8,8*%
%TO.N,/RF_CS*%
X100000000Y-121149999D03*
%TO.P,J4,9,9*%
%TO.N,/SPI_SCK*%
X99600001Y-121149999D03*
%TO.P,J4,10,10*%
%TO.N,SPI_VDD*%
X99199999Y-121149999D03*
D23*
%TO.P,J4,P1*%
%TO.N,N/C*%
X101749996Y-118100000D03*
%TO.P,J4,P2*%
X98250004Y-118100000D03*
%TO.P,J4,P3*%
X101749996Y-121100000D03*
%TO.P,J4,P4*%
X98250004Y-121100000D03*
%TD*%
D18*
%TO.P,C21,1*%
%TO.N,Net-(U5-DVDD_1V8)*%
X104070000Y-116550000D03*
%TO.P,C21,2*%
%TO.N,SPI_GND*%
X105030000Y-116550000D03*
%TD*%
D20*
%TO.P,C20,1*%
%TO.N,Net-(U5-AVDD_1V)*%
X101425000Y-110205000D03*
%TO.P,C20,2*%
%TO.N,SPI_GND*%
X101425000Y-109245000D03*
%TD*%
D13*
%TO.P,C18,1*%
%TO.N,SPI_VDD*%
X103500000Y-114140000D03*
%TO.P,C18,2*%
%TO.N,SPI_GND*%
X103500000Y-115100000D03*
%TD*%
D20*
%TO.P,C23,1*%
%TO.N,Net-(U5-PLL_TUNE)*%
X95400000Y-112010000D03*
%TO.P,C23,2*%
%TO.N,SPI_GND*%
X95400000Y-111050000D03*
%TD*%
D24*
%TO.N,SPI_VDD*%
X97600000Y-114952500D03*
%TO.N,SPI_GND*%
X93850000Y-114025000D03*
%TO.N,SPI_VDD*%
X104762500Y-113437500D03*
%TO.N,/SPI_MOSI*%
X98975000Y-119200000D03*
%TO.N,SPI_VDD*%
X96550000Y-118475000D03*
X105075000Y-117150000D03*
%TO.N,SPI_GND*%
X104840000Y-115770000D03*
%TO.N,/MEM_CS*%
X99825000Y-118850000D03*
%TO.N,/RF Transceiver/RFN*%
X100230000Y-111040000D03*
%TO.N,/SPI_SCK*%
X99625000Y-117350000D03*
%TO.N,/RF Transceiver/RFP*%
X99790000Y-111060000D03*
%TO.N,/SPI_MISO*%
X100400000Y-118850000D03*
%TO.N,/SPI_SCK*%
X99600000Y-120475000D03*
%TD*%
D25*
%TO.N,/RF_IRQ*%
X100032256Y-121851999D02*
X99865744Y-121851999D01*
X97667742Y-121851999D02*
X97667743Y-121851999D01*
X97667743Y-121851999D02*
X97549999Y-121734256D01*
X94698000Y-119247579D02*
X94698000Y-119081067D01*
X94815743Y-119365323D02*
X94815744Y-119365323D01*
X94859677Y-119409257D02*
X94815743Y-119365323D01*
%TO.N,/SPI_SCK*%
X99825000Y-117000000D02*
X99625000Y-117200000D01*
X99625000Y-117200000D02*
X99625000Y-117350000D01*
%TO.N,/RF_IRQ*%
X100032257Y-121851999D02*
X100032256Y-121851999D01*
%TO.N,/RF_CS*%
X99949000Y-121650999D02*
X97750999Y-121650999D01*
X95060677Y-119326000D02*
X94899000Y-119164323D01*
X94899000Y-119164323D02*
X94899000Y-118935677D01*
%TO.N,/RF_IRQ*%
X94698000Y-119018933D02*
X94698000Y-118873000D01*
%TO.N,/RF_CS*%
X96241000Y-117699000D02*
X95950000Y-117990000D01*
%TO.N,/RF_IRQ*%
X100147999Y-121851999D02*
X100032257Y-121851999D01*
%TO.N,/RF_CS*%
X94899000Y-118935677D02*
X95844677Y-117990000D01*
%TO.N,/RF_IRQ*%
X94977420Y-119527000D02*
X94859677Y-119409257D01*
%TO.N,/RF_CS*%
X95426000Y-119326000D02*
X95060677Y-119326000D01*
X100000000Y-121149999D02*
X100000000Y-121599999D01*
%TO.N,/RF_IRQ*%
X94977421Y-119527000D02*
X94977420Y-119527000D01*
X94815744Y-119365323D02*
X94698000Y-119247580D01*
X94698000Y-118277000D02*
X96387500Y-116587500D01*
X94698000Y-118852421D02*
X94698000Y-118277000D01*
X95143933Y-119527000D02*
X94977421Y-119527000D01*
%TO.N,SPI_VDD*%
X97600000Y-114952500D02*
X97702500Y-114952500D01*
X104762500Y-113437500D02*
X104762500Y-113932500D01*
X95950000Y-119010000D02*
X96525000Y-119010000D01*
X102187500Y-113825000D02*
X103185000Y-113825000D01*
%TO.N,/SPI_MISO*%
X100399999Y-118488911D02*
X100399999Y-118050001D01*
X100400000Y-118850000D02*
X100400000Y-118488912D01*
%TO.N,/SPI_MOSI*%
X100225000Y-116587500D02*
X100225000Y-117000000D01*
%TO.N,SPI_VDD*%
X105461000Y-117329000D02*
X105461000Y-115056000D01*
X99199999Y-118202005D02*
X99199999Y-118050001D01*
%TO.N,/RF_IRQ*%
X94698000Y-119081067D02*
X94698000Y-119018933D01*
X94698000Y-119247580D02*
X94698000Y-119247579D01*
%TO.N,/SPI_MOSI*%
X100000000Y-117225000D02*
X100000000Y-118050001D01*
X98975000Y-119200000D02*
X100125000Y-119200000D01*
%TO.N,SPI_VDD*%
X99199999Y-121149999D02*
X99199999Y-120909999D01*
%TO.N,/RF_IRQ*%
X95342744Y-119527000D02*
X95143933Y-119527000D01*
%TO.N,SPI_VDD*%
X103500000Y-114140000D02*
X103610000Y-114140000D01*
X96525000Y-118500000D02*
X96550000Y-118475000D01*
%TO.N,/RF_IRQ*%
X96387500Y-116587500D02*
X99025000Y-116587500D01*
%TO.N,/SPI_MISO*%
X100625000Y-116587500D02*
X100625000Y-117000000D01*
X100400000Y-118488912D02*
X100399999Y-118488911D01*
%TO.N,SPI_VDD*%
X105090000Y-117700000D02*
X105090000Y-117165000D01*
%TO.N,/SPI_MISO*%
X100625000Y-117000000D02*
X100399999Y-117225001D01*
%TO.N,/MEM_CS*%
X99600001Y-118600001D02*
X99600001Y-118050001D01*
X99825000Y-118850000D02*
X99825000Y-118825000D01*
X99825000Y-118825000D02*
X99600001Y-118600001D01*
%TO.N,/SPI_MOSI*%
X100125000Y-118175001D02*
X100000000Y-118050001D01*
X100125000Y-119200000D02*
X100125000Y-118175001D01*
X100225000Y-117000000D02*
X100000000Y-117225000D01*
%TO.N,SPI_VDD*%
X96525000Y-119010000D02*
X96525000Y-118500000D01*
X99199999Y-120909999D02*
X98400000Y-120110000D01*
%TO.N,SPI_GND*%
X101425000Y-115825000D02*
X100225000Y-114625000D01*
%TO.N,SPI_VDD*%
X98400000Y-120110000D02*
X98400000Y-119002004D01*
%TO.N,/RF_CS*%
X100000000Y-121599999D02*
X99949000Y-121650999D01*
%TO.N,SPI_VDD*%
X97702500Y-114952500D02*
X97775000Y-115025000D01*
%TO.N,SPI_GND*%
X105030000Y-116205000D02*
X105030000Y-116550000D01*
X102054000Y-112796000D02*
X100225000Y-114625000D01*
%TO.N,/RF_IRQ*%
X97676999Y-121851999D02*
X97667742Y-121851999D01*
%TO.N,SPI_GND*%
X104840000Y-115770000D02*
X104840000Y-116015000D01*
%TO.N,/RF_IRQ*%
X100399999Y-121149999D02*
X100399999Y-121599999D01*
%TO.N,SPI_GND*%
X103900000Y-119950000D02*
X105050000Y-118800000D01*
X99025000Y-111250000D02*
X99025000Y-110200000D01*
%TO.N,/RF_IRQ*%
X97549999Y-121734256D02*
X97549999Y-121734255D01*
%TO.N,SPI_VDD*%
X103185000Y-113825000D02*
X103500000Y-114140000D01*
X98563502Y-118838502D02*
X99199999Y-118202005D01*
%TO.N,SPI_GND*%
X94039000Y-112411000D02*
X95400000Y-111050000D01*
%TO.N,/RF_IRQ*%
X99865744Y-121851999D02*
X97834255Y-121851999D01*
%TO.N,SPI_GND*%
X94500000Y-115020000D02*
X94500000Y-113980000D01*
%TO.N,/RF_CS*%
X99425000Y-116587500D02*
X99425000Y-117000000D01*
%TO.N,SPI_VDD*%
X105090000Y-117165000D02*
X105075000Y-117150000D01*
%TO.N,SPI_GND*%
X94039000Y-113519000D02*
X94039000Y-113836000D01*
%TO.N,SPI_VDD*%
X103615000Y-114145000D02*
X104550000Y-114145000D01*
%TO.N,/RF_CS*%
X97750999Y-121650999D02*
X95426000Y-119326000D01*
%TO.N,SPI_GND*%
X99025000Y-111775000D02*
X99151552Y-111648448D01*
X102187500Y-114625000D02*
X100225000Y-114625000D01*
%TO.N,SPI_VDD*%
X103610000Y-114140000D02*
X103615000Y-114145000D01*
X96525000Y-119010000D02*
X98392004Y-119010000D01*
%TO.N,SPI_GND*%
X101425000Y-109245000D02*
X102054000Y-109874000D01*
X95400000Y-111050000D02*
X95400000Y-110220000D01*
X98200000Y-109375000D02*
X96245000Y-109375000D01*
X99025000Y-112662500D02*
X99025000Y-111775000D01*
%TO.N,/SPI_SCK*%
X99825000Y-116587500D02*
X99825000Y-117000000D01*
%TO.N,SPI_GND*%
X105050000Y-118800000D02*
X104669000Y-118419000D01*
X102187500Y-114625000D02*
X103025000Y-114625000D01*
X98262500Y-115425000D02*
X99425000Y-115425000D01*
X99151552Y-111376552D02*
X99025000Y-111250000D01*
%TO.N,/RF_CS*%
X95844677Y-117990000D02*
X95950000Y-117990000D01*
%TO.N,SPI_GND*%
X104550000Y-115625000D02*
X104550000Y-115105000D01*
X104695000Y-115770000D02*
X104550000Y-115625000D01*
X99425000Y-111376552D02*
X99151552Y-111376552D01*
%TO.N,/RF_CS*%
X98726000Y-117699000D02*
X96241000Y-117699000D01*
%TO.N,SPI_GND*%
X94039000Y-113836000D02*
X93850000Y-114025000D01*
%TO.N,SPI_VDD*%
X98392004Y-119010000D02*
X98563502Y-118838502D01*
X105090000Y-117700000D02*
X105461000Y-117329000D01*
%TO.N,/RF_CS*%
X99425000Y-117000000D02*
X98726000Y-117699000D01*
%TO.N,SPI_GND*%
X99025000Y-112662500D02*
X99025000Y-113425000D01*
X103025000Y-114625000D02*
X103500000Y-115100000D01*
X94039000Y-113519000D02*
X94039000Y-112411000D01*
X104545000Y-115100000D02*
X104550000Y-115105000D01*
X102775000Y-115825000D02*
X103500000Y-115100000D01*
X98262500Y-115825000D02*
X99025000Y-115825000D01*
X100625000Y-112662500D02*
X100625000Y-114225000D01*
X100800001Y-119950000D02*
X100800001Y-118050001D01*
X104840000Y-115770000D02*
X104695000Y-115770000D01*
X99425000Y-113825000D02*
X100225000Y-114625000D01*
X102187500Y-114225000D02*
X100625000Y-114225000D01*
X99151552Y-111648448D02*
X99151552Y-111376552D01*
X102054000Y-109874000D02*
X102054000Y-112796000D01*
%TO.N,/SPI_SCK*%
X99600001Y-121149999D02*
X99600000Y-120475000D01*
%TO.N,SPI_GND*%
X94500000Y-113980000D02*
X94039000Y-113519000D01*
X93895000Y-113980000D02*
X93850000Y-114025000D01*
%TO.N,Net-(U5-BIAS)*%
X98262500Y-113425000D02*
X98262500Y-111087500D01*
D26*
%TO.N,/RF Transceiver/RFN*%
X100225000Y-111045000D02*
X100225000Y-112662500D01*
D25*
%TO.N,/RF_IRQ*%
X94698000Y-118873000D02*
X94698000Y-118852421D01*
%TO.N,Net-(U5-REG_OUT)*%
X102500000Y-113112500D02*
X102187500Y-113425000D01*
X102500000Y-111250000D02*
X102500000Y-113112500D01*
%TO.N,SPI_GND*%
X99025000Y-113425000D02*
X100225000Y-114625000D01*
%TO.N,Net-(U5-BIAS)*%
X98262500Y-111087500D02*
X98200000Y-111025000D01*
D26*
%TO.N,/RF Transceiver/RFN*%
X100230000Y-111040000D02*
X100225000Y-111045000D01*
D25*
%TO.N,SPI_VDD*%
X105461000Y-115056000D02*
X104550000Y-114145000D01*
%TO.N,SPI_GND*%
X102187500Y-114225000D02*
X102625000Y-114225000D01*
X99425000Y-112662500D02*
X99425000Y-113825000D01*
%TO.N,Net-(U5-PLL_TUNE)*%
X97850000Y-113825000D02*
X98262500Y-113825000D01*
%TO.N,SPI_GND*%
X100800001Y-121149999D02*
X100800001Y-119950000D01*
%TO.N,Net-(U5-PLL_TUNE)*%
X95400000Y-112010000D02*
X96490000Y-112010000D01*
%TO.N,SPI_VDD*%
X97775000Y-115025000D02*
X98262500Y-115025000D01*
%TO.N,Net-(U5-PLL_TUNE)*%
X97699000Y-113674000D02*
X97850000Y-113825000D01*
%TO.N,SPI_GND*%
X102187500Y-115825000D02*
X101425000Y-115825000D01*
%TO.N,Net-(U5-PLL_TUNE)*%
X96490000Y-112010000D02*
X96550000Y-112070000D01*
X97699000Y-113219000D02*
X97699000Y-113674000D01*
%TO.N,Net-(C22-Pad1)*%
X96580000Y-111020000D02*
X96550000Y-111050000D01*
X96580000Y-110000000D02*
X96580000Y-111020000D01*
D26*
%TO.N,/RF Transceiver/RFP*%
X99825000Y-111095000D02*
X99825000Y-112662500D01*
D25*
%TO.N,SPI_GND*%
X103500000Y-115100000D02*
X104545000Y-115100000D01*
D26*
%TO.N,/RF Transceiver/RFP*%
X99790000Y-111060000D02*
X99825000Y-111095000D01*
D25*
%TO.N,Net-(U5-DVDD_1V8)*%
X101462500Y-116550000D02*
X101425000Y-116587500D01*
%TO.N,SPI_GND*%
X104669000Y-118419000D02*
X104669000Y-116911000D01*
X99425000Y-112662500D02*
X99425000Y-111376552D01*
%TO.N,Net-(U5-AVDD_1V)*%
X101530000Y-111250000D02*
X101530000Y-110310000D01*
%TO.N,SPI_GND*%
X96245000Y-109375000D02*
X95620000Y-110000000D01*
%TO.N,Net-(U5-RSTN)*%
X104070000Y-117700000D02*
X104070000Y-117770000D01*
%TO.N,Net-(U5-AVDD_1V)*%
X101025000Y-111250000D02*
X101425000Y-110850000D01*
X101530000Y-112557500D02*
X101425000Y-112662500D01*
%TO.N,SPI_GND*%
X100800001Y-119950000D02*
X103900000Y-119950000D01*
%TO.N,Net-(U5-RSTN)*%
X104090000Y-117790000D02*
X104090000Y-118800000D01*
%TO.N,Net-(U5-XTAL_C1)*%
X97075000Y-114225000D02*
X96100000Y-113250000D01*
X96100000Y-113250000D02*
X94730000Y-113250000D01*
%TO.N,Net-(U5-AVDD_1V)*%
X101425000Y-110850000D02*
X101425000Y-110205000D01*
%TO.N,/RF_IRQ*%
X97549999Y-121734255D02*
X95342744Y-119527000D01*
%TO.N,SPI_GND*%
X99425000Y-115425000D02*
X100225000Y-114625000D01*
%TO.N,Net-(U5-AVDD_1V)*%
X101530000Y-110310000D02*
X101425000Y-110205000D01*
X101530000Y-111250000D02*
X101530000Y-112557500D01*
%TO.N,SPI_GND*%
X99025000Y-110200000D02*
X98200000Y-109375000D01*
%TO.N,Net-(U5-XTAL_C1)*%
X94730000Y-113250000D02*
X94500000Y-113020000D01*
X98262500Y-114225000D02*
X97075000Y-114225000D01*
%TO.N,Net-(U5-DVDD_1V8)*%
X104070000Y-116550000D02*
X101462500Y-116550000D01*
%TO.N,SPI_GND*%
X95400000Y-110220000D02*
X95620000Y-110000000D01*
%TO.N,/RF_IRQ*%
X97834255Y-121851999D02*
X97676999Y-121851999D01*
%TO.N,Net-(U5-PLL_TUNE)*%
X96550000Y-112070000D02*
X97699000Y-113219000D01*
%TO.N,Net-(U5-XTAL_C2)*%
X98262500Y-114625000D02*
X97225000Y-114625000D01*
X97225000Y-114625000D02*
X96100000Y-115750000D01*
%TO.N,SPI_GND*%
X102187500Y-115825000D02*
X102775000Y-115825000D01*
%TO.N,Net-(U5-AVDD_1V)*%
X101025000Y-111250000D02*
X101025000Y-112662500D01*
X101530000Y-111250000D02*
X101025000Y-111250000D01*
%TO.N,/SPI_MISO*%
X100399999Y-117225001D02*
X100399999Y-118050001D01*
%TO.N,Net-(U5-RSTN)*%
X101025000Y-117000000D02*
X101725000Y-117700000D01*
X101025000Y-116587500D02*
X101025000Y-117000000D01*
%TO.N,SPI_GND*%
X94500000Y-113980000D02*
X93895000Y-113980000D01*
%TO.N,Net-(U5-XTAL_C2)*%
X96100000Y-115750000D02*
X94730000Y-115750000D01*
%TO.N,SPI_GND*%
X99025000Y-115825000D02*
X100225000Y-114625000D01*
%TO.N,SPI_VDD*%
X104762500Y-113932500D02*
X104550000Y-114145000D01*
%TO.N,/RF_IRQ*%
X100399999Y-121599999D02*
X100147999Y-121851999D01*
%TO.N,Net-(U5-RSTN)*%
X101725000Y-117700000D02*
X104070000Y-117700000D01*
%TO.N,SPI_GND*%
X100625000Y-114225000D02*
X100225000Y-114625000D01*
X104669000Y-116911000D02*
X105030000Y-116550000D01*
X104840000Y-116015000D02*
X105030000Y-116205000D01*
%TO.N,Net-(U5-XTAL_C2)*%
X94730000Y-115750000D02*
X94500000Y-115980000D01*
%TO.N,Net-(U5-RSTN)*%
X104070000Y-117770000D02*
X104090000Y-117790000D01*
%TO.N,SPI_GND*%
X102625000Y-114225000D02*
X103500000Y-115100000D01*
%TD*%
D27*
X107500000Y-115000000D02*
G75*
G02*
X92500000Y-115000000I-7500000J0D01*
G01*
X92500000Y-115000000D02*
G75*
G02*
X107500000Y-115000000I7500000J0D01*
G01*
M02*
