%TF.GenerationSoftware,KiCad,Pcbnew,9.0.0*%
%TF.CreationDate,2025-03-13T16:01:27-04:00*%
%TF.ProjectId,IngestibleCapsule-Board,496e6765-7374-4696-926c-654361707375,rev?*%
%TF.SameCoordinates,Original*%
%TF.FileFunction,Copper,L2,Bot*%
%TF.FilePolarity,Positive*%
%FSLAX46Y46*%
G04 Gerber Fmt 4.6, Leading zero omitted, Abs format (unit mm)*
G04 Created by KiCad (PCBNEW 9.0.0) date 2025-03-13 16:01:27*
%MOMM*%
%LPD*%
G01*
G04 APERTURE LIST*
G04 Aperture macros list*
%AMRoundRect*
0 Rectangle with rounded corners*
0 $1 Rounding radius*
0 $2 $3 $4 $5 $6 $7 $8 $9 X,Y pos of 4 corners*
0 Add a 4 corners polygon primitive as box body*
4,1,4,$2,$3,$4,$5,$6,$7,$8,$9,$2,$3,0*
0 Add four circle primitives for the rounded corners*
1,1,$1+$1,$2,$3*
1,1,$1+$1,$4,$5*
1,1,$1+$1,$6,$7*
1,1,$1+$1,$8,$9*
0 Add four rect primitives between the rounded corners*
20,1,$1+$1,$2,$3,$4,$5,0*
20,1,$1+$1,$4,$5,$6,$7,0*
20,1,$1+$1,$6,$7,$8,$9,0*
20,1,$1+$1,$8,$9,$2,$3,0*%
G04 Aperture macros list end*
%TA.AperFunction,SMDPad,CuDef*%
%ADD10RoundRect,0.162500X0.650000X0.162500X-0.650000X0.162500X-0.650000X-0.162500X0.650000X-0.162500X0*%
%TD*%
%TA.AperFunction,SMDPad,CuDef*%
%ADD11RoundRect,0.140000X-0.170000X0.140000X-0.170000X-0.140000X0.170000X-0.140000X0.170000X0.140000X0*%
%TD*%
%TA.AperFunction,SMDPad,CuDef*%
%ADD12RoundRect,0.135000X-0.185000X0.135000X-0.185000X-0.135000X0.185000X-0.135000X0.185000X0.135000X0*%
%TD*%
%TA.AperFunction,SMDPad,CuDef*%
%ADD13R,0.600000X1.550000*%
%TD*%
%TA.AperFunction,SMDPad,CuDef*%
%ADD14R,1.200000X1.800000*%
%TD*%
%TA.AperFunction,ViaPad*%
%ADD15C,0.250000*%
%TD*%
%TA.AperFunction,Conductor*%
%ADD16C,0.100000*%
%TD*%
%TA.AperFunction,Conductor*%
%ADD17C,0.200000*%
%TD*%
%TA.AperFunction,Profile*%
%ADD18C,0.050000*%
%TD*%
G04 APERTURE END LIST*
D10*
%TO.P,U4,1,~{CS}*%
%TO.N,/MEM_CS*%
X103535000Y-114090000D03*
%TO.P,U4,2,DO/IO_{1}*%
%TO.N,/SPI_MISO*%
X103535000Y-115360000D03*
%TO.P,U4,3,~{WP}/IO_{2}*%
%TO.N,SPI_VDD*%
X103535000Y-116630000D03*
%TO.P,U4,4,GND*%
%TO.N,SPI_GND*%
X103535000Y-117900000D03*
%TO.P,U4,5,DI/IO_{0}*%
%TO.N,/SPI_MOSI*%
X96360000Y-117900000D03*
%TO.P,U4,6,CLK*%
%TO.N,/SPI_SCK*%
X96360000Y-116630000D03*
%TO.P,U4,7,~{HOLD}/~{RESET}/IO_{3}*%
%TO.N,SPI_VDD*%
X96360000Y-115360000D03*
%TO.P,U4,8,VCC*%
X96360000Y-114090000D03*
%TD*%
D11*
%TO.P,C14,1*%
%TO.N,SPI_VDD*%
X94597500Y-114235000D03*
%TO.P,C14,2*%
%TO.N,SPI_GND*%
X94597500Y-115195000D03*
%TD*%
D12*
%TO.P,R8,1*%
%TO.N,SPI_VDD*%
X103597500Y-119610000D03*
%TO.P,R8,2*%
%TO.N,/MEM_CS*%
X103597500Y-120630000D03*
%TD*%
D13*
%TO.P,J6,1,Pin_1*%
%TO.N,/RF Transceiver/RFN*%
X100500000Y-109163000D03*
%TO.P,J6,2,Pin_2*%
%TO.N,/RF Transceiver/RFP*%
X99500000Y-109163000D03*
D14*
%TO.P,J6,MP1*%
%TO.N,N/C*%
X101800000Y-111688000D03*
%TO.P,J6,MP2*%
X98200000Y-111688000D03*
%TD*%
D15*
%TO.N,SPI_VDD*%
X97600000Y-114952500D03*
%TO.N,SPI_GND*%
X93850000Y-114025000D03*
%TO.N,SPI_VDD*%
X104762500Y-113437500D03*
%TO.N,/SPI_MOSI*%
X98975000Y-119200000D03*
%TO.N,SPI_VDD*%
X96550000Y-118475000D03*
X105075000Y-117150000D03*
%TO.N,SPI_GND*%
X104840000Y-115770000D03*
%TO.N,/MEM_CS*%
X99825000Y-118850000D03*
%TO.N,/RF Transceiver/RFN*%
X100230000Y-111040000D03*
%TO.N,/SPI_SCK*%
X99625000Y-117350000D03*
%TO.N,/RF Transceiver/RFP*%
X99790000Y-111060000D03*
%TO.N,/SPI_MISO*%
X100400000Y-118850000D03*
%TO.N,/SPI_SCK*%
X99600000Y-120475000D03*
%TD*%
D16*
%TO.N,SPI_VDD*%
X102571500Y-118196858D02*
X102750642Y-118376000D01*
X97012500Y-113437500D02*
X96360000Y-114090000D01*
X94742500Y-114090000D02*
X94597500Y-114235000D01*
X95235000Y-114235000D02*
X96360000Y-115360000D01*
X103535000Y-116630000D02*
X102571500Y-117593500D01*
X105075000Y-117620358D02*
X105075000Y-117150000D01*
X96360000Y-115360000D02*
X97192500Y-115360000D01*
X95396500Y-116323500D02*
X95396500Y-118196858D01*
X95396500Y-118196858D02*
X95674642Y-118475000D01*
X94597500Y-114235000D02*
X95235000Y-114235000D01*
X102750642Y-118376000D02*
X104319358Y-118376000D01*
%TO.N,/SPI_MOSI*%
X96360000Y-117900000D02*
X97675000Y-117900000D01*
%TO.N,SPI_VDD*%
X96360000Y-114090000D02*
X94742500Y-114090000D01*
%TO.N,/SPI_SCK*%
X97172499Y-116630000D02*
X99536249Y-118993751D01*
X99536249Y-118993751D02*
X99536249Y-117438751D01*
%TO.N,SPI_GND*%
X94597500Y-115195000D02*
X93850000Y-114447500D01*
X93850000Y-114447500D02*
X93850000Y-114025000D01*
%TO.N,SPI_VDD*%
X105075000Y-118132500D02*
X105075000Y-117150000D01*
X103597500Y-119610000D02*
X105075000Y-118132500D01*
%TO.N,/MEM_CS*%
X103597500Y-120630000D02*
X101605000Y-120630000D01*
%TO.N,SPI_VDD*%
X95674642Y-118475000D02*
X96550000Y-118475000D01*
D17*
%TO.N,/RF Transceiver/RFN*%
X100230000Y-111040000D02*
X100230000Y-109433000D01*
X100230000Y-109433000D02*
X100500000Y-109163000D01*
%TO.N,/RF Transceiver/RFP*%
X99790000Y-111060000D02*
X99790000Y-109453000D01*
D16*
%TO.N,SPI_GND*%
X104500000Y-116935000D02*
X103535000Y-117900000D01*
%TO.N,SPI_VDD*%
X104319358Y-118376000D02*
X105075000Y-117620358D01*
X96360000Y-115360000D02*
X95396500Y-116323500D01*
%TO.N,/MEM_CS*%
X99825000Y-117800000D02*
X103535000Y-114090000D01*
D17*
%TO.N,/RF Transceiver/RFP*%
X99790000Y-109453000D02*
X99500000Y-109163000D01*
D16*
%TO.N,/SPI_SCK*%
X99536249Y-118993751D02*
X99600000Y-119057501D01*
%TO.N,/SPI_MISO*%
X100400000Y-118495000D02*
X100400000Y-118850000D01*
%TO.N,SPI_VDD*%
X102571500Y-117593500D02*
X102571500Y-118196858D01*
%TO.N,/MEM_CS*%
X101605000Y-120630000D02*
X99825000Y-118850000D01*
%TO.N,/SPI_SCK*%
X96360000Y-116630000D02*
X97172499Y-116630000D01*
%TO.N,SPI_VDD*%
X104762500Y-113437500D02*
X97012500Y-113437500D01*
%TO.N,/SPI_SCK*%
X99536249Y-117438751D02*
X99625000Y-117350000D01*
%TO.N,/SPI_MOSI*%
X98975000Y-119200000D02*
X98925000Y-119200000D01*
%TO.N,/SPI_MISO*%
X103535000Y-115360000D02*
X100400000Y-118495000D01*
%TO.N,SPI_VDD*%
X97192500Y-115360000D02*
X97600000Y-114952500D01*
%TO.N,/MEM_CS*%
X99825000Y-118850000D02*
X99825000Y-117800000D01*
%TO.N,SPI_GND*%
X104500000Y-116110000D02*
X104500000Y-116935000D01*
%TO.N,/SPI_SCK*%
X99600000Y-119057501D02*
X99600000Y-120475000D01*
%TO.N,SPI_GND*%
X104840000Y-115770000D02*
X104500000Y-116110000D01*
%TO.N,/SPI_MOSI*%
X97675000Y-117900000D02*
X98975000Y-119200000D01*
%TD*%
D18*
X107500000Y-115000000D02*
G75*
G02*
X92500000Y-115000000I-7500000J0D01*
G01*
X92500000Y-115000000D02*
G75*
G02*
X107500000Y-115000000I7500000J0D01*
G01*
M02*
