%TF.GenerationSoftware,KiCad,Pcbnew,9.0.0*%
%TF.CreationDate,2025-03-13T16:01:27-04:00*%
%TF.ProjectId,IngestibleCapsule-Board,496e6765-7374-4696-926c-654361707375,rev?*%
%TF.SameCoordinates,Original*%
%TF.FileFunction,Legend,Bot*%
%TF.FilePolarity,Positive*%
%FSLAX46Y46*%
G04 Gerber Fmt 4.6, Leading zero omitted, Abs format (unit mm)*
G04 Created by KiCad (PCBNEW 9.0.0) date 2025-03-13 16:01:27*
%MOMM*%
%LPD*%
G01*
G04 APERTURE LIST*
%ADD10C,0.150000*%
%ADD11C,0.254000*%
%ADD12C,0.120000*%
%ADD13C,0.100000*%
%TA.AperFunction,Profile*%
%ADD14C,0.050000*%
%TD*%
G04 APERTURE END LIST*
D10*
X106259404Y-113249819D02*
X106259404Y-114059342D01*
X106259404Y-114059342D02*
X106211785Y-114154580D01*
X106211785Y-114154580D02*
X106164166Y-114202200D01*
X106164166Y-114202200D02*
X106068928Y-114249819D01*
X106068928Y-114249819D02*
X105878452Y-114249819D01*
X105878452Y-114249819D02*
X105783214Y-114202200D01*
X105783214Y-114202200D02*
X105735595Y-114154580D01*
X105735595Y-114154580D02*
X105687976Y-114059342D01*
X105687976Y-114059342D02*
X105687976Y-113249819D01*
X104783214Y-113583152D02*
X104783214Y-114249819D01*
X105021309Y-113202200D02*
X105259404Y-113916485D01*
X105259404Y-113916485D02*
X104640357Y-113916485D01*
X94807080Y-116477142D02*
X94854700Y-116429523D01*
X94854700Y-116429523D02*
X94902319Y-116286666D01*
X94902319Y-116286666D02*
X94902319Y-116191428D01*
X94902319Y-116191428D02*
X94854700Y-116048571D01*
X94854700Y-116048571D02*
X94759461Y-115953333D01*
X94759461Y-115953333D02*
X94664223Y-115905714D01*
X94664223Y-115905714D02*
X94473747Y-115858095D01*
X94473747Y-115858095D02*
X94330890Y-115858095D01*
X94330890Y-115858095D02*
X94140414Y-115905714D01*
X94140414Y-115905714D02*
X94045176Y-115953333D01*
X94045176Y-115953333D02*
X93949938Y-116048571D01*
X93949938Y-116048571D02*
X93902319Y-116191428D01*
X93902319Y-116191428D02*
X93902319Y-116286666D01*
X93902319Y-116286666D02*
X93949938Y-116429523D01*
X93949938Y-116429523D02*
X93997557Y-116477142D01*
X94902319Y-117429523D02*
X94902319Y-116858095D01*
X94902319Y-117143809D02*
X93902319Y-117143809D01*
X93902319Y-117143809D02*
X94045176Y-117048571D01*
X94045176Y-117048571D02*
X94140414Y-116953333D01*
X94140414Y-116953333D02*
X94188033Y-116858095D01*
X94235652Y-118286666D02*
X94902319Y-118286666D01*
X93854700Y-118048571D02*
X94568985Y-117810476D01*
X94568985Y-117810476D02*
X94568985Y-118429523D01*
X102854819Y-119953333D02*
X102378628Y-119620000D01*
X102854819Y-119381905D02*
X101854819Y-119381905D01*
X101854819Y-119381905D02*
X101854819Y-119762857D01*
X101854819Y-119762857D02*
X101902438Y-119858095D01*
X101902438Y-119858095D02*
X101950057Y-119905714D01*
X101950057Y-119905714D02*
X102045295Y-119953333D01*
X102045295Y-119953333D02*
X102188152Y-119953333D01*
X102188152Y-119953333D02*
X102283390Y-119905714D01*
X102283390Y-119905714D02*
X102331009Y-119858095D01*
X102331009Y-119858095D02*
X102378628Y-119762857D01*
X102378628Y-119762857D02*
X102378628Y-119381905D01*
X102283390Y-120524762D02*
X102235771Y-120429524D01*
X102235771Y-120429524D02*
X102188152Y-120381905D01*
X102188152Y-120381905D02*
X102092914Y-120334286D01*
X102092914Y-120334286D02*
X102045295Y-120334286D01*
X102045295Y-120334286D02*
X101950057Y-120381905D01*
X101950057Y-120381905D02*
X101902438Y-120429524D01*
X101902438Y-120429524D02*
X101854819Y-120524762D01*
X101854819Y-120524762D02*
X101854819Y-120715238D01*
X101854819Y-120715238D02*
X101902438Y-120810476D01*
X101902438Y-120810476D02*
X101950057Y-120858095D01*
X101950057Y-120858095D02*
X102045295Y-120905714D01*
X102045295Y-120905714D02*
X102092914Y-120905714D01*
X102092914Y-120905714D02*
X102188152Y-120858095D01*
X102188152Y-120858095D02*
X102235771Y-120810476D01*
X102235771Y-120810476D02*
X102283390Y-120715238D01*
X102283390Y-120715238D02*
X102283390Y-120524762D01*
X102283390Y-120524762D02*
X102331009Y-120429524D01*
X102331009Y-120429524D02*
X102378628Y-120381905D01*
X102378628Y-120381905D02*
X102473866Y-120334286D01*
X102473866Y-120334286D02*
X102664342Y-120334286D01*
X102664342Y-120334286D02*
X102759580Y-120381905D01*
X102759580Y-120381905D02*
X102807200Y-120429524D01*
X102807200Y-120429524D02*
X102854819Y-120524762D01*
X102854819Y-120524762D02*
X102854819Y-120715238D01*
X102854819Y-120715238D02*
X102807200Y-120810476D01*
X102807200Y-120810476D02*
X102759580Y-120858095D01*
X102759580Y-120858095D02*
X102664342Y-120905714D01*
X102664342Y-120905714D02*
X102473866Y-120905714D01*
X102473866Y-120905714D02*
X102378628Y-120858095D01*
X102378628Y-120858095D02*
X102331009Y-120810476D01*
X102331009Y-120810476D02*
X102283390Y-120715238D01*
D11*
X100423332Y-109917318D02*
X100423332Y-110824461D01*
X100423332Y-110824461D02*
X100483809Y-111005889D01*
X100483809Y-111005889D02*
X100604761Y-111126842D01*
X100604761Y-111126842D02*
X100786190Y-111187318D01*
X100786190Y-111187318D02*
X100907142Y-111187318D01*
X99274285Y-109917318D02*
X99516190Y-109917318D01*
X99516190Y-109917318D02*
X99637142Y-109977794D01*
X99637142Y-109977794D02*
X99697618Y-110038270D01*
X99697618Y-110038270D02*
X99818571Y-110219699D01*
X99818571Y-110219699D02*
X99879047Y-110461603D01*
X99879047Y-110461603D02*
X99879047Y-110945413D01*
X99879047Y-110945413D02*
X99818571Y-111066365D01*
X99818571Y-111066365D02*
X99758094Y-111126842D01*
X99758094Y-111126842D02*
X99637142Y-111187318D01*
X99637142Y-111187318D02*
X99395237Y-111187318D01*
X99395237Y-111187318D02*
X99274285Y-111126842D01*
X99274285Y-111126842D02*
X99213809Y-111066365D01*
X99213809Y-111066365D02*
X99153332Y-110945413D01*
X99153332Y-110945413D02*
X99153332Y-110643032D01*
X99153332Y-110643032D02*
X99213809Y-110522080D01*
X99213809Y-110522080D02*
X99274285Y-110461603D01*
X99274285Y-110461603D02*
X99395237Y-110401127D01*
X99395237Y-110401127D02*
X99637142Y-110401127D01*
X99637142Y-110401127D02*
X99758094Y-110461603D01*
X99758094Y-110461603D02*
X99818571Y-110522080D01*
X99818571Y-110522080D02*
X99879047Y-110643032D01*
D10*
X106417857Y-116884580D02*
X106465476Y-116932200D01*
X106465476Y-116932200D02*
X106608333Y-116979819D01*
X106608333Y-116979819D02*
X106703571Y-116979819D01*
X106703571Y-116979819D02*
X106846428Y-116932200D01*
X106846428Y-116932200D02*
X106941666Y-116836961D01*
X106941666Y-116836961D02*
X106989285Y-116741723D01*
X106989285Y-116741723D02*
X107036904Y-116551247D01*
X107036904Y-116551247D02*
X107036904Y-116408390D01*
X107036904Y-116408390D02*
X106989285Y-116217914D01*
X106989285Y-116217914D02*
X106941666Y-116122676D01*
X106941666Y-116122676D02*
X106846428Y-116027438D01*
X106846428Y-116027438D02*
X106703571Y-115979819D01*
X106703571Y-115979819D02*
X106608333Y-115979819D01*
X106608333Y-115979819D02*
X106465476Y-116027438D01*
X106465476Y-116027438D02*
X106417857Y-116075057D01*
X106036904Y-116075057D02*
X105989285Y-116027438D01*
X105989285Y-116027438D02*
X105894047Y-115979819D01*
X105894047Y-115979819D02*
X105655952Y-115979819D01*
X105655952Y-115979819D02*
X105560714Y-116027438D01*
X105560714Y-116027438D02*
X105513095Y-116075057D01*
X105513095Y-116075057D02*
X105465476Y-116170295D01*
X105465476Y-116170295D02*
X105465476Y-116265533D01*
X105465476Y-116265533D02*
X105513095Y-116408390D01*
X105513095Y-116408390D02*
X106084523Y-116979819D01*
X106084523Y-116979819D02*
X105465476Y-116979819D01*
X104513095Y-116979819D02*
X105084523Y-116979819D01*
X104798809Y-116979819D02*
X104798809Y-115979819D01*
X104798809Y-115979819D02*
X104894047Y-116122676D01*
X104894047Y-116122676D02*
X104989285Y-116217914D01*
X104989285Y-116217914D02*
X105084523Y-116265533D01*
D12*
%TO.C,U4*%
X97187500Y-113235000D02*
X97187500Y-113505000D01*
X97187500Y-118755000D02*
X97187500Y-118485000D01*
X99947500Y-113235000D02*
X97187500Y-113235000D01*
X99947500Y-113235000D02*
X102707500Y-113235000D01*
X99947500Y-118755000D02*
X97187500Y-118755000D01*
X99947500Y-118755000D02*
X102707500Y-118755000D01*
X102707500Y-113235000D02*
X102707500Y-113505000D01*
X102707500Y-118755000D02*
X102707500Y-118485000D01*
X103472500Y-113505000D02*
X103232500Y-113175000D01*
X103712500Y-113175000D01*
X103472500Y-113505000D01*
G36*
X103472500Y-113505000D02*
G01*
X103232500Y-113175000D01*
X103712500Y-113175000D01*
X103472500Y-113505000D01*
G37*
%TO.C,C14*%
X94237500Y-114607164D02*
X94237500Y-114822836D01*
X94957500Y-114607164D02*
X94957500Y-114822836D01*
%TO.C,R8*%
X103217500Y-119966359D02*
X103217500Y-120273641D01*
X103977500Y-119966359D02*
X103977500Y-120273641D01*
D13*
%TO.C,J6*%
X98000000Y-109938000D02*
X98000000Y-110563000D01*
X98700000Y-109938000D02*
X98000000Y-109938000D01*
X100700000Y-112838000D02*
X99100000Y-112838000D01*
X101300000Y-109938000D02*
X102000000Y-109938000D01*
X102000000Y-109938000D02*
X102000000Y-110563000D01*
%TD*%
D14*
X107500000Y-115000000D02*
G75*
G02*
X92500000Y-115000000I-7500000J0D01*
G01*
X92500000Y-115000000D02*
G75*
G02*
X107500000Y-115000000I7500000J0D01*
G01*
M02*
