%TF.GenerationSoftware,KiCad,Pcbnew,9.0.0*%
%TF.CreationDate,2025-03-13T16:46:45-04:00*%
%TF.ProjectId,IngestibleCapsule-Board_larger_vias,496e6765-7374-4696-926c-654361707375,rev?*%
%TF.SameCoordinates,Original*%
%TF.FileFunction,Copper,L2,Bot*%
%TF.FilePolarity,Positive*%
%FSLAX46Y46*%
G04 Gerber Fmt 4.6, Leading zero omitted, Abs format (unit mm)*
G04 Created by KiCad (PCBNEW 9.0.0) date 2025-03-13 16:46:45*
%MOMM*%
%LPD*%
G01*
G04 APERTURE LIST*
G04 Aperture macros list*
%AMRoundRect*
0 Rectangle with rounded corners*
0 $1 Rounding radius*
0 $2 $3 $4 $5 $6 $7 $8 $9 X,Y pos of 4 corners*
0 Add a 4 corners polygon primitive as box body*
4,1,4,$2,$3,$4,$5,$6,$7,$8,$9,$2,$3,0*
0 Add four circle primitives for the rounded corners*
1,1,$1+$1,$2,$3*
1,1,$1+$1,$4,$5*
1,1,$1+$1,$6,$7*
1,1,$1+$1,$8,$9*
0 Add four rect primitives between the rounded corners*
20,1,$1+$1,$2,$3,$4,$5,0*
20,1,$1+$1,$4,$5,$6,$7,0*
20,1,$1+$1,$6,$7,$8,$9,0*
20,1,$1+$1,$8,$9,$2,$3,0*%
G04 Aperture macros list end*
%TA.AperFunction,EtchedComponent*%
%ADD10C,0.000000*%
%TD*%
%TA.AperFunction,ComponentPad*%
%ADD11C,1.350000*%
%TD*%
%TA.AperFunction,ComponentPad*%
%ADD12C,1.100000*%
%TD*%
%TA.AperFunction,SMDPad,CuDef*%
%ADD13R,2.400000X1.900000*%
%TD*%
%TA.AperFunction,SMDPad,CuDef*%
%ADD14R,0.220000X0.900000*%
%TD*%
%TA.AperFunction,SMDPad,CuDef*%
%ADD15R,0.500000X0.850000*%
%TD*%
%TA.AperFunction,ConnectorPad*%
%ADD16C,0.787400*%
%TD*%
%TA.AperFunction,SMDPad,CuDef*%
%ADD17R,0.600000X1.550000*%
%TD*%
%TA.AperFunction,SMDPad,CuDef*%
%ADD18R,1.200000X1.800000*%
%TD*%
%TA.AperFunction,SMDPad,CuDef*%
%ADD19RoundRect,0.135000X-0.185000X0.135000X-0.185000X-0.135000X0.185000X-0.135000X0.185000X0.135000X0*%
%TD*%
%TA.AperFunction,SMDPad,CuDef*%
%ADD20RoundRect,0.140000X0.140000X0.170000X-0.140000X0.170000X-0.140000X-0.170000X0.140000X-0.170000X0*%
%TD*%
%TA.AperFunction,SMDPad,CuDef*%
%ADD21RoundRect,0.225000X-0.225000X-0.250000X0.225000X-0.250000X0.225000X0.250000X-0.225000X0.250000X0*%
%TD*%
%TA.AperFunction,SMDPad,CuDef*%
%ADD22RoundRect,0.140000X-0.140000X-0.170000X0.140000X-0.170000X0.140000X0.170000X-0.140000X0.170000X0*%
%TD*%
%TA.AperFunction,SMDPad,CuDef*%
%ADD23RoundRect,0.147500X0.172500X-0.147500X0.172500X0.147500X-0.172500X0.147500X-0.172500X-0.147500X0*%
%TD*%
%TA.AperFunction,SMDPad,CuDef*%
%ADD24RoundRect,0.140000X-0.170000X0.140000X-0.170000X-0.140000X0.170000X-0.140000X0.170000X0.140000X0*%
%TD*%
%TA.AperFunction,SMDPad,CuDef*%
%ADD25RoundRect,0.162500X0.650000X0.162500X-0.650000X0.162500X-0.650000X-0.162500X0.650000X-0.162500X0*%
%TD*%
%TA.AperFunction,SMDPad,CuDef*%
%ADD26R,0.230000X0.350000*%
%TD*%
%TA.AperFunction,SMDPad,CuDef*%
%ADD27R,1.800000X1.000000*%
%TD*%
%TA.AperFunction,ViaPad*%
%ADD28C,0.450000*%
%TD*%
%TA.AperFunction,Conductor*%
%ADD29C,0.100000*%
%TD*%
%TA.AperFunction,Conductor*%
%ADD30C,0.200000*%
%TD*%
%TA.AperFunction,Profile*%
%ADD31C,0.050000*%
%TD*%
G04 APERTURE END LIST*
D10*
%TA.AperFunction,EtchedComponent*%
%TO.C,J3*%
G36*
X104225001Y-94600000D02*
G01*
X103945001Y-94600000D01*
X103715001Y-94919999D01*
X103500001Y-94919999D01*
X103500001Y-94389999D01*
X103639999Y-94250000D01*
X104225001Y-94250000D01*
X104225001Y-94600000D01*
G37*
%TD.AperFunction*%
%TA.AperFunction,EtchedComponent*%
G36*
X103945001Y-95400000D02*
G01*
X104225001Y-95400000D01*
X104225001Y-95750000D01*
X103639999Y-95750000D01*
X103500001Y-95610001D01*
X103500001Y-95080001D01*
X103715001Y-95080001D01*
X103945001Y-95400000D01*
G37*
%TD.AperFunction*%
%TA.AperFunction,EtchedComponent*%
G36*
X106499999Y-94389999D02*
G01*
X106499999Y-94919999D01*
X106284999Y-94919999D01*
X106054999Y-94600000D01*
X105774999Y-94600000D01*
X105774999Y-94250000D01*
X106360001Y-94250000D01*
X106499999Y-94389999D01*
G37*
%TD.AperFunction*%
%TA.AperFunction,EtchedComponent*%
G36*
X106499999Y-95610001D02*
G01*
X106360001Y-95750000D01*
X105774999Y-95750000D01*
X105774999Y-95400000D01*
X106054999Y-95400000D01*
X106284999Y-95080001D01*
X106499999Y-95080001D01*
X106499999Y-95610001D01*
G37*
%TD.AperFunction*%
%TD*%
D11*
%TO.P,U2,1,SDA*%
%TO.N,/SEN_I2C_SDA*%
X100000000Y-95600000D03*
%TO.P,U2,2,VDD*%
%TO.N,I2C_VDD*%
X102065000Y-90615000D03*
D12*
%TO.P,U2,3,GND*%
%TO.N,I2C_GND*%
X100000000Y-89760000D03*
D11*
%TO.P,U2,4,SCL*%
%TO.N,/SEN_I2C_SCL*%
X97935000Y-94745000D03*
%TD*%
D13*
%TO.P,Y1,1,1*%
%TO.N,Net-(C2-Pad2)*%
X95800000Y-76800000D03*
%TO.P,Y1,2,2*%
%TO.N,Net-(U1-PF0)*%
X95800000Y-72700000D03*
%TD*%
D14*
%TO.P,J5,1,1*%
%TO.N,GND*%
X100800001Y-78285001D03*
%TO.P,J5,2,2*%
%TO.N,/MCU_SPI_MISO*%
X100399999Y-78285001D03*
%TO.P,J5,3,3*%
%TO.N,/MCU_SPI_MOSI*%
X100000000Y-78285001D03*
%TO.P,J5,4,4*%
%TO.N,/MCU_MEM_CS*%
X99600001Y-78285001D03*
%TO.P,J5,5,5*%
%TO.N,+3.3V*%
X99199999Y-78285001D03*
%TO.P,J5,6,6*%
%TO.N,GND*%
X100800001Y-80914999D03*
%TO.P,J5,7,7*%
%TO.N,/MCU_RF_IRQ*%
X100399999Y-80914999D03*
%TO.P,J5,8,8*%
%TO.N,/MCU_RF_CS*%
X100000000Y-80914999D03*
%TO.P,J5,9,9*%
%TO.N,/MCU_SPI_SCK*%
X99600001Y-80914999D03*
%TO.P,J5,10,10*%
%TO.N,+3.3V*%
X99199999Y-80914999D03*
D15*
%TO.P,J5,P1*%
%TO.N,N/C*%
X101600000Y-80340000D03*
%TO.P,J5,P2*%
X98400003Y-80340000D03*
%TO.P,J5,P3*%
X101600000Y-78860000D03*
%TO.P,J5,P4*%
X98400003Y-78860000D03*
%TD*%
D16*
%TO.P,J1,1,VCC*%
%TO.N,+3.3V*%
X103830000Y-76240000D03*
%TO.P,J1,2,SWDIO*%
%TO.N,/Processor/SWDIO*%
X105100000Y-76240000D03*
%TO.P,J1,3,~{RESET}*%
%TO.N,/Processor/NRST*%
X103830000Y-74970000D03*
%TO.P,J1,4,SWCLK*%
%TO.N,/Processor/SWCLK*%
X105100000Y-74970000D03*
%TO.P,J1,5,GND*%
%TO.N,GND*%
X103830000Y-73700000D03*
%TO.P,J1,6,SWO*%
%TO.N,/Processor/SWO*%
X105100000Y-73700000D03*
%TD*%
D17*
%TO.P,J6,1,Pin_1*%
%TO.N,/RF Transceiver/RFN*%
X100500000Y-109163000D03*
%TO.P,J6,2,Pin_2*%
%TO.N,/RF Transceiver/RFP*%
X99500000Y-109163000D03*
D18*
%TO.P,J6,MP1*%
%TO.N,N/C*%
X101800000Y-111688000D03*
%TO.P,J6,MP2*%
X98200000Y-111688000D03*
%TD*%
D19*
%TO.P,R4,1*%
%TO.N,Net-(D1-K)*%
X100400000Y-74590000D03*
%TO.P,R4,2*%
%TO.N,GND*%
X100400000Y-75610000D03*
%TD*%
D20*
%TO.P,C2,1*%
%TO.N,GND*%
X96760000Y-78500000D03*
%TO.P,C2,2*%
%TO.N,Net-(C2-Pad2)*%
X95800000Y-78500000D03*
%TD*%
D19*
%TO.P,R8,1*%
%TO.N,SPI_VDD*%
X103597500Y-119610000D03*
%TO.P,R8,2*%
%TO.N,/MEM_CS*%
X103597500Y-120630000D03*
%TD*%
D21*
%TO.P,C24,1*%
%TO.N,+3.3V*%
X99225000Y-68600000D03*
%TO.P,C24,2*%
%TO.N,GND*%
X100775000Y-68600000D03*
%TD*%
D22*
%TO.P,C4,1*%
%TO.N,GND*%
X98140000Y-76300000D03*
%TO.P,C4,2*%
%TO.N,Net-(U1-PC15)*%
X99100000Y-76300000D03*
%TD*%
D23*
%TO.P,D1,1,K*%
%TO.N,Net-(D1-K)*%
X100400000Y-73485000D03*
%TO.P,D1,2,A*%
%TO.N,/Processor/LED_OUT*%
X100400000Y-72515000D03*
%TD*%
D19*
%TO.P,R1,1*%
%TO.N,Net-(C2-Pad2)*%
X93500000Y-75590000D03*
%TO.P,R1,2*%
%TO.N,Net-(U1-PF1)*%
X93500000Y-76610000D03*
%TD*%
D24*
%TO.P,C14,1*%
%TO.N,SPI_VDD*%
X94597500Y-114235000D03*
%TO.P,C14,2*%
%TO.N,SPI_GND*%
X94597500Y-115195000D03*
%TD*%
D25*
%TO.P,U4,1,~{CS}*%
%TO.N,/MEM_CS*%
X103535000Y-114090000D03*
%TO.P,U4,2,DO/IO_{1}*%
%TO.N,/SPI_MISO*%
X103535000Y-115360000D03*
%TO.P,U4,3,~{WP}/IO_{2}*%
%TO.N,SPI_VDD*%
X103535000Y-116630000D03*
%TO.P,U4,4,GND*%
%TO.N,SPI_GND*%
X103535000Y-117900000D03*
%TO.P,U4,5,DI/IO_{0}*%
%TO.N,/SPI_MOSI*%
X96360000Y-117900000D03*
%TO.P,U4,6,CLK*%
%TO.N,/SPI_SCK*%
X96360000Y-116630000D03*
%TO.P,U4,7,~{HOLD}/~{RESET}/IO_{3}*%
%TO.N,SPI_VDD*%
X96360000Y-115360000D03*
%TO.P,U4,8,VCC*%
X96360000Y-114090000D03*
%TD*%
D26*
%TO.P,J3,1,1*%
%TO.N,I2C_GND*%
X104475000Y-94425000D03*
X104475000Y-95575000D03*
%TO.P,J3,2,2*%
%TO.N,/SEN_I2C_SCL*%
X104824999Y-94425000D03*
X104824999Y-95575000D03*
%TO.P,J3,3,3*%
%TO.N,/SEN_I2C_SDA*%
X105175001Y-94425000D03*
X105175001Y-95575000D03*
%TO.P,J3,4,4*%
%TO.N,I2C_VDD*%
X105525000Y-94425000D03*
X105525000Y-95575000D03*
%TD*%
D20*
%TO.P,C1,1*%
%TO.N,GND*%
X96760000Y-71000000D03*
%TO.P,C1,2*%
%TO.N,Net-(U1-PF0)*%
X95800000Y-71000000D03*
%TD*%
D22*
%TO.P,C3,1*%
%TO.N,GND*%
X98220000Y-71000000D03*
%TO.P,C3,2*%
%TO.N,Net-(U1-PC14)*%
X99180000Y-71000000D03*
%TD*%
D27*
%TO.P,Y2,1,1*%
%TO.N,Net-(U1-PC15)*%
X98671772Y-74850000D03*
%TO.P,Y2,2,2*%
%TO.N,Net-(U1-PC14)*%
X98671772Y-72350000D03*
%TD*%
D28*
%TO.N,Net-(U1-PC15)*%
X93125000Y-73760000D03*
%TO.N,Net-(U1-PF1)*%
X93078968Y-76120526D03*
%TO.N,/Processor/NRST*%
X102890000Y-79280000D03*
%TO.N,GND*%
X97380000Y-76440000D03*
X100400000Y-76830000D03*
X101320000Y-81120000D03*
X102580000Y-73330000D03*
X97050000Y-69620000D03*
X100250000Y-69549000D03*
X102000000Y-69350000D03*
%TO.N,Net-(U1-PF0)*%
X94000000Y-74100000D03*
%TO.N,Net-(U1-PC14)*%
X93570000Y-72740000D03*
%TO.N,+3.3V*%
X97233053Y-69101353D03*
X98499933Y-81089999D03*
X94990000Y-70800000D03*
X103430000Y-77250000D03*
X99000000Y-79140000D03*
%TO.N,/Processor/LED_OUT*%
X101336290Y-70594829D03*
%TO.N,/Processor/SWO*%
X101500000Y-71372187D03*
%TO.N,/Processor/SWDIO*%
X102417334Y-71977334D03*
%TO.N,/Processor/SWCLK*%
X101890000Y-71760000D03*
%TO.N,Net-(U3-SDO{slash}ADDR)*%
X103750000Y-99750000D03*
X100820000Y-99770000D03*
%TO.N,/RF Transceiver/RFP*%
X99420000Y-110620000D03*
%TO.N,/RF Transceiver/RFN*%
X100660000Y-110640000D03*
%TO.N,I2C_GND*%
X104059900Y-95003004D03*
X99190000Y-97820000D03*
%TO.N,/MCU_SPI_MOSI*%
X97471597Y-79961266D03*
%TO.N,/MCU_MEM_CS*%
X97312549Y-79434762D03*
%TO.N,/MCU_SPI_MISO*%
X97825002Y-80398683D03*
%TO.N,/MCU_RF_IRQ*%
X97413758Y-81311285D03*
%TO.N,/MCU_RF_CS*%
X97045454Y-80894000D03*
%TO.N,/MCU_SPI_SCK*%
X96832675Y-80386823D03*
%TO.N,SPI_GND*%
X105000000Y-115610000D03*
X93810000Y-114220000D03*
%TO.N,SPI_VDD*%
X97480000Y-115000000D03*
X104750000Y-113150000D03*
X105840000Y-117880000D03*
X96520000Y-119750000D03*
%TO.N,/SPI_MOSI*%
X98890000Y-119990000D03*
%TO.N,/MEM_CS*%
X99600000Y-118960000D03*
%TO.N,/SPI_MISO*%
X100600000Y-119180000D03*
%TO.N,/SPI_SCK*%
X98250000Y-117390000D03*
X99600000Y-120475000D03*
%TD*%
D29*
%TO.N,/Processor/SWO*%
X104834700Y-72697706D02*
X105100000Y-72963006D01*
X103599000Y-70949000D02*
X104834700Y-72184700D01*
X102216744Y-70949000D02*
X103599000Y-70949000D01*
X105100000Y-72963006D02*
X105100000Y-73700000D01*
X101795744Y-71370000D02*
X102216744Y-70949000D01*
X104834700Y-72184700D02*
X104834700Y-72697706D01*
D30*
%TO.N,/RF Transceiver/RFP*%
X99790000Y-110240000D02*
X99790000Y-109453000D01*
X99790000Y-109453000D02*
X99500000Y-109163000D01*
X99420000Y-110610000D02*
X99790000Y-110240000D01*
X99420000Y-110620000D02*
X99420000Y-110610000D01*
D29*
%TO.N,SPI_VDD*%
X105075000Y-118132500D02*
X103597500Y-119610000D01*
X105587500Y-118132500D02*
X105075000Y-118132500D01*
X105840000Y-117880000D02*
X105587500Y-118132500D01*
X102571500Y-118196858D02*
X102571500Y-117593500D01*
X102571500Y-117593500D02*
X103535000Y-116630000D01*
X102750642Y-118376000D02*
X102571500Y-118196858D01*
X104319358Y-118376000D02*
X102750642Y-118376000D01*
X105075000Y-117620358D02*
X104319358Y-118376000D01*
X105580358Y-117620358D02*
X105075000Y-117620358D01*
X105840000Y-117880000D02*
X105580358Y-117620358D01*
%TO.N,SPI_GND*%
X104500000Y-116935000D02*
X103535000Y-117900000D01*
X105000000Y-115610000D02*
X104500000Y-116110000D01*
X104500000Y-116110000D02*
X104500000Y-116935000D01*
%TO.N,SPI_VDD*%
X104750000Y-113150000D02*
X104462500Y-113437500D01*
X97012500Y-113437500D02*
X96360000Y-114090000D01*
X104462500Y-113437500D02*
X97012500Y-113437500D01*
%TO.N,/SPI_SCK*%
X97860000Y-117780000D02*
X98250000Y-117390000D01*
X97860000Y-117790000D02*
X97860000Y-117780000D01*
X97860000Y-117790000D02*
X96700000Y-116630000D01*
%TO.N,/SPI_MISO*%
X100400000Y-118980000D02*
X100400000Y-118495000D01*
X100400000Y-118495000D02*
X103535000Y-115360000D01*
X100600000Y-119180000D02*
X100400000Y-118980000D01*
%TO.N,/MEM_CS*%
X99610000Y-118015000D02*
X103535000Y-114090000D01*
X99610000Y-118950000D02*
X99610000Y-118015000D01*
X99600000Y-118960000D02*
X99610000Y-118950000D01*
X101260000Y-120630000D02*
X103597500Y-120630000D01*
X99600000Y-118970000D02*
X101260000Y-120630000D01*
X99600000Y-118960000D02*
X99600000Y-118970000D01*
%TO.N,/SPI_SCK*%
X99600000Y-119530000D02*
X97860000Y-117790000D01*
X99600000Y-120475000D02*
X99600000Y-119530000D01*
X96700000Y-116630000D02*
X96360000Y-116630000D01*
%TO.N,/SPI_MOSI*%
X97675000Y-117900000D02*
X96360000Y-117900000D01*
X98900000Y-119125000D02*
X97675000Y-117900000D01*
X98890000Y-119990000D02*
X98900000Y-119980000D01*
X98900000Y-119980000D02*
X98900000Y-119125000D01*
%TO.N,SPI_VDD*%
X95674642Y-118475000D02*
X95396500Y-118196858D01*
X96520000Y-119750000D02*
X95674642Y-118904642D01*
X95674642Y-118904642D02*
X95674642Y-118475000D01*
X95396500Y-118196858D02*
X95396500Y-116323500D01*
X95396500Y-116323500D02*
X96360000Y-115360000D01*
X96720000Y-115000000D02*
X97480000Y-115000000D01*
X96360000Y-115360000D02*
X96720000Y-115000000D01*
D30*
%TO.N,/RF Transceiver/RFN*%
X100230000Y-110210000D02*
X100230000Y-109433000D01*
X100230000Y-109433000D02*
X100500000Y-109163000D01*
X100660000Y-110640000D02*
X100230000Y-110210000D01*
D29*
%TO.N,SPI_GND*%
X93810000Y-114220000D02*
X93810000Y-114407500D01*
X93810000Y-114407500D02*
X94597500Y-115195000D01*
%TO.N,I2C_GND*%
X104062904Y-95000000D02*
X104475000Y-95000000D01*
X104059900Y-95003004D02*
X104062904Y-95000000D01*
%TO.N,Net-(U3-SDO{slash}ADDR)*%
X100840000Y-99750000D02*
X100820000Y-99770000D01*
X103750000Y-99750000D02*
X100840000Y-99750000D01*
%TO.N,I2C_GND*%
X97109000Y-95834000D02*
X97109000Y-92651000D01*
X99095000Y-97820000D02*
X97109000Y-95834000D01*
X99190000Y-97820000D02*
X99095000Y-97820000D01*
X97109000Y-92651000D02*
X100000000Y-89760000D01*
%TO.N,+3.3V*%
X103100000Y-76970000D02*
X103830000Y-76240000D01*
X103100000Y-77025000D02*
X103100000Y-76970000D01*
X103325000Y-77250000D02*
X103100000Y-77025000D01*
X103430000Y-77250000D02*
X103325000Y-77250000D01*
X95000000Y-70800000D02*
X94990000Y-70800000D01*
X96600000Y-69200000D02*
X95000000Y-70800000D01*
X97128647Y-69101353D02*
X97030000Y-69200000D01*
X97233053Y-69101353D02*
X97128647Y-69101353D01*
X97030000Y-69200000D02*
X96600000Y-69200000D01*
X98000000Y-68600000D02*
X99225000Y-68600000D01*
X97750000Y-68850000D02*
X98000000Y-68600000D01*
X97484406Y-68850000D02*
X97750000Y-68850000D01*
X97233053Y-69101353D02*
X97484406Y-68850000D01*
%TO.N,/Processor/LED_OUT*%
X101336290Y-70597917D02*
X101314207Y-70620000D01*
X101314207Y-70620000D02*
X101274584Y-70620000D01*
X101336290Y-70594829D02*
X101336290Y-70597917D01*
X100400000Y-71494584D02*
X100400000Y-72515000D01*
X101274584Y-70620000D02*
X100400000Y-71494584D01*
%TO.N,/Processor/SWO*%
X101502187Y-71370000D02*
X101795744Y-71370000D01*
X101500000Y-71372187D02*
X101502187Y-71370000D01*
%TO.N,/Processor/SWCLK*%
X104450000Y-74320000D02*
X105100000Y-74970000D01*
X101890000Y-71560000D02*
X102300000Y-71150000D01*
X103300000Y-71150000D02*
X104450000Y-72300000D01*
X102300000Y-71150000D02*
X103300000Y-71150000D01*
X101890000Y-71760000D02*
X101890000Y-71560000D01*
X104450000Y-72300000D02*
X104450000Y-74320000D01*
%TO.N,/Processor/SWDIO*%
X104555300Y-75695300D02*
X105100000Y-76240000D01*
X104555300Y-74924977D02*
X104555300Y-75695300D01*
X104055623Y-74425300D02*
X104555300Y-74924977D01*
X102417334Y-71977334D02*
X101737500Y-72657168D01*
X101737500Y-73537500D02*
X102625300Y-74425300D01*
X101737500Y-72657168D02*
X101737500Y-73537500D01*
X102625300Y-74425300D02*
X104055623Y-74425300D01*
%TO.N,+3.3V*%
X99199999Y-78975001D02*
X99199999Y-78285001D01*
X99050000Y-79125000D02*
X99199999Y-78975001D01*
X99015000Y-79125000D02*
X99050000Y-79125000D01*
X99000000Y-79140000D02*
X99015000Y-79125000D01*
%TO.N,/MCU_SPI_MOSI*%
X99938500Y-78849000D02*
X100000000Y-78787500D01*
X99935677Y-78849000D02*
X99938500Y-78849000D01*
X99894677Y-78890000D02*
X99935677Y-78849000D01*
X99400999Y-78890000D02*
X99894677Y-78890000D01*
X97471597Y-79961266D02*
X97872863Y-79560000D01*
X97872863Y-79560000D02*
X99400999Y-79560000D01*
X99400999Y-79560000D02*
X99400999Y-78890000D01*
X100000000Y-78787500D02*
X100000000Y-78285001D01*
%TO.N,/MCU_MEM_CS*%
X99600001Y-77786001D02*
X99600001Y-78285001D01*
X99498001Y-77684001D02*
X99600001Y-77786001D01*
X98938999Y-77684001D02*
X99498001Y-77684001D01*
X98066000Y-78284000D02*
X98339000Y-78284000D01*
X97312549Y-79407451D02*
X97564136Y-79155864D01*
X97564136Y-79155864D02*
X97564136Y-78785864D01*
X98339000Y-78284000D02*
X98938999Y-77684001D01*
X97564136Y-78785864D02*
X98066000Y-78284000D01*
X97312549Y-79434762D02*
X97312549Y-79407451D01*
%TO.N,/MCU_SPI_MISO*%
X100399999Y-80250000D02*
X100399999Y-78285001D01*
X97999003Y-79764000D02*
X98964000Y-79764000D01*
X99450000Y-80250000D02*
X100399999Y-80250000D01*
X97999003Y-80224682D02*
X97999003Y-79764000D01*
X97825002Y-80398683D02*
X97999003Y-80224682D01*
X98964000Y-79764000D02*
X99450000Y-80250000D01*
%TO.N,+3.3V*%
X98674933Y-80914999D02*
X99199999Y-80914999D01*
X98499933Y-81089999D02*
X98674933Y-80914999D01*
%TO.N,/MCU_RF_CS*%
X100000000Y-81349257D02*
X100000000Y-80914999D01*
X99632258Y-81716999D02*
X100000000Y-81349257D01*
X98312345Y-81716999D02*
X99632258Y-81716999D01*
X97789758Y-81194412D02*
X97789758Y-81194411D01*
X97789758Y-81155540D02*
X97789758Y-81194412D01*
X97081454Y-80930000D02*
X97564218Y-80930000D01*
X97045454Y-80894000D02*
X97081454Y-80930000D01*
X97564218Y-80930000D02*
X97789758Y-81155540D01*
X97789758Y-81194411D02*
X98312345Y-81716999D01*
%TO.N,/MCU_SPI_SCK*%
X97080436Y-80397237D02*
X96843089Y-80397237D01*
X96843089Y-80397237D02*
X96832675Y-80386823D01*
X97412199Y-80729000D02*
X97080436Y-80397237D01*
X97647474Y-80729000D02*
X97412199Y-80729000D01*
X97990758Y-81072283D02*
X97647474Y-80729000D01*
X97990758Y-81111154D02*
X97990758Y-81072283D01*
X98395601Y-81515999D02*
X97990758Y-81111154D01*
X99549001Y-81515999D02*
X98395601Y-81515999D01*
X99600001Y-81464999D02*
X99549001Y-81515999D01*
X99600001Y-80914999D02*
X99600001Y-81464999D01*
%TO.N,/MCU_RF_IRQ*%
X100399999Y-81464999D02*
X100399999Y-80914999D01*
X99946999Y-81917999D02*
X100399999Y-81464999D01*
X98229089Y-81917999D02*
X99946999Y-81917999D01*
X97413758Y-81311285D02*
X97462473Y-81360000D01*
X97671090Y-81360000D02*
X98229089Y-81917999D01*
X97462473Y-81360000D02*
X97671090Y-81360000D01*
%TO.N,Net-(U1-PF0)*%
X95550000Y-72700000D02*
X95800000Y-72700000D01*
X94000000Y-74100000D02*
X94270000Y-73830000D01*
X94420000Y-73830000D02*
X95550000Y-72700000D01*
X94270000Y-73830000D02*
X94420000Y-73830000D01*
%TO.N,Net-(U1-PC14)*%
X96495772Y-74526000D02*
X98671772Y-72350000D01*
X93885677Y-74526000D02*
X96495772Y-74526000D01*
X93500000Y-72810000D02*
X93500000Y-74140323D01*
X93570000Y-72740000D02*
X93500000Y-72810000D01*
X93500000Y-74140323D02*
X93885677Y-74526000D01*
%TO.N,Net-(U1-PC15)*%
X93125000Y-73760000D02*
X93100000Y-73785000D01*
X93100000Y-73785000D02*
X93100000Y-74200000D01*
X93100000Y-74200000D02*
X93750000Y-74850000D01*
X93750000Y-74850000D02*
X98671772Y-74850000D01*
%TO.N,Net-(U1-PF1)*%
X93312500Y-76422500D02*
X93500000Y-76610000D01*
X93252500Y-76422500D02*
X93312500Y-76422500D01*
X93078968Y-76248968D02*
X93252500Y-76422500D01*
X93078968Y-76120526D02*
X93078968Y-76248968D01*
%TO.N,/Processor/NRST*%
X102750000Y-78130000D02*
X102750000Y-76050000D01*
X102750000Y-76050000D02*
X103830000Y-74970000D01*
X102890000Y-78270000D02*
X102750000Y-78130000D01*
X102890000Y-79280000D02*
X102890000Y-78270000D01*
%TO.N,GND*%
X97645000Y-76705000D02*
X97645000Y-77615000D01*
X97380000Y-76440000D02*
X97645000Y-76705000D01*
X98140000Y-77120000D02*
X97645000Y-77615000D01*
X100800001Y-77230001D02*
X100400000Y-76830000D01*
X100800001Y-78285001D02*
X100800001Y-77230001D01*
X100400000Y-76830000D02*
X100400000Y-75610000D01*
X101114999Y-80914999D02*
X101320000Y-81120000D01*
X100800001Y-80914999D02*
X101114999Y-80914999D01*
X100800001Y-80914999D02*
X100800001Y-78285001D01*
X102950000Y-73700000D02*
X102580000Y-73330000D01*
X103830000Y-73700000D02*
X102950000Y-73700000D01*
X97180000Y-69750000D02*
X97050000Y-69620000D01*
X99101000Y-69549000D02*
X98900000Y-69750000D01*
X100250000Y-69549000D02*
X99101000Y-69549000D01*
X98900000Y-69750000D02*
X97180000Y-69750000D01*
X96760000Y-69910000D02*
X96760000Y-71000000D01*
X97050000Y-69620000D02*
X96760000Y-69910000D01*
X101801000Y-69549000D02*
X102000000Y-69350000D01*
X100250000Y-69549000D02*
X101801000Y-69549000D01*
X101250000Y-68600000D02*
X100775000Y-68600000D01*
X102000000Y-69350000D02*
X101250000Y-68600000D01*
%TO.N,Net-(U1-PF0)*%
X95800000Y-72700000D02*
X95800000Y-71000000D01*
%TO.N,GND*%
X103830000Y-73700000D02*
X103450000Y-73700000D01*
X98140000Y-76300000D02*
X98140000Y-77120000D01*
X96960000Y-71200000D02*
X96760000Y-71000000D01*
X98220000Y-71000000D02*
X98020000Y-71200000D01*
X98020000Y-71200000D02*
X96960000Y-71200000D01*
X97645000Y-77615000D02*
X96760000Y-78500000D01*
%TO.N,Net-(C2-Pad2)*%
X94590000Y-75590000D02*
X95800000Y-76800000D01*
X93500000Y-75590000D02*
X94590000Y-75590000D01*
X95800000Y-76800000D02*
X95800000Y-78500000D01*
%TO.N,Net-(U1-PC14)*%
X98671772Y-72350000D02*
X98671772Y-71508228D01*
X98671772Y-71508228D02*
X99180000Y-71000000D01*
%TO.N,Net-(U1-PC15)*%
X99100000Y-75278228D02*
X98671772Y-74850000D01*
X99100000Y-76300000D02*
X99100000Y-75278228D01*
%TO.N,Net-(D1-K)*%
X100400000Y-73485000D02*
X100400000Y-74590000D01*
%TO.N,I2C_GND*%
X104475000Y-95000000D02*
X104475000Y-95575000D01*
X100000000Y-89760000D02*
X104475000Y-94235000D01*
X104475000Y-94235000D02*
X104475000Y-94425000D01*
X104475000Y-94425000D02*
X104475000Y-95000000D01*
%TO.N,I2C_VDD*%
X105525000Y-94425000D02*
X105525000Y-95575000D01*
X105525000Y-94075000D02*
X105525000Y-94425000D01*
X102065000Y-90615000D02*
X105525000Y-94075000D01*
%TO.N,/SEN_I2C_SDA*%
X100675000Y-96275000D02*
X104750001Y-96275000D01*
X105175001Y-94425000D02*
X105175001Y-95575000D01*
X105175001Y-95850000D02*
X105175001Y-95575000D01*
X100000000Y-95600000D02*
X100675000Y-96275000D01*
X104750001Y-96275000D02*
X105175001Y-95850000D01*
%TO.N,/SEN_I2C_SCL*%
X104824999Y-95734002D02*
X104824999Y-95575000D01*
X104658001Y-95901000D02*
X104824999Y-95734002D01*
X97935000Y-94745000D02*
X102421451Y-94745000D01*
X102421451Y-94745000D02*
X103577451Y-95901000D01*
X103577451Y-95901000D02*
X104658001Y-95901000D01*
X104824999Y-94425000D02*
X104824999Y-95575000D01*
%TO.N,SPI_VDD*%
X94597500Y-114235000D02*
X95235000Y-114235000D01*
X95235000Y-114235000D02*
X96360000Y-115360000D01*
X96360000Y-114090000D02*
X94742500Y-114090000D01*
X94742500Y-114090000D02*
X94597500Y-114235000D01*
%TD*%
D31*
X107500000Y-115000000D02*
G75*
G02*
X92500000Y-115000000I-7500000J0D01*
G01*
X92500000Y-115000000D02*
G75*
G02*
X107500000Y-115000000I7500000J0D01*
G01*
X107500000Y-95000000D02*
G75*
G02*
X92500000Y-95000000I-7500000J0D01*
G01*
X92500000Y-95000000D02*
G75*
G02*
X107500000Y-95000000I7500000J0D01*
G01*
X107500000Y-75000000D02*
G75*
G02*
X92500000Y-75000000I-7500000J0D01*
G01*
X92500000Y-75000000D02*
G75*
G02*
X107500000Y-75000000I7500000J0D01*
G01*
M02*
