%TF.GenerationSoftware,KiCad,Pcbnew,9.0.0*%
%TF.CreationDate,2025-03-13T16:46:45-04:00*%
%TF.ProjectId,IngestibleCapsule-Board_larger_vias,496e6765-7374-4696-926c-654361707375,rev?*%
%TF.SameCoordinates,Original*%
%TF.FileFunction,Legend,Top*%
%TF.FilePolarity,Positive*%
%FSLAX46Y46*%
G04 Gerber Fmt 4.6, Leading zero omitted, Abs format (unit mm)*
G04 Created by KiCad (PCBNEW 9.0.0) date 2025-03-13 16:46:45*
%MOMM*%
%LPD*%
G01*
G04 APERTURE LIST*
%ADD10C,0.150000*%
%ADD11C,0.093750*%
%ADD12C,0.254000*%
%ADD13C,0.100000*%
%ADD14C,0.152400*%
%ADD15C,0.120000*%
%ADD16C,0.200000*%
%TA.AperFunction,Profile*%
%ADD17C,0.050000*%
%TD*%
G04 APERTURE END LIST*
D10*
X96483333Y-120775180D02*
X96483333Y-120060895D01*
X96483333Y-120060895D02*
X96530952Y-119918038D01*
X96530952Y-119918038D02*
X96626190Y-119822800D01*
X96626190Y-119822800D02*
X96769047Y-119775180D01*
X96769047Y-119775180D02*
X96864285Y-119775180D01*
X95578571Y-120441847D02*
X95578571Y-119775180D01*
X95816666Y-120822800D02*
X96054761Y-120108514D01*
X96054761Y-120108514D02*
X95435714Y-120108514D01*
X95388095Y-116429819D02*
X95388095Y-117239342D01*
X95388095Y-117239342D02*
X95435714Y-117334580D01*
X95435714Y-117334580D02*
X95483333Y-117382200D01*
X95483333Y-117382200D02*
X95578571Y-117429819D01*
X95578571Y-117429819D02*
X95769047Y-117429819D01*
X95769047Y-117429819D02*
X95864285Y-117382200D01*
X95864285Y-117382200D02*
X95911904Y-117334580D01*
X95911904Y-117334580D02*
X95959523Y-117239342D01*
X95959523Y-117239342D02*
X95959523Y-116429819D01*
X96911904Y-116429819D02*
X96435714Y-116429819D01*
X96435714Y-116429819D02*
X96388095Y-116906009D01*
X96388095Y-116906009D02*
X96435714Y-116858390D01*
X96435714Y-116858390D02*
X96530952Y-116810771D01*
X96530952Y-116810771D02*
X96769047Y-116810771D01*
X96769047Y-116810771D02*
X96864285Y-116858390D01*
X96864285Y-116858390D02*
X96911904Y-116906009D01*
X96911904Y-116906009D02*
X96959523Y-117001247D01*
X96959523Y-117001247D02*
X96959523Y-117239342D01*
X96959523Y-117239342D02*
X96911904Y-117334580D01*
X96911904Y-117334580D02*
X96864285Y-117382200D01*
X96864285Y-117382200D02*
X96769047Y-117429819D01*
X96769047Y-117429819D02*
X96530952Y-117429819D01*
X96530952Y-117429819D02*
X96435714Y-117382200D01*
X96435714Y-117382200D02*
X96388095Y-117334580D01*
X107109580Y-115117857D02*
X107157200Y-115165476D01*
X107157200Y-115165476D02*
X107204819Y-115308333D01*
X107204819Y-115308333D02*
X107204819Y-115403571D01*
X107204819Y-115403571D02*
X107157200Y-115546428D01*
X107157200Y-115546428D02*
X107061961Y-115641666D01*
X107061961Y-115641666D02*
X106966723Y-115689285D01*
X106966723Y-115689285D02*
X106776247Y-115736904D01*
X106776247Y-115736904D02*
X106633390Y-115736904D01*
X106633390Y-115736904D02*
X106442914Y-115689285D01*
X106442914Y-115689285D02*
X106347676Y-115641666D01*
X106347676Y-115641666D02*
X106252438Y-115546428D01*
X106252438Y-115546428D02*
X106204819Y-115403571D01*
X106204819Y-115403571D02*
X106204819Y-115308333D01*
X106204819Y-115308333D02*
X106252438Y-115165476D01*
X106252438Y-115165476D02*
X106300057Y-115117857D01*
X107204819Y-114165476D02*
X107204819Y-114736904D01*
X107204819Y-114451190D02*
X106204819Y-114451190D01*
X106204819Y-114451190D02*
X106347676Y-114546428D01*
X106347676Y-114546428D02*
X106442914Y-114641666D01*
X106442914Y-114641666D02*
X106490533Y-114736904D01*
X107204819Y-113689285D02*
X107204819Y-113498809D01*
X107204819Y-113498809D02*
X107157200Y-113403571D01*
X107157200Y-113403571D02*
X107109580Y-113355952D01*
X107109580Y-113355952D02*
X106966723Y-113260714D01*
X106966723Y-113260714D02*
X106776247Y-113213095D01*
X106776247Y-113213095D02*
X106395295Y-113213095D01*
X106395295Y-113213095D02*
X106300057Y-113260714D01*
X106300057Y-113260714D02*
X106252438Y-113308333D01*
X106252438Y-113308333D02*
X106204819Y-113403571D01*
X106204819Y-113403571D02*
X106204819Y-113594047D01*
X106204819Y-113594047D02*
X106252438Y-113689285D01*
X106252438Y-113689285D02*
X106300057Y-113736904D01*
X106300057Y-113736904D02*
X106395295Y-113784523D01*
X106395295Y-113784523D02*
X106633390Y-113784523D01*
X106633390Y-113784523D02*
X106728628Y-113736904D01*
X106728628Y-113736904D02*
X106776247Y-113689285D01*
X106776247Y-113689285D02*
X106823866Y-113594047D01*
X106823866Y-113594047D02*
X106823866Y-113403571D01*
X106823866Y-113403571D02*
X106776247Y-113308333D01*
X106776247Y-113308333D02*
X106728628Y-113260714D01*
X106728628Y-113260714D02*
X106633390Y-113213095D01*
X105909580Y-115067857D02*
X105957200Y-115115476D01*
X105957200Y-115115476D02*
X106004819Y-115258333D01*
X106004819Y-115258333D02*
X106004819Y-115353571D01*
X106004819Y-115353571D02*
X105957200Y-115496428D01*
X105957200Y-115496428D02*
X105861961Y-115591666D01*
X105861961Y-115591666D02*
X105766723Y-115639285D01*
X105766723Y-115639285D02*
X105576247Y-115686904D01*
X105576247Y-115686904D02*
X105433390Y-115686904D01*
X105433390Y-115686904D02*
X105242914Y-115639285D01*
X105242914Y-115639285D02*
X105147676Y-115591666D01*
X105147676Y-115591666D02*
X105052438Y-115496428D01*
X105052438Y-115496428D02*
X105004819Y-115353571D01*
X105004819Y-115353571D02*
X105004819Y-115258333D01*
X105004819Y-115258333D02*
X105052438Y-115115476D01*
X105052438Y-115115476D02*
X105100057Y-115067857D01*
X106004819Y-114115476D02*
X106004819Y-114686904D01*
X106004819Y-114401190D02*
X105004819Y-114401190D01*
X105004819Y-114401190D02*
X105147676Y-114496428D01*
X105147676Y-114496428D02*
X105242914Y-114591666D01*
X105242914Y-114591666D02*
X105290533Y-114686904D01*
X105433390Y-113544047D02*
X105385771Y-113639285D01*
X105385771Y-113639285D02*
X105338152Y-113686904D01*
X105338152Y-113686904D02*
X105242914Y-113734523D01*
X105242914Y-113734523D02*
X105195295Y-113734523D01*
X105195295Y-113734523D02*
X105100057Y-113686904D01*
X105100057Y-113686904D02*
X105052438Y-113639285D01*
X105052438Y-113639285D02*
X105004819Y-113544047D01*
X105004819Y-113544047D02*
X105004819Y-113353571D01*
X105004819Y-113353571D02*
X105052438Y-113258333D01*
X105052438Y-113258333D02*
X105100057Y-113210714D01*
X105100057Y-113210714D02*
X105195295Y-113163095D01*
X105195295Y-113163095D02*
X105242914Y-113163095D01*
X105242914Y-113163095D02*
X105338152Y-113210714D01*
X105338152Y-113210714D02*
X105385771Y-113258333D01*
X105385771Y-113258333D02*
X105433390Y-113353571D01*
X105433390Y-113353571D02*
X105433390Y-113544047D01*
X105433390Y-113544047D02*
X105481009Y-113639285D01*
X105481009Y-113639285D02*
X105528628Y-113686904D01*
X105528628Y-113686904D02*
X105623866Y-113734523D01*
X105623866Y-113734523D02*
X105814342Y-113734523D01*
X105814342Y-113734523D02*
X105909580Y-113686904D01*
X105909580Y-113686904D02*
X105957200Y-113639285D01*
X105957200Y-113639285D02*
X106004819Y-113544047D01*
X106004819Y-113544047D02*
X106004819Y-113353571D01*
X106004819Y-113353571D02*
X105957200Y-113258333D01*
X105957200Y-113258333D02*
X105909580Y-113210714D01*
X105909580Y-113210714D02*
X105814342Y-113163095D01*
X105814342Y-113163095D02*
X105623866Y-113163095D01*
X105623866Y-113163095D02*
X105528628Y-113210714D01*
X105528628Y-113210714D02*
X105481009Y-113258333D01*
X105481009Y-113258333D02*
X105433390Y-113353571D01*
X106644579Y-95722858D02*
X106692199Y-95770477D01*
X106692199Y-95770477D02*
X106739818Y-95913334D01*
X106739818Y-95913334D02*
X106739818Y-96008572D01*
X106739818Y-96008572D02*
X106692199Y-96151429D01*
X106692199Y-96151429D02*
X106596960Y-96246667D01*
X106596960Y-96246667D02*
X106501722Y-96294286D01*
X106501722Y-96294286D02*
X106311246Y-96341905D01*
X106311246Y-96341905D02*
X106168389Y-96341905D01*
X106168389Y-96341905D02*
X105977913Y-96294286D01*
X105977913Y-96294286D02*
X105882675Y-96246667D01*
X105882675Y-96246667D02*
X105787437Y-96151429D01*
X105787437Y-96151429D02*
X105739818Y-96008572D01*
X105739818Y-96008572D02*
X105739818Y-95913334D01*
X105739818Y-95913334D02*
X105787437Y-95770477D01*
X105787437Y-95770477D02*
X105835056Y-95722858D01*
X106739818Y-94770477D02*
X106739818Y-95341905D01*
X106739818Y-95056191D02*
X105739818Y-95056191D01*
X105739818Y-95056191D02*
X105882675Y-95151429D01*
X105882675Y-95151429D02*
X105977913Y-95246667D01*
X105977913Y-95246667D02*
X106025532Y-95341905D01*
X105739818Y-94437143D02*
X105739818Y-93818096D01*
X105739818Y-93818096D02*
X106120770Y-94151429D01*
X106120770Y-94151429D02*
X106120770Y-94008572D01*
X106120770Y-94008572D02*
X106168389Y-93913334D01*
X106168389Y-93913334D02*
X106216008Y-93865715D01*
X106216008Y-93865715D02*
X106311246Y-93818096D01*
X106311246Y-93818096D02*
X106549341Y-93818096D01*
X106549341Y-93818096D02*
X106644579Y-93865715D01*
X106644579Y-93865715D02*
X106692199Y-93913334D01*
X106692199Y-93913334D02*
X106739818Y-94008572D01*
X106739818Y-94008572D02*
X106739818Y-94294286D01*
X106739818Y-94294286D02*
X106692199Y-94389524D01*
X106692199Y-94389524D02*
X106644579Y-94437143D01*
X103357142Y-120379819D02*
X103023809Y-119903628D01*
X102785714Y-120379819D02*
X102785714Y-119379819D01*
X102785714Y-119379819D02*
X103166666Y-119379819D01*
X103166666Y-119379819D02*
X103261904Y-119427438D01*
X103261904Y-119427438D02*
X103309523Y-119475057D01*
X103309523Y-119475057D02*
X103357142Y-119570295D01*
X103357142Y-119570295D02*
X103357142Y-119713152D01*
X103357142Y-119713152D02*
X103309523Y-119808390D01*
X103309523Y-119808390D02*
X103261904Y-119856009D01*
X103261904Y-119856009D02*
X103166666Y-119903628D01*
X103166666Y-119903628D02*
X102785714Y-119903628D01*
X104309523Y-120379819D02*
X103738095Y-120379819D01*
X104023809Y-120379819D02*
X104023809Y-119379819D01*
X104023809Y-119379819D02*
X103928571Y-119522676D01*
X103928571Y-119522676D02*
X103833333Y-119617914D01*
X103833333Y-119617914D02*
X103738095Y-119665533D01*
X104928571Y-119379819D02*
X105023809Y-119379819D01*
X105023809Y-119379819D02*
X105119047Y-119427438D01*
X105119047Y-119427438D02*
X105166666Y-119475057D01*
X105166666Y-119475057D02*
X105214285Y-119570295D01*
X105214285Y-119570295D02*
X105261904Y-119760771D01*
X105261904Y-119760771D02*
X105261904Y-119998866D01*
X105261904Y-119998866D02*
X105214285Y-120189342D01*
X105214285Y-120189342D02*
X105166666Y-120284580D01*
X105166666Y-120284580D02*
X105119047Y-120332200D01*
X105119047Y-120332200D02*
X105023809Y-120379819D01*
X105023809Y-120379819D02*
X104928571Y-120379819D01*
X104928571Y-120379819D02*
X104833333Y-120332200D01*
X104833333Y-120332200D02*
X104785714Y-120284580D01*
X104785714Y-120284580D02*
X104738095Y-120189342D01*
X104738095Y-120189342D02*
X104690476Y-119998866D01*
X104690476Y-119998866D02*
X104690476Y-119760771D01*
X104690476Y-119760771D02*
X104738095Y-119570295D01*
X104738095Y-119570295D02*
X104785714Y-119475057D01*
X104785714Y-119475057D02*
X104833333Y-119427438D01*
X104833333Y-119427438D02*
X104928571Y-119379819D01*
D11*
X96374999Y-69470660D02*
X96339285Y-69506375D01*
X96339285Y-69506375D02*
X96232142Y-69542089D01*
X96232142Y-69542089D02*
X96160714Y-69542089D01*
X96160714Y-69542089D02*
X96053571Y-69506375D01*
X96053571Y-69506375D02*
X95982142Y-69434946D01*
X95982142Y-69434946D02*
X95946428Y-69363517D01*
X95946428Y-69363517D02*
X95910714Y-69220660D01*
X95910714Y-69220660D02*
X95910714Y-69113517D01*
X95910714Y-69113517D02*
X95946428Y-68970660D01*
X95946428Y-68970660D02*
X95982142Y-68899232D01*
X95982142Y-68899232D02*
X96053571Y-68827803D01*
X96053571Y-68827803D02*
X96160714Y-68792089D01*
X96160714Y-68792089D02*
X96232142Y-68792089D01*
X96232142Y-68792089D02*
X96339285Y-68827803D01*
X96339285Y-68827803D02*
X96374999Y-68863517D01*
X97053571Y-68792089D02*
X96696428Y-68792089D01*
X96696428Y-68792089D02*
X96660714Y-69149232D01*
X96660714Y-69149232D02*
X96696428Y-69113517D01*
X96696428Y-69113517D02*
X96767857Y-69077803D01*
X96767857Y-69077803D02*
X96946428Y-69077803D01*
X96946428Y-69077803D02*
X97017857Y-69113517D01*
X97017857Y-69113517D02*
X97053571Y-69149232D01*
X97053571Y-69149232D02*
X97089285Y-69220660D01*
X97089285Y-69220660D02*
X97089285Y-69399232D01*
X97089285Y-69399232D02*
X97053571Y-69470660D01*
X97053571Y-69470660D02*
X97017857Y-69506375D01*
X97017857Y-69506375D02*
X96946428Y-69542089D01*
X96946428Y-69542089D02*
X96767857Y-69542089D01*
X96767857Y-69542089D02*
X96696428Y-69506375D01*
X96696428Y-69506375D02*
X96660714Y-69470660D01*
D10*
X97453333Y-81639580D02*
X97405714Y-81687200D01*
X97405714Y-81687200D02*
X97262857Y-81734819D01*
X97262857Y-81734819D02*
X97167619Y-81734819D01*
X97167619Y-81734819D02*
X97024762Y-81687200D01*
X97024762Y-81687200D02*
X96929524Y-81591961D01*
X96929524Y-81591961D02*
X96881905Y-81496723D01*
X96881905Y-81496723D02*
X96834286Y-81306247D01*
X96834286Y-81306247D02*
X96834286Y-81163390D01*
X96834286Y-81163390D02*
X96881905Y-80972914D01*
X96881905Y-80972914D02*
X96929524Y-80877676D01*
X96929524Y-80877676D02*
X97024762Y-80782438D01*
X97024762Y-80782438D02*
X97167619Y-80734819D01*
X97167619Y-80734819D02*
X97262857Y-80734819D01*
X97262857Y-80734819D02*
X97405714Y-80782438D01*
X97405714Y-80782438D02*
X97453333Y-80830057D01*
X97929524Y-81734819D02*
X98120000Y-81734819D01*
X98120000Y-81734819D02*
X98215238Y-81687200D01*
X98215238Y-81687200D02*
X98262857Y-81639580D01*
X98262857Y-81639580D02*
X98358095Y-81496723D01*
X98358095Y-81496723D02*
X98405714Y-81306247D01*
X98405714Y-81306247D02*
X98405714Y-80925295D01*
X98405714Y-80925295D02*
X98358095Y-80830057D01*
X98358095Y-80830057D02*
X98310476Y-80782438D01*
X98310476Y-80782438D02*
X98215238Y-80734819D01*
X98215238Y-80734819D02*
X98024762Y-80734819D01*
X98024762Y-80734819D02*
X97929524Y-80782438D01*
X97929524Y-80782438D02*
X97881905Y-80830057D01*
X97881905Y-80830057D02*
X97834286Y-80925295D01*
X97834286Y-80925295D02*
X97834286Y-81163390D01*
X97834286Y-81163390D02*
X97881905Y-81258628D01*
X97881905Y-81258628D02*
X97929524Y-81306247D01*
X97929524Y-81306247D02*
X98024762Y-81353866D01*
X98024762Y-81353866D02*
X98215238Y-81353866D01*
X98215238Y-81353866D02*
X98310476Y-81306247D01*
X98310476Y-81306247D02*
X98358095Y-81258628D01*
X98358095Y-81258628D02*
X98405714Y-81163390D01*
D12*
X99304318Y-93647619D02*
X100332413Y-93647619D01*
X100332413Y-93647619D02*
X100453365Y-93587142D01*
X100453365Y-93587142D02*
X100513842Y-93526666D01*
X100513842Y-93526666D02*
X100574318Y-93405714D01*
X100574318Y-93405714D02*
X100574318Y-93163809D01*
X100574318Y-93163809D02*
X100513842Y-93042857D01*
X100513842Y-93042857D02*
X100453365Y-92982380D01*
X100453365Y-92982380D02*
X100332413Y-92921904D01*
X100332413Y-92921904D02*
X99304318Y-92921904D01*
X99425270Y-92377619D02*
X99364794Y-92317143D01*
X99364794Y-92317143D02*
X99304318Y-92196190D01*
X99304318Y-92196190D02*
X99304318Y-91893809D01*
X99304318Y-91893809D02*
X99364794Y-91772857D01*
X99364794Y-91772857D02*
X99425270Y-91712381D01*
X99425270Y-91712381D02*
X99546222Y-91651904D01*
X99546222Y-91651904D02*
X99667175Y-91651904D01*
X99667175Y-91651904D02*
X99848603Y-91712381D01*
X99848603Y-91712381D02*
X100574318Y-92438095D01*
X100574318Y-92438095D02*
X100574318Y-91651904D01*
D10*
X105209580Y-111642857D02*
X105257200Y-111690476D01*
X105257200Y-111690476D02*
X105304819Y-111833333D01*
X105304819Y-111833333D02*
X105304819Y-111928571D01*
X105304819Y-111928571D02*
X105257200Y-112071428D01*
X105257200Y-112071428D02*
X105161961Y-112166666D01*
X105161961Y-112166666D02*
X105066723Y-112214285D01*
X105066723Y-112214285D02*
X104876247Y-112261904D01*
X104876247Y-112261904D02*
X104733390Y-112261904D01*
X104733390Y-112261904D02*
X104542914Y-112214285D01*
X104542914Y-112214285D02*
X104447676Y-112166666D01*
X104447676Y-112166666D02*
X104352438Y-112071428D01*
X104352438Y-112071428D02*
X104304819Y-111928571D01*
X104304819Y-111928571D02*
X104304819Y-111833333D01*
X104304819Y-111833333D02*
X104352438Y-111690476D01*
X104352438Y-111690476D02*
X104400057Y-111642857D01*
X104400057Y-111261904D02*
X104352438Y-111214285D01*
X104352438Y-111214285D02*
X104304819Y-111119047D01*
X104304819Y-111119047D02*
X104304819Y-110880952D01*
X104304819Y-110880952D02*
X104352438Y-110785714D01*
X104352438Y-110785714D02*
X104400057Y-110738095D01*
X104400057Y-110738095D02*
X104495295Y-110690476D01*
X104495295Y-110690476D02*
X104590533Y-110690476D01*
X104590533Y-110690476D02*
X104733390Y-110738095D01*
X104733390Y-110738095D02*
X105304819Y-111309523D01*
X105304819Y-111309523D02*
X105304819Y-110690476D01*
X104304819Y-110071428D02*
X104304819Y-109976190D01*
X104304819Y-109976190D02*
X104352438Y-109880952D01*
X104352438Y-109880952D02*
X104400057Y-109833333D01*
X104400057Y-109833333D02*
X104495295Y-109785714D01*
X104495295Y-109785714D02*
X104685771Y-109738095D01*
X104685771Y-109738095D02*
X104923866Y-109738095D01*
X104923866Y-109738095D02*
X105114342Y-109785714D01*
X105114342Y-109785714D02*
X105209580Y-109833333D01*
X105209580Y-109833333D02*
X105257200Y-109880952D01*
X105257200Y-109880952D02*
X105304819Y-109976190D01*
X105304819Y-109976190D02*
X105304819Y-110071428D01*
X105304819Y-110071428D02*
X105257200Y-110166666D01*
X105257200Y-110166666D02*
X105209580Y-110214285D01*
X105209580Y-110214285D02*
X105114342Y-110261904D01*
X105114342Y-110261904D02*
X104923866Y-110309523D01*
X104923866Y-110309523D02*
X104685771Y-110309523D01*
X104685771Y-110309523D02*
X104495295Y-110261904D01*
X104495295Y-110261904D02*
X104400057Y-110214285D01*
X104400057Y-110214285D02*
X104352438Y-110166666D01*
X104352438Y-110166666D02*
X104304819Y-110071428D01*
X106204819Y-98366666D02*
X105728628Y-98699999D01*
X106204819Y-98938094D02*
X105204819Y-98938094D01*
X105204819Y-98938094D02*
X105204819Y-98557142D01*
X105204819Y-98557142D02*
X105252438Y-98461904D01*
X105252438Y-98461904D02*
X105300057Y-98414285D01*
X105300057Y-98414285D02*
X105395295Y-98366666D01*
X105395295Y-98366666D02*
X105538152Y-98366666D01*
X105538152Y-98366666D02*
X105633390Y-98414285D01*
X105633390Y-98414285D02*
X105681009Y-98461904D01*
X105681009Y-98461904D02*
X105728628Y-98557142D01*
X105728628Y-98557142D02*
X105728628Y-98938094D01*
X105204819Y-97461904D02*
X105204819Y-97938094D01*
X105204819Y-97938094D02*
X105681009Y-97985713D01*
X105681009Y-97985713D02*
X105633390Y-97938094D01*
X105633390Y-97938094D02*
X105585771Y-97842856D01*
X105585771Y-97842856D02*
X105585771Y-97604761D01*
X105585771Y-97604761D02*
X105633390Y-97509523D01*
X105633390Y-97509523D02*
X105681009Y-97461904D01*
X105681009Y-97461904D02*
X105776247Y-97414285D01*
X105776247Y-97414285D02*
X106014342Y-97414285D01*
X106014342Y-97414285D02*
X106109580Y-97461904D01*
X106109580Y-97461904D02*
X106157200Y-97509523D01*
X106157200Y-97509523D02*
X106204819Y-97604761D01*
X106204819Y-97604761D02*
X106204819Y-97842856D01*
X106204819Y-97842856D02*
X106157200Y-97938094D01*
X106157200Y-97938094D02*
X106109580Y-97985713D01*
X106434580Y-117962857D02*
X106482200Y-118010476D01*
X106482200Y-118010476D02*
X106529819Y-118153333D01*
X106529819Y-118153333D02*
X106529819Y-118248571D01*
X106529819Y-118248571D02*
X106482200Y-118391428D01*
X106482200Y-118391428D02*
X106386961Y-118486666D01*
X106386961Y-118486666D02*
X106291723Y-118534285D01*
X106291723Y-118534285D02*
X106101247Y-118581904D01*
X106101247Y-118581904D02*
X105958390Y-118581904D01*
X105958390Y-118581904D02*
X105767914Y-118534285D01*
X105767914Y-118534285D02*
X105672676Y-118486666D01*
X105672676Y-118486666D02*
X105577438Y-118391428D01*
X105577438Y-118391428D02*
X105529819Y-118248571D01*
X105529819Y-118248571D02*
X105529819Y-118153333D01*
X105529819Y-118153333D02*
X105577438Y-118010476D01*
X105577438Y-118010476D02*
X105625057Y-117962857D01*
X106529819Y-117010476D02*
X106529819Y-117581904D01*
X106529819Y-117296190D02*
X105529819Y-117296190D01*
X105529819Y-117296190D02*
X105672676Y-117391428D01*
X105672676Y-117391428D02*
X105767914Y-117486666D01*
X105767914Y-117486666D02*
X105815533Y-117581904D01*
X105529819Y-116677142D02*
X105529819Y-116010476D01*
X105529819Y-116010476D02*
X106529819Y-116439047D01*
X100059580Y-111042857D02*
X100107200Y-111090476D01*
X100107200Y-111090476D02*
X100154819Y-111233333D01*
X100154819Y-111233333D02*
X100154819Y-111328571D01*
X100154819Y-111328571D02*
X100107200Y-111471428D01*
X100107200Y-111471428D02*
X100011961Y-111566666D01*
X100011961Y-111566666D02*
X99916723Y-111614285D01*
X99916723Y-111614285D02*
X99726247Y-111661904D01*
X99726247Y-111661904D02*
X99583390Y-111661904D01*
X99583390Y-111661904D02*
X99392914Y-111614285D01*
X99392914Y-111614285D02*
X99297676Y-111566666D01*
X99297676Y-111566666D02*
X99202438Y-111471428D01*
X99202438Y-111471428D02*
X99154819Y-111328571D01*
X99154819Y-111328571D02*
X99154819Y-111233333D01*
X99154819Y-111233333D02*
X99202438Y-111090476D01*
X99202438Y-111090476D02*
X99250057Y-111042857D01*
X99250057Y-110661904D02*
X99202438Y-110614285D01*
X99202438Y-110614285D02*
X99154819Y-110519047D01*
X99154819Y-110519047D02*
X99154819Y-110280952D01*
X99154819Y-110280952D02*
X99202438Y-110185714D01*
X99202438Y-110185714D02*
X99250057Y-110138095D01*
X99250057Y-110138095D02*
X99345295Y-110090476D01*
X99345295Y-110090476D02*
X99440533Y-110090476D01*
X99440533Y-110090476D02*
X99583390Y-110138095D01*
X99583390Y-110138095D02*
X100154819Y-110709523D01*
X100154819Y-110709523D02*
X100154819Y-110090476D01*
X99154819Y-109757142D02*
X99154819Y-109138095D01*
X99154819Y-109138095D02*
X99535771Y-109471428D01*
X99535771Y-109471428D02*
X99535771Y-109328571D01*
X99535771Y-109328571D02*
X99583390Y-109233333D01*
X99583390Y-109233333D02*
X99631009Y-109185714D01*
X99631009Y-109185714D02*
X99726247Y-109138095D01*
X99726247Y-109138095D02*
X99964342Y-109138095D01*
X99964342Y-109138095D02*
X100059580Y-109185714D01*
X100059580Y-109185714D02*
X100107200Y-109233333D01*
X100107200Y-109233333D02*
X100154819Y-109328571D01*
X100154819Y-109328571D02*
X100154819Y-109614285D01*
X100154819Y-109614285D02*
X100107200Y-109709523D01*
X100107200Y-109709523D02*
X100059580Y-109757142D01*
X95259580Y-96292857D02*
X95307200Y-96340476D01*
X95307200Y-96340476D02*
X95354819Y-96483333D01*
X95354819Y-96483333D02*
X95354819Y-96578571D01*
X95354819Y-96578571D02*
X95307200Y-96721428D01*
X95307200Y-96721428D02*
X95211961Y-96816666D01*
X95211961Y-96816666D02*
X95116723Y-96864285D01*
X95116723Y-96864285D02*
X94926247Y-96911904D01*
X94926247Y-96911904D02*
X94783390Y-96911904D01*
X94783390Y-96911904D02*
X94592914Y-96864285D01*
X94592914Y-96864285D02*
X94497676Y-96816666D01*
X94497676Y-96816666D02*
X94402438Y-96721428D01*
X94402438Y-96721428D02*
X94354819Y-96578571D01*
X94354819Y-96578571D02*
X94354819Y-96483333D01*
X94354819Y-96483333D02*
X94402438Y-96340476D01*
X94402438Y-96340476D02*
X94450057Y-96292857D01*
X95354819Y-95340476D02*
X95354819Y-95911904D01*
X95354819Y-95626190D02*
X94354819Y-95626190D01*
X94354819Y-95626190D02*
X94497676Y-95721428D01*
X94497676Y-95721428D02*
X94592914Y-95816666D01*
X94592914Y-95816666D02*
X94640533Y-95911904D01*
X94450057Y-94959523D02*
X94402438Y-94911904D01*
X94402438Y-94911904D02*
X94354819Y-94816666D01*
X94354819Y-94816666D02*
X94354819Y-94578571D01*
X94354819Y-94578571D02*
X94402438Y-94483333D01*
X94402438Y-94483333D02*
X94450057Y-94435714D01*
X94450057Y-94435714D02*
X94545295Y-94388095D01*
X94545295Y-94388095D02*
X94640533Y-94388095D01*
X94640533Y-94388095D02*
X94783390Y-94435714D01*
X94783390Y-94435714D02*
X95354819Y-95007142D01*
X95354819Y-95007142D02*
X95354819Y-94388095D01*
X98657142Y-68859580D02*
X98609523Y-68907200D01*
X98609523Y-68907200D02*
X98466666Y-68954819D01*
X98466666Y-68954819D02*
X98371428Y-68954819D01*
X98371428Y-68954819D02*
X98228571Y-68907200D01*
X98228571Y-68907200D02*
X98133333Y-68811961D01*
X98133333Y-68811961D02*
X98085714Y-68716723D01*
X98085714Y-68716723D02*
X98038095Y-68526247D01*
X98038095Y-68526247D02*
X98038095Y-68383390D01*
X98038095Y-68383390D02*
X98085714Y-68192914D01*
X98085714Y-68192914D02*
X98133333Y-68097676D01*
X98133333Y-68097676D02*
X98228571Y-68002438D01*
X98228571Y-68002438D02*
X98371428Y-67954819D01*
X98371428Y-67954819D02*
X98466666Y-67954819D01*
X98466666Y-67954819D02*
X98609523Y-68002438D01*
X98609523Y-68002438D02*
X98657142Y-68050057D01*
X99609523Y-68954819D02*
X99038095Y-68954819D01*
X99323809Y-68954819D02*
X99323809Y-67954819D01*
X99323809Y-67954819D02*
X99228571Y-68097676D01*
X99228571Y-68097676D02*
X99133333Y-68192914D01*
X99133333Y-68192914D02*
X99038095Y-68240533D01*
X100228571Y-67954819D02*
X100323809Y-67954819D01*
X100323809Y-67954819D02*
X100419047Y-68002438D01*
X100419047Y-68002438D02*
X100466666Y-68050057D01*
X100466666Y-68050057D02*
X100514285Y-68145295D01*
X100514285Y-68145295D02*
X100561904Y-68335771D01*
X100561904Y-68335771D02*
X100561904Y-68573866D01*
X100561904Y-68573866D02*
X100514285Y-68764342D01*
X100514285Y-68764342D02*
X100466666Y-68859580D01*
X100466666Y-68859580D02*
X100419047Y-68907200D01*
X100419047Y-68907200D02*
X100323809Y-68954819D01*
X100323809Y-68954819D02*
X100228571Y-68954819D01*
X100228571Y-68954819D02*
X100133333Y-68907200D01*
X100133333Y-68907200D02*
X100085714Y-68859580D01*
X100085714Y-68859580D02*
X100038095Y-68764342D01*
X100038095Y-68764342D02*
X99990476Y-68573866D01*
X99990476Y-68573866D02*
X99990476Y-68335771D01*
X99990476Y-68335771D02*
X100038095Y-68145295D01*
X100038095Y-68145295D02*
X100085714Y-68050057D01*
X100085714Y-68050057D02*
X100133333Y-68002438D01*
X100133333Y-68002438D02*
X100228571Y-67954819D01*
X98432142Y-108759580D02*
X98384523Y-108807200D01*
X98384523Y-108807200D02*
X98241666Y-108854819D01*
X98241666Y-108854819D02*
X98146428Y-108854819D01*
X98146428Y-108854819D02*
X98003571Y-108807200D01*
X98003571Y-108807200D02*
X97908333Y-108711961D01*
X97908333Y-108711961D02*
X97860714Y-108616723D01*
X97860714Y-108616723D02*
X97813095Y-108426247D01*
X97813095Y-108426247D02*
X97813095Y-108283390D01*
X97813095Y-108283390D02*
X97860714Y-108092914D01*
X97860714Y-108092914D02*
X97908333Y-107997676D01*
X97908333Y-107997676D02*
X98003571Y-107902438D01*
X98003571Y-107902438D02*
X98146428Y-107854819D01*
X98146428Y-107854819D02*
X98241666Y-107854819D01*
X98241666Y-107854819D02*
X98384523Y-107902438D01*
X98384523Y-107902438D02*
X98432142Y-107950057D01*
X98813095Y-107950057D02*
X98860714Y-107902438D01*
X98860714Y-107902438D02*
X98955952Y-107854819D01*
X98955952Y-107854819D02*
X99194047Y-107854819D01*
X99194047Y-107854819D02*
X99289285Y-107902438D01*
X99289285Y-107902438D02*
X99336904Y-107950057D01*
X99336904Y-107950057D02*
X99384523Y-108045295D01*
X99384523Y-108045295D02*
X99384523Y-108140533D01*
X99384523Y-108140533D02*
X99336904Y-108283390D01*
X99336904Y-108283390D02*
X98765476Y-108854819D01*
X98765476Y-108854819D02*
X99384523Y-108854819D01*
X99765476Y-107950057D02*
X99813095Y-107902438D01*
X99813095Y-107902438D02*
X99908333Y-107854819D01*
X99908333Y-107854819D02*
X100146428Y-107854819D01*
X100146428Y-107854819D02*
X100241666Y-107902438D01*
X100241666Y-107902438D02*
X100289285Y-107950057D01*
X100289285Y-107950057D02*
X100336904Y-108045295D01*
X100336904Y-108045295D02*
X100336904Y-108140533D01*
X100336904Y-108140533D02*
X100289285Y-108283390D01*
X100289285Y-108283390D02*
X99717857Y-108854819D01*
X99717857Y-108854819D02*
X100336904Y-108854819D01*
X97443333Y-80409580D02*
X97395714Y-80457200D01*
X97395714Y-80457200D02*
X97252857Y-80504819D01*
X97252857Y-80504819D02*
X97157619Y-80504819D01*
X97157619Y-80504819D02*
X97014762Y-80457200D01*
X97014762Y-80457200D02*
X96919524Y-80361961D01*
X96919524Y-80361961D02*
X96871905Y-80266723D01*
X96871905Y-80266723D02*
X96824286Y-80076247D01*
X96824286Y-80076247D02*
X96824286Y-79933390D01*
X96824286Y-79933390D02*
X96871905Y-79742914D01*
X96871905Y-79742914D02*
X96919524Y-79647676D01*
X96919524Y-79647676D02*
X97014762Y-79552438D01*
X97014762Y-79552438D02*
X97157619Y-79504819D01*
X97157619Y-79504819D02*
X97252857Y-79504819D01*
X97252857Y-79504819D02*
X97395714Y-79552438D01*
X97395714Y-79552438D02*
X97443333Y-79600057D01*
X98014762Y-79933390D02*
X97919524Y-79885771D01*
X97919524Y-79885771D02*
X97871905Y-79838152D01*
X97871905Y-79838152D02*
X97824286Y-79742914D01*
X97824286Y-79742914D02*
X97824286Y-79695295D01*
X97824286Y-79695295D02*
X97871905Y-79600057D01*
X97871905Y-79600057D02*
X97919524Y-79552438D01*
X97919524Y-79552438D02*
X98014762Y-79504819D01*
X98014762Y-79504819D02*
X98205238Y-79504819D01*
X98205238Y-79504819D02*
X98300476Y-79552438D01*
X98300476Y-79552438D02*
X98348095Y-79600057D01*
X98348095Y-79600057D02*
X98395714Y-79695295D01*
X98395714Y-79695295D02*
X98395714Y-79742914D01*
X98395714Y-79742914D02*
X98348095Y-79838152D01*
X98348095Y-79838152D02*
X98300476Y-79885771D01*
X98300476Y-79885771D02*
X98205238Y-79933390D01*
X98205238Y-79933390D02*
X98014762Y-79933390D01*
X98014762Y-79933390D02*
X97919524Y-79981009D01*
X97919524Y-79981009D02*
X97871905Y-80028628D01*
X97871905Y-80028628D02*
X97824286Y-80123866D01*
X97824286Y-80123866D02*
X97824286Y-80314342D01*
X97824286Y-80314342D02*
X97871905Y-80409580D01*
X97871905Y-80409580D02*
X97919524Y-80457200D01*
X97919524Y-80457200D02*
X98014762Y-80504819D01*
X98014762Y-80504819D02*
X98205238Y-80504819D01*
X98205238Y-80504819D02*
X98300476Y-80457200D01*
X98300476Y-80457200D02*
X98348095Y-80409580D01*
X98348095Y-80409580D02*
X98395714Y-80314342D01*
X98395714Y-80314342D02*
X98395714Y-80123866D01*
X98395714Y-80123866D02*
X98348095Y-80028628D01*
X98348095Y-80028628D02*
X98300476Y-79981009D01*
X98300476Y-79981009D02*
X98205238Y-79933390D01*
X103207142Y-73959580D02*
X103159523Y-74007200D01*
X103159523Y-74007200D02*
X103016666Y-74054819D01*
X103016666Y-74054819D02*
X102921428Y-74054819D01*
X102921428Y-74054819D02*
X102778571Y-74007200D01*
X102778571Y-74007200D02*
X102683333Y-73911961D01*
X102683333Y-73911961D02*
X102635714Y-73816723D01*
X102635714Y-73816723D02*
X102588095Y-73626247D01*
X102588095Y-73626247D02*
X102588095Y-73483390D01*
X102588095Y-73483390D02*
X102635714Y-73292914D01*
X102635714Y-73292914D02*
X102683333Y-73197676D01*
X102683333Y-73197676D02*
X102778571Y-73102438D01*
X102778571Y-73102438D02*
X102921428Y-73054819D01*
X102921428Y-73054819D02*
X103016666Y-73054819D01*
X103016666Y-73054819D02*
X103159523Y-73102438D01*
X103159523Y-73102438D02*
X103207142Y-73150057D01*
X104159523Y-74054819D02*
X103588095Y-74054819D01*
X103873809Y-74054819D02*
X103873809Y-73054819D01*
X103873809Y-73054819D02*
X103778571Y-73197676D01*
X103778571Y-73197676D02*
X103683333Y-73292914D01*
X103683333Y-73292914D02*
X103588095Y-73340533D01*
X105111904Y-74054819D02*
X104540476Y-74054819D01*
X104826190Y-74054819D02*
X104826190Y-73054819D01*
X104826190Y-73054819D02*
X104730952Y-73197676D01*
X104730952Y-73197676D02*
X104635714Y-73292914D01*
X104635714Y-73292914D02*
X104540476Y-73340533D01*
X104154819Y-110917857D02*
X103678628Y-111251190D01*
X104154819Y-111489285D02*
X103154819Y-111489285D01*
X103154819Y-111489285D02*
X103154819Y-111108333D01*
X103154819Y-111108333D02*
X103202438Y-111013095D01*
X103202438Y-111013095D02*
X103250057Y-110965476D01*
X103250057Y-110965476D02*
X103345295Y-110917857D01*
X103345295Y-110917857D02*
X103488152Y-110917857D01*
X103488152Y-110917857D02*
X103583390Y-110965476D01*
X103583390Y-110965476D02*
X103631009Y-111013095D01*
X103631009Y-111013095D02*
X103678628Y-111108333D01*
X103678628Y-111108333D02*
X103678628Y-111489285D01*
X104154819Y-109965476D02*
X104154819Y-110536904D01*
X104154819Y-110251190D02*
X103154819Y-110251190D01*
X103154819Y-110251190D02*
X103297676Y-110346428D01*
X103297676Y-110346428D02*
X103392914Y-110441666D01*
X103392914Y-110441666D02*
X103440533Y-110536904D01*
X104154819Y-109013095D02*
X104154819Y-109584523D01*
X104154819Y-109298809D02*
X103154819Y-109298809D01*
X103154819Y-109298809D02*
X103297676Y-109394047D01*
X103297676Y-109394047D02*
X103392914Y-109489285D01*
X103392914Y-109489285D02*
X103440533Y-109584523D01*
X94354819Y-92966666D02*
X93878628Y-93299999D01*
X94354819Y-93538094D02*
X93354819Y-93538094D01*
X93354819Y-93538094D02*
X93354819Y-93157142D01*
X93354819Y-93157142D02*
X93402438Y-93061904D01*
X93402438Y-93061904D02*
X93450057Y-93014285D01*
X93450057Y-93014285D02*
X93545295Y-92966666D01*
X93545295Y-92966666D02*
X93688152Y-92966666D01*
X93688152Y-92966666D02*
X93783390Y-93014285D01*
X93783390Y-93014285D02*
X93831009Y-93061904D01*
X93831009Y-93061904D02*
X93878628Y-93157142D01*
X93878628Y-93157142D02*
X93878628Y-93538094D01*
X93354819Y-92633332D02*
X93354819Y-91966666D01*
X93354819Y-91966666D02*
X94354819Y-92395237D01*
X104759580Y-71166666D02*
X104807200Y-71214285D01*
X104807200Y-71214285D02*
X104854819Y-71357142D01*
X104854819Y-71357142D02*
X104854819Y-71452380D01*
X104854819Y-71452380D02*
X104807200Y-71595237D01*
X104807200Y-71595237D02*
X104711961Y-71690475D01*
X104711961Y-71690475D02*
X104616723Y-71738094D01*
X104616723Y-71738094D02*
X104426247Y-71785713D01*
X104426247Y-71785713D02*
X104283390Y-71785713D01*
X104283390Y-71785713D02*
X104092914Y-71738094D01*
X104092914Y-71738094D02*
X103997676Y-71690475D01*
X103997676Y-71690475D02*
X103902438Y-71595237D01*
X103902438Y-71595237D02*
X103854819Y-71452380D01*
X103854819Y-71452380D02*
X103854819Y-71357142D01*
X103854819Y-71357142D02*
X103902438Y-71214285D01*
X103902438Y-71214285D02*
X103950057Y-71166666D01*
X103854819Y-70309523D02*
X103854819Y-70499999D01*
X103854819Y-70499999D02*
X103902438Y-70595237D01*
X103902438Y-70595237D02*
X103950057Y-70642856D01*
X103950057Y-70642856D02*
X104092914Y-70738094D01*
X104092914Y-70738094D02*
X104283390Y-70785713D01*
X104283390Y-70785713D02*
X104664342Y-70785713D01*
X104664342Y-70785713D02*
X104759580Y-70738094D01*
X104759580Y-70738094D02*
X104807200Y-70690475D01*
X104807200Y-70690475D02*
X104854819Y-70595237D01*
X104854819Y-70595237D02*
X104854819Y-70404761D01*
X104854819Y-70404761D02*
X104807200Y-70309523D01*
X104807200Y-70309523D02*
X104759580Y-70261904D01*
X104759580Y-70261904D02*
X104664342Y-70214285D01*
X104664342Y-70214285D02*
X104426247Y-70214285D01*
X104426247Y-70214285D02*
X104331009Y-70261904D01*
X104331009Y-70261904D02*
X104283390Y-70309523D01*
X104283390Y-70309523D02*
X104235771Y-70404761D01*
X104235771Y-70404761D02*
X104235771Y-70595237D01*
X104235771Y-70595237D02*
X104283390Y-70690475D01*
X104283390Y-70690475D02*
X104331009Y-70738094D01*
X104331009Y-70738094D02*
X104426247Y-70785713D01*
X101533333Y-81559580D02*
X101485714Y-81607200D01*
X101485714Y-81607200D02*
X101342857Y-81654819D01*
X101342857Y-81654819D02*
X101247619Y-81654819D01*
X101247619Y-81654819D02*
X101104762Y-81607200D01*
X101104762Y-81607200D02*
X101009524Y-81511961D01*
X101009524Y-81511961D02*
X100961905Y-81416723D01*
X100961905Y-81416723D02*
X100914286Y-81226247D01*
X100914286Y-81226247D02*
X100914286Y-81083390D01*
X100914286Y-81083390D02*
X100961905Y-80892914D01*
X100961905Y-80892914D02*
X101009524Y-80797676D01*
X101009524Y-80797676D02*
X101104762Y-80702438D01*
X101104762Y-80702438D02*
X101247619Y-80654819D01*
X101247619Y-80654819D02*
X101342857Y-80654819D01*
X101342857Y-80654819D02*
X101485714Y-80702438D01*
X101485714Y-80702438D02*
X101533333Y-80750057D01*
X101866667Y-80654819D02*
X102533333Y-80654819D01*
X102533333Y-80654819D02*
X102104762Y-81654819D01*
X93704819Y-94966666D02*
X93228628Y-95299999D01*
X93704819Y-95538094D02*
X92704819Y-95538094D01*
X92704819Y-95538094D02*
X92704819Y-95157142D01*
X92704819Y-95157142D02*
X92752438Y-95061904D01*
X92752438Y-95061904D02*
X92800057Y-95014285D01*
X92800057Y-95014285D02*
X92895295Y-94966666D01*
X92895295Y-94966666D02*
X93038152Y-94966666D01*
X93038152Y-94966666D02*
X93133390Y-95014285D01*
X93133390Y-95014285D02*
X93181009Y-95061904D01*
X93181009Y-95061904D02*
X93228628Y-95157142D01*
X93228628Y-95157142D02*
X93228628Y-95538094D01*
X92704819Y-94109523D02*
X92704819Y-94299999D01*
X92704819Y-94299999D02*
X92752438Y-94395237D01*
X92752438Y-94395237D02*
X92800057Y-94442856D01*
X92800057Y-94442856D02*
X92942914Y-94538094D01*
X92942914Y-94538094D02*
X93133390Y-94585713D01*
X93133390Y-94585713D02*
X93514342Y-94585713D01*
X93514342Y-94585713D02*
X93609580Y-94538094D01*
X93609580Y-94538094D02*
X93657200Y-94490475D01*
X93657200Y-94490475D02*
X93704819Y-94395237D01*
X93704819Y-94395237D02*
X93704819Y-94204761D01*
X93704819Y-94204761D02*
X93657200Y-94109523D01*
X93657200Y-94109523D02*
X93609580Y-94061904D01*
X93609580Y-94061904D02*
X93514342Y-94014285D01*
X93514342Y-94014285D02*
X93276247Y-94014285D01*
X93276247Y-94014285D02*
X93181009Y-94061904D01*
X93181009Y-94061904D02*
X93133390Y-94109523D01*
X93133390Y-94109523D02*
X93085771Y-94204761D01*
X93085771Y-94204761D02*
X93085771Y-94395237D01*
X93085771Y-94395237D02*
X93133390Y-94490475D01*
X93133390Y-94490475D02*
X93181009Y-94538094D01*
X93181009Y-94538094D02*
X93276247Y-94585713D01*
X95234819Y-118666666D02*
X94758628Y-118999999D01*
X95234819Y-119238094D02*
X94234819Y-119238094D01*
X94234819Y-119238094D02*
X94234819Y-118857142D01*
X94234819Y-118857142D02*
X94282438Y-118761904D01*
X94282438Y-118761904D02*
X94330057Y-118714285D01*
X94330057Y-118714285D02*
X94425295Y-118666666D01*
X94425295Y-118666666D02*
X94568152Y-118666666D01*
X94568152Y-118666666D02*
X94663390Y-118714285D01*
X94663390Y-118714285D02*
X94711009Y-118761904D01*
X94711009Y-118761904D02*
X94758628Y-118857142D01*
X94758628Y-118857142D02*
X94758628Y-119238094D01*
X95234819Y-118190475D02*
X95234819Y-117999999D01*
X95234819Y-117999999D02*
X95187200Y-117904761D01*
X95187200Y-117904761D02*
X95139580Y-117857142D01*
X95139580Y-117857142D02*
X94996723Y-117761904D01*
X94996723Y-117761904D02*
X94806247Y-117714285D01*
X94806247Y-117714285D02*
X94425295Y-117714285D01*
X94425295Y-117714285D02*
X94330057Y-117761904D01*
X94330057Y-117761904D02*
X94282438Y-117809523D01*
X94282438Y-117809523D02*
X94234819Y-117904761D01*
X94234819Y-117904761D02*
X94234819Y-118095237D01*
X94234819Y-118095237D02*
X94282438Y-118190475D01*
X94282438Y-118190475D02*
X94330057Y-118238094D01*
X94330057Y-118238094D02*
X94425295Y-118285713D01*
X94425295Y-118285713D02*
X94663390Y-118285713D01*
X94663390Y-118285713D02*
X94758628Y-118238094D01*
X94758628Y-118238094D02*
X94806247Y-118190475D01*
X94806247Y-118190475D02*
X94853866Y-118095237D01*
X94853866Y-118095237D02*
X94853866Y-117904761D01*
X94853866Y-117904761D02*
X94806247Y-117809523D01*
X94806247Y-117809523D02*
X94758628Y-117761904D01*
X94758628Y-117761904D02*
X94663390Y-117714285D01*
X103233333Y-76954819D02*
X102900000Y-76478628D01*
X102661905Y-76954819D02*
X102661905Y-75954819D01*
X102661905Y-75954819D02*
X103042857Y-75954819D01*
X103042857Y-75954819D02*
X103138095Y-76002438D01*
X103138095Y-76002438D02*
X103185714Y-76050057D01*
X103185714Y-76050057D02*
X103233333Y-76145295D01*
X103233333Y-76145295D02*
X103233333Y-76288152D01*
X103233333Y-76288152D02*
X103185714Y-76383390D01*
X103185714Y-76383390D02*
X103138095Y-76431009D01*
X103138095Y-76431009D02*
X103042857Y-76478628D01*
X103042857Y-76478628D02*
X102661905Y-76478628D01*
X103566667Y-75954819D02*
X104185714Y-75954819D01*
X104185714Y-75954819D02*
X103852381Y-76335771D01*
X103852381Y-76335771D02*
X103995238Y-76335771D01*
X103995238Y-76335771D02*
X104090476Y-76383390D01*
X104090476Y-76383390D02*
X104138095Y-76431009D01*
X104138095Y-76431009D02*
X104185714Y-76526247D01*
X104185714Y-76526247D02*
X104185714Y-76764342D01*
X104185714Y-76764342D02*
X104138095Y-76859580D01*
X104138095Y-76859580D02*
X104090476Y-76907200D01*
X104090476Y-76907200D02*
X103995238Y-76954819D01*
X103995238Y-76954819D02*
X103709524Y-76954819D01*
X103709524Y-76954819D02*
X103614286Y-76907200D01*
X103614286Y-76907200D02*
X103566667Y-76859580D01*
D13*
X105716666Y-75957419D02*
X105716666Y-76671704D01*
X105716666Y-76671704D02*
X105669047Y-76814561D01*
X105669047Y-76814561D02*
X105573809Y-76909800D01*
X105573809Y-76909800D02*
X105430952Y-76957419D01*
X105430952Y-76957419D02*
X105335714Y-76957419D01*
X106145238Y-76052657D02*
X106192857Y-76005038D01*
X106192857Y-76005038D02*
X106288095Y-75957419D01*
X106288095Y-75957419D02*
X106526190Y-75957419D01*
X106526190Y-75957419D02*
X106621428Y-76005038D01*
X106621428Y-76005038D02*
X106669047Y-76052657D01*
X106669047Y-76052657D02*
X106716666Y-76147895D01*
X106716666Y-76147895D02*
X106716666Y-76243133D01*
X106716666Y-76243133D02*
X106669047Y-76385990D01*
X106669047Y-76385990D02*
X106097619Y-76957419D01*
X106097619Y-76957419D02*
X106716666Y-76957419D01*
D10*
X102979819Y-110042857D02*
X102503628Y-110376190D01*
X102979819Y-110614285D02*
X101979819Y-110614285D01*
X101979819Y-110614285D02*
X101979819Y-110233333D01*
X101979819Y-110233333D02*
X102027438Y-110138095D01*
X102027438Y-110138095D02*
X102075057Y-110090476D01*
X102075057Y-110090476D02*
X102170295Y-110042857D01*
X102170295Y-110042857D02*
X102313152Y-110042857D01*
X102313152Y-110042857D02*
X102408390Y-110090476D01*
X102408390Y-110090476D02*
X102456009Y-110138095D01*
X102456009Y-110138095D02*
X102503628Y-110233333D01*
X102503628Y-110233333D02*
X102503628Y-110614285D01*
X102979819Y-109090476D02*
X102979819Y-109661904D01*
X102979819Y-109376190D02*
X101979819Y-109376190D01*
X101979819Y-109376190D02*
X102122676Y-109471428D01*
X102122676Y-109471428D02*
X102217914Y-109566666D01*
X102217914Y-109566666D02*
X102265533Y-109661904D01*
X102075057Y-108709523D02*
X102027438Y-108661904D01*
X102027438Y-108661904D02*
X101979819Y-108566666D01*
X101979819Y-108566666D02*
X101979819Y-108328571D01*
X101979819Y-108328571D02*
X102027438Y-108233333D01*
X102027438Y-108233333D02*
X102075057Y-108185714D01*
X102075057Y-108185714D02*
X102170295Y-108138095D01*
X102170295Y-108138095D02*
X102265533Y-108138095D01*
X102265533Y-108138095D02*
X102408390Y-108185714D01*
X102408390Y-108185714D02*
X102979819Y-108757142D01*
X102979819Y-108757142D02*
X102979819Y-108138095D01*
X93054819Y-73961904D02*
X93864342Y-73961904D01*
X93864342Y-73961904D02*
X93959580Y-73914285D01*
X93959580Y-73914285D02*
X94007200Y-73866666D01*
X94007200Y-73866666D02*
X94054819Y-73771428D01*
X94054819Y-73771428D02*
X94054819Y-73580952D01*
X94054819Y-73580952D02*
X94007200Y-73485714D01*
X94007200Y-73485714D02*
X93959580Y-73438095D01*
X93959580Y-73438095D02*
X93864342Y-73390476D01*
X93864342Y-73390476D02*
X93054819Y-73390476D01*
X94054819Y-72390476D02*
X94054819Y-72961904D01*
X94054819Y-72676190D02*
X93054819Y-72676190D01*
X93054819Y-72676190D02*
X93197676Y-72771428D01*
X93197676Y-72771428D02*
X93292914Y-72866666D01*
X93292914Y-72866666D02*
X93340533Y-72961904D01*
X93859580Y-114642857D02*
X93907200Y-114690476D01*
X93907200Y-114690476D02*
X93954819Y-114833333D01*
X93954819Y-114833333D02*
X93954819Y-114928571D01*
X93954819Y-114928571D02*
X93907200Y-115071428D01*
X93907200Y-115071428D02*
X93811961Y-115166666D01*
X93811961Y-115166666D02*
X93716723Y-115214285D01*
X93716723Y-115214285D02*
X93526247Y-115261904D01*
X93526247Y-115261904D02*
X93383390Y-115261904D01*
X93383390Y-115261904D02*
X93192914Y-115214285D01*
X93192914Y-115214285D02*
X93097676Y-115166666D01*
X93097676Y-115166666D02*
X93002438Y-115071428D01*
X93002438Y-115071428D02*
X92954819Y-114928571D01*
X92954819Y-114928571D02*
X92954819Y-114833333D01*
X92954819Y-114833333D02*
X93002438Y-114690476D01*
X93002438Y-114690476D02*
X93050057Y-114642857D01*
X93954819Y-113690476D02*
X93954819Y-114261904D01*
X93954819Y-113976190D02*
X92954819Y-113976190D01*
X92954819Y-113976190D02*
X93097676Y-114071428D01*
X93097676Y-114071428D02*
X93192914Y-114166666D01*
X93192914Y-114166666D02*
X93240533Y-114261904D01*
X92954819Y-112833333D02*
X92954819Y-113023809D01*
X92954819Y-113023809D02*
X93002438Y-113119047D01*
X93002438Y-113119047D02*
X93050057Y-113166666D01*
X93050057Y-113166666D02*
X93192914Y-113261904D01*
X93192914Y-113261904D02*
X93383390Y-113309523D01*
X93383390Y-113309523D02*
X93764342Y-113309523D01*
X93764342Y-113309523D02*
X93859580Y-113261904D01*
X93859580Y-113261904D02*
X93907200Y-113214285D01*
X93907200Y-113214285D02*
X93954819Y-113119047D01*
X93954819Y-113119047D02*
X93954819Y-112928571D01*
X93954819Y-112928571D02*
X93907200Y-112833333D01*
X93907200Y-112833333D02*
X93859580Y-112785714D01*
X93859580Y-112785714D02*
X93764342Y-112738095D01*
X93764342Y-112738095D02*
X93526247Y-112738095D01*
X93526247Y-112738095D02*
X93431009Y-112785714D01*
X93431009Y-112785714D02*
X93383390Y-112833333D01*
X93383390Y-112833333D02*
X93335771Y-112928571D01*
X93335771Y-112928571D02*
X93335771Y-113119047D01*
X93335771Y-113119047D02*
X93383390Y-113214285D01*
X93383390Y-113214285D02*
X93431009Y-113261904D01*
X93431009Y-113261904D02*
X93526247Y-113309523D01*
D13*
X97218771Y-113923809D02*
X96742580Y-113923809D01*
X97742580Y-113590476D02*
X97218771Y-113923809D01*
X97218771Y-113923809D02*
X97742580Y-114257142D01*
X97742580Y-114495238D02*
X97742580Y-115114285D01*
X97742580Y-115114285D02*
X97361628Y-114780952D01*
X97361628Y-114780952D02*
X97361628Y-114923809D01*
X97361628Y-114923809D02*
X97314009Y-115019047D01*
X97314009Y-115019047D02*
X97266390Y-115066666D01*
X97266390Y-115066666D02*
X97171152Y-115114285D01*
X97171152Y-115114285D02*
X96933057Y-115114285D01*
X96933057Y-115114285D02*
X96837819Y-115066666D01*
X96837819Y-115066666D02*
X96790200Y-115019047D01*
X96790200Y-115019047D02*
X96742580Y-114923809D01*
X96742580Y-114923809D02*
X96742580Y-114638095D01*
X96742580Y-114638095D02*
X96790200Y-114542857D01*
X96790200Y-114542857D02*
X96837819Y-114495238D01*
D10*
X103004819Y-100511904D02*
X103814342Y-100511904D01*
X103814342Y-100511904D02*
X103909580Y-100464285D01*
X103909580Y-100464285D02*
X103957200Y-100416666D01*
X103957200Y-100416666D02*
X104004819Y-100321428D01*
X104004819Y-100321428D02*
X104004819Y-100130952D01*
X104004819Y-100130952D02*
X103957200Y-100035714D01*
X103957200Y-100035714D02*
X103909580Y-99988095D01*
X103909580Y-99988095D02*
X103814342Y-99940476D01*
X103814342Y-99940476D02*
X103004819Y-99940476D01*
X103004819Y-99559523D02*
X103004819Y-98940476D01*
X103004819Y-98940476D02*
X103385771Y-99273809D01*
X103385771Y-99273809D02*
X103385771Y-99130952D01*
X103385771Y-99130952D02*
X103433390Y-99035714D01*
X103433390Y-99035714D02*
X103481009Y-98988095D01*
X103481009Y-98988095D02*
X103576247Y-98940476D01*
X103576247Y-98940476D02*
X103814342Y-98940476D01*
X103814342Y-98940476D02*
X103909580Y-98988095D01*
X103909580Y-98988095D02*
X103957200Y-99035714D01*
X103957200Y-99035714D02*
X104004819Y-99130952D01*
X104004819Y-99130952D02*
X104004819Y-99416666D01*
X104004819Y-99416666D02*
X103957200Y-99511904D01*
X103957200Y-99511904D02*
X103909580Y-99559523D01*
X101733333Y-69354819D02*
X101400000Y-68878628D01*
X101161905Y-69354819D02*
X101161905Y-68354819D01*
X101161905Y-68354819D02*
X101542857Y-68354819D01*
X101542857Y-68354819D02*
X101638095Y-68402438D01*
X101638095Y-68402438D02*
X101685714Y-68450057D01*
X101685714Y-68450057D02*
X101733333Y-68545295D01*
X101733333Y-68545295D02*
X101733333Y-68688152D01*
X101733333Y-68688152D02*
X101685714Y-68783390D01*
X101685714Y-68783390D02*
X101638095Y-68831009D01*
X101638095Y-68831009D02*
X101542857Y-68878628D01*
X101542857Y-68878628D02*
X101161905Y-68878628D01*
X102114286Y-68450057D02*
X102161905Y-68402438D01*
X102161905Y-68402438D02*
X102257143Y-68354819D01*
X102257143Y-68354819D02*
X102495238Y-68354819D01*
X102495238Y-68354819D02*
X102590476Y-68402438D01*
X102590476Y-68402438D02*
X102638095Y-68450057D01*
X102638095Y-68450057D02*
X102685714Y-68545295D01*
X102685714Y-68545295D02*
X102685714Y-68640533D01*
X102685714Y-68640533D02*
X102638095Y-68783390D01*
X102638095Y-68783390D02*
X102066667Y-69354819D01*
X102066667Y-69354819D02*
X102685714Y-69354819D01*
X105958333Y-112729819D02*
X105482143Y-112729819D01*
X105482143Y-112729819D02*
X105482143Y-111729819D01*
X106815476Y-112729819D02*
X106244048Y-112729819D01*
X106529762Y-112729819D02*
X106529762Y-111729819D01*
X106529762Y-111729819D02*
X106434524Y-111872676D01*
X106434524Y-111872676D02*
X106339286Y-111967914D01*
X106339286Y-111967914D02*
X106244048Y-112015533D01*
D14*
%TO.C,J4*%
X102549995Y-120738928D02*
X102549995Y-118461072D01*
X97450005Y-118461072D02*
X97450005Y-120738928D01*
D13*
X100895335Y-117391563D02*
G75*
G02*
X100695335Y-117391563I-100000J0D01*
G01*
X100695335Y-117391563D02*
G75*
G02*
X100895335Y-117391563I100000J0D01*
G01*
D15*
%TO.C,U5*%
X98115000Y-112515000D02*
X97875000Y-112185000D01*
X98355000Y-112185000D01*
X98115000Y-112515000D01*
G36*
X98115000Y-112515000D02*
G01*
X97875000Y-112185000D01*
X98355000Y-112185000D01*
X98115000Y-112515000D01*
G37*
X102335000Y-116735000D02*
X102335000Y-116185000D01*
X102335000Y-112515000D02*
X102335000Y-113065000D01*
X101785000Y-116735000D02*
X102335000Y-116735000D01*
X101785000Y-112515000D02*
X102335000Y-112515000D01*
X98665000Y-116735000D02*
X98115000Y-116735000D01*
X98665000Y-112515000D02*
X98415000Y-112515000D01*
X98115000Y-116735000D02*
X98115000Y-116185000D01*
X98115000Y-113065000D02*
X98115000Y-112755000D01*
%TO.C,C19*%
X104190000Y-114517164D02*
X104190000Y-114732836D01*
X104910000Y-114517164D02*
X104910000Y-114732836D01*
%TO.C,C18*%
X103140000Y-114512164D02*
X103140000Y-114727836D01*
X103860000Y-114512164D02*
X103860000Y-114727836D01*
%TO.C,C13*%
X105640000Y-92757836D02*
X105640000Y-92542164D01*
X106360000Y-92757836D02*
X106360000Y-92542164D01*
%TO.C,R10*%
X104733641Y-117320000D02*
X104426359Y-117320000D01*
X104733641Y-118080000D02*
X104426359Y-118080000D01*
%TO.C,C5*%
X95992164Y-69740000D02*
X96207836Y-69740000D01*
X95992164Y-70460000D02*
X96207836Y-70460000D01*
%TO.C,C9*%
X99512164Y-80920000D02*
X99727836Y-80920000D01*
X99512164Y-81640000D02*
X99727836Y-81640000D01*
D13*
%TO.C,U2*%
X100000000Y-88080000D02*
X100000000Y-88080000D01*
X100000000Y-97280000D02*
X100000000Y-97280000D01*
X104650000Y-92680000D02*
G75*
G02*
X95350000Y-92680000I-4650000J0D01*
G01*
X95350000Y-92680000D02*
G75*
G02*
X104650000Y-92680000I4650000J0D01*
G01*
D16*
X100080000Y-97680000D02*
G75*
G02*
X99920000Y-97680000I-80000J0D01*
G01*
X99920000Y-97680000D02*
G75*
G02*
X100080000Y-97680000I80000J0D01*
G01*
D15*
%TO.C,C20*%
X101065000Y-109832836D02*
X101065000Y-109617164D01*
X101785000Y-109832836D02*
X101785000Y-109617164D01*
%TO.C,R5*%
X104170000Y-98686359D02*
X104170000Y-98993641D01*
X104930000Y-98686359D02*
X104930000Y-98993641D01*
%TO.C,C17*%
X104462164Y-118440000D02*
X104677836Y-118440000D01*
X104462164Y-119160000D02*
X104677836Y-119160000D01*
%TO.C,C23*%
X95040000Y-111637836D02*
X95040000Y-111422164D01*
X95760000Y-111637836D02*
X95760000Y-111422164D01*
%TO.C,C12*%
X96390000Y-98307836D02*
X96390000Y-98092164D01*
X97110000Y-98307836D02*
X97110000Y-98092164D01*
%TO.C,C10*%
X98634420Y-69290000D02*
X98915580Y-69290000D01*
X98634420Y-70310000D02*
X98915580Y-70310000D01*
%TO.C,C22*%
X96207836Y-109640000D02*
X95992164Y-109640000D01*
X96207836Y-110360000D02*
X95992164Y-110360000D01*
%TO.C,C8*%
X99522164Y-79870000D02*
X99737836Y-79870000D01*
X99522164Y-80590000D02*
X99737836Y-80590000D01*
%TO.C,C21*%
X104442164Y-116190000D02*
X104657836Y-116190000D01*
X104442164Y-116910000D02*
X104657836Y-116910000D01*
%TO.C,C11*%
X103692164Y-78340000D02*
X103907836Y-78340000D01*
X103692164Y-79060000D02*
X103907836Y-79060000D01*
%TO.C,C15*%
X94140000Y-115607836D02*
X94140000Y-115392164D01*
X94860000Y-115607836D02*
X94860000Y-115392164D01*
%TO.C,R11*%
X97677500Y-110437258D02*
X97677500Y-109962742D01*
X98722500Y-110437258D02*
X98722500Y-109962742D01*
%TO.C,R7*%
X95070000Y-98036359D02*
X95070000Y-98343641D01*
X95830000Y-98036359D02*
X95830000Y-98343641D01*
%TO.C,C6*%
X102840000Y-70907836D02*
X102840000Y-70692164D01*
X103560000Y-70907836D02*
X103560000Y-70692164D01*
%TO.C,C7*%
X101632164Y-79640000D02*
X101847836Y-79640000D01*
X101632164Y-80360000D02*
X101847836Y-80360000D01*
%TO.C,R6*%
X93970000Y-98353641D02*
X93970000Y-98046359D01*
X94730000Y-98353641D02*
X94730000Y-98046359D01*
%TO.C,R9*%
X95570000Y-118653641D02*
X95570000Y-118346359D01*
X96330000Y-118653641D02*
X96330000Y-118346359D01*
%TO.C,R3*%
X103656359Y-79620000D02*
X103963641Y-79620000D01*
X103656359Y-80380000D02*
X103963641Y-80380000D01*
D13*
%TO.C,J2*%
X103600000Y-74500000D02*
G75*
G02*
X103400000Y-74500000I-100000J0D01*
G01*
X103400000Y-74500000D02*
G75*
G02*
X103600000Y-74500000I100000J0D01*
G01*
D15*
%TO.C,R12*%
X96170000Y-111713641D02*
X96170000Y-111406359D01*
X96930000Y-111713641D02*
X96930000Y-111406359D01*
%TO.C,U1*%
X94690000Y-71865000D02*
X94690000Y-71630000D01*
X94690000Y-78610000D02*
X94690000Y-78135000D01*
X95165000Y-71390000D02*
X94990000Y-71390000D01*
X95165000Y-78610000D02*
X94690000Y-78610000D01*
X101435000Y-71390000D02*
X101910000Y-71390000D01*
X101435000Y-78610000D02*
X101910000Y-78610000D01*
X101910000Y-71390000D02*
X101910000Y-71865000D01*
X101910000Y-78610000D02*
X101910000Y-78135000D01*
X94690000Y-71390000D02*
X94450000Y-71060000D01*
X94930000Y-71060000D01*
X94690000Y-71390000D01*
G36*
X94690000Y-71390000D02*
G01*
X94450000Y-71060000D01*
X94930000Y-71060000D01*
X94690000Y-71390000D01*
G37*
%TO.C,C16*%
X94140000Y-113392164D02*
X94140000Y-113607836D01*
X94860000Y-113392164D02*
X94860000Y-113607836D01*
D16*
%TO.C,Y3*%
X97518544Y-116049871D02*
G75*
G02*
X97358544Y-116049871I-80000J0D01*
G01*
X97358544Y-116049871D02*
G75*
G02*
X97518544Y-116049871I80000J0D01*
G01*
D15*
%TO.C,U3*%
X97490000Y-99190000D02*
X97490000Y-98140000D01*
X97490000Y-100310000D02*
X97490000Y-101360000D01*
X102710000Y-99190000D02*
X102710000Y-98440000D01*
X102710000Y-100310000D02*
X102710000Y-101360000D01*
X102900000Y-98280000D02*
X102710000Y-98140000D01*
X102900000Y-98000000D01*
X102900000Y-98280000D01*
G36*
X102900000Y-98280000D02*
G01*
X102710000Y-98140000D01*
X102900000Y-98000000D01*
X102900000Y-98280000D01*
G37*
%TO.C,R2*%
X101336359Y-69620000D02*
X101643641Y-69620000D01*
X101336359Y-70380000D02*
X101643641Y-70380000D01*
%TD*%
D17*
X107500000Y-115000000D02*
G75*
G02*
X92500000Y-115000000I-7500000J0D01*
G01*
X92500000Y-115000000D02*
G75*
G02*
X107500000Y-115000000I7500000J0D01*
G01*
X107500000Y-95000000D02*
G75*
G02*
X92500000Y-95000000I-7500000J0D01*
G01*
X92500000Y-95000000D02*
G75*
G02*
X107500000Y-95000000I7500000J0D01*
G01*
X107500000Y-75000000D02*
G75*
G02*
X92500000Y-75000000I-7500000J0D01*
G01*
X92500000Y-75000000D02*
G75*
G02*
X107500000Y-75000000I7500000J0D01*
G01*
M02*
