%TF.GenerationSoftware,KiCad,Pcbnew,9.0.0*%
%TF.CreationDate,2025-03-13T16:46:45-04:00*%
%TF.ProjectId,IngestibleCapsule-Board_larger_vias,496e6765-7374-4696-926c-654361707375,rev?*%
%TF.SameCoordinates,Original*%
%TF.FileFunction,Paste,Top*%
%TF.FilePolarity,Positive*%
%FSLAX46Y46*%
G04 Gerber Fmt 4.6, Leading zero omitted, Abs format (unit mm)*
G04 Created by KiCad (PCBNEW 9.0.0) date 2025-03-13 16:46:45*
%MOMM*%
%LPD*%
G01*
G04 APERTURE LIST*
G04 Aperture macros list*
%AMRoundRect*
0 Rectangle with rounded corners*
0 $1 Rounding radius*
0 $2 $3 $4 $5 $6 $7 $8 $9 X,Y pos of 4 corners*
0 Add a 4 corners polygon primitive as box body*
4,1,4,$2,$3,$4,$5,$6,$7,$8,$9,$2,$3,0*
0 Add four circle primitives for the rounded corners*
1,1,$1+$1,$2,$3*
1,1,$1+$1,$4,$5*
1,1,$1+$1,$6,$7*
1,1,$1+$1,$8,$9*
0 Add four rect primitives between the rounded corners*
20,1,$1+$1,$2,$3,$4,$5,0*
20,1,$1+$1,$4,$5,$6,$7,0*
20,1,$1+$1,$6,$7,$8,$9,0*
20,1,$1+$1,$8,$9,$2,$3,0*%
G04 Aperture macros list end*
%ADD10R,0.220000X0.700000*%
%ADD11R,1.000000X0.500000*%
%ADD12RoundRect,0.050000X-0.050000X-0.362500X0.050000X-0.362500X0.050000X0.362500X-0.050000X0.362500X0*%
%ADD13RoundRect,0.050000X-0.362500X-0.050000X0.362500X-0.050000X0.362500X0.050000X-0.362500X0.050000X0*%
%ADD14RoundRect,0.250000X-0.295000X-0.295000X0.295000X-0.295000X0.295000X0.295000X-0.295000X0.295000X0*%
%ADD15RoundRect,0.140000X-0.170000X0.140000X-0.170000X-0.140000X0.170000X-0.140000X0.170000X0.140000X0*%
%ADD16RoundRect,0.140000X0.170000X-0.140000X0.170000X0.140000X-0.170000X0.140000X-0.170000X-0.140000X0*%
%ADD17RoundRect,0.135000X0.135000X0.185000X-0.135000X0.185000X-0.135000X-0.185000X0.135000X-0.185000X0*%
%ADD18RoundRect,0.140000X-0.140000X-0.170000X0.140000X-0.170000X0.140000X0.170000X-0.140000X0.170000X0*%
%ADD19RoundRect,0.135000X-0.185000X0.135000X-0.185000X-0.135000X0.185000X-0.135000X0.185000X0.135000X0*%
%ADD20RoundRect,0.225000X-0.225000X-0.250000X0.225000X-0.250000X0.225000X0.250000X-0.225000X0.250000X0*%
%ADD21RoundRect,0.140000X0.140000X0.170000X-0.140000X0.170000X-0.140000X-0.170000X0.140000X-0.170000X0*%
%ADD22RoundRect,0.200000X0.275000X-0.200000X0.275000X0.200000X-0.275000X0.200000X-0.275000X-0.200000X0*%
%ADD23RoundRect,0.135000X0.185000X-0.135000X0.185000X0.135000X-0.185000X0.135000X-0.185000X-0.135000X0*%
%ADD24RoundRect,0.135000X-0.135000X-0.185000X0.135000X-0.185000X0.135000X0.185000X-0.135000X0.185000X0*%
%ADD25R,0.380000X0.300000*%
%ADD26R,0.200000X0.520000*%
%ADD27RoundRect,0.250000X-0.315000X-0.315000X0.315000X-0.315000X0.315000X0.315000X-0.315000X0.315000X0*%
%ADD28RoundRect,0.062500X-0.375000X-0.062500X0.375000X-0.062500X0.375000X0.062500X-0.375000X0.062500X0*%
%ADD29RoundRect,0.062500X-0.062500X-0.375000X0.062500X-0.375000X0.062500X0.375000X-0.062500X0.375000X0*%
%ADD30R,1.800000X1.000000*%
%ADD31RoundRect,0.150000X-0.150000X0.325000X-0.150000X-0.325000X0.150000X-0.325000X0.150000X0.325000X0*%
%ADD32RoundRect,0.150000X-0.325000X0.150000X-0.325000X-0.150000X0.325000X-0.150000X0.325000X0.150000X0*%
%ADD33RoundRect,0.147500X-0.147500X-0.172500X0.147500X-0.172500X0.147500X0.172500X-0.147500X0.172500X0*%
%TA.AperFunction,Profile*%
%ADD34C,0.050000*%
%TD*%
G04 APERTURE END LIST*
D10*
%TO.C,J4*%
X100800001Y-118050001D03*
X100399999Y-118050001D03*
X100000000Y-118050001D03*
X99600001Y-118050001D03*
X99199999Y-118050001D03*
X100800001Y-121149999D03*
X100399999Y-121149999D03*
X100000000Y-121149999D03*
X99600001Y-121149999D03*
X99199999Y-121149999D03*
D11*
X101749996Y-118100000D03*
X98250004Y-118100000D03*
X101749996Y-121100000D03*
X98250004Y-121100000D03*
%TD*%
D12*
%TO.C,U5*%
X99025000Y-112662500D03*
X99425000Y-112662500D03*
X99825000Y-112662500D03*
X100225000Y-112662500D03*
X100625000Y-112662500D03*
X101025000Y-112662500D03*
X101425000Y-112662500D03*
D13*
X102187500Y-113425000D03*
X102187500Y-113825000D03*
X102187500Y-114225000D03*
X102187500Y-114625000D03*
X102187500Y-115025000D03*
X102187500Y-115425000D03*
X102187500Y-115825000D03*
D12*
X101425000Y-116587500D03*
X101025000Y-116587500D03*
X100625000Y-116587500D03*
X100225000Y-116587500D03*
X99825000Y-116587500D03*
X99425000Y-116587500D03*
X99025000Y-116587500D03*
D13*
X98262500Y-115825000D03*
X98262500Y-115425000D03*
X98262500Y-115025000D03*
X98262500Y-114625000D03*
X98262500Y-114225000D03*
X98262500Y-113825000D03*
X98262500Y-113425000D03*
D14*
X100900000Y-115300000D03*
X100900000Y-113950000D03*
X99550000Y-115300000D03*
X99550000Y-113950000D03*
%TD*%
D15*
%TO.C,C19*%
X104550000Y-114145000D03*
X104550000Y-115105000D03*
%TD*%
%TO.C,C18*%
X103500000Y-114140000D03*
X103500000Y-115100000D03*
%TD*%
D16*
%TO.C,C13*%
X106000000Y-93130000D03*
X106000000Y-92170000D03*
%TD*%
D17*
%TO.C,R10*%
X105090000Y-117700000D03*
X104070000Y-117700000D03*
%TD*%
D18*
%TO.C,C5*%
X95620000Y-70100000D03*
X96580000Y-70100000D03*
%TD*%
%TO.C,C9*%
X99140000Y-81280000D03*
X100100000Y-81280000D03*
%TD*%
D16*
%TO.C,C20*%
X101425000Y-110205000D03*
X101425000Y-109245000D03*
%TD*%
D19*
%TO.C,R5*%
X104550000Y-98330000D03*
X104550000Y-99350000D03*
%TD*%
D18*
%TO.C,C17*%
X104090000Y-118800000D03*
X105050000Y-118800000D03*
%TD*%
D16*
%TO.C,C23*%
X95400000Y-112010000D03*
X95400000Y-111050000D03*
%TD*%
%TO.C,C12*%
X96750000Y-98680000D03*
X96750000Y-97720000D03*
%TD*%
D20*
%TO.C,C10*%
X98000000Y-69800000D03*
X99550000Y-69800000D03*
%TD*%
D21*
%TO.C,C22*%
X96580000Y-110000000D03*
X95620000Y-110000000D03*
%TD*%
D18*
%TO.C,C8*%
X99150000Y-80230000D03*
X100110000Y-80230000D03*
%TD*%
%TO.C,C21*%
X104070000Y-116550000D03*
X105030000Y-116550000D03*
%TD*%
%TO.C,C11*%
X103320000Y-78700000D03*
X104280000Y-78700000D03*
%TD*%
D16*
%TO.C,C15*%
X94500000Y-115980000D03*
X94500000Y-115020000D03*
%TD*%
D22*
%TO.C,R11*%
X98200000Y-111025000D03*
X98200000Y-109375000D03*
%TD*%
D19*
%TO.C,R7*%
X95450000Y-97680000D03*
X95450000Y-98700000D03*
%TD*%
D16*
%TO.C,C6*%
X103200000Y-71280000D03*
X103200000Y-70320000D03*
%TD*%
D18*
%TO.C,C7*%
X101260000Y-80000000D03*
X102220000Y-80000000D03*
%TD*%
D23*
%TO.C,R6*%
X94350000Y-98710000D03*
X94350000Y-97690000D03*
%TD*%
%TO.C,R9*%
X95950000Y-119010000D03*
X95950000Y-117990000D03*
%TD*%
D24*
%TO.C,R3*%
X103300000Y-80000000D03*
X104320000Y-80000000D03*
%TD*%
D25*
%TO.C,J2*%
X104035000Y-74720000D03*
X104035000Y-75280000D03*
X105965000Y-74720000D03*
X105965000Y-75280000D03*
D26*
X104475000Y-74610000D03*
X104475000Y-75390000D03*
X104825000Y-74610000D03*
X104825000Y-75390000D03*
X105175000Y-74610000D03*
X105175000Y-75390000D03*
X105525000Y-74610000D03*
X105525000Y-75390000D03*
%TD*%
D23*
%TO.C,R12*%
X96550000Y-112070000D03*
X96550000Y-111050000D03*
%TD*%
D27*
%TO.C,U1*%
X96200000Y-72900000D03*
X96200000Y-74300000D03*
X96200000Y-75700000D03*
X96200000Y-77100000D03*
X97600000Y-72900000D03*
X97600000Y-74300000D03*
X97600000Y-75700000D03*
X97600000Y-77100000D03*
X99000000Y-72900000D03*
X99000000Y-74300000D03*
X99000000Y-75700000D03*
X99000000Y-77100000D03*
X100400000Y-72900000D03*
X100400000Y-74300000D03*
X100400000Y-75700000D03*
X100400000Y-77100000D03*
D28*
X94862500Y-72250000D03*
X94862500Y-72750000D03*
X94862500Y-73250000D03*
X94862500Y-73750000D03*
X94862500Y-74250000D03*
X94862500Y-74750000D03*
X94862500Y-75250000D03*
X94862500Y-75750000D03*
X94862500Y-76250000D03*
X94862500Y-76750000D03*
X94862500Y-77250000D03*
X94862500Y-77750000D03*
D29*
X95550000Y-78437500D03*
X96050000Y-78437500D03*
X96550000Y-78437500D03*
X97050000Y-78437500D03*
X97550000Y-78437500D03*
X98050000Y-78437500D03*
X98550000Y-78437500D03*
X99050000Y-78437500D03*
X99550000Y-78437500D03*
X100050000Y-78437500D03*
X100550000Y-78437500D03*
X101050000Y-78437500D03*
D28*
X101737500Y-77750000D03*
X101737500Y-77250000D03*
X101737500Y-76750000D03*
X101737500Y-76250000D03*
X101737500Y-75750000D03*
X101737500Y-75250000D03*
X101737500Y-74750000D03*
X101737500Y-74250000D03*
X101737500Y-73750000D03*
X101737500Y-73250000D03*
X101737500Y-72750000D03*
X101737500Y-72250000D03*
D29*
X101050000Y-71562500D03*
X100550000Y-71562500D03*
X100050000Y-71562500D03*
X99550000Y-71562500D03*
X99050000Y-71562500D03*
X98550000Y-71562500D03*
X98050000Y-71562500D03*
X97550000Y-71562500D03*
X97050000Y-71562500D03*
X96550000Y-71562500D03*
X96050000Y-71562500D03*
X95550000Y-71562500D03*
%TD*%
D15*
%TO.C,C16*%
X94500000Y-113020000D03*
X94500000Y-113980000D03*
%TD*%
D30*
%TO.C,Y3*%
X96100000Y-115750000D03*
X96100000Y-113250000D03*
%TD*%
D31*
%TO.C,U3*%
X102100000Y-98750000D03*
X101300000Y-98750000D03*
X100500000Y-98750000D03*
X99700000Y-98750000D03*
X98900000Y-98750000D03*
X98100000Y-98750000D03*
D32*
X98100000Y-99750000D03*
D31*
X98100000Y-100750000D03*
X98900000Y-100750000D03*
X99700000Y-100750000D03*
X100500000Y-100750000D03*
X101300000Y-100750000D03*
X102100000Y-100750000D03*
D32*
X102100000Y-99750000D03*
%TD*%
D24*
%TO.C,R2*%
X100980000Y-70000000D03*
X102000000Y-70000000D03*
%TD*%
D33*
%TO.C,L1*%
X101530000Y-111250000D03*
X102500000Y-111250000D03*
%TD*%
D34*
X107500000Y-115000000D02*
G75*
G02*
X92500000Y-115000000I-7500000J0D01*
G01*
X92500000Y-115000000D02*
G75*
G02*
X107500000Y-115000000I7500000J0D01*
G01*
X107500000Y-95000000D02*
G75*
G02*
X92500000Y-95000000I-7500000J0D01*
G01*
X92500000Y-95000000D02*
G75*
G02*
X107500000Y-95000000I7500000J0D01*
G01*
X107500000Y-75000000D02*
G75*
G02*
X92500000Y-75000000I-7500000J0D01*
G01*
X92500000Y-75000000D02*
G75*
G02*
X107500000Y-75000000I7500000J0D01*
G01*
M02*
