%TF.GenerationSoftware,KiCad,Pcbnew,9.0.0*%
%TF.CreationDate,2025-03-13T16:46:45-04:00*%
%TF.ProjectId,IngestibleCapsule-Board_larger_vias,496e6765-7374-4696-926c-654361707375,rev?*%
%TF.SameCoordinates,Original*%
%TF.FileFunction,Legend,Bot*%
%TF.FilePolarity,Positive*%
%FSLAX46Y46*%
G04 Gerber Fmt 4.6, Leading zero omitted, Abs format (unit mm)*
G04 Created by KiCad (PCBNEW 9.0.0) date 2025-03-13 16:46:45*
%MOMM*%
%LPD*%
G01*
G04 APERTURE LIST*
%ADD10C,0.100000*%
%ADD11C,0.150000*%
%ADD12C,0.254000*%
%ADD13C,0.200000*%
%ADD14C,0.152400*%
%ADD15C,0.120000*%
%ADD16C,0.508000*%
%TA.AperFunction,Profile*%
%ADD17C,0.050000*%
%TD*%
G04 APERTURE END LIST*
D10*
X98496115Y-68441466D02*
X97734211Y-68441466D01*
X98115163Y-68822419D02*
X98115163Y-68060514D01*
D11*
X106417857Y-116884580D02*
X106465476Y-116932200D01*
X106465476Y-116932200D02*
X106608333Y-116979819D01*
X106608333Y-116979819D02*
X106703571Y-116979819D01*
X106703571Y-116979819D02*
X106846428Y-116932200D01*
X106846428Y-116932200D02*
X106941666Y-116836961D01*
X106941666Y-116836961D02*
X106989285Y-116741723D01*
X106989285Y-116741723D02*
X107036904Y-116551247D01*
X107036904Y-116551247D02*
X107036904Y-116408390D01*
X107036904Y-116408390D02*
X106989285Y-116217914D01*
X106989285Y-116217914D02*
X106941666Y-116122676D01*
X106941666Y-116122676D02*
X106846428Y-116027438D01*
X106846428Y-116027438D02*
X106703571Y-115979819D01*
X106703571Y-115979819D02*
X106608333Y-115979819D01*
X106608333Y-115979819D02*
X106465476Y-116027438D01*
X106465476Y-116027438D02*
X106417857Y-116075057D01*
X106036904Y-116075057D02*
X105989285Y-116027438D01*
X105989285Y-116027438D02*
X105894047Y-115979819D01*
X105894047Y-115979819D02*
X105655952Y-115979819D01*
X105655952Y-115979819D02*
X105560714Y-116027438D01*
X105560714Y-116027438D02*
X105513095Y-116075057D01*
X105513095Y-116075057D02*
X105465476Y-116170295D01*
X105465476Y-116170295D02*
X105465476Y-116265533D01*
X105465476Y-116265533D02*
X105513095Y-116408390D01*
X105513095Y-116408390D02*
X106084523Y-116979819D01*
X106084523Y-116979819D02*
X105465476Y-116979819D01*
X104513095Y-116979819D02*
X105084523Y-116979819D01*
X104798809Y-116979819D02*
X104798809Y-115979819D01*
X104798809Y-115979819D02*
X104894047Y-116122676D01*
X104894047Y-116122676D02*
X104989285Y-116217914D01*
X104989285Y-116217914D02*
X105084523Y-116265533D01*
X94959580Y-116437142D02*
X95007200Y-116389523D01*
X95007200Y-116389523D02*
X95054819Y-116246666D01*
X95054819Y-116246666D02*
X95054819Y-116151428D01*
X95054819Y-116151428D02*
X95007200Y-116008571D01*
X95007200Y-116008571D02*
X94911961Y-115913333D01*
X94911961Y-115913333D02*
X94816723Y-115865714D01*
X94816723Y-115865714D02*
X94626247Y-115818095D01*
X94626247Y-115818095D02*
X94483390Y-115818095D01*
X94483390Y-115818095D02*
X94292914Y-115865714D01*
X94292914Y-115865714D02*
X94197676Y-115913333D01*
X94197676Y-115913333D02*
X94102438Y-116008571D01*
X94102438Y-116008571D02*
X94054819Y-116151428D01*
X94054819Y-116151428D02*
X94054819Y-116246666D01*
X94054819Y-116246666D02*
X94102438Y-116389523D01*
X94102438Y-116389523D02*
X94150057Y-116437142D01*
X95054819Y-117389523D02*
X95054819Y-116818095D01*
X95054819Y-117103809D02*
X94054819Y-117103809D01*
X94054819Y-117103809D02*
X94197676Y-117008571D01*
X94197676Y-117008571D02*
X94292914Y-116913333D01*
X94292914Y-116913333D02*
X94340533Y-116818095D01*
X94054819Y-118294285D02*
X94054819Y-117818095D01*
X94054819Y-117818095D02*
X94531009Y-117770476D01*
X94531009Y-117770476D02*
X94483390Y-117818095D01*
X94483390Y-117818095D02*
X94435771Y-117913333D01*
X94435771Y-117913333D02*
X94435771Y-118151428D01*
X94435771Y-118151428D02*
X94483390Y-118246666D01*
X94483390Y-118246666D02*
X94531009Y-118294285D01*
X94531009Y-118294285D02*
X94626247Y-118341904D01*
X94626247Y-118341904D02*
X94864342Y-118341904D01*
X94864342Y-118341904D02*
X94959580Y-118294285D01*
X94959580Y-118294285D02*
X95007200Y-118246666D01*
X95007200Y-118246666D02*
X95054819Y-118151428D01*
X95054819Y-118151428D02*
X95054819Y-117913333D01*
X95054819Y-117913333D02*
X95007200Y-117818095D01*
X95007200Y-117818095D02*
X94959580Y-117770476D01*
D10*
X94681228Y-78323809D02*
X95157419Y-78323809D01*
X94157419Y-77990476D02*
X94681228Y-78323809D01*
X94681228Y-78323809D02*
X94157419Y-78657142D01*
X95157419Y-79514285D02*
X95157419Y-78942857D01*
X95157419Y-79228571D02*
X94157419Y-79228571D01*
X94157419Y-79228571D02*
X94300276Y-79133333D01*
X94300276Y-79133333D02*
X94395514Y-79038095D01*
X94395514Y-79038095D02*
X94443133Y-78942857D01*
D11*
X101793333Y-76404819D02*
X101793333Y-77119104D01*
X101793333Y-77119104D02*
X101840952Y-77261961D01*
X101840952Y-77261961D02*
X101936190Y-77357200D01*
X101936190Y-77357200D02*
X102079047Y-77404819D01*
X102079047Y-77404819D02*
X102174285Y-77404819D01*
X100840952Y-76404819D02*
X101317142Y-76404819D01*
X101317142Y-76404819D02*
X101364761Y-76881009D01*
X101364761Y-76881009D02*
X101317142Y-76833390D01*
X101317142Y-76833390D02*
X101221904Y-76785771D01*
X101221904Y-76785771D02*
X100983809Y-76785771D01*
X100983809Y-76785771D02*
X100888571Y-76833390D01*
X100888571Y-76833390D02*
X100840952Y-76881009D01*
X100840952Y-76881009D02*
X100793333Y-76976247D01*
X100793333Y-76976247D02*
X100793333Y-77214342D01*
X100793333Y-77214342D02*
X100840952Y-77309580D01*
X100840952Y-77309580D02*
X100888571Y-77357200D01*
X100888571Y-77357200D02*
X100983809Y-77404819D01*
X100983809Y-77404819D02*
X101221904Y-77404819D01*
X101221904Y-77404819D02*
X101317142Y-77357200D01*
X101317142Y-77357200D02*
X101364761Y-77309580D01*
X105233333Y-70254819D02*
X105233333Y-70969104D01*
X105233333Y-70969104D02*
X105280952Y-71111961D01*
X105280952Y-71111961D02*
X105376190Y-71207200D01*
X105376190Y-71207200D02*
X105519047Y-71254819D01*
X105519047Y-71254819D02*
X105614285Y-71254819D01*
X104233333Y-71254819D02*
X104804761Y-71254819D01*
X104519047Y-71254819D02*
X104519047Y-70254819D01*
X104519047Y-70254819D02*
X104614285Y-70397676D01*
X104614285Y-70397676D02*
X104709523Y-70492914D01*
X104709523Y-70492914D02*
X104804761Y-70540533D01*
D12*
X104053332Y-111144318D02*
X104053332Y-112051461D01*
X104053332Y-112051461D02*
X104113809Y-112232889D01*
X104113809Y-112232889D02*
X104234761Y-112353842D01*
X104234761Y-112353842D02*
X104416190Y-112414318D01*
X104416190Y-112414318D02*
X104537142Y-112414318D01*
X102904285Y-111144318D02*
X103146190Y-111144318D01*
X103146190Y-111144318D02*
X103267142Y-111204794D01*
X103267142Y-111204794D02*
X103327618Y-111265270D01*
X103327618Y-111265270D02*
X103448571Y-111446699D01*
X103448571Y-111446699D02*
X103509047Y-111688603D01*
X103509047Y-111688603D02*
X103509047Y-112172413D01*
X103509047Y-112172413D02*
X103448571Y-112293365D01*
X103448571Y-112293365D02*
X103388094Y-112353842D01*
X103388094Y-112353842D02*
X103267142Y-112414318D01*
X103267142Y-112414318D02*
X103025237Y-112414318D01*
X103025237Y-112414318D02*
X102904285Y-112353842D01*
X102904285Y-112353842D02*
X102843809Y-112293365D01*
X102843809Y-112293365D02*
X102783332Y-112172413D01*
X102783332Y-112172413D02*
X102783332Y-111870032D01*
X102783332Y-111870032D02*
X102843809Y-111749080D01*
X102843809Y-111749080D02*
X102904285Y-111688603D01*
X102904285Y-111688603D02*
X103025237Y-111628127D01*
X103025237Y-111628127D02*
X103267142Y-111628127D01*
X103267142Y-111628127D02*
X103388094Y-111688603D01*
X103388094Y-111688603D02*
X103448571Y-111749080D01*
X103448571Y-111749080D02*
X103509047Y-111870032D01*
D11*
X102054819Y-74833333D02*
X101578628Y-74500000D01*
X102054819Y-74261905D02*
X101054819Y-74261905D01*
X101054819Y-74261905D02*
X101054819Y-74642857D01*
X101054819Y-74642857D02*
X101102438Y-74738095D01*
X101102438Y-74738095D02*
X101150057Y-74785714D01*
X101150057Y-74785714D02*
X101245295Y-74833333D01*
X101245295Y-74833333D02*
X101388152Y-74833333D01*
X101388152Y-74833333D02*
X101483390Y-74785714D01*
X101483390Y-74785714D02*
X101531009Y-74738095D01*
X101531009Y-74738095D02*
X101578628Y-74642857D01*
X101578628Y-74642857D02*
X101578628Y-74261905D01*
X101388152Y-75690476D02*
X102054819Y-75690476D01*
X101007200Y-75452381D02*
X101721485Y-75214286D01*
X101721485Y-75214286D02*
X101721485Y-75833333D01*
X96554502Y-80159580D02*
X96602121Y-80207200D01*
X96602121Y-80207200D02*
X96744978Y-80254819D01*
X96744978Y-80254819D02*
X96840216Y-80254819D01*
X96840216Y-80254819D02*
X96983073Y-80207200D01*
X96983073Y-80207200D02*
X97078311Y-80111961D01*
X97078311Y-80111961D02*
X97125930Y-80016723D01*
X97125930Y-80016723D02*
X97173549Y-79826247D01*
X97173549Y-79826247D02*
X97173549Y-79683390D01*
X97173549Y-79683390D02*
X97125930Y-79492914D01*
X97125930Y-79492914D02*
X97078311Y-79397676D01*
X97078311Y-79397676D02*
X96983073Y-79302438D01*
X96983073Y-79302438D02*
X96840216Y-79254819D01*
X96840216Y-79254819D02*
X96744978Y-79254819D01*
X96744978Y-79254819D02*
X96602121Y-79302438D01*
X96602121Y-79302438D02*
X96554502Y-79350057D01*
X96173549Y-79350057D02*
X96125930Y-79302438D01*
X96125930Y-79302438D02*
X96030692Y-79254819D01*
X96030692Y-79254819D02*
X95792597Y-79254819D01*
X95792597Y-79254819D02*
X95697359Y-79302438D01*
X95697359Y-79302438D02*
X95649740Y-79350057D01*
X95649740Y-79350057D02*
X95602121Y-79445295D01*
X95602121Y-79445295D02*
X95602121Y-79540533D01*
X95602121Y-79540533D02*
X95649740Y-79683390D01*
X95649740Y-79683390D02*
X96221168Y-80254819D01*
X96221168Y-80254819D02*
X95602121Y-80254819D01*
X102854819Y-119953333D02*
X102378628Y-119620000D01*
X102854819Y-119381905D02*
X101854819Y-119381905D01*
X101854819Y-119381905D02*
X101854819Y-119762857D01*
X101854819Y-119762857D02*
X101902438Y-119858095D01*
X101902438Y-119858095D02*
X101950057Y-119905714D01*
X101950057Y-119905714D02*
X102045295Y-119953333D01*
X102045295Y-119953333D02*
X102188152Y-119953333D01*
X102188152Y-119953333D02*
X102283390Y-119905714D01*
X102283390Y-119905714D02*
X102331009Y-119858095D01*
X102331009Y-119858095D02*
X102378628Y-119762857D01*
X102378628Y-119762857D02*
X102378628Y-119381905D01*
X102283390Y-120524762D02*
X102235771Y-120429524D01*
X102235771Y-120429524D02*
X102188152Y-120381905D01*
X102188152Y-120381905D02*
X102092914Y-120334286D01*
X102092914Y-120334286D02*
X102045295Y-120334286D01*
X102045295Y-120334286D02*
X101950057Y-120381905D01*
X101950057Y-120381905D02*
X101902438Y-120429524D01*
X101902438Y-120429524D02*
X101854819Y-120524762D01*
X101854819Y-120524762D02*
X101854819Y-120715238D01*
X101854819Y-120715238D02*
X101902438Y-120810476D01*
X101902438Y-120810476D02*
X101950057Y-120858095D01*
X101950057Y-120858095D02*
X102045295Y-120905714D01*
X102045295Y-120905714D02*
X102092914Y-120905714D01*
X102092914Y-120905714D02*
X102188152Y-120858095D01*
X102188152Y-120858095D02*
X102235771Y-120810476D01*
X102235771Y-120810476D02*
X102283390Y-120715238D01*
X102283390Y-120715238D02*
X102283390Y-120524762D01*
X102283390Y-120524762D02*
X102331009Y-120429524D01*
X102331009Y-120429524D02*
X102378628Y-120381905D01*
X102378628Y-120381905D02*
X102473866Y-120334286D01*
X102473866Y-120334286D02*
X102664342Y-120334286D01*
X102664342Y-120334286D02*
X102759580Y-120381905D01*
X102759580Y-120381905D02*
X102807200Y-120429524D01*
X102807200Y-120429524D02*
X102854819Y-120524762D01*
X102854819Y-120524762D02*
X102854819Y-120715238D01*
X102854819Y-120715238D02*
X102807200Y-120810476D01*
X102807200Y-120810476D02*
X102759580Y-120858095D01*
X102759580Y-120858095D02*
X102664342Y-120905714D01*
X102664342Y-120905714D02*
X102473866Y-120905714D01*
X102473866Y-120905714D02*
X102378628Y-120858095D01*
X102378628Y-120858095D02*
X102331009Y-120810476D01*
X102331009Y-120810476D02*
X102283390Y-120715238D01*
X103367857Y-69734580D02*
X103415476Y-69782200D01*
X103415476Y-69782200D02*
X103558333Y-69829819D01*
X103558333Y-69829819D02*
X103653571Y-69829819D01*
X103653571Y-69829819D02*
X103796428Y-69782200D01*
X103796428Y-69782200D02*
X103891666Y-69686961D01*
X103891666Y-69686961D02*
X103939285Y-69591723D01*
X103939285Y-69591723D02*
X103986904Y-69401247D01*
X103986904Y-69401247D02*
X103986904Y-69258390D01*
X103986904Y-69258390D02*
X103939285Y-69067914D01*
X103939285Y-69067914D02*
X103891666Y-68972676D01*
X103891666Y-68972676D02*
X103796428Y-68877438D01*
X103796428Y-68877438D02*
X103653571Y-68829819D01*
X103653571Y-68829819D02*
X103558333Y-68829819D01*
X103558333Y-68829819D02*
X103415476Y-68877438D01*
X103415476Y-68877438D02*
X103367857Y-68925057D01*
X102986904Y-68925057D02*
X102939285Y-68877438D01*
X102939285Y-68877438D02*
X102844047Y-68829819D01*
X102844047Y-68829819D02*
X102605952Y-68829819D01*
X102605952Y-68829819D02*
X102510714Y-68877438D01*
X102510714Y-68877438D02*
X102463095Y-68925057D01*
X102463095Y-68925057D02*
X102415476Y-69020295D01*
X102415476Y-69020295D02*
X102415476Y-69115533D01*
X102415476Y-69115533D02*
X102463095Y-69258390D01*
X102463095Y-69258390D02*
X103034523Y-69829819D01*
X103034523Y-69829819D02*
X102415476Y-69829819D01*
X101558333Y-69163152D02*
X101558333Y-69829819D01*
X101796428Y-68782200D02*
X102034523Y-69496485D01*
X102034523Y-69496485D02*
X101415476Y-69496485D01*
X98316666Y-77749580D02*
X98364285Y-77797200D01*
X98364285Y-77797200D02*
X98507142Y-77844819D01*
X98507142Y-77844819D02*
X98602380Y-77844819D01*
X98602380Y-77844819D02*
X98745237Y-77797200D01*
X98745237Y-77797200D02*
X98840475Y-77701961D01*
X98840475Y-77701961D02*
X98888094Y-77606723D01*
X98888094Y-77606723D02*
X98935713Y-77416247D01*
X98935713Y-77416247D02*
X98935713Y-77273390D01*
X98935713Y-77273390D02*
X98888094Y-77082914D01*
X98888094Y-77082914D02*
X98840475Y-76987676D01*
X98840475Y-76987676D02*
X98745237Y-76892438D01*
X98745237Y-76892438D02*
X98602380Y-76844819D01*
X98602380Y-76844819D02*
X98507142Y-76844819D01*
X98507142Y-76844819D02*
X98364285Y-76892438D01*
X98364285Y-76892438D02*
X98316666Y-76940057D01*
X97459523Y-77178152D02*
X97459523Y-77844819D01*
X97697618Y-76797200D02*
X97935713Y-77511485D01*
X97935713Y-77511485D02*
X97316666Y-77511485D01*
X102024819Y-72261905D02*
X101024819Y-72261905D01*
X101024819Y-72261905D02*
X101024819Y-72500000D01*
X101024819Y-72500000D02*
X101072438Y-72642857D01*
X101072438Y-72642857D02*
X101167676Y-72738095D01*
X101167676Y-72738095D02*
X101262914Y-72785714D01*
X101262914Y-72785714D02*
X101453390Y-72833333D01*
X101453390Y-72833333D02*
X101596247Y-72833333D01*
X101596247Y-72833333D02*
X101786723Y-72785714D01*
X101786723Y-72785714D02*
X101881961Y-72738095D01*
X101881961Y-72738095D02*
X101977200Y-72642857D01*
X101977200Y-72642857D02*
X102024819Y-72500000D01*
X102024819Y-72500000D02*
X102024819Y-72261905D01*
X102024819Y-73785714D02*
X102024819Y-73214286D01*
X102024819Y-73500000D02*
X101024819Y-73500000D01*
X101024819Y-73500000D02*
X101167676Y-73404762D01*
X101167676Y-73404762D02*
X101262914Y-73309524D01*
X101262914Y-73309524D02*
X101310533Y-73214286D01*
X93854819Y-74033333D02*
X93378628Y-73700000D01*
X93854819Y-73461905D02*
X92854819Y-73461905D01*
X92854819Y-73461905D02*
X92854819Y-73842857D01*
X92854819Y-73842857D02*
X92902438Y-73938095D01*
X92902438Y-73938095D02*
X92950057Y-73985714D01*
X92950057Y-73985714D02*
X93045295Y-74033333D01*
X93045295Y-74033333D02*
X93188152Y-74033333D01*
X93188152Y-74033333D02*
X93283390Y-73985714D01*
X93283390Y-73985714D02*
X93331009Y-73938095D01*
X93331009Y-73938095D02*
X93378628Y-73842857D01*
X93378628Y-73842857D02*
X93378628Y-73461905D01*
X93854819Y-74985714D02*
X93854819Y-74414286D01*
X93854819Y-74700000D02*
X92854819Y-74700000D01*
X92854819Y-74700000D02*
X92997676Y-74604762D01*
X92997676Y-74604762D02*
X93092914Y-74509524D01*
X93092914Y-74509524D02*
X93140533Y-74414286D01*
X93839580Y-114157142D02*
X93887200Y-114109523D01*
X93887200Y-114109523D02*
X93934819Y-113966666D01*
X93934819Y-113966666D02*
X93934819Y-113871428D01*
X93934819Y-113871428D02*
X93887200Y-113728571D01*
X93887200Y-113728571D02*
X93791961Y-113633333D01*
X93791961Y-113633333D02*
X93696723Y-113585714D01*
X93696723Y-113585714D02*
X93506247Y-113538095D01*
X93506247Y-113538095D02*
X93363390Y-113538095D01*
X93363390Y-113538095D02*
X93172914Y-113585714D01*
X93172914Y-113585714D02*
X93077676Y-113633333D01*
X93077676Y-113633333D02*
X92982438Y-113728571D01*
X92982438Y-113728571D02*
X92934819Y-113871428D01*
X92934819Y-113871428D02*
X92934819Y-113966666D01*
X92934819Y-113966666D02*
X92982438Y-114109523D01*
X92982438Y-114109523D02*
X93030057Y-114157142D01*
X93934819Y-115109523D02*
X93934819Y-114538095D01*
X93934819Y-114823809D02*
X92934819Y-114823809D01*
X92934819Y-114823809D02*
X93077676Y-114728571D01*
X93077676Y-114728571D02*
X93172914Y-114633333D01*
X93172914Y-114633333D02*
X93220533Y-114538095D01*
X93268152Y-115966666D02*
X93934819Y-115966666D01*
X92887200Y-115728571D02*
X93601485Y-115490476D01*
X93601485Y-115490476D02*
X93601485Y-116109523D01*
X106259404Y-113249819D02*
X106259404Y-114059342D01*
X106259404Y-114059342D02*
X106211785Y-114154580D01*
X106211785Y-114154580D02*
X106164166Y-114202200D01*
X106164166Y-114202200D02*
X106068928Y-114249819D01*
X106068928Y-114249819D02*
X105878452Y-114249819D01*
X105878452Y-114249819D02*
X105783214Y-114202200D01*
X105783214Y-114202200D02*
X105735595Y-114154580D01*
X105735595Y-114154580D02*
X105687976Y-114059342D01*
X105687976Y-114059342D02*
X105687976Y-113249819D01*
X104783214Y-113583152D02*
X104783214Y-114249819D01*
X105021309Y-113202200D02*
X105259404Y-113916485D01*
X105259404Y-113916485D02*
X104640357Y-113916485D01*
X104666666Y-97045180D02*
X104666666Y-96330895D01*
X104666666Y-96330895D02*
X104619047Y-96188038D01*
X104619047Y-96188038D02*
X104523809Y-96092800D01*
X104523809Y-96092800D02*
X104380952Y-96045180D01*
X104380952Y-96045180D02*
X104285714Y-96045180D01*
X105047619Y-97045180D02*
X105666666Y-97045180D01*
X105666666Y-97045180D02*
X105333333Y-96664228D01*
X105333333Y-96664228D02*
X105476190Y-96664228D01*
X105476190Y-96664228D02*
X105571428Y-96616609D01*
X105571428Y-96616609D02*
X105619047Y-96568990D01*
X105619047Y-96568990D02*
X105666666Y-96473752D01*
X105666666Y-96473752D02*
X105666666Y-96235657D01*
X105666666Y-96235657D02*
X105619047Y-96140419D01*
X105619047Y-96140419D02*
X105571428Y-96092800D01*
X105571428Y-96092800D02*
X105476190Y-96045180D01*
X105476190Y-96045180D02*
X105190476Y-96045180D01*
X105190476Y-96045180D02*
X105095238Y-96092800D01*
X105095238Y-96092800D02*
X105047619Y-96140419D01*
X96446666Y-70199580D02*
X96494285Y-70247200D01*
X96494285Y-70247200D02*
X96637142Y-70294819D01*
X96637142Y-70294819D02*
X96732380Y-70294819D01*
X96732380Y-70294819D02*
X96875237Y-70247200D01*
X96875237Y-70247200D02*
X96970475Y-70151961D01*
X96970475Y-70151961D02*
X97018094Y-70056723D01*
X97018094Y-70056723D02*
X97065713Y-69866247D01*
X97065713Y-69866247D02*
X97065713Y-69723390D01*
X97065713Y-69723390D02*
X97018094Y-69532914D01*
X97018094Y-69532914D02*
X96970475Y-69437676D01*
X96970475Y-69437676D02*
X96875237Y-69342438D01*
X96875237Y-69342438D02*
X96732380Y-69294819D01*
X96732380Y-69294819D02*
X96637142Y-69294819D01*
X96637142Y-69294819D02*
X96494285Y-69342438D01*
X96494285Y-69342438D02*
X96446666Y-69390057D01*
X95494285Y-70294819D02*
X96065713Y-70294819D01*
X95779999Y-70294819D02*
X95779999Y-69294819D01*
X95779999Y-69294819D02*
X95875237Y-69437676D01*
X95875237Y-69437676D02*
X95970475Y-69532914D01*
X95970475Y-69532914D02*
X96065713Y-69580533D01*
X98966666Y-70159580D02*
X99014285Y-70207200D01*
X99014285Y-70207200D02*
X99157142Y-70254819D01*
X99157142Y-70254819D02*
X99252380Y-70254819D01*
X99252380Y-70254819D02*
X99395237Y-70207200D01*
X99395237Y-70207200D02*
X99490475Y-70111961D01*
X99490475Y-70111961D02*
X99538094Y-70016723D01*
X99538094Y-70016723D02*
X99585713Y-69826247D01*
X99585713Y-69826247D02*
X99585713Y-69683390D01*
X99585713Y-69683390D02*
X99538094Y-69492914D01*
X99538094Y-69492914D02*
X99490475Y-69397676D01*
X99490475Y-69397676D02*
X99395237Y-69302438D01*
X99395237Y-69302438D02*
X99252380Y-69254819D01*
X99252380Y-69254819D02*
X99157142Y-69254819D01*
X99157142Y-69254819D02*
X99014285Y-69302438D01*
X99014285Y-69302438D02*
X98966666Y-69350057D01*
X98633332Y-69254819D02*
X98014285Y-69254819D01*
X98014285Y-69254819D02*
X98347618Y-69635771D01*
X98347618Y-69635771D02*
X98204761Y-69635771D01*
X98204761Y-69635771D02*
X98109523Y-69683390D01*
X98109523Y-69683390D02*
X98061904Y-69731009D01*
X98061904Y-69731009D02*
X98014285Y-69826247D01*
X98014285Y-69826247D02*
X98014285Y-70064342D01*
X98014285Y-70064342D02*
X98061904Y-70159580D01*
X98061904Y-70159580D02*
X98109523Y-70207200D01*
X98109523Y-70207200D02*
X98204761Y-70254819D01*
X98204761Y-70254819D02*
X98490475Y-70254819D01*
X98490475Y-70254819D02*
X98585713Y-70207200D01*
X98585713Y-70207200D02*
X98633332Y-70159580D01*
D10*
X100381228Y-70523809D02*
X100857419Y-70523809D01*
X99857419Y-70190476D02*
X100381228Y-70523809D01*
X100381228Y-70523809D02*
X99857419Y-70857142D01*
X99952657Y-71142857D02*
X99905038Y-71190476D01*
X99905038Y-71190476D02*
X99857419Y-71285714D01*
X99857419Y-71285714D02*
X99857419Y-71523809D01*
X99857419Y-71523809D02*
X99905038Y-71619047D01*
X99905038Y-71619047D02*
X99952657Y-71666666D01*
X99952657Y-71666666D02*
X100047895Y-71714285D01*
X100047895Y-71714285D02*
X100143133Y-71714285D01*
X100143133Y-71714285D02*
X100285990Y-71666666D01*
X100285990Y-71666666D02*
X100857419Y-71095238D01*
X100857419Y-71095238D02*
X100857419Y-71714285D01*
D13*
%TO.C,Y1*%
X93837753Y-77532597D02*
G75*
G02*
X93677753Y-77532597I-80000J0D01*
G01*
X93677753Y-77532597D02*
G75*
G02*
X93837753Y-77532597I80000J0D01*
G01*
D14*
%TO.C,J5*%
X98000004Y-78035001D02*
X98769959Y-78035001D01*
X98769959Y-81165000D02*
X98000004Y-81165000D01*
X101230041Y-78035001D02*
X101999996Y-78035001D01*
X101999996Y-81165000D02*
X101230041Y-81165000D01*
X102253996Y-78285000D02*
X103523996Y-77650000D01*
X103523996Y-77650000D02*
X103523996Y-78920000D01*
X103523996Y-78920000D02*
X102253996Y-78285000D01*
D15*
%TO.C,J1*%
X103195000Y-76240000D02*
X103195000Y-76875000D01*
X103195000Y-76875000D02*
X103830000Y-76875000D01*
D10*
%TO.C,J6*%
X98000000Y-109938000D02*
X98000000Y-110563000D01*
X98700000Y-109938000D02*
X98000000Y-109938000D01*
X100700000Y-112838000D02*
X99100000Y-112838000D01*
X101300000Y-109938000D02*
X102000000Y-109938000D01*
X102000000Y-109938000D02*
X102000000Y-110563000D01*
D15*
%TO.C,R4*%
X100020000Y-74946359D02*
X100020000Y-75253641D01*
X100780000Y-74946359D02*
X100780000Y-75253641D01*
%TO.C,C2*%
X96387836Y-78140000D02*
X96172164Y-78140000D01*
X96387836Y-78860000D02*
X96172164Y-78860000D01*
%TO.C,R8*%
X103217500Y-119966359D02*
X103217500Y-120273641D01*
X103977500Y-119966359D02*
X103977500Y-120273641D01*
%TO.C,C24*%
X99859420Y-68090000D02*
X100140580Y-68090000D01*
X99859420Y-69110000D02*
X100140580Y-69110000D01*
%TO.C,C4*%
X98512164Y-75940000D02*
X98727836Y-75940000D01*
X98512164Y-76660000D02*
X98727836Y-76660000D01*
D10*
%TO.C,D1*%
X100450000Y-74090000D02*
G75*
G02*
X100350000Y-74090000I-50000J0D01*
G01*
X100350000Y-74090000D02*
G75*
G02*
X100450000Y-74090000I50000J0D01*
G01*
D15*
%TO.C,R1*%
X93120000Y-75946359D02*
X93120000Y-76253641D01*
X93880000Y-75946359D02*
X93880000Y-76253641D01*
%TO.C,C14*%
X94237500Y-114607164D02*
X94237500Y-114822836D01*
X94957500Y-114607164D02*
X94957500Y-114822836D01*
%TO.C,U4*%
X97187500Y-113235000D02*
X97187500Y-113505000D01*
X97187500Y-118755000D02*
X97187500Y-118485000D01*
X99947500Y-113235000D02*
X97187500Y-113235000D01*
X99947500Y-113235000D02*
X102707500Y-113235000D01*
X99947500Y-118755000D02*
X97187500Y-118755000D01*
X99947500Y-118755000D02*
X102707500Y-118755000D01*
X102707500Y-113235000D02*
X102707500Y-113505000D01*
X102707500Y-118755000D02*
X102707500Y-118485000D01*
X103472500Y-113505000D02*
X103232500Y-113175000D01*
X103712500Y-113175000D01*
X103472500Y-113505000D01*
G36*
X103472500Y-113505000D02*
G01*
X103232500Y-113175000D01*
X103712500Y-113175000D01*
X103472500Y-113505000D01*
G37*
D16*
%TO.C,J3*%
X103124566Y-95955977D02*
G75*
G02*
X102989461Y-95217207I-4166J380977D01*
G01*
D15*
%TO.C,C1*%
X96387836Y-70640000D02*
X96172164Y-70640000D01*
X96387836Y-71360000D02*
X96172164Y-71360000D01*
%TO.C,C3*%
X98592164Y-70640000D02*
X98807836Y-70640000D01*
X98592164Y-71360000D02*
X98807836Y-71360000D01*
D13*
%TO.C,Y2*%
X97413228Y-75149871D02*
G75*
G02*
X97253228Y-75149871I-80000J0D01*
G01*
X97253228Y-75149871D02*
G75*
G02*
X97413228Y-75149871I80000J0D01*
G01*
%TD*%
D17*
X107500000Y-115000000D02*
G75*
G02*
X92500000Y-115000000I-7500000J0D01*
G01*
X92500000Y-115000000D02*
G75*
G02*
X107500000Y-115000000I7500000J0D01*
G01*
X107500000Y-95000000D02*
G75*
G02*
X92500000Y-95000000I-7500000J0D01*
G01*
X92500000Y-95000000D02*
G75*
G02*
X107500000Y-95000000I7500000J0D01*
G01*
X107500000Y-75000000D02*
G75*
G02*
X92500000Y-75000000I-7500000J0D01*
G01*
X92500000Y-75000000D02*
G75*
G02*
X107500000Y-75000000I7500000J0D01*
G01*
M02*
