M48
; DRILL file {KiCad 9.0.0} date 2025-03-13T15:54:09-0400
; FORMAT={-:-/ absolute / metric / decimal}
; #@! TF.CreationDate,2025-03-13T15:54:09-04:00
; #@! TF.GenerationSoftware,Kicad,Pcbnew,9.0.0
; #@! TF.FileFunction,Plated,1,2,PTH
FMAT,2
METRIC
; #@! TA.AperFunction,Plated,PTH,ViaDrill
T1C0.150
%
G90
G05
T1
X93.1Y-73.7
X93.312Y-76.085
X93.5Y-73.3
X94.0Y-74.25
X95.25Y-70.55
X97.231Y-80.919
X97.25Y-80.55
X97.3Y-70.35
X97.3Y-76.9
X97.4Y-69.2
X97.544Y-79.449
X97.55Y-70.925
X97.55Y-79.8
X97.55Y-80.15
X97.564Y-79.1
X98.6Y-81.0
X98.9Y-69.75
X99.05Y-79.125
X99.7Y-79.85
X100.05Y-79.125
X100.4Y-76.85
X100.55Y-70.85
X100.65Y-80.0
X101.45Y-71.15
X101.737Y-71.85
X102.0Y-69.35
X102.45Y-73.75
X102.75Y-79.3
X103.025Y-77.1
X103.15Y-73.4
M30
