%TF.GenerationSoftware,KiCad,Pcbnew,9.0.0*%
%TF.CreationDate,2025-03-13T15:54:17-04:00*%
%TF.ProjectId,IngestibleCapsule-Board,496e6765-7374-4696-926c-654361707375,rev?*%
%TF.SameCoordinates,Original*%
%TF.FileFunction,Soldermask,Bot*%
%TF.FilePolarity,Negative*%
%FSLAX46Y46*%
G04 Gerber Fmt 4.6, Leading zero omitted, Abs format (unit mm)*
G04 Created by KiCad (PCBNEW 9.0.0) date 2025-03-13 15:54:17*
%MOMM*%
%LPD*%
G01*
G04 APERTURE LIST*
G04 Aperture macros list*
%AMRoundRect*
0 Rectangle with rounded corners*
0 $1 Rounding radius*
0 $2 $3 $4 $5 $6 $7 $8 $9 X,Y pos of 4 corners*
0 Add a 4 corners polygon primitive as box body*
4,1,4,$2,$3,$4,$5,$6,$7,$8,$9,$2,$3,0*
0 Add four circle primitives for the rounded corners*
1,1,$1+$1,$2,$3*
1,1,$1+$1,$4,$5*
1,1,$1+$1,$6,$7*
1,1,$1+$1,$8,$9*
0 Add four rect primitives between the rounded corners*
20,1,$1+$1,$2,$3,$4,$5,0*
20,1,$1+$1,$4,$5,$6,$7,0*
20,1,$1+$1,$6,$7,$8,$9,0*
20,1,$1+$1,$8,$9,$2,$3,0*%
G04 Aperture macros list end*
%ADD10R,2.400000X1.900000*%
%ADD11R,0.220000X0.900000*%
%ADD12R,0.500000X0.850000*%
%ADD13C,0.990600*%
%ADD14C,0.787400*%
%ADD15RoundRect,0.135000X-0.185000X0.135000X-0.185000X-0.135000X0.185000X-0.135000X0.185000X0.135000X0*%
%ADD16RoundRect,0.140000X0.140000X0.170000X-0.140000X0.170000X-0.140000X-0.170000X0.140000X-0.170000X0*%
%ADD17RoundRect,0.225000X-0.225000X-0.250000X0.225000X-0.250000X0.225000X0.250000X-0.225000X0.250000X0*%
%ADD18RoundRect,0.140000X-0.140000X-0.170000X0.140000X-0.170000X0.140000X0.170000X-0.140000X0.170000X0*%
%ADD19RoundRect,0.147500X0.172500X-0.147500X0.172500X0.147500X-0.172500X0.147500X-0.172500X-0.147500X0*%
%ADD20R,1.800000X1.000000*%
G04 APERTURE END LIST*
D10*
%TO.C,Y1*%
X95800000Y-76800000D03*
X95800000Y-72700000D03*
%TD*%
D11*
%TO.C,J5*%
X100800001Y-78285001D03*
X100399999Y-78285001D03*
X100000000Y-78285001D03*
X99600001Y-78285001D03*
X99199999Y-78285001D03*
X100800001Y-80914999D03*
X100399999Y-80914999D03*
X100000000Y-80914999D03*
X99600001Y-80914999D03*
X99199999Y-80914999D03*
D12*
X101600000Y-80340000D03*
X98400003Y-80340000D03*
X101600000Y-78860000D03*
X98400003Y-78860000D03*
%TD*%
D13*
%TO.C,J1*%
X104465000Y-77510000D03*
X103449000Y-72430000D03*
X105481000Y-72430000D03*
D14*
X103830000Y-76240000D03*
X105100000Y-76240000D03*
X103830000Y-74970000D03*
X105100000Y-74970000D03*
X103830000Y-73700000D03*
X105100000Y-73700000D03*
%TD*%
D15*
%TO.C,R4*%
X100400000Y-74590000D03*
X100400000Y-75610000D03*
%TD*%
D16*
%TO.C,C2*%
X96760000Y-78500000D03*
X95800000Y-78500000D03*
%TD*%
D17*
%TO.C,C24*%
X99225000Y-68600000D03*
X100775000Y-68600000D03*
%TD*%
D18*
%TO.C,C4*%
X98140000Y-76300000D03*
X99100000Y-76300000D03*
%TD*%
D19*
%TO.C,D1*%
X100400000Y-73485000D03*
X100400000Y-72515000D03*
%TD*%
D15*
%TO.C,R1*%
X93500000Y-75590000D03*
X93500000Y-76610000D03*
%TD*%
D16*
%TO.C,C1*%
X96760000Y-71000000D03*
X95800000Y-71000000D03*
%TD*%
D18*
%TO.C,C3*%
X98220000Y-71000000D03*
X99180000Y-71000000D03*
%TD*%
D20*
%TO.C,Y2*%
X98671772Y-74850000D03*
X98671772Y-72350000D03*
%TD*%
M02*
