%TF.GenerationSoftware,KiCad,Pcbnew,9.0.0*%
%TF.CreationDate,2025-03-13T15:54:17-04:00*%
%TF.ProjectId,IngestibleCapsule-Board,496e6765-7374-4696-926c-654361707375,rev?*%
%TF.SameCoordinates,Original*%
%TF.FileFunction,Legend,Bot*%
%TF.FilePolarity,Positive*%
%FSLAX46Y46*%
G04 Gerber Fmt 4.6, Leading zero omitted, Abs format (unit mm)*
G04 Created by KiCad (PCBNEW 9.0.0) date 2025-03-13 15:54:17*
%MOMM*%
%LPD*%
G01*
G04 APERTURE LIST*
%ADD10C,0.100000*%
%ADD11C,0.150000*%
%ADD12C,0.200000*%
%ADD13C,0.152400*%
%ADD14C,0.120000*%
G04 APERTURE END LIST*
D10*
X98496115Y-68441466D02*
X97734211Y-68441466D01*
X98115163Y-68822419D02*
X98115163Y-68060514D01*
X94681228Y-78323809D02*
X95157419Y-78323809D01*
X94157419Y-77990476D02*
X94681228Y-78323809D01*
X94681228Y-78323809D02*
X94157419Y-78657142D01*
X95157419Y-79514285D02*
X95157419Y-78942857D01*
X95157419Y-79228571D02*
X94157419Y-79228571D01*
X94157419Y-79228571D02*
X94300276Y-79133333D01*
X94300276Y-79133333D02*
X94395514Y-79038095D01*
X94395514Y-79038095D02*
X94443133Y-78942857D01*
D11*
X100333333Y-73974819D02*
X100333333Y-74689104D01*
X100333333Y-74689104D02*
X100380952Y-74831961D01*
X100380952Y-74831961D02*
X100476190Y-74927200D01*
X100476190Y-74927200D02*
X100619047Y-74974819D01*
X100619047Y-74974819D02*
X100714285Y-74974819D01*
X99380952Y-73974819D02*
X99857142Y-73974819D01*
X99857142Y-73974819D02*
X99904761Y-74451009D01*
X99904761Y-74451009D02*
X99857142Y-74403390D01*
X99857142Y-74403390D02*
X99761904Y-74355771D01*
X99761904Y-74355771D02*
X99523809Y-74355771D01*
X99523809Y-74355771D02*
X99428571Y-74403390D01*
X99428571Y-74403390D02*
X99380952Y-74451009D01*
X99380952Y-74451009D02*
X99333333Y-74546247D01*
X99333333Y-74546247D02*
X99333333Y-74784342D01*
X99333333Y-74784342D02*
X99380952Y-74879580D01*
X99380952Y-74879580D02*
X99428571Y-74927200D01*
X99428571Y-74927200D02*
X99523809Y-74974819D01*
X99523809Y-74974819D02*
X99761904Y-74974819D01*
X99761904Y-74974819D02*
X99857142Y-74927200D01*
X99857142Y-74927200D02*
X99904761Y-74879580D01*
X105233333Y-70254819D02*
X105233333Y-70969104D01*
X105233333Y-70969104D02*
X105280952Y-71111961D01*
X105280952Y-71111961D02*
X105376190Y-71207200D01*
X105376190Y-71207200D02*
X105519047Y-71254819D01*
X105519047Y-71254819D02*
X105614285Y-71254819D01*
X104233333Y-71254819D02*
X104804761Y-71254819D01*
X104519047Y-71254819D02*
X104519047Y-70254819D01*
X104519047Y-70254819D02*
X104614285Y-70397676D01*
X104614285Y-70397676D02*
X104709523Y-70492914D01*
X104709523Y-70492914D02*
X104804761Y-70540533D01*
X102054819Y-74833333D02*
X101578628Y-74500000D01*
X102054819Y-74261905D02*
X101054819Y-74261905D01*
X101054819Y-74261905D02*
X101054819Y-74642857D01*
X101054819Y-74642857D02*
X101102438Y-74738095D01*
X101102438Y-74738095D02*
X101150057Y-74785714D01*
X101150057Y-74785714D02*
X101245295Y-74833333D01*
X101245295Y-74833333D02*
X101388152Y-74833333D01*
X101388152Y-74833333D02*
X101483390Y-74785714D01*
X101483390Y-74785714D02*
X101531009Y-74738095D01*
X101531009Y-74738095D02*
X101578628Y-74642857D01*
X101578628Y-74642857D02*
X101578628Y-74261905D01*
X101388152Y-75690476D02*
X102054819Y-75690476D01*
X101007200Y-75452381D02*
X101721485Y-75214286D01*
X101721485Y-75214286D02*
X101721485Y-75833333D01*
X96554502Y-80159580D02*
X96602121Y-80207200D01*
X96602121Y-80207200D02*
X96744978Y-80254819D01*
X96744978Y-80254819D02*
X96840216Y-80254819D01*
X96840216Y-80254819D02*
X96983073Y-80207200D01*
X96983073Y-80207200D02*
X97078311Y-80111961D01*
X97078311Y-80111961D02*
X97125930Y-80016723D01*
X97125930Y-80016723D02*
X97173549Y-79826247D01*
X97173549Y-79826247D02*
X97173549Y-79683390D01*
X97173549Y-79683390D02*
X97125930Y-79492914D01*
X97125930Y-79492914D02*
X97078311Y-79397676D01*
X97078311Y-79397676D02*
X96983073Y-79302438D01*
X96983073Y-79302438D02*
X96840216Y-79254819D01*
X96840216Y-79254819D02*
X96744978Y-79254819D01*
X96744978Y-79254819D02*
X96602121Y-79302438D01*
X96602121Y-79302438D02*
X96554502Y-79350057D01*
X96173549Y-79350057D02*
X96125930Y-79302438D01*
X96125930Y-79302438D02*
X96030692Y-79254819D01*
X96030692Y-79254819D02*
X95792597Y-79254819D01*
X95792597Y-79254819D02*
X95697359Y-79302438D01*
X95697359Y-79302438D02*
X95649740Y-79350057D01*
X95649740Y-79350057D02*
X95602121Y-79445295D01*
X95602121Y-79445295D02*
X95602121Y-79540533D01*
X95602121Y-79540533D02*
X95649740Y-79683390D01*
X95649740Y-79683390D02*
X96221168Y-80254819D01*
X96221168Y-80254819D02*
X95602121Y-80254819D01*
X103367857Y-69734580D02*
X103415476Y-69782200D01*
X103415476Y-69782200D02*
X103558333Y-69829819D01*
X103558333Y-69829819D02*
X103653571Y-69829819D01*
X103653571Y-69829819D02*
X103796428Y-69782200D01*
X103796428Y-69782200D02*
X103891666Y-69686961D01*
X103891666Y-69686961D02*
X103939285Y-69591723D01*
X103939285Y-69591723D02*
X103986904Y-69401247D01*
X103986904Y-69401247D02*
X103986904Y-69258390D01*
X103986904Y-69258390D02*
X103939285Y-69067914D01*
X103939285Y-69067914D02*
X103891666Y-68972676D01*
X103891666Y-68972676D02*
X103796428Y-68877438D01*
X103796428Y-68877438D02*
X103653571Y-68829819D01*
X103653571Y-68829819D02*
X103558333Y-68829819D01*
X103558333Y-68829819D02*
X103415476Y-68877438D01*
X103415476Y-68877438D02*
X103367857Y-68925057D01*
X102986904Y-68925057D02*
X102939285Y-68877438D01*
X102939285Y-68877438D02*
X102844047Y-68829819D01*
X102844047Y-68829819D02*
X102605952Y-68829819D01*
X102605952Y-68829819D02*
X102510714Y-68877438D01*
X102510714Y-68877438D02*
X102463095Y-68925057D01*
X102463095Y-68925057D02*
X102415476Y-69020295D01*
X102415476Y-69020295D02*
X102415476Y-69115533D01*
X102415476Y-69115533D02*
X102463095Y-69258390D01*
X102463095Y-69258390D02*
X103034523Y-69829819D01*
X103034523Y-69829819D02*
X102415476Y-69829819D01*
X101558333Y-69163152D02*
X101558333Y-69829819D01*
X101796428Y-68782200D02*
X102034523Y-69496485D01*
X102034523Y-69496485D02*
X101415476Y-69496485D01*
X98786666Y-77819580D02*
X98834285Y-77867200D01*
X98834285Y-77867200D02*
X98977142Y-77914819D01*
X98977142Y-77914819D02*
X99072380Y-77914819D01*
X99072380Y-77914819D02*
X99215237Y-77867200D01*
X99215237Y-77867200D02*
X99310475Y-77771961D01*
X99310475Y-77771961D02*
X99358094Y-77676723D01*
X99358094Y-77676723D02*
X99405713Y-77486247D01*
X99405713Y-77486247D02*
X99405713Y-77343390D01*
X99405713Y-77343390D02*
X99358094Y-77152914D01*
X99358094Y-77152914D02*
X99310475Y-77057676D01*
X99310475Y-77057676D02*
X99215237Y-76962438D01*
X99215237Y-76962438D02*
X99072380Y-76914819D01*
X99072380Y-76914819D02*
X98977142Y-76914819D01*
X98977142Y-76914819D02*
X98834285Y-76962438D01*
X98834285Y-76962438D02*
X98786666Y-77010057D01*
X97929523Y-77248152D02*
X97929523Y-77914819D01*
X98167618Y-76867200D02*
X98405713Y-77581485D01*
X98405713Y-77581485D02*
X97786666Y-77581485D01*
X102024819Y-72261905D02*
X101024819Y-72261905D01*
X101024819Y-72261905D02*
X101024819Y-72500000D01*
X101024819Y-72500000D02*
X101072438Y-72642857D01*
X101072438Y-72642857D02*
X101167676Y-72738095D01*
X101167676Y-72738095D02*
X101262914Y-72785714D01*
X101262914Y-72785714D02*
X101453390Y-72833333D01*
X101453390Y-72833333D02*
X101596247Y-72833333D01*
X101596247Y-72833333D02*
X101786723Y-72785714D01*
X101786723Y-72785714D02*
X101881961Y-72738095D01*
X101881961Y-72738095D02*
X101977200Y-72642857D01*
X101977200Y-72642857D02*
X102024819Y-72500000D01*
X102024819Y-72500000D02*
X102024819Y-72261905D01*
X102024819Y-73785714D02*
X102024819Y-73214286D01*
X102024819Y-73500000D02*
X101024819Y-73500000D01*
X101024819Y-73500000D02*
X101167676Y-73404762D01*
X101167676Y-73404762D02*
X101262914Y-73309524D01*
X101262914Y-73309524D02*
X101310533Y-73214286D01*
X93854819Y-74033333D02*
X93378628Y-73700000D01*
X93854819Y-73461905D02*
X92854819Y-73461905D01*
X92854819Y-73461905D02*
X92854819Y-73842857D01*
X92854819Y-73842857D02*
X92902438Y-73938095D01*
X92902438Y-73938095D02*
X92950057Y-73985714D01*
X92950057Y-73985714D02*
X93045295Y-74033333D01*
X93045295Y-74033333D02*
X93188152Y-74033333D01*
X93188152Y-74033333D02*
X93283390Y-73985714D01*
X93283390Y-73985714D02*
X93331009Y-73938095D01*
X93331009Y-73938095D02*
X93378628Y-73842857D01*
X93378628Y-73842857D02*
X93378628Y-73461905D01*
X93854819Y-74985714D02*
X93854819Y-74414286D01*
X93854819Y-74700000D02*
X92854819Y-74700000D01*
X92854819Y-74700000D02*
X92997676Y-74604762D01*
X92997676Y-74604762D02*
X93092914Y-74509524D01*
X93092914Y-74509524D02*
X93140533Y-74414286D01*
X96446666Y-70199580D02*
X96494285Y-70247200D01*
X96494285Y-70247200D02*
X96637142Y-70294819D01*
X96637142Y-70294819D02*
X96732380Y-70294819D01*
X96732380Y-70294819D02*
X96875237Y-70247200D01*
X96875237Y-70247200D02*
X96970475Y-70151961D01*
X96970475Y-70151961D02*
X97018094Y-70056723D01*
X97018094Y-70056723D02*
X97065713Y-69866247D01*
X97065713Y-69866247D02*
X97065713Y-69723390D01*
X97065713Y-69723390D02*
X97018094Y-69532914D01*
X97018094Y-69532914D02*
X96970475Y-69437676D01*
X96970475Y-69437676D02*
X96875237Y-69342438D01*
X96875237Y-69342438D02*
X96732380Y-69294819D01*
X96732380Y-69294819D02*
X96637142Y-69294819D01*
X96637142Y-69294819D02*
X96494285Y-69342438D01*
X96494285Y-69342438D02*
X96446666Y-69390057D01*
X95494285Y-70294819D02*
X96065713Y-70294819D01*
X95779999Y-70294819D02*
X95779999Y-69294819D01*
X95779999Y-69294819D02*
X95875237Y-69437676D01*
X95875237Y-69437676D02*
X95970475Y-69532914D01*
X95970475Y-69532914D02*
X96065713Y-69580533D01*
X98966666Y-70159580D02*
X99014285Y-70207200D01*
X99014285Y-70207200D02*
X99157142Y-70254819D01*
X99157142Y-70254819D02*
X99252380Y-70254819D01*
X99252380Y-70254819D02*
X99395237Y-70207200D01*
X99395237Y-70207200D02*
X99490475Y-70111961D01*
X99490475Y-70111961D02*
X99538094Y-70016723D01*
X99538094Y-70016723D02*
X99585713Y-69826247D01*
X99585713Y-69826247D02*
X99585713Y-69683390D01*
X99585713Y-69683390D02*
X99538094Y-69492914D01*
X99538094Y-69492914D02*
X99490475Y-69397676D01*
X99490475Y-69397676D02*
X99395237Y-69302438D01*
X99395237Y-69302438D02*
X99252380Y-69254819D01*
X99252380Y-69254819D02*
X99157142Y-69254819D01*
X99157142Y-69254819D02*
X99014285Y-69302438D01*
X99014285Y-69302438D02*
X98966666Y-69350057D01*
X98633332Y-69254819D02*
X98014285Y-69254819D01*
X98014285Y-69254819D02*
X98347618Y-69635771D01*
X98347618Y-69635771D02*
X98204761Y-69635771D01*
X98204761Y-69635771D02*
X98109523Y-69683390D01*
X98109523Y-69683390D02*
X98061904Y-69731009D01*
X98061904Y-69731009D02*
X98014285Y-69826247D01*
X98014285Y-69826247D02*
X98014285Y-70064342D01*
X98014285Y-70064342D02*
X98061904Y-70159580D01*
X98061904Y-70159580D02*
X98109523Y-70207200D01*
X98109523Y-70207200D02*
X98204761Y-70254819D01*
X98204761Y-70254819D02*
X98490475Y-70254819D01*
X98490475Y-70254819D02*
X98585713Y-70207200D01*
X98585713Y-70207200D02*
X98633332Y-70159580D01*
D10*
X100381228Y-70523809D02*
X100857419Y-70523809D01*
X99857419Y-70190476D02*
X100381228Y-70523809D01*
X100381228Y-70523809D02*
X99857419Y-70857142D01*
X99952657Y-71142857D02*
X99905038Y-71190476D01*
X99905038Y-71190476D02*
X99857419Y-71285714D01*
X99857419Y-71285714D02*
X99857419Y-71523809D01*
X99857419Y-71523809D02*
X99905038Y-71619047D01*
X99905038Y-71619047D02*
X99952657Y-71666666D01*
X99952657Y-71666666D02*
X100047895Y-71714285D01*
X100047895Y-71714285D02*
X100143133Y-71714285D01*
X100143133Y-71714285D02*
X100285990Y-71666666D01*
X100285990Y-71666666D02*
X100857419Y-71095238D01*
X100857419Y-71095238D02*
X100857419Y-71714285D01*
D12*
%TO.C,Y1*%
X93837753Y-77532597D02*
G75*
G02*
X93677753Y-77532597I-80000J0D01*
G01*
X93677753Y-77532597D02*
G75*
G02*
X93837753Y-77532597I80000J0D01*
G01*
D13*
%TO.C,J5*%
X98000004Y-78035001D02*
X98769959Y-78035001D01*
X98769959Y-81165000D02*
X98000004Y-81165000D01*
X101230041Y-78035001D02*
X101999996Y-78035001D01*
X101999996Y-81165000D02*
X101230041Y-81165000D01*
X102253996Y-78285000D02*
X103523996Y-77650000D01*
X103523996Y-77650000D02*
X103523996Y-78920000D01*
X103523996Y-78920000D02*
X102253996Y-78285000D01*
D14*
%TO.C,J1*%
X103195000Y-76240000D02*
X103195000Y-76875000D01*
X103195000Y-76875000D02*
X103830000Y-76875000D01*
%TO.C,R4*%
X100020000Y-74946359D02*
X100020000Y-75253641D01*
X100780000Y-74946359D02*
X100780000Y-75253641D01*
%TO.C,C2*%
X96387836Y-78140000D02*
X96172164Y-78140000D01*
X96387836Y-78860000D02*
X96172164Y-78860000D01*
%TO.C,C24*%
X99859420Y-68090000D02*
X100140580Y-68090000D01*
X99859420Y-69110000D02*
X100140580Y-69110000D01*
%TO.C,C4*%
X98512164Y-75940000D02*
X98727836Y-75940000D01*
X98512164Y-76660000D02*
X98727836Y-76660000D01*
D10*
%TO.C,D1*%
X100450000Y-74090000D02*
G75*
G02*
X100350000Y-74090000I-50000J0D01*
G01*
X100350000Y-74090000D02*
G75*
G02*
X100450000Y-74090000I50000J0D01*
G01*
D14*
%TO.C,R1*%
X93120000Y-75946359D02*
X93120000Y-76253641D01*
X93880000Y-75946359D02*
X93880000Y-76253641D01*
%TO.C,C1*%
X96387836Y-70640000D02*
X96172164Y-70640000D01*
X96387836Y-71360000D02*
X96172164Y-71360000D01*
%TO.C,C3*%
X98592164Y-70640000D02*
X98807836Y-70640000D01*
X98592164Y-71360000D02*
X98807836Y-71360000D01*
D12*
%TO.C,Y2*%
X97413228Y-75149871D02*
G75*
G02*
X97253228Y-75149871I-80000J0D01*
G01*
X97253228Y-75149871D02*
G75*
G02*
X97413228Y-75149871I80000J0D01*
G01*
%TD*%
M02*
