%TF.GenerationSoftware,KiCad,Pcbnew,9.0.0*%
%TF.CreationDate,2025-03-13T15:54:17-04:00*%
%TF.ProjectId,IngestibleCapsule-Board,496e6765-7374-4696-926c-654361707375,rev?*%
%TF.SameCoordinates,Original*%
%TF.FileFunction,Copper,L2,Bot*%
%TF.FilePolarity,Positive*%
%FSLAX46Y46*%
G04 Gerber Fmt 4.6, Leading zero omitted, Abs format (unit mm)*
G04 Created by KiCad (PCBNEW 9.0.0) date 2025-03-13 15:54:17*
%MOMM*%
%LPD*%
G01*
G04 APERTURE LIST*
G04 Aperture macros list*
%AMRoundRect*
0 Rectangle with rounded corners*
0 $1 Rounding radius*
0 $2 $3 $4 $5 $6 $7 $8 $9 X,Y pos of 4 corners*
0 Add a 4 corners polygon primitive as box body*
4,1,4,$2,$3,$4,$5,$6,$7,$8,$9,$2,$3,0*
0 Add four circle primitives for the rounded corners*
1,1,$1+$1,$2,$3*
1,1,$1+$1,$4,$5*
1,1,$1+$1,$6,$7*
1,1,$1+$1,$8,$9*
0 Add four rect primitives between the rounded corners*
20,1,$1+$1,$2,$3,$4,$5,0*
20,1,$1+$1,$4,$5,$6,$7,0*
20,1,$1+$1,$6,$7,$8,$9,0*
20,1,$1+$1,$8,$9,$2,$3,0*%
G04 Aperture macros list end*
%TA.AperFunction,SMDPad,CuDef*%
%ADD10R,2.400000X1.900000*%
%TD*%
%TA.AperFunction,SMDPad,CuDef*%
%ADD11R,0.220000X0.900000*%
%TD*%
%TA.AperFunction,SMDPad,CuDef*%
%ADD12R,0.500000X0.850000*%
%TD*%
%TA.AperFunction,ConnectorPad*%
%ADD13C,0.787400*%
%TD*%
%TA.AperFunction,SMDPad,CuDef*%
%ADD14RoundRect,0.135000X-0.185000X0.135000X-0.185000X-0.135000X0.185000X-0.135000X0.185000X0.135000X0*%
%TD*%
%TA.AperFunction,SMDPad,CuDef*%
%ADD15RoundRect,0.140000X0.140000X0.170000X-0.140000X0.170000X-0.140000X-0.170000X0.140000X-0.170000X0*%
%TD*%
%TA.AperFunction,SMDPad,CuDef*%
%ADD16RoundRect,0.225000X-0.225000X-0.250000X0.225000X-0.250000X0.225000X0.250000X-0.225000X0.250000X0*%
%TD*%
%TA.AperFunction,SMDPad,CuDef*%
%ADD17RoundRect,0.140000X-0.140000X-0.170000X0.140000X-0.170000X0.140000X0.170000X-0.140000X0.170000X0*%
%TD*%
%TA.AperFunction,SMDPad,CuDef*%
%ADD18RoundRect,0.147500X0.172500X-0.147500X0.172500X0.147500X-0.172500X0.147500X-0.172500X-0.147500X0*%
%TD*%
%TA.AperFunction,SMDPad,CuDef*%
%ADD19R,1.800000X1.000000*%
%TD*%
%TA.AperFunction,ViaPad*%
%ADD20C,0.250000*%
%TD*%
%TA.AperFunction,Conductor*%
%ADD21C,0.100000*%
%TD*%
G04 APERTURE END LIST*
D10*
%TO.P,Y1,1,1*%
%TO.N,Net-(C2-Pad2)*%
X95800000Y-76800000D03*
%TO.P,Y1,2,2*%
%TO.N,Net-(U1-PF0)*%
X95800000Y-72700000D03*
%TD*%
D11*
%TO.P,J5,1,1*%
%TO.N,GND*%
X100800001Y-78285001D03*
%TO.P,J5,2,2*%
%TO.N,/MCU_SPI_MISO*%
X100399999Y-78285001D03*
%TO.P,J5,3,3*%
%TO.N,/MCU_SPI_MOSI*%
X100000000Y-78285001D03*
%TO.P,J5,4,4*%
%TO.N,/MCU_MEM_CS*%
X99600001Y-78285001D03*
%TO.P,J5,5,5*%
%TO.N,+3.3V*%
X99199999Y-78285001D03*
%TO.P,J5,6,6*%
%TO.N,GND*%
X100800001Y-80914999D03*
%TO.P,J5,7,7*%
%TO.N,/MCU_RF_IRQ*%
X100399999Y-80914999D03*
%TO.P,J5,8,8*%
%TO.N,/MCU_RF_CS*%
X100000000Y-80914999D03*
%TO.P,J5,9,9*%
%TO.N,/MCU_SPI_SCK*%
X99600001Y-80914999D03*
%TO.P,J5,10,10*%
%TO.N,+3.3V*%
X99199999Y-80914999D03*
D12*
%TO.P,J5,P1*%
%TO.N,N/C*%
X101600000Y-80340000D03*
%TO.P,J5,P2*%
X98400003Y-80340000D03*
%TO.P,J5,P3*%
X101600000Y-78860000D03*
%TO.P,J5,P4*%
X98400003Y-78860000D03*
%TD*%
D13*
%TO.P,J1,1,VCC*%
%TO.N,+3.3V*%
X103830000Y-76240000D03*
%TO.P,J1,2,SWDIO*%
%TO.N,/Processor/SWDIO*%
X105100000Y-76240000D03*
%TO.P,J1,3,~{RESET}*%
%TO.N,/Processor/NRST*%
X103830000Y-74970000D03*
%TO.P,J1,4,SWCLK*%
%TO.N,/Processor/SWCLK*%
X105100000Y-74970000D03*
%TO.P,J1,5,GND*%
%TO.N,GND*%
X103830000Y-73700000D03*
%TO.P,J1,6,SWO*%
%TO.N,/Processor/SWO*%
X105100000Y-73700000D03*
%TD*%
D14*
%TO.P,R4,1*%
%TO.N,Net-(D1-K)*%
X100400000Y-74590000D03*
%TO.P,R4,2*%
%TO.N,GND*%
X100400000Y-75610000D03*
%TD*%
D15*
%TO.P,C2,1*%
%TO.N,GND*%
X96760000Y-78500000D03*
%TO.P,C2,2*%
%TO.N,Net-(C2-Pad2)*%
X95800000Y-78500000D03*
%TD*%
D16*
%TO.P,C24,1*%
%TO.N,+3.3V*%
X99225000Y-68600000D03*
%TO.P,C24,2*%
%TO.N,GND*%
X100775000Y-68600000D03*
%TD*%
D17*
%TO.P,C4,1*%
%TO.N,GND*%
X98140000Y-76300000D03*
%TO.P,C4,2*%
%TO.N,Net-(U1-PC15)*%
X99100000Y-76300000D03*
%TD*%
D18*
%TO.P,D1,1,K*%
%TO.N,Net-(D1-K)*%
X100400000Y-73485000D03*
%TO.P,D1,2,A*%
%TO.N,/Processor/LED_OUT*%
X100400000Y-72515000D03*
%TD*%
D14*
%TO.P,R1,1*%
%TO.N,Net-(C2-Pad2)*%
X93500000Y-75590000D03*
%TO.P,R1,2*%
%TO.N,Net-(U1-PF1)*%
X93500000Y-76610000D03*
%TD*%
D15*
%TO.P,C1,1*%
%TO.N,GND*%
X96760000Y-71000000D03*
%TO.P,C1,2*%
%TO.N,Net-(U1-PF0)*%
X95800000Y-71000000D03*
%TD*%
D17*
%TO.P,C3,1*%
%TO.N,GND*%
X98220000Y-71000000D03*
%TO.P,C3,2*%
%TO.N,Net-(U1-PC14)*%
X99180000Y-71000000D03*
%TD*%
D19*
%TO.P,Y2,1,1*%
%TO.N,Net-(U1-PC15)*%
X98671772Y-74850000D03*
%TO.P,Y2,2,2*%
%TO.N,Net-(U1-PC14)*%
X98671772Y-72350000D03*
%TD*%
D20*
%TO.N,Net-(U1-PF0)*%
X94000000Y-74250000D03*
%TO.N,GND*%
X100400000Y-76850000D03*
X99700000Y-79850000D03*
X100650000Y-80000000D03*
X97300000Y-70350000D03*
X103150000Y-73400000D03*
X100050000Y-79125000D03*
X102000000Y-69350000D03*
X98900000Y-69750000D03*
X102450000Y-73750000D03*
X97300000Y-76900000D03*
%TO.N,Net-(U1-PC14)*%
X93500000Y-73300000D03*
%TO.N,Net-(U1-PC15)*%
X93100000Y-73700000D03*
%TO.N,+3.3V*%
X97400000Y-69200000D03*
X98600000Y-81000000D03*
X95250000Y-70550000D03*
X103025000Y-77100000D03*
X99050000Y-79125000D03*
%TO.N,/Processor/NRST*%
X102750000Y-79300000D03*
%TO.N,/Processor/LED_OUT*%
X97550000Y-70925000D03*
%TO.N,/Processor/SWO*%
X100550000Y-70850000D03*
%TO.N,/Processor/SWDIO*%
X101737500Y-71850000D03*
%TO.N,/Processor/SWCLK*%
X101450000Y-71150000D03*
%TO.N,Net-(U1-PF1)*%
X93312500Y-76085000D03*
%TO.N,/MCU_SPI_MOSI*%
X97544408Y-79449447D03*
%TO.N,/MCU_MEM_CS*%
X97564136Y-79100000D03*
%TO.N,/MCU_SPI_MISO*%
X97550000Y-79800000D03*
%TO.N,/MCU_RF_IRQ*%
X97230545Y-80919455D03*
%TO.N,/MCU_RF_CS*%
X97250000Y-80550000D03*
%TO.N,/MCU_SPI_SCK*%
X97550000Y-80150003D03*
%TD*%
D21*
%TO.N,Net-(U1-PF0)*%
X94000000Y-74250000D02*
X95550000Y-72700000D01*
X95550000Y-72700000D02*
X95800000Y-72700000D01*
X95800000Y-72700000D02*
X95800000Y-71000000D01*
%TO.N,GND*%
X100050000Y-79125000D02*
X99750000Y-79425000D01*
X102450000Y-73750000D02*
X102500000Y-73700000D01*
X101250000Y-68600000D02*
X102000000Y-69350000D01*
X100800001Y-80150001D02*
X100650000Y-80000000D01*
X103830000Y-73700000D02*
X103450000Y-73700000D01*
X98140000Y-76300000D02*
X98140000Y-77120000D01*
X96960000Y-71200000D02*
X96760000Y-71000000D01*
X97300000Y-77960000D02*
X97300000Y-76900000D01*
X102000000Y-69350000D02*
X101575000Y-69775000D01*
X99750000Y-79800000D02*
X99700000Y-79850000D01*
X98925000Y-69775000D02*
X98900000Y-69750000D01*
X96760000Y-78500000D02*
X97300000Y-77960000D01*
X98220000Y-71000000D02*
X98020000Y-71200000D01*
X98020000Y-71200000D02*
X96960000Y-71200000D01*
X100775000Y-68600000D02*
X101250000Y-68600000D01*
X101575000Y-69775000D02*
X98925000Y-69775000D01*
X99750000Y-79425000D02*
X99750000Y-79800000D01*
X97900000Y-69750000D02*
X98900000Y-69750000D01*
X103450000Y-73700000D02*
X103150000Y-73400000D01*
X98140000Y-77120000D02*
X96760000Y-78500000D01*
X102500000Y-73700000D02*
X103830000Y-73700000D01*
X100400000Y-76850000D02*
X100400000Y-75610000D01*
X100800001Y-78285001D02*
X100800001Y-79849999D01*
X97300000Y-70350000D02*
X97900000Y-69750000D01*
X96760000Y-70890000D02*
X97300000Y-70350000D01*
X100800001Y-79849999D02*
X100650000Y-80000000D01*
X96760000Y-71000000D02*
X96760000Y-70890000D01*
X100800001Y-80914999D02*
X100800001Y-80150001D01*
%TO.N,Net-(C2-Pad2)*%
X94590000Y-75590000D02*
X95800000Y-76800000D01*
X93500000Y-75590000D02*
X94590000Y-75590000D01*
X95800000Y-76800000D02*
X95800000Y-78500000D01*
%TO.N,Net-(U1-PC14)*%
X93885677Y-74526000D02*
X96495772Y-74526000D01*
X98671772Y-72350000D02*
X98671772Y-71508228D01*
X93500000Y-73300000D02*
X93500000Y-74140323D01*
X93500000Y-74140323D02*
X93885677Y-74526000D01*
X96495772Y-74526000D02*
X98671772Y-72350000D01*
X98671772Y-71508228D02*
X99180000Y-71000000D01*
%TO.N,Net-(U1-PC15)*%
X93100000Y-74200000D02*
X93750000Y-74850000D01*
X99100000Y-75278228D02*
X98671772Y-74850000D01*
X93100000Y-73700000D02*
X93100000Y-74200000D01*
X99100000Y-76300000D02*
X99100000Y-75278228D01*
X93750000Y-74850000D02*
X98671772Y-74850000D01*
%TO.N,+3.3V*%
X99225000Y-68600000D02*
X98000000Y-68600000D01*
X99199999Y-78285001D02*
X99199999Y-78975001D01*
X99199999Y-78975001D02*
X99050000Y-79125000D01*
X99199999Y-80914999D02*
X98685001Y-80914999D01*
X95250000Y-70550000D02*
X96600000Y-69200000D01*
X103100000Y-77025000D02*
X103100000Y-76970000D01*
X98000000Y-68600000D02*
X97400000Y-69200000D01*
X103025000Y-77100000D02*
X103100000Y-77025000D01*
X96600000Y-69200000D02*
X97400000Y-69200000D01*
X98685001Y-80914999D02*
X98600000Y-81000000D01*
X103100000Y-76970000D02*
X103830000Y-76240000D01*
%TO.N,/Processor/NRST*%
X102750000Y-76050000D02*
X103830000Y-74970000D01*
X102750000Y-79300000D02*
X102750000Y-76050000D01*
%TO.N,/Processor/LED_OUT*%
X99444416Y-70539000D02*
X100400000Y-71494584D01*
X97550000Y-70800000D02*
X97811000Y-70539000D01*
X100400000Y-71494584D02*
X100400000Y-72515000D01*
X97811000Y-70539000D02*
X99444416Y-70539000D01*
X97550000Y-70925000D02*
X97550000Y-70800000D01*
%TO.N,Net-(D1-K)*%
X100400000Y-73485000D02*
X100400000Y-74590000D01*
%TO.N,/Processor/SWO*%
X103500000Y-70850000D02*
X100550000Y-70850000D01*
X105100000Y-73700000D02*
X105100000Y-72963006D01*
X104834700Y-72697706D02*
X104834700Y-72184700D01*
X104834700Y-72184700D02*
X103500000Y-70850000D01*
X105100000Y-72963006D02*
X104834700Y-72697706D01*
%TO.N,/Processor/SWDIO*%
X104055623Y-74425300D02*
X104555300Y-74924977D01*
X104555300Y-75695300D02*
X105100000Y-76240000D01*
X101737500Y-71850000D02*
X101737500Y-73537500D01*
X104555300Y-74924977D02*
X104555300Y-75695300D01*
X101737500Y-73537500D02*
X102625300Y-74425300D01*
X102625300Y-74425300D02*
X104055623Y-74425300D01*
%TO.N,/Processor/SWCLK*%
X103300000Y-71150000D02*
X101450000Y-71150000D01*
X105100000Y-74970000D02*
X104450000Y-74320000D01*
X104450000Y-74320000D02*
X104450000Y-72300000D01*
X104450000Y-72300000D02*
X103300000Y-71150000D01*
%TO.N,Net-(U1-PF1)*%
X93312500Y-76085000D02*
X93312500Y-76422500D01*
X93312500Y-76422500D02*
X93500000Y-76610000D01*
%TO.N,/MCU_SPI_MOSI*%
X99262500Y-79525000D02*
X97619961Y-79525000D01*
X97619961Y-79525000D02*
X97544408Y-79449447D01*
X100000000Y-78787500D02*
X99938500Y-78849000D01*
X99938500Y-78849000D02*
X99935677Y-78849000D01*
X99935677Y-78849000D02*
X99774000Y-79010677D01*
X100000000Y-78285001D02*
X100000000Y-78787500D01*
X99774000Y-79010677D02*
X99774000Y-79013500D01*
X99774000Y-79013500D02*
X99262500Y-79525000D01*
%TO.N,/MCU_MEM_CS*%
X98938999Y-77684001D02*
X99498001Y-77684001D01*
X99600001Y-77786001D02*
X99600001Y-78285001D01*
X98339000Y-78284000D02*
X98938999Y-77684001D01*
X97564136Y-78785864D02*
X98066000Y-78284000D01*
X99498001Y-77684001D02*
X99600001Y-77786001D01*
X98066000Y-78284000D02*
X98339000Y-78284000D01*
X97564136Y-79100000D02*
X97564136Y-78785864D01*
%TO.N,/MCU_SPI_MISO*%
X100399999Y-79540324D02*
X99814323Y-80126000D01*
X97624553Y-79725447D02*
X97550000Y-79800000D01*
X100399999Y-78285001D02*
X100399999Y-79540324D01*
X99326000Y-80126000D02*
X98925447Y-79725447D01*
X99814323Y-80126000D02*
X99326000Y-80126000D01*
X98925447Y-79725447D02*
X97624553Y-79725447D01*
%TO.N,/MCU_RF_IRQ*%
X100399999Y-80914999D02*
X100399999Y-81464999D01*
X98229089Y-81917999D02*
X97230545Y-80919455D01*
X99946999Y-81917999D02*
X98229089Y-81917999D01*
X100399999Y-81464999D02*
X99946999Y-81917999D01*
%TO.N,/MCU_RF_CS*%
X97250000Y-80550000D02*
X98416999Y-81716999D01*
X98416999Y-81716999D02*
X99632258Y-81716999D01*
X99632258Y-81716999D02*
X100000000Y-81349257D01*
X100000000Y-81349257D02*
X100000000Y-80914999D01*
%TO.N,/MCU_SPI_SCK*%
X99600001Y-80914999D02*
X99600001Y-81464999D01*
X97550000Y-80465003D02*
X97550000Y-80150003D01*
X98600996Y-81515999D02*
X97550000Y-80465003D01*
X99549001Y-81515999D02*
X98600996Y-81515999D01*
X99600001Y-81464999D02*
X99549001Y-81515999D01*
%TD*%
M02*
