%TF.GenerationSoftware,KiCad,Pcbnew,9.0.0*%
%TF.CreationDate,2025-03-13T16:47:56-04:00*%
%TF.ProjectId,IngestibleCapsule-Board_larger_vias,496e6765-7374-4696-926c-654361707375,rev?*%
%TF.SameCoordinates,Original*%
%TF.FileFunction,Soldermask,Top*%
%TF.FilePolarity,Negative*%
%FSLAX46Y46*%
G04 Gerber Fmt 4.6, Leading zero omitted, Abs format (unit mm)*
G04 Created by KiCad (PCBNEW 9.0.0) date 2025-03-13 16:47:56*
%MOMM*%
%LPD*%
G01*
G04 APERTURE LIST*
G04 Aperture macros list*
%AMRoundRect*
0 Rectangle with rounded corners*
0 $1 Rounding radius*
0 $2 $3 $4 $5 $6 $7 $8 $9 X,Y pos of 4 corners*
0 Add a 4 corners polygon primitive as box body*
4,1,4,$2,$3,$4,$5,$6,$7,$8,$9,$2,$3,0*
0 Add four circle primitives for the rounded corners*
1,1,$1+$1,$2,$3*
1,1,$1+$1,$4,$5*
1,1,$1+$1,$6,$7*
1,1,$1+$1,$8,$9*
0 Add four rect primitives between the rounded corners*
20,1,$1+$1,$2,$3,$4,$5,0*
20,1,$1+$1,$4,$5,$6,$7,0*
20,1,$1+$1,$6,$7,$8,$9,0*
20,1,$1+$1,$8,$9,$2,$3,0*%
G04 Aperture macros list end*
%ADD10RoundRect,0.140000X-0.140000X-0.170000X0.140000X-0.170000X0.140000X0.170000X-0.140000X0.170000X0*%
%ADD11RoundRect,0.225000X-0.225000X-0.250000X0.225000X-0.250000X0.225000X0.250000X-0.225000X0.250000X0*%
%ADD12RoundRect,0.140000X0.170000X-0.140000X0.170000X0.140000X-0.170000X0.140000X-0.170000X-0.140000X0*%
%ADD13RoundRect,0.135000X-0.135000X-0.185000X0.135000X-0.185000X0.135000X0.185000X-0.135000X0.185000X0*%
%ADD14R,0.380000X0.300000*%
%ADD15R,0.200000X0.520000*%
%ADD16RoundRect,0.062500X-0.375000X-0.062500X0.375000X-0.062500X0.375000X0.062500X-0.375000X0.062500X0*%
%ADD17RoundRect,0.062500X-0.062500X-0.375000X0.062500X-0.375000X0.062500X0.375000X-0.062500X0.375000X0*%
%ADD18R,5.600000X5.600000*%
%ADD19C,0.990600*%
%TA.AperFunction,Profile*%
%ADD20C,0.050000*%
%TD*%
G04 APERTURE END LIST*
D10*
%TO.C,C5*%
X95620000Y-70100000D03*
X96580000Y-70100000D03*
%TD*%
%TO.C,C9*%
X99140000Y-81280000D03*
X100100000Y-81280000D03*
%TD*%
D11*
%TO.C,C10*%
X98000000Y-69800000D03*
X99550000Y-69800000D03*
%TD*%
D10*
%TO.C,C8*%
X99150000Y-80230000D03*
X100110000Y-80230000D03*
%TD*%
%TO.C,C11*%
X103320000Y-78700000D03*
X104280000Y-78700000D03*
%TD*%
D12*
%TO.C,C6*%
X103200000Y-71280000D03*
X103200000Y-70320000D03*
%TD*%
D10*
%TO.C,C7*%
X101260000Y-80000000D03*
X102220000Y-80000000D03*
%TD*%
D13*
%TO.C,R3*%
X103300000Y-80000000D03*
X104320000Y-80000000D03*
%TD*%
D14*
%TO.C,J2*%
X104035000Y-74720000D03*
X104035000Y-75280000D03*
X105965000Y-74720000D03*
X105965000Y-75280000D03*
D15*
X104475000Y-74610000D03*
X104475000Y-75390000D03*
X104825000Y-74610000D03*
X104825000Y-75390000D03*
X105175000Y-74610000D03*
X105175000Y-75390000D03*
X105525000Y-74610000D03*
X105525000Y-75390000D03*
%TD*%
D16*
%TO.C,U1*%
X94862500Y-72250000D03*
X94862500Y-72750000D03*
X94862500Y-73250000D03*
X94862500Y-73750000D03*
X94862500Y-74250000D03*
X94862500Y-74750000D03*
X94862500Y-75250000D03*
X94862500Y-75750000D03*
X94862500Y-76250000D03*
X94862500Y-76750000D03*
X94862500Y-77250000D03*
X94862500Y-77750000D03*
D17*
X95550000Y-78437500D03*
X96050000Y-78437500D03*
X96550000Y-78437500D03*
X97050000Y-78437500D03*
X97550000Y-78437500D03*
X98050000Y-78437500D03*
X98550000Y-78437500D03*
X99050000Y-78437500D03*
X99550000Y-78437500D03*
X100050000Y-78437500D03*
X100550000Y-78437500D03*
X101050000Y-78437500D03*
D16*
X101737500Y-77750000D03*
X101737500Y-77250000D03*
X101737500Y-76750000D03*
X101737500Y-76250000D03*
X101737500Y-75750000D03*
X101737500Y-75250000D03*
X101737500Y-74750000D03*
X101737500Y-74250000D03*
X101737500Y-73750000D03*
X101737500Y-73250000D03*
X101737500Y-72750000D03*
X101737500Y-72250000D03*
D17*
X101050000Y-71562500D03*
X100550000Y-71562500D03*
X100050000Y-71562500D03*
X99550000Y-71562500D03*
X99050000Y-71562500D03*
X98550000Y-71562500D03*
X98050000Y-71562500D03*
X97550000Y-71562500D03*
X97050000Y-71562500D03*
X96550000Y-71562500D03*
X96050000Y-71562500D03*
X95550000Y-71562500D03*
D18*
X98300000Y-75000000D03*
%TD*%
D13*
%TO.C,R2*%
X100980000Y-70000000D03*
X102000000Y-70000000D03*
%TD*%
D19*
%TO.C,J1*%
X104465000Y-77510000D03*
X103449000Y-72430000D03*
X105481000Y-72430000D03*
%TD*%
D20*
X107500000Y-75000000D02*
G75*
G02*
X92500000Y-75000000I-7500000J0D01*
G01*
X92500000Y-75000000D02*
G75*
G02*
X107500000Y-75000000I7500000J0D01*
G01*
M02*
