M48
; DRILL file {KiCad 9.0.0} date 2025-03-13T16:47:54-0400
; FORMAT={-:-/ absolute / metric / decimal}
; #@! TF.CreationDate,2025-03-13T16:47:54-04:00
; #@! TF.GenerationSoftware,Kicad,Pcbnew,9.0.0
; #@! TF.FileFunction,Plated,1,2,PTH
FMAT,2
METRIC
; #@! TA.AperFunction,Plated,PTH,ViaDrill
T1C0.300
%
G90
G05
T1
X93.079Y-76.121
X93.125Y-73.76
X93.57Y-72.74
X94.0Y-74.1
X94.99Y-70.8
X96.833Y-80.387
X97.045Y-80.894
X97.05Y-69.62
X97.233Y-69.101
X97.313Y-79.435
X97.38Y-76.44
X97.414Y-81.311
X97.472Y-79.961
X97.825Y-80.399
X98.5Y-81.09
X99.0Y-79.14
X100.25Y-69.549
X100.4Y-76.83
X101.32Y-81.12
X101.336Y-70.595
X101.5Y-71.372
X101.89Y-71.76
X102.0Y-69.35
X102.417Y-71.977
X102.58Y-73.33
X102.89Y-79.28
X103.43Y-77.25
M30
