%TF.GenerationSoftware,KiCad,Pcbnew,9.0.0*%
%TF.CreationDate,2025-03-14T13:21:38-04:00*%
%TF.ProjectId,IngestibleCapsule-Antennae,496e6765-7374-4696-926c-654361707375,rev?*%
%TF.SameCoordinates,Original*%
%TF.FileFunction,Copper,L1,Top*%
%TF.FilePolarity,Positive*%
%FSLAX46Y46*%
G04 Gerber Fmt 4.6, Leading zero omitted, Abs format (unit mm)*
G04 Created by KiCad (PCBNEW 9.0.0) date 2025-03-14 13:21:38*
%MOMM*%
%LPD*%
G01*
G04 APERTURE LIST*
%TA.AperFunction,NonConductor*%
%ADD10C,0.000000*%
%TD*%
%TA.AperFunction,Conductor*%
%ADD11C,0.000000*%
%TD*%
%TA.AperFunction,SMDPad,CuDef*%
%ADD12R,0.600000X1.550000*%
%TD*%
%TA.AperFunction,SMDPad,CuDef*%
%ADD13R,1.200000X1.800000*%
%TD*%
%TA.AperFunction,Conductor*%
%ADD14C,0.200000*%
%TD*%
G04 APERTURE END LIST*
D10*
%TA.AperFunction,NonConductor*%
G36*
X36566740Y-39413290D02*
G01*
X36748850Y-39488730D01*
X36912680Y-39598200D01*
X37051880Y-39737390D01*
X37161350Y-39901220D01*
X37236790Y-40083340D01*
X37275140Y-40276380D01*
X37275140Y-40374930D01*
X37275140Y-55374900D01*
X37275140Y-55473460D01*
X37236790Y-55666500D01*
X37161350Y-55848610D01*
X37051880Y-56012440D01*
X36912680Y-56151640D01*
X36748850Y-56261110D01*
X36566740Y-56336550D01*
X36373700Y-56374900D01*
X36275140Y-56374900D01*
X34075250Y-56374900D01*
X33976700Y-56374900D01*
X33783400Y-56336550D01*
X33601540Y-56261110D01*
X33437710Y-56151640D01*
X33298260Y-56012440D01*
X33189040Y-55848610D01*
X33113610Y-55666500D01*
X33075000Y-55473460D01*
X33075250Y-55374900D01*
X33075250Y-40374930D01*
X33075000Y-40276380D01*
X33113610Y-40083340D01*
X33189040Y-39901220D01*
X33298260Y-39737390D01*
X33437710Y-39598200D01*
X33601540Y-39488730D01*
X33783400Y-39413290D01*
X33976700Y-39374940D01*
X34075250Y-39374940D01*
X36373700Y-39374940D01*
X36566740Y-39413290D01*
G37*
%TD.AperFunction*%
%TA.AperFunction,NonConductor*%
G36*
X66266700Y-39413290D02*
G01*
X66448820Y-39488730D01*
X66612650Y-39598200D01*
X66751840Y-39737390D01*
X66861320Y-39901220D01*
X66936750Y-40083340D01*
X66975110Y-40276380D01*
X66975110Y-40374930D01*
X66975110Y-55374900D01*
X66975110Y-55473460D01*
X66936750Y-55666500D01*
X66861320Y-55848610D01*
X66751840Y-56012440D01*
X66612650Y-56151640D01*
X66448820Y-56261110D01*
X66266700Y-56336550D01*
X66073660Y-56374900D01*
X65975110Y-56374900D01*
X63775220Y-56374900D01*
X63676660Y-56374900D01*
X63483370Y-56336550D01*
X63301510Y-56261110D01*
X63137680Y-56151640D01*
X62998480Y-56012440D01*
X62889010Y-55848610D01*
X62813570Y-55666750D01*
X62775220Y-55473460D01*
X62775220Y-55374900D01*
X62775220Y-40374930D01*
X62775220Y-40276380D01*
X62813570Y-40083340D01*
X62889010Y-39901220D01*
X62998480Y-39737390D01*
X63137680Y-39598200D01*
X63301510Y-39488730D01*
X63483370Y-39413290D01*
X63676660Y-39374940D01*
X63775220Y-39374940D01*
X65975110Y-39374940D01*
X66073660Y-39374940D01*
X66266700Y-39413290D01*
G37*
%TD.AperFunction*%
D11*
%TA.AperFunction,Conductor*%
%TO.N,/D_RFN*%
G36*
X58532040Y-40243360D02*
G01*
X59038770Y-40379000D01*
X59523150Y-40579660D01*
X59977300Y-40842040D01*
X60393100Y-41161060D01*
X60763940Y-41531900D01*
X61083220Y-41947960D01*
X61345340Y-42401850D01*
X61546000Y-42886490D01*
X61681640Y-43392960D01*
X61750220Y-43912650D01*
X61750220Y-44175030D01*
X61750220Y-50674890D01*
X61750220Y-50937020D01*
X61681640Y-51456950D01*
X61546000Y-51963430D01*
X61345340Y-52447810D01*
X61083220Y-52901960D01*
X60763940Y-53318010D01*
X60393100Y-53688850D01*
X59977300Y-54007880D01*
X59523150Y-54270000D01*
X59038520Y-54470660D01*
X58532040Y-54606550D01*
X58012360Y-54674880D01*
X51100000Y-54674880D01*
X51100000Y-55074930D01*
X50800030Y-55175010D01*
X50800030Y-58674870D01*
X50704520Y-58684270D01*
X50527990Y-58757420D01*
X50392610Y-58892800D01*
X50319460Y-59069330D01*
X50310060Y-59164840D01*
X50310060Y-59175000D01*
X50310060Y-59464810D01*
X50200080Y-59976370D01*
X50100000Y-59474970D01*
X50100000Y-59175000D01*
X50100000Y-56175000D01*
X50100000Y-55814320D01*
X50194240Y-55099570D01*
X50380930Y-54403100D01*
X50656770Y-53737110D01*
X51017200Y-53112780D01*
X51456110Y-52540770D01*
X51965890Y-52030990D01*
X52537890Y-51592080D01*
X53162230Y-51231660D01*
X53828470Y-50955560D01*
X54524940Y-50769120D01*
X55239690Y-50674890D01*
X58250100Y-50674890D01*
X58446190Y-50665240D01*
X58830740Y-50588780D01*
X59192950Y-50438670D01*
X59518830Y-50220990D01*
X59796200Y-49943620D01*
X60013880Y-49617740D01*
X60163990Y-49255540D01*
X60240440Y-48870980D01*
X60250100Y-48674890D01*
X60250100Y-43674900D01*
X60240440Y-43478810D01*
X60163990Y-43094260D01*
X60013880Y-42732050D01*
X59796200Y-42406170D01*
X59518830Y-42128800D01*
X59192950Y-41911130D01*
X58830740Y-41761010D01*
X58446190Y-41684560D01*
X58250100Y-41674910D01*
X41750010Y-41674910D01*
X41554170Y-41684560D01*
X41169620Y-41761010D01*
X40807410Y-41911130D01*
X40481280Y-42128800D01*
X40204160Y-42406170D01*
X39986230Y-42732050D01*
X39836370Y-43094260D01*
X39759660Y-43478810D01*
X39750010Y-43674900D01*
X39750010Y-48674890D01*
X39759660Y-48870980D01*
X39836370Y-49255540D01*
X39986230Y-49617740D01*
X40204160Y-49943620D01*
X40481280Y-50220990D01*
X40807410Y-50438670D01*
X41169620Y-50588780D01*
X41554170Y-50665240D01*
X41750010Y-50674890D01*
X44400240Y-50674890D01*
X44760670Y-50674890D01*
X45475420Y-50769120D01*
X46171890Y-50955560D01*
X46837880Y-51231660D01*
X47462210Y-51592080D01*
X48034220Y-52030990D01*
X48544250Y-52540770D01*
X48982910Y-53112780D01*
X49343590Y-53737110D01*
X49619430Y-54403100D01*
X49806120Y-55099570D01*
X49900100Y-55814320D01*
X49900100Y-56175000D01*
X49900100Y-59175000D01*
X49900100Y-59474970D01*
X49800030Y-59976370D01*
X49690050Y-59464810D01*
X49690050Y-59175000D01*
X49690050Y-59164840D01*
X49680650Y-59069330D01*
X49607500Y-58892800D01*
X49472370Y-58757420D01*
X49295840Y-58684270D01*
X49200080Y-58674870D01*
X49200080Y-55175010D01*
X48900110Y-55074930D01*
X48900110Y-54674880D01*
X42250130Y-54674880D01*
X41988000Y-54674880D01*
X41468070Y-54606550D01*
X40961590Y-54470660D01*
X40477210Y-54270000D01*
X40023060Y-54007880D01*
X39607010Y-53688850D01*
X39236420Y-53318010D01*
X38917140Y-52901960D01*
X38655020Y-52447810D01*
X38454360Y-51963430D01*
X38318470Y-51456950D01*
X38250140Y-50937020D01*
X38250140Y-50674890D01*
X38250140Y-44175030D01*
X38250140Y-43912650D01*
X38318470Y-43392960D01*
X38454360Y-42886490D01*
X38655020Y-42402110D01*
X38917140Y-41947960D01*
X39236420Y-41531900D01*
X39607010Y-41161060D01*
X40023060Y-40842040D01*
X40477210Y-40579660D01*
X40961590Y-40379000D01*
X41468070Y-40243360D01*
X41988000Y-40175040D01*
X57750230Y-40175040D01*
X58012360Y-40175040D01*
X58532040Y-40243360D01*
G37*
%TD.AperFunction*%
D10*
%TA.AperFunction,NonConductor*%
G36*
X55858540Y-44751860D02*
G01*
X56222530Y-44902480D01*
X56549930Y-45121430D01*
X56828570Y-45400070D01*
X57047520Y-45727480D01*
X57198390Y-46091460D01*
X57275100Y-46478050D01*
X57275100Y-46674900D01*
X57275100Y-47674890D01*
X57275100Y-47872000D01*
X57198390Y-48258330D01*
X57047520Y-48622310D01*
X56828570Y-48949720D01*
X56549930Y-49228360D01*
X56222530Y-49447310D01*
X55858540Y-49598180D01*
X55472210Y-49674890D01*
X55275110Y-49674890D01*
X44775000Y-49674890D01*
X44578150Y-49674890D01*
X44191820Y-49598180D01*
X43827830Y-49447310D01*
X43500170Y-49228360D01*
X43221540Y-48949720D01*
X43002840Y-48622310D01*
X42851970Y-48258330D01*
X42775000Y-47872000D01*
X42775000Y-47674890D01*
X42775000Y-46674900D01*
X42775000Y-46478050D01*
X42851970Y-46091460D01*
X43002840Y-45727480D01*
X43221540Y-45400070D01*
X43500170Y-45121430D01*
X43827830Y-44902480D01*
X44191820Y-44751860D01*
X44578150Y-44674900D01*
X44775000Y-44674900D01*
X55275110Y-44674900D01*
X55472210Y-44674900D01*
X55858540Y-44751860D01*
G37*
%TD.AperFunction*%
%TD*%
D12*
%TO.P,J1,1,Pin_1*%
%TO.N,/D_RFN*%
X49500000Y-60663000D03*
%TO.P,J1,2,Pin_2*%
X50500000Y-60663000D03*
D13*
%TO.P,J1,MP1*%
%TO.N,N/C*%
X48200000Y-63188000D03*
%TO.P,J1,MP2*%
X51800000Y-63188000D03*
%TD*%
D14*
%TO.N,/D_RFN*%
X49500000Y-60663000D02*
X49700000Y-60463000D01*
X49700000Y-60463000D02*
X49700000Y-59580000D01*
X50300000Y-60463000D02*
X50300000Y-59570000D01*
X50300000Y-59570000D02*
X50200000Y-59470000D01*
X50500000Y-60663000D02*
X50300000Y-60463000D01*
X49700000Y-59580000D02*
X49770000Y-59510000D01*
%TD*%
M02*
