%TF.GenerationSoftware,KiCad,Pcbnew,9.0.0*%
%TF.CreationDate,2025-03-13T16:48:28-04:00*%
%TF.ProjectId,IngestibleCapsule-Board_larger_vias,496e6765-7374-4696-926c-654361707375,rev?*%
%TF.SameCoordinates,Original*%
%TF.FileFunction,Copper,L2,Bot*%
%TF.FilePolarity,Positive*%
%FSLAX46Y46*%
G04 Gerber Fmt 4.6, Leading zero omitted, Abs format (unit mm)*
G04 Created by KiCad (PCBNEW 9.0.0) date 2025-03-13 16:48:28*
%MOMM*%
%LPD*%
G01*
G04 APERTURE LIST*
G04 Aperture macros list*
%AMRoundRect*
0 Rectangle with rounded corners*
0 $1 Rounding radius*
0 $2 $3 $4 $5 $6 $7 $8 $9 X,Y pos of 4 corners*
0 Add a 4 corners polygon primitive as box body*
4,1,4,$2,$3,$4,$5,$6,$7,$8,$9,$2,$3,0*
0 Add four circle primitives for the rounded corners*
1,1,$1+$1,$2,$3*
1,1,$1+$1,$4,$5*
1,1,$1+$1,$6,$7*
1,1,$1+$1,$8,$9*
0 Add four rect primitives between the rounded corners*
20,1,$1+$1,$2,$3,$4,$5,0*
20,1,$1+$1,$4,$5,$6,$7,0*
20,1,$1+$1,$6,$7,$8,$9,0*
20,1,$1+$1,$8,$9,$2,$3,0*%
G04 Aperture macros list end*
%TA.AperFunction,SMDPad,CuDef*%
%ADD10RoundRect,0.140000X-0.170000X0.140000X-0.170000X-0.140000X0.170000X-0.140000X0.170000X0.140000X0*%
%TD*%
%TA.AperFunction,SMDPad,CuDef*%
%ADD11R,0.600000X1.550000*%
%TD*%
%TA.AperFunction,SMDPad,CuDef*%
%ADD12R,1.200000X1.800000*%
%TD*%
%TA.AperFunction,SMDPad,CuDef*%
%ADD13RoundRect,0.162500X0.650000X0.162500X-0.650000X0.162500X-0.650000X-0.162500X0.650000X-0.162500X0*%
%TD*%
%TA.AperFunction,SMDPad,CuDef*%
%ADD14RoundRect,0.135000X-0.185000X0.135000X-0.185000X-0.135000X0.185000X-0.135000X0.185000X0.135000X0*%
%TD*%
%TA.AperFunction,ViaPad*%
%ADD15C,0.450000*%
%TD*%
%TA.AperFunction,Conductor*%
%ADD16C,0.100000*%
%TD*%
%TA.AperFunction,Conductor*%
%ADD17C,0.200000*%
%TD*%
%TA.AperFunction,Profile*%
%ADD18C,0.050000*%
%TD*%
G04 APERTURE END LIST*
D10*
%TO.P,C14,1*%
%TO.N,SPI_VDD*%
X94597500Y-114235000D03*
%TO.P,C14,2*%
%TO.N,SPI_GND*%
X94597500Y-115195000D03*
%TD*%
D11*
%TO.P,J6,1,Pin_1*%
%TO.N,/RF Transceiver/RFN*%
X100500000Y-109163000D03*
%TO.P,J6,2,Pin_2*%
%TO.N,/RF Transceiver/RFP*%
X99500000Y-109163000D03*
D12*
%TO.P,J6,MP1*%
%TO.N,N/C*%
X101800000Y-111688000D03*
%TO.P,J6,MP2*%
X98200000Y-111688000D03*
%TD*%
D13*
%TO.P,U4,1,~{CS}*%
%TO.N,/MEM_CS*%
X103535000Y-114090000D03*
%TO.P,U4,2,DO/IO_{1}*%
%TO.N,/SPI_MISO*%
X103535000Y-115360000D03*
%TO.P,U4,3,~{WP}/IO_{2}*%
%TO.N,SPI_VDD*%
X103535000Y-116630000D03*
%TO.P,U4,4,GND*%
%TO.N,SPI_GND*%
X103535000Y-117900000D03*
%TO.P,U4,5,DI/IO_{0}*%
%TO.N,/SPI_MOSI*%
X96360000Y-117900000D03*
%TO.P,U4,6,CLK*%
%TO.N,/SPI_SCK*%
X96360000Y-116630000D03*
%TO.P,U4,7,~{HOLD}/~{RESET}/IO_{3}*%
%TO.N,SPI_VDD*%
X96360000Y-115360000D03*
%TO.P,U4,8,VCC*%
X96360000Y-114090000D03*
%TD*%
D14*
%TO.P,R8,1*%
%TO.N,SPI_VDD*%
X103597500Y-119610000D03*
%TO.P,R8,2*%
%TO.N,/MEM_CS*%
X103597500Y-120630000D03*
%TD*%
D15*
%TO.N,/SPI_SCK*%
X99600000Y-120475000D03*
%TO.N,SPI_VDD*%
X104750000Y-113150000D03*
X97480000Y-115000000D03*
%TO.N,SPI_GND*%
X105000000Y-115610000D03*
%TO.N,SPI_VDD*%
X105840000Y-117880000D03*
%TO.N,SPI_GND*%
X93810000Y-114220000D03*
%TO.N,SPI_VDD*%
X96520000Y-119750000D03*
%TO.N,/MEM_CS*%
X99600000Y-118960000D03*
%TO.N,/SPI_MOSI*%
X98890000Y-119990000D03*
%TO.N,/SPI_SCK*%
X98250000Y-117390000D03*
%TO.N,/RF Transceiver/RFP*%
X99420000Y-110620000D03*
%TO.N,/SPI_MISO*%
X100600000Y-119180000D03*
%TO.N,/RF Transceiver/RFN*%
X100660000Y-110640000D03*
%TD*%
D16*
%TO.N,SPI_GND*%
X93810000Y-114407500D02*
X94597500Y-115195000D01*
X93810000Y-114220000D02*
X93810000Y-114407500D01*
D17*
%TO.N,/RF Transceiver/RFN*%
X100230000Y-109433000D02*
X100500000Y-109163000D01*
%TO.N,/RF Transceiver/RFP*%
X99420000Y-110620000D02*
X99420000Y-110610000D01*
X99420000Y-110610000D02*
X99790000Y-110240000D01*
X99790000Y-109453000D02*
X99500000Y-109163000D01*
D16*
%TO.N,SPI_GND*%
X104500000Y-116935000D02*
X103535000Y-117900000D01*
%TO.N,/SPI_SCK*%
X99600000Y-119530000D02*
X97860000Y-117790000D01*
X99600000Y-120475000D02*
X99600000Y-119530000D01*
X97860000Y-117790000D02*
X97860000Y-117780000D01*
X97860000Y-117780000D02*
X98250000Y-117390000D01*
X97860000Y-117790000D02*
X96700000Y-116630000D01*
%TO.N,/MEM_CS*%
X99610000Y-118950000D02*
X99610000Y-118015000D01*
%TO.N,/SPI_MISO*%
X100400000Y-118980000D02*
X100400000Y-118495000D01*
X100400000Y-118495000D02*
X103535000Y-115360000D01*
X100600000Y-119180000D02*
X100400000Y-118980000D01*
%TO.N,/MEM_CS*%
X99600000Y-118970000D02*
X101260000Y-120630000D01*
X99600000Y-118960000D02*
X99600000Y-118970000D01*
X101260000Y-120630000D02*
X103597500Y-120630000D01*
X99610000Y-118015000D02*
X103535000Y-114090000D01*
D17*
%TO.N,/RF Transceiver/RFP*%
X99790000Y-110240000D02*
X99790000Y-109453000D01*
D16*
%TO.N,SPI_VDD*%
X104462500Y-113437500D02*
X97012500Y-113437500D01*
%TO.N,SPI_GND*%
X104500000Y-116110000D02*
X104500000Y-116935000D01*
%TO.N,SPI_VDD*%
X95396500Y-116323500D02*
X96360000Y-115360000D01*
X95235000Y-114235000D02*
X96360000Y-115360000D01*
X102750642Y-118376000D02*
X102571500Y-118196858D01*
X96360000Y-114090000D02*
X94742500Y-114090000D01*
X96720000Y-115000000D02*
X97480000Y-115000000D01*
X104319358Y-118376000D02*
X102750642Y-118376000D01*
X105840000Y-117880000D02*
X105587500Y-118132500D01*
X105580358Y-117620358D02*
X105075000Y-117620358D01*
X105075000Y-118132500D02*
X103597500Y-119610000D01*
X94597500Y-114235000D02*
X95235000Y-114235000D01*
%TO.N,/SPI_SCK*%
X96700000Y-116630000D02*
X96360000Y-116630000D01*
%TO.N,/SPI_MOSI*%
X98900000Y-119980000D02*
X98900000Y-119125000D01*
%TO.N,SPI_VDD*%
X95396500Y-118196858D02*
X95396500Y-116323500D01*
%TO.N,/SPI_MOSI*%
X97675000Y-117900000D02*
X96360000Y-117900000D01*
X98900000Y-119125000D02*
X97675000Y-117900000D01*
%TO.N,SPI_VDD*%
X102571500Y-117593500D02*
X103535000Y-116630000D01*
%TO.N,SPI_GND*%
X105000000Y-115610000D02*
X104500000Y-116110000D01*
%TO.N,/SPI_MOSI*%
X98890000Y-119990000D02*
X98900000Y-119980000D01*
%TO.N,SPI_VDD*%
X95674642Y-118904642D02*
X95674642Y-118475000D01*
X102571500Y-118196858D02*
X102571500Y-117593500D01*
%TO.N,/MEM_CS*%
X99600000Y-118960000D02*
X99610000Y-118950000D01*
%TO.N,SPI_VDD*%
X97012500Y-113437500D02*
X96360000Y-114090000D01*
X105587500Y-118132500D02*
X105075000Y-118132500D01*
D17*
%TO.N,/RF Transceiver/RFN*%
X100230000Y-110210000D02*
X100230000Y-109433000D01*
X100660000Y-110640000D02*
X100230000Y-110210000D01*
D16*
%TO.N,SPI_VDD*%
X96520000Y-119750000D02*
X95674642Y-118904642D01*
X94742500Y-114090000D02*
X94597500Y-114235000D01*
X105840000Y-117880000D02*
X105580358Y-117620358D01*
X95674642Y-118475000D02*
X95396500Y-118196858D01*
X96360000Y-115360000D02*
X96720000Y-115000000D01*
X104750000Y-113150000D02*
X104462500Y-113437500D01*
X105075000Y-117620358D02*
X104319358Y-118376000D01*
%TD*%
D18*
X107500000Y-115000000D02*
G75*
G02*
X92500000Y-115000000I-7500000J0D01*
G01*
X92500000Y-115000000D02*
G75*
G02*
X107500000Y-115000000I7500000J0D01*
G01*
M02*
