%TF.GenerationSoftware,KiCad,Pcbnew,9.0.0*%
%TF.CreationDate,2025-03-13T16:48:28-04:00*%
%TF.ProjectId,IngestibleCapsule-Board_larger_vias,496e6765-7374-4696-926c-654361707375,rev?*%
%TF.SameCoordinates,Original*%
%TF.FileFunction,Legend,Bot*%
%TF.FilePolarity,Positive*%
%FSLAX46Y46*%
G04 Gerber Fmt 4.6, Leading zero omitted, Abs format (unit mm)*
G04 Created by KiCad (PCBNEW 9.0.0) date 2025-03-13 16:48:28*
%MOMM*%
%LPD*%
G01*
G04 APERTURE LIST*
%ADD10C,0.150000*%
%ADD11C,0.254000*%
%ADD12C,0.120000*%
%ADD13C,0.100000*%
%TA.AperFunction,Profile*%
%ADD14C,0.050000*%
%TD*%
G04 APERTURE END LIST*
D10*
X93839580Y-114157142D02*
X93887200Y-114109523D01*
X93887200Y-114109523D02*
X93934819Y-113966666D01*
X93934819Y-113966666D02*
X93934819Y-113871428D01*
X93934819Y-113871428D02*
X93887200Y-113728571D01*
X93887200Y-113728571D02*
X93791961Y-113633333D01*
X93791961Y-113633333D02*
X93696723Y-113585714D01*
X93696723Y-113585714D02*
X93506247Y-113538095D01*
X93506247Y-113538095D02*
X93363390Y-113538095D01*
X93363390Y-113538095D02*
X93172914Y-113585714D01*
X93172914Y-113585714D02*
X93077676Y-113633333D01*
X93077676Y-113633333D02*
X92982438Y-113728571D01*
X92982438Y-113728571D02*
X92934819Y-113871428D01*
X92934819Y-113871428D02*
X92934819Y-113966666D01*
X92934819Y-113966666D02*
X92982438Y-114109523D01*
X92982438Y-114109523D02*
X93030057Y-114157142D01*
X93934819Y-115109523D02*
X93934819Y-114538095D01*
X93934819Y-114823809D02*
X92934819Y-114823809D01*
X92934819Y-114823809D02*
X93077676Y-114728571D01*
X93077676Y-114728571D02*
X93172914Y-114633333D01*
X93172914Y-114633333D02*
X93220533Y-114538095D01*
X93268152Y-115966666D02*
X93934819Y-115966666D01*
X92887200Y-115728571D02*
X93601485Y-115490476D01*
X93601485Y-115490476D02*
X93601485Y-116109523D01*
D11*
X104053332Y-111144318D02*
X104053332Y-112051461D01*
X104053332Y-112051461D02*
X104113809Y-112232889D01*
X104113809Y-112232889D02*
X104234761Y-112353842D01*
X104234761Y-112353842D02*
X104416190Y-112414318D01*
X104416190Y-112414318D02*
X104537142Y-112414318D01*
X102904285Y-111144318D02*
X103146190Y-111144318D01*
X103146190Y-111144318D02*
X103267142Y-111204794D01*
X103267142Y-111204794D02*
X103327618Y-111265270D01*
X103327618Y-111265270D02*
X103448571Y-111446699D01*
X103448571Y-111446699D02*
X103509047Y-111688603D01*
X103509047Y-111688603D02*
X103509047Y-112172413D01*
X103509047Y-112172413D02*
X103448571Y-112293365D01*
X103448571Y-112293365D02*
X103388094Y-112353842D01*
X103388094Y-112353842D02*
X103267142Y-112414318D01*
X103267142Y-112414318D02*
X103025237Y-112414318D01*
X103025237Y-112414318D02*
X102904285Y-112353842D01*
X102904285Y-112353842D02*
X102843809Y-112293365D01*
X102843809Y-112293365D02*
X102783332Y-112172413D01*
X102783332Y-112172413D02*
X102783332Y-111870032D01*
X102783332Y-111870032D02*
X102843809Y-111749080D01*
X102843809Y-111749080D02*
X102904285Y-111688603D01*
X102904285Y-111688603D02*
X103025237Y-111628127D01*
X103025237Y-111628127D02*
X103267142Y-111628127D01*
X103267142Y-111628127D02*
X103388094Y-111688603D01*
X103388094Y-111688603D02*
X103448571Y-111749080D01*
X103448571Y-111749080D02*
X103509047Y-111870032D01*
D10*
X94959580Y-116437142D02*
X95007200Y-116389523D01*
X95007200Y-116389523D02*
X95054819Y-116246666D01*
X95054819Y-116246666D02*
X95054819Y-116151428D01*
X95054819Y-116151428D02*
X95007200Y-116008571D01*
X95007200Y-116008571D02*
X94911961Y-115913333D01*
X94911961Y-115913333D02*
X94816723Y-115865714D01*
X94816723Y-115865714D02*
X94626247Y-115818095D01*
X94626247Y-115818095D02*
X94483390Y-115818095D01*
X94483390Y-115818095D02*
X94292914Y-115865714D01*
X94292914Y-115865714D02*
X94197676Y-115913333D01*
X94197676Y-115913333D02*
X94102438Y-116008571D01*
X94102438Y-116008571D02*
X94054819Y-116151428D01*
X94054819Y-116151428D02*
X94054819Y-116246666D01*
X94054819Y-116246666D02*
X94102438Y-116389523D01*
X94102438Y-116389523D02*
X94150057Y-116437142D01*
X95054819Y-117389523D02*
X95054819Y-116818095D01*
X95054819Y-117103809D02*
X94054819Y-117103809D01*
X94054819Y-117103809D02*
X94197676Y-117008571D01*
X94197676Y-117008571D02*
X94292914Y-116913333D01*
X94292914Y-116913333D02*
X94340533Y-116818095D01*
X94054819Y-118294285D02*
X94054819Y-117818095D01*
X94054819Y-117818095D02*
X94531009Y-117770476D01*
X94531009Y-117770476D02*
X94483390Y-117818095D01*
X94483390Y-117818095D02*
X94435771Y-117913333D01*
X94435771Y-117913333D02*
X94435771Y-118151428D01*
X94435771Y-118151428D02*
X94483390Y-118246666D01*
X94483390Y-118246666D02*
X94531009Y-118294285D01*
X94531009Y-118294285D02*
X94626247Y-118341904D01*
X94626247Y-118341904D02*
X94864342Y-118341904D01*
X94864342Y-118341904D02*
X94959580Y-118294285D01*
X94959580Y-118294285D02*
X95007200Y-118246666D01*
X95007200Y-118246666D02*
X95054819Y-118151428D01*
X95054819Y-118151428D02*
X95054819Y-117913333D01*
X95054819Y-117913333D02*
X95007200Y-117818095D01*
X95007200Y-117818095D02*
X94959580Y-117770476D01*
X106417857Y-116884580D02*
X106465476Y-116932200D01*
X106465476Y-116932200D02*
X106608333Y-116979819D01*
X106608333Y-116979819D02*
X106703571Y-116979819D01*
X106703571Y-116979819D02*
X106846428Y-116932200D01*
X106846428Y-116932200D02*
X106941666Y-116836961D01*
X106941666Y-116836961D02*
X106989285Y-116741723D01*
X106989285Y-116741723D02*
X107036904Y-116551247D01*
X107036904Y-116551247D02*
X107036904Y-116408390D01*
X107036904Y-116408390D02*
X106989285Y-116217914D01*
X106989285Y-116217914D02*
X106941666Y-116122676D01*
X106941666Y-116122676D02*
X106846428Y-116027438D01*
X106846428Y-116027438D02*
X106703571Y-115979819D01*
X106703571Y-115979819D02*
X106608333Y-115979819D01*
X106608333Y-115979819D02*
X106465476Y-116027438D01*
X106465476Y-116027438D02*
X106417857Y-116075057D01*
X106036904Y-116075057D02*
X105989285Y-116027438D01*
X105989285Y-116027438D02*
X105894047Y-115979819D01*
X105894047Y-115979819D02*
X105655952Y-115979819D01*
X105655952Y-115979819D02*
X105560714Y-116027438D01*
X105560714Y-116027438D02*
X105513095Y-116075057D01*
X105513095Y-116075057D02*
X105465476Y-116170295D01*
X105465476Y-116170295D02*
X105465476Y-116265533D01*
X105465476Y-116265533D02*
X105513095Y-116408390D01*
X105513095Y-116408390D02*
X106084523Y-116979819D01*
X106084523Y-116979819D02*
X105465476Y-116979819D01*
X104513095Y-116979819D02*
X105084523Y-116979819D01*
X104798809Y-116979819D02*
X104798809Y-115979819D01*
X104798809Y-115979819D02*
X104894047Y-116122676D01*
X104894047Y-116122676D02*
X104989285Y-116217914D01*
X104989285Y-116217914D02*
X105084523Y-116265533D01*
X106259404Y-113249819D02*
X106259404Y-114059342D01*
X106259404Y-114059342D02*
X106211785Y-114154580D01*
X106211785Y-114154580D02*
X106164166Y-114202200D01*
X106164166Y-114202200D02*
X106068928Y-114249819D01*
X106068928Y-114249819D02*
X105878452Y-114249819D01*
X105878452Y-114249819D02*
X105783214Y-114202200D01*
X105783214Y-114202200D02*
X105735595Y-114154580D01*
X105735595Y-114154580D02*
X105687976Y-114059342D01*
X105687976Y-114059342D02*
X105687976Y-113249819D01*
X104783214Y-113583152D02*
X104783214Y-114249819D01*
X105021309Y-113202200D02*
X105259404Y-113916485D01*
X105259404Y-113916485D02*
X104640357Y-113916485D01*
X102854819Y-119953333D02*
X102378628Y-119620000D01*
X102854819Y-119381905D02*
X101854819Y-119381905D01*
X101854819Y-119381905D02*
X101854819Y-119762857D01*
X101854819Y-119762857D02*
X101902438Y-119858095D01*
X101902438Y-119858095D02*
X101950057Y-119905714D01*
X101950057Y-119905714D02*
X102045295Y-119953333D01*
X102045295Y-119953333D02*
X102188152Y-119953333D01*
X102188152Y-119953333D02*
X102283390Y-119905714D01*
X102283390Y-119905714D02*
X102331009Y-119858095D01*
X102331009Y-119858095D02*
X102378628Y-119762857D01*
X102378628Y-119762857D02*
X102378628Y-119381905D01*
X102283390Y-120524762D02*
X102235771Y-120429524D01*
X102235771Y-120429524D02*
X102188152Y-120381905D01*
X102188152Y-120381905D02*
X102092914Y-120334286D01*
X102092914Y-120334286D02*
X102045295Y-120334286D01*
X102045295Y-120334286D02*
X101950057Y-120381905D01*
X101950057Y-120381905D02*
X101902438Y-120429524D01*
X101902438Y-120429524D02*
X101854819Y-120524762D01*
X101854819Y-120524762D02*
X101854819Y-120715238D01*
X101854819Y-120715238D02*
X101902438Y-120810476D01*
X101902438Y-120810476D02*
X101950057Y-120858095D01*
X101950057Y-120858095D02*
X102045295Y-120905714D01*
X102045295Y-120905714D02*
X102092914Y-120905714D01*
X102092914Y-120905714D02*
X102188152Y-120858095D01*
X102188152Y-120858095D02*
X102235771Y-120810476D01*
X102235771Y-120810476D02*
X102283390Y-120715238D01*
X102283390Y-120715238D02*
X102283390Y-120524762D01*
X102283390Y-120524762D02*
X102331009Y-120429524D01*
X102331009Y-120429524D02*
X102378628Y-120381905D01*
X102378628Y-120381905D02*
X102473866Y-120334286D01*
X102473866Y-120334286D02*
X102664342Y-120334286D01*
X102664342Y-120334286D02*
X102759580Y-120381905D01*
X102759580Y-120381905D02*
X102807200Y-120429524D01*
X102807200Y-120429524D02*
X102854819Y-120524762D01*
X102854819Y-120524762D02*
X102854819Y-120715238D01*
X102854819Y-120715238D02*
X102807200Y-120810476D01*
X102807200Y-120810476D02*
X102759580Y-120858095D01*
X102759580Y-120858095D02*
X102664342Y-120905714D01*
X102664342Y-120905714D02*
X102473866Y-120905714D01*
X102473866Y-120905714D02*
X102378628Y-120858095D01*
X102378628Y-120858095D02*
X102331009Y-120810476D01*
X102331009Y-120810476D02*
X102283390Y-120715238D01*
D12*
%TO.C,C14*%
X94237500Y-114607164D02*
X94237500Y-114822836D01*
X94957500Y-114607164D02*
X94957500Y-114822836D01*
D13*
%TO.C,J6*%
X98000000Y-109938000D02*
X98000000Y-110563000D01*
X98700000Y-109938000D02*
X98000000Y-109938000D01*
X100700000Y-112838000D02*
X99100000Y-112838000D01*
X101300000Y-109938000D02*
X102000000Y-109938000D01*
X102000000Y-109938000D02*
X102000000Y-110563000D01*
D12*
%TO.C,U4*%
X97187500Y-113235000D02*
X97187500Y-113505000D01*
X97187500Y-118755000D02*
X97187500Y-118485000D01*
X99947500Y-113235000D02*
X97187500Y-113235000D01*
X99947500Y-113235000D02*
X102707500Y-113235000D01*
X99947500Y-118755000D02*
X97187500Y-118755000D01*
X99947500Y-118755000D02*
X102707500Y-118755000D01*
X102707500Y-113235000D02*
X102707500Y-113505000D01*
X102707500Y-118755000D02*
X102707500Y-118485000D01*
X103472500Y-113505000D02*
X103232500Y-113175000D01*
X103712500Y-113175000D01*
X103472500Y-113505000D01*
G36*
X103472500Y-113505000D02*
G01*
X103232500Y-113175000D01*
X103712500Y-113175000D01*
X103472500Y-113505000D01*
G37*
%TO.C,R8*%
X103217500Y-119966359D02*
X103217500Y-120273641D01*
X103977500Y-119966359D02*
X103977500Y-120273641D01*
%TD*%
D14*
X107500000Y-115000000D02*
G75*
G02*
X92500000Y-115000000I-7500000J0D01*
G01*
X92500000Y-115000000D02*
G75*
G02*
X107500000Y-115000000I7500000J0D01*
G01*
M02*
